G75*
%MOIN*%
%OFA0B0*%
%FSLAX25Y25*%
%IPPOS*%
%LPD*%
%AMOC8*
5,1,8,0,0,1.08239X$1,22.5*
%
%ADD10C,0.00600*%
%ADD11C,0.00200*%
%ADD12R,0.69000X0.10000*%
%ADD13R,0.70000X0.10000*%
%ADD14R,0.10000X0.70000*%
%ADD15R,0.10000X0.60000*%
%ADD16R,0.10000X0.23000*%
%ADD17C,0.00400*%
%ADD18C,0.00500*%
%ADD19C,0.00800*%
%ADD20C,0.00100*%
%ADD21C,0.00300*%
D10*
X0292200Y0119800D02*
X0292200Y0124200D01*
X0292202Y0124283D01*
X0292208Y0124366D01*
X0292217Y0124449D01*
X0292231Y0124531D01*
X0292248Y0124612D01*
X0292269Y0124693D01*
X0292293Y0124772D01*
X0292322Y0124850D01*
X0292353Y0124927D01*
X0292389Y0125002D01*
X0292427Y0125076D01*
X0292470Y0125148D01*
X0292515Y0125217D01*
X0292564Y0125285D01*
X0292615Y0125350D01*
X0292670Y0125413D01*
X0292727Y0125473D01*
X0292787Y0125530D01*
X0292850Y0125585D01*
X0292915Y0125636D01*
X0292983Y0125685D01*
X0293052Y0125730D01*
X0293124Y0125773D01*
X0293198Y0125811D01*
X0293273Y0125847D01*
X0293350Y0125878D01*
X0293428Y0125907D01*
X0293507Y0125931D01*
X0293588Y0125952D01*
X0293669Y0125969D01*
X0293751Y0125983D01*
X0293834Y0125992D01*
X0293917Y0125998D01*
X0294000Y0126000D01*
X0304000Y0126000D01*
X0304083Y0125998D01*
X0304166Y0125992D01*
X0304249Y0125983D01*
X0304331Y0125969D01*
X0304412Y0125952D01*
X0304493Y0125931D01*
X0304572Y0125907D01*
X0304650Y0125878D01*
X0304727Y0125847D01*
X0304802Y0125811D01*
X0304876Y0125773D01*
X0304948Y0125730D01*
X0305017Y0125685D01*
X0305085Y0125636D01*
X0305150Y0125585D01*
X0305213Y0125530D01*
X0305273Y0125473D01*
X0305330Y0125413D01*
X0305385Y0125350D01*
X0305436Y0125285D01*
X0305485Y0125217D01*
X0305530Y0125148D01*
X0305573Y0125076D01*
X0305611Y0125002D01*
X0305647Y0124927D01*
X0305678Y0124850D01*
X0305707Y0124772D01*
X0305731Y0124693D01*
X0305752Y0124612D01*
X0305769Y0124531D01*
X0305783Y0124449D01*
X0305792Y0124366D01*
X0305798Y0124283D01*
X0305800Y0124200D01*
X0305800Y0119800D01*
X0305798Y0119717D01*
X0305792Y0119634D01*
X0305783Y0119551D01*
X0305769Y0119469D01*
X0305752Y0119388D01*
X0305731Y0119307D01*
X0305707Y0119228D01*
X0305678Y0119150D01*
X0305647Y0119073D01*
X0305611Y0118998D01*
X0305573Y0118924D01*
X0305530Y0118852D01*
X0305485Y0118783D01*
X0305436Y0118715D01*
X0305385Y0118650D01*
X0305330Y0118587D01*
X0305273Y0118527D01*
X0305213Y0118470D01*
X0305150Y0118415D01*
X0305085Y0118364D01*
X0305017Y0118315D01*
X0304948Y0118270D01*
X0304876Y0118227D01*
X0304802Y0118189D01*
X0304727Y0118153D01*
X0304650Y0118122D01*
X0304572Y0118093D01*
X0304493Y0118069D01*
X0304412Y0118048D01*
X0304331Y0118031D01*
X0304249Y0118017D01*
X0304166Y0118008D01*
X0304083Y0118002D01*
X0304000Y0118000D01*
X0294000Y0118000D01*
X0293917Y0118002D01*
X0293834Y0118008D01*
X0293751Y0118017D01*
X0293669Y0118031D01*
X0293588Y0118048D01*
X0293507Y0118069D01*
X0293428Y0118093D01*
X0293350Y0118122D01*
X0293273Y0118153D01*
X0293198Y0118189D01*
X0293124Y0118227D01*
X0293052Y0118270D01*
X0292983Y0118315D01*
X0292915Y0118364D01*
X0292850Y0118415D01*
X0292787Y0118470D01*
X0292727Y0118527D01*
X0292670Y0118587D01*
X0292615Y0118650D01*
X0292564Y0118715D01*
X0292515Y0118783D01*
X0292470Y0118852D01*
X0292427Y0118924D01*
X0292389Y0118998D01*
X0292353Y0119073D01*
X0292322Y0119150D01*
X0292293Y0119228D01*
X0292269Y0119307D01*
X0292248Y0119388D01*
X0292231Y0119469D01*
X0292217Y0119551D01*
X0292208Y0119634D01*
X0292202Y0119717D01*
X0292200Y0119800D01*
X0294000Y0134000D02*
X0304000Y0134000D01*
X0304083Y0134002D01*
X0304166Y0134008D01*
X0304249Y0134017D01*
X0304331Y0134031D01*
X0304412Y0134048D01*
X0304493Y0134069D01*
X0304572Y0134093D01*
X0304650Y0134122D01*
X0304727Y0134153D01*
X0304802Y0134189D01*
X0304876Y0134227D01*
X0304948Y0134270D01*
X0305017Y0134315D01*
X0305085Y0134364D01*
X0305150Y0134415D01*
X0305213Y0134470D01*
X0305273Y0134527D01*
X0305330Y0134587D01*
X0305385Y0134650D01*
X0305436Y0134715D01*
X0305485Y0134783D01*
X0305530Y0134852D01*
X0305573Y0134924D01*
X0305611Y0134998D01*
X0305647Y0135073D01*
X0305678Y0135150D01*
X0305707Y0135228D01*
X0305731Y0135307D01*
X0305752Y0135388D01*
X0305769Y0135469D01*
X0305783Y0135551D01*
X0305792Y0135634D01*
X0305798Y0135717D01*
X0305800Y0135800D01*
X0305800Y0140200D01*
X0305798Y0140283D01*
X0305792Y0140366D01*
X0305783Y0140449D01*
X0305769Y0140531D01*
X0305752Y0140612D01*
X0305731Y0140693D01*
X0305707Y0140772D01*
X0305678Y0140850D01*
X0305647Y0140927D01*
X0305611Y0141002D01*
X0305573Y0141076D01*
X0305530Y0141148D01*
X0305485Y0141217D01*
X0305436Y0141285D01*
X0305385Y0141350D01*
X0305330Y0141413D01*
X0305273Y0141473D01*
X0305213Y0141530D01*
X0305150Y0141585D01*
X0305085Y0141636D01*
X0305017Y0141685D01*
X0304948Y0141730D01*
X0304876Y0141773D01*
X0304802Y0141811D01*
X0304727Y0141847D01*
X0304650Y0141878D01*
X0304572Y0141907D01*
X0304493Y0141931D01*
X0304412Y0141952D01*
X0304331Y0141969D01*
X0304249Y0141983D01*
X0304166Y0141992D01*
X0304083Y0141998D01*
X0304000Y0142000D01*
X0294000Y0142000D01*
X0293917Y0141998D01*
X0293834Y0141992D01*
X0293751Y0141983D01*
X0293669Y0141969D01*
X0293588Y0141952D01*
X0293507Y0141931D01*
X0293428Y0141907D01*
X0293350Y0141878D01*
X0293273Y0141847D01*
X0293198Y0141811D01*
X0293124Y0141773D01*
X0293052Y0141730D01*
X0292983Y0141685D01*
X0292915Y0141636D01*
X0292850Y0141585D01*
X0292787Y0141530D01*
X0292727Y0141473D01*
X0292670Y0141413D01*
X0292615Y0141350D01*
X0292564Y0141285D01*
X0292515Y0141217D01*
X0292470Y0141148D01*
X0292427Y0141076D01*
X0292389Y0141002D01*
X0292353Y0140927D01*
X0292322Y0140850D01*
X0292293Y0140772D01*
X0292269Y0140693D01*
X0292248Y0140612D01*
X0292231Y0140531D01*
X0292217Y0140449D01*
X0292208Y0140366D01*
X0292202Y0140283D01*
X0292200Y0140200D01*
X0292200Y0135800D01*
X0292202Y0135717D01*
X0292208Y0135634D01*
X0292217Y0135551D01*
X0292231Y0135469D01*
X0292248Y0135388D01*
X0292269Y0135307D01*
X0292293Y0135228D01*
X0292322Y0135150D01*
X0292353Y0135073D01*
X0292389Y0134998D01*
X0292427Y0134924D01*
X0292470Y0134852D01*
X0292515Y0134783D01*
X0292564Y0134715D01*
X0292615Y0134650D01*
X0292670Y0134587D01*
X0292727Y0134527D01*
X0292787Y0134470D01*
X0292850Y0134415D01*
X0292915Y0134364D01*
X0292983Y0134315D01*
X0293052Y0134270D01*
X0293124Y0134227D01*
X0293198Y0134189D01*
X0293273Y0134153D01*
X0293350Y0134122D01*
X0293428Y0134093D01*
X0293507Y0134069D01*
X0293588Y0134048D01*
X0293669Y0134031D01*
X0293751Y0134017D01*
X0293834Y0134008D01*
X0293917Y0134002D01*
X0294000Y0134000D01*
X0272108Y0274300D02*
X0274243Y0276435D01*
X0274243Y0280705D01*
X0269973Y0280705D02*
X0269973Y0276435D01*
X0272108Y0274300D01*
X0267798Y0274300D02*
X0263527Y0274300D01*
X0263527Y0280705D01*
X0267798Y0280705D01*
X0265663Y0277503D02*
X0263527Y0277503D01*
X0261352Y0275368D02*
X0261352Y0279638D01*
X0260285Y0280705D01*
X0257082Y0280705D01*
X0257082Y0274300D01*
X0260285Y0274300D01*
X0261352Y0275368D01*
X0248461Y0275368D02*
X0247394Y0274300D01*
X0244191Y0274300D01*
X0244191Y0280705D01*
X0247394Y0280705D01*
X0248461Y0279638D01*
X0248461Y0278570D01*
X0247394Y0277503D01*
X0244191Y0277503D01*
X0242016Y0276435D02*
X0242016Y0275368D01*
X0240948Y0274300D01*
X0238813Y0274300D01*
X0237745Y0275368D01*
X0235570Y0275368D02*
X0235570Y0280705D01*
X0237745Y0279638D02*
X0237745Y0278570D01*
X0238813Y0277503D01*
X0240948Y0277503D01*
X0242016Y0276435D01*
X0242016Y0279638D02*
X0240948Y0280705D01*
X0238813Y0280705D01*
X0237745Y0279638D01*
X0235570Y0275368D02*
X0234503Y0274300D01*
X0232368Y0274300D01*
X0231300Y0275368D01*
X0231300Y0280705D01*
X0247394Y0277503D02*
X0248461Y0276435D01*
X0248461Y0275368D01*
X0248605Y0342100D02*
X0245402Y0342100D01*
X0244334Y0343168D01*
X0245402Y0344235D01*
X0248605Y0344235D01*
X0248605Y0345303D02*
X0248605Y0342100D01*
X0250780Y0343168D02*
X0250780Y0345303D01*
X0251847Y0346370D01*
X0255050Y0346370D01*
X0257225Y0344235D02*
X0260428Y0346370D01*
X0257225Y0344235D02*
X0260428Y0342100D01*
X0257225Y0342100D02*
X0257225Y0348505D01*
X0258293Y0352600D02*
X0257225Y0353668D01*
X0257225Y0355803D01*
X0258293Y0356870D01*
X0260428Y0356870D01*
X0261496Y0355803D01*
X0261496Y0353668D01*
X0260428Y0352600D01*
X0258293Y0352600D01*
X0255050Y0353668D02*
X0255050Y0355803D01*
X0253983Y0356870D01*
X0250780Y0356870D01*
X0250780Y0359005D02*
X0250780Y0352600D01*
X0253983Y0352600D01*
X0255050Y0353668D01*
X0263671Y0353668D02*
X0264738Y0354735D01*
X0267941Y0354735D01*
X0267941Y0355803D02*
X0267941Y0352600D01*
X0264738Y0352600D01*
X0263671Y0353668D01*
X0264738Y0356870D02*
X0266874Y0356870D01*
X0267941Y0355803D01*
X0270116Y0356870D02*
X0270116Y0352600D01*
X0270116Y0354735D02*
X0272252Y0356870D01*
X0273319Y0356870D01*
X0275488Y0355803D02*
X0276555Y0356870D01*
X0279758Y0356870D01*
X0279758Y0359005D02*
X0279758Y0352600D01*
X0276555Y0352600D01*
X0275488Y0353668D01*
X0275488Y0355803D01*
X0283001Y0353668D02*
X0283001Y0352600D01*
X0284068Y0352600D01*
X0284068Y0353668D01*
X0283001Y0353668D01*
X0284068Y0352600D02*
X0281933Y0350465D01*
X0255050Y0342100D02*
X0251847Y0342100D01*
X0250780Y0343168D01*
X0248605Y0345303D02*
X0247537Y0346370D01*
X0245402Y0346370D01*
X0242159Y0345303D02*
X0241092Y0346370D01*
X0237889Y0346370D01*
X0237889Y0348505D02*
X0237889Y0342100D01*
X0241092Y0342100D01*
X0242159Y0343168D01*
X0242159Y0345303D01*
X0241092Y0352600D02*
X0238956Y0352600D01*
X0237889Y0353668D01*
X0237889Y0355803D01*
X0238956Y0356870D01*
X0241092Y0356870D01*
X0242159Y0355803D01*
X0242159Y0354735D01*
X0237889Y0354735D01*
X0235714Y0355803D02*
X0235714Y0352600D01*
X0235714Y0355803D02*
X0234646Y0356870D01*
X0232511Y0356870D01*
X0231443Y0355803D01*
X0229282Y0356870D02*
X0227146Y0356870D01*
X0228214Y0357938D02*
X0228214Y0353668D01*
X0229282Y0352600D01*
X0231443Y0352600D02*
X0231443Y0359005D01*
X0218539Y0359005D02*
X0217472Y0357938D01*
X0217472Y0352600D01*
X0216404Y0355803D02*
X0218539Y0355803D01*
X0214229Y0355803D02*
X0214229Y0353668D01*
X0213161Y0352600D01*
X0211026Y0352600D01*
X0209958Y0353668D01*
X0209958Y0355803D01*
X0211026Y0356870D01*
X0213161Y0356870D01*
X0214229Y0355803D01*
X0218552Y0348505D02*
X0218552Y0342100D01*
X0216391Y0342100D02*
X0215323Y0343168D01*
X0215323Y0347438D01*
X0214255Y0346370D02*
X0216391Y0346370D01*
X0218552Y0345303D02*
X0219620Y0346370D01*
X0221755Y0346370D01*
X0222823Y0345303D01*
X0222823Y0342100D01*
X0224998Y0343168D02*
X0224998Y0345303D01*
X0226066Y0346370D01*
X0228201Y0346370D01*
X0229268Y0345303D01*
X0229268Y0344235D01*
X0224998Y0344235D01*
X0224998Y0343168D02*
X0226066Y0342100D01*
X0228201Y0342100D01*
X0205635Y0342100D02*
X0205635Y0345303D01*
X0204567Y0346370D01*
X0201364Y0346370D01*
X0201364Y0342100D01*
X0199189Y0343168D02*
X0199189Y0345303D01*
X0198122Y0346370D01*
X0195987Y0346370D01*
X0194919Y0345303D01*
X0194919Y0343168D01*
X0195987Y0342100D01*
X0198122Y0342100D01*
X0199189Y0343168D01*
X0198142Y0352600D02*
X0198142Y0359005D01*
X0195967Y0356870D02*
X0192764Y0356870D01*
X0191696Y0355803D01*
X0191696Y0353668D01*
X0192764Y0352600D01*
X0195967Y0352600D01*
X0198142Y0354735D02*
X0201344Y0356870D01*
X0198142Y0354735D02*
X0201344Y0352600D01*
X0189521Y0352600D02*
X0186318Y0352600D01*
X0185251Y0353668D01*
X0186318Y0354735D01*
X0189521Y0354735D01*
X0189521Y0355803D02*
X0189521Y0352600D01*
X0189521Y0355803D02*
X0188453Y0356870D01*
X0186318Y0356870D01*
X0183076Y0355803D02*
X0183076Y0353668D01*
X0182008Y0352600D01*
X0178805Y0352600D01*
X0178805Y0359005D01*
X0178805Y0356870D02*
X0182008Y0356870D01*
X0183076Y0355803D01*
X0170185Y0355803D02*
X0170185Y0354735D01*
X0165914Y0354735D01*
X0165914Y0353668D02*
X0165914Y0355803D01*
X0166982Y0356870D01*
X0169117Y0356870D01*
X0170185Y0355803D01*
X0169117Y0352600D02*
X0166982Y0352600D01*
X0165914Y0353668D01*
X0163739Y0352600D02*
X0163739Y0355803D01*
X0162671Y0356870D01*
X0160536Y0356870D01*
X0159469Y0355803D01*
X0157307Y0356870D02*
X0155172Y0356870D01*
X0156239Y0357938D02*
X0156239Y0353668D01*
X0157307Y0352600D01*
X0159469Y0352600D02*
X0159469Y0359005D01*
X0148720Y0349573D02*
X0148720Y0348505D01*
X0148720Y0346370D02*
X0148720Y0342100D01*
X0149787Y0342100D02*
X0147652Y0342100D01*
X0148700Y0338005D02*
X0148700Y0331600D01*
X0145497Y0331600D01*
X0144429Y0332668D01*
X0144429Y0334803D01*
X0145497Y0335870D01*
X0148700Y0335870D01*
X0150875Y0332668D02*
X0151942Y0332668D01*
X0151942Y0331600D01*
X0150875Y0331600D01*
X0150875Y0332668D01*
X0142261Y0335870D02*
X0141193Y0335870D01*
X0139058Y0333735D01*
X0139058Y0331600D02*
X0139058Y0335870D01*
X0136883Y0334803D02*
X0136883Y0331600D01*
X0133680Y0331600D01*
X0132612Y0332668D01*
X0133680Y0333735D01*
X0136883Y0333735D01*
X0136883Y0334803D02*
X0135815Y0335870D01*
X0133680Y0335870D01*
X0130437Y0334803D02*
X0129370Y0335870D01*
X0127235Y0335870D01*
X0126167Y0334803D01*
X0126167Y0332668D01*
X0127235Y0331600D01*
X0129370Y0331600D01*
X0130437Y0332668D01*
X0130437Y0334803D01*
X0123992Y0334803D02*
X0123992Y0332668D01*
X0122924Y0331600D01*
X0119721Y0331600D01*
X0119721Y0338005D01*
X0119721Y0335870D02*
X0122924Y0335870D01*
X0123992Y0334803D01*
X0121870Y0342100D02*
X0126140Y0346370D01*
X0126140Y0347438D01*
X0125073Y0348505D01*
X0122938Y0348505D01*
X0121870Y0347438D01*
X0119695Y0348505D02*
X0115424Y0348505D01*
X0117560Y0348505D02*
X0117560Y0342100D01*
X0121870Y0342100D02*
X0126140Y0342100D01*
X0128315Y0343168D02*
X0132586Y0347438D01*
X0132586Y0343168D01*
X0131518Y0342100D01*
X0129383Y0342100D01*
X0128315Y0343168D01*
X0128315Y0347438D01*
X0129383Y0348505D01*
X0131518Y0348505D01*
X0132586Y0347438D01*
X0134761Y0347438D02*
X0135829Y0348505D01*
X0137964Y0348505D01*
X0139031Y0347438D01*
X0139031Y0346370D01*
X0137964Y0345303D01*
X0139031Y0344235D01*
X0139031Y0343168D01*
X0137964Y0342100D01*
X0135829Y0342100D01*
X0134761Y0343168D01*
X0136896Y0345303D02*
X0137964Y0345303D01*
X0136903Y0352600D02*
X0135835Y0353668D01*
X0135835Y0355803D01*
X0136903Y0356870D01*
X0139038Y0356870D01*
X0140106Y0355803D01*
X0140106Y0353668D01*
X0139038Y0352600D01*
X0136903Y0352600D01*
X0142281Y0352600D02*
X0142281Y0356870D01*
X0145483Y0356870D01*
X0146551Y0355803D01*
X0146551Y0352600D01*
X0147652Y0346370D02*
X0148720Y0346370D01*
X0151949Y0345303D02*
X0153017Y0346370D01*
X0156219Y0346370D01*
X0155152Y0344235D02*
X0153017Y0344235D01*
X0151949Y0345303D01*
X0151949Y0342100D02*
X0155152Y0342100D01*
X0156219Y0343168D01*
X0155152Y0344235D01*
X0164840Y0343168D02*
X0165908Y0344235D01*
X0169110Y0344235D01*
X0169110Y0345303D02*
X0169110Y0342100D01*
X0165908Y0342100D01*
X0164840Y0343168D01*
X0165908Y0346370D02*
X0168043Y0346370D01*
X0169110Y0345303D01*
X0171285Y0348505D02*
X0172353Y0348505D01*
X0172353Y0342100D01*
X0171285Y0342100D02*
X0173421Y0342100D01*
X0175582Y0343168D02*
X0175582Y0346370D01*
X0175582Y0343168D02*
X0176650Y0342100D01*
X0177718Y0343168D01*
X0178785Y0342100D01*
X0179853Y0343168D01*
X0179853Y0346370D01*
X0182028Y0345303D02*
X0182028Y0343168D01*
X0183096Y0342100D01*
X0185231Y0342100D01*
X0186298Y0343168D01*
X0186298Y0345303D01*
X0185231Y0346370D01*
X0183096Y0346370D01*
X0182028Y0345303D01*
X0127215Y0353668D02*
X0126147Y0354735D01*
X0124012Y0354735D01*
X0122944Y0355803D01*
X0124012Y0356870D01*
X0127215Y0356870D01*
X0127215Y0353668D02*
X0126147Y0352600D01*
X0122944Y0352600D01*
X0120782Y0352600D02*
X0119715Y0353668D01*
X0119715Y0357938D01*
X0120782Y0356870D02*
X0118647Y0356870D01*
X0116479Y0356870D02*
X0115411Y0356870D01*
X0113276Y0354735D01*
X0113276Y0352600D02*
X0113276Y0356870D01*
X0111101Y0355803D02*
X0111101Y0352600D01*
X0107898Y0352600D01*
X0106830Y0353668D01*
X0107898Y0354735D01*
X0111101Y0354735D01*
X0111101Y0355803D02*
X0110033Y0356870D01*
X0107898Y0356870D01*
X0104655Y0355803D02*
X0104655Y0353668D01*
X0103588Y0352600D01*
X0100385Y0352600D01*
X0100385Y0350465D02*
X0100385Y0356870D01*
X0103588Y0356870D01*
X0104655Y0355803D01*
X0104669Y0348505D02*
X0106804Y0346370D01*
X0106804Y0342100D01*
X0108979Y0342100D02*
X0108979Y0348505D01*
X0111114Y0346370D01*
X0113249Y0348505D01*
X0113249Y0342100D01*
X0110033Y0335870D02*
X0111101Y0334803D01*
X0111101Y0333735D01*
X0106830Y0333735D01*
X0106830Y0332668D02*
X0106830Y0334803D01*
X0107898Y0335870D01*
X0110033Y0335870D01*
X0110033Y0331600D02*
X0107898Y0331600D01*
X0106830Y0332668D01*
X0104655Y0331600D02*
X0104655Y0334803D01*
X0103588Y0335870D01*
X0101453Y0335870D01*
X0100385Y0334803D01*
X0098223Y0335870D02*
X0096088Y0335870D01*
X0097156Y0336938D02*
X0097156Y0332668D01*
X0098223Y0331600D01*
X0100385Y0331600D02*
X0100385Y0338005D01*
X0102533Y0342100D02*
X0102533Y0346370D01*
X0104669Y0348505D01*
X0106804Y0345303D02*
X0102533Y0345303D01*
X0093913Y0345303D02*
X0093913Y0344235D01*
X0089642Y0344235D01*
X0089642Y0343168D02*
X0089642Y0345303D01*
X0090710Y0346370D01*
X0092845Y0346370D01*
X0093913Y0345303D01*
X0092845Y0342100D02*
X0090710Y0342100D01*
X0089642Y0343168D01*
X0087467Y0342100D02*
X0087467Y0345303D01*
X0086400Y0346370D01*
X0084265Y0346370D01*
X0083197Y0345303D01*
X0081035Y0346370D02*
X0078900Y0346370D01*
X0079968Y0347438D02*
X0079968Y0343168D01*
X0081035Y0342100D01*
X0083197Y0342100D02*
X0083197Y0348505D01*
X0083170Y0352600D02*
X0083170Y0356870D01*
X0081035Y0359005D01*
X0078900Y0356870D01*
X0078900Y0352600D01*
X0078900Y0355803D02*
X0083170Y0355803D01*
X0085345Y0359005D02*
X0086413Y0359005D01*
X0086413Y0352600D01*
X0085345Y0352600D02*
X0087481Y0352600D01*
X0089642Y0352600D02*
X0091778Y0352600D01*
X0090710Y0352600D02*
X0090710Y0359005D01*
X0089642Y0359005D01*
X0087481Y0338005D02*
X0086413Y0336938D01*
X0086413Y0331600D01*
X0085345Y0334803D02*
X0087481Y0334803D01*
X0083170Y0334803D02*
X0083170Y0332668D01*
X0082103Y0331600D01*
X0079968Y0331600D01*
X0078900Y0332668D01*
X0078900Y0334803D01*
X0079968Y0335870D01*
X0082103Y0335870D01*
X0083170Y0334803D01*
X0347795Y0300057D02*
X0347795Y0297922D01*
X0348862Y0296854D01*
X0347795Y0294679D02*
X0354200Y0290409D01*
X0354200Y0294679D02*
X0347795Y0290409D01*
X0354200Y0296854D02*
X0349930Y0301125D01*
X0348862Y0301125D01*
X0347795Y0300057D01*
X0354200Y0301125D02*
X0354200Y0296854D01*
X0366300Y0286205D02*
X0369503Y0286205D01*
X0370570Y0285138D01*
X0370570Y0283003D01*
X0369503Y0281935D01*
X0366300Y0281935D01*
X0366300Y0279800D02*
X0366300Y0286205D01*
X0372745Y0286205D02*
X0372745Y0279800D01*
X0372745Y0281935D02*
X0375948Y0281935D01*
X0377016Y0283003D01*
X0377016Y0285138D01*
X0375948Y0286205D01*
X0372745Y0286205D01*
X0374881Y0281935D02*
X0377016Y0279800D01*
X0379191Y0280868D02*
X0380259Y0279800D01*
X0382394Y0279800D01*
X0383461Y0280868D01*
X0383461Y0285138D01*
X0382394Y0286205D01*
X0380259Y0286205D01*
X0379191Y0285138D01*
X0379191Y0280868D01*
X0385636Y0280868D02*
X0386704Y0279800D01*
X0388839Y0279800D01*
X0389907Y0280868D01*
X0389907Y0283003D01*
X0387772Y0283003D01*
X0389907Y0285138D02*
X0388839Y0286205D01*
X0386704Y0286205D01*
X0385636Y0285138D01*
X0385636Y0280868D01*
D11*
X0209900Y0267353D02*
X0207698Y0267353D01*
X0207698Y0268086D02*
X0207698Y0266619D01*
X0208065Y0265877D02*
X0207698Y0265510D01*
X0207698Y0264776D01*
X0208065Y0264409D01*
X0209533Y0264409D01*
X0209900Y0264776D01*
X0209900Y0265510D01*
X0209533Y0265877D01*
X0208065Y0265877D01*
X0209900Y0263667D02*
X0209900Y0262199D01*
X0207698Y0262199D01*
X0208065Y0261457D02*
X0207698Y0261090D01*
X0207698Y0260356D01*
X0208065Y0259989D01*
X0208432Y0259989D01*
X0208799Y0260356D01*
X0208799Y0261090D01*
X0209166Y0261457D01*
X0209533Y0261457D01*
X0209900Y0261090D01*
X0209900Y0260356D01*
X0209533Y0259989D01*
X0207698Y0257037D02*
X0209900Y0255569D01*
X0209900Y0254093D02*
X0207698Y0254093D01*
X0207698Y0253359D02*
X0207698Y0254827D01*
X0207698Y0252617D02*
X0209533Y0252617D01*
X0209900Y0252250D01*
X0209900Y0251516D01*
X0209533Y0251149D01*
X0207698Y0251149D01*
X0208065Y0250407D02*
X0207698Y0250040D01*
X0207698Y0249306D01*
X0208065Y0248940D01*
X0209533Y0248940D01*
X0209900Y0249306D01*
X0209900Y0250040D01*
X0209533Y0250407D01*
X0208065Y0250407D01*
X0207698Y0245988D02*
X0207698Y0244520D01*
X0207698Y0245254D02*
X0209900Y0245254D01*
X0209533Y0243778D02*
X0207698Y0243778D01*
X0207698Y0242310D02*
X0209533Y0242310D01*
X0209900Y0242677D01*
X0209900Y0243411D01*
X0209533Y0243778D01*
X0209533Y0241568D02*
X0209900Y0241201D01*
X0209900Y0240467D01*
X0209533Y0240100D01*
X0208065Y0240100D01*
X0207698Y0240467D01*
X0207698Y0241201D01*
X0208065Y0241568D01*
X0185533Y0281100D02*
X0185900Y0281467D01*
X0185900Y0282201D01*
X0185533Y0282568D01*
X0185533Y0283310D02*
X0185900Y0283677D01*
X0185900Y0284411D01*
X0185533Y0284778D01*
X0183698Y0284778D01*
X0183698Y0285520D02*
X0183698Y0286988D01*
X0183698Y0286254D02*
X0185900Y0286254D01*
X0185533Y0283310D02*
X0183698Y0283310D01*
X0184065Y0282568D02*
X0183698Y0282201D01*
X0183698Y0281467D01*
X0184065Y0281100D01*
X0185533Y0281100D01*
X0185533Y0289940D02*
X0185900Y0290306D01*
X0185900Y0291040D01*
X0185533Y0291407D01*
X0184065Y0291407D01*
X0183698Y0291040D01*
X0183698Y0290306D01*
X0184065Y0289940D01*
X0185533Y0289940D01*
X0185533Y0292149D02*
X0185900Y0292516D01*
X0185900Y0293250D01*
X0185533Y0293617D01*
X0183698Y0293617D01*
X0183698Y0294359D02*
X0183698Y0295827D01*
X0183698Y0295093D02*
X0185900Y0295093D01*
X0185900Y0296569D02*
X0183698Y0298037D01*
X0184065Y0300989D02*
X0184432Y0300989D01*
X0184799Y0301356D01*
X0184799Y0302090D01*
X0185166Y0302457D01*
X0185533Y0302457D01*
X0185900Y0302090D01*
X0185900Y0301356D01*
X0185533Y0300989D01*
X0184065Y0300989D02*
X0183698Y0301356D01*
X0183698Y0302090D01*
X0184065Y0302457D01*
X0183698Y0303199D02*
X0185900Y0303199D01*
X0185900Y0304667D01*
X0185533Y0305409D02*
X0185900Y0305776D01*
X0185900Y0306510D01*
X0185533Y0306877D01*
X0184065Y0306877D01*
X0183698Y0306510D01*
X0183698Y0305776D01*
X0184065Y0305409D01*
X0185533Y0305409D01*
X0183698Y0307619D02*
X0183698Y0309086D01*
X0183698Y0308353D02*
X0185900Y0308353D01*
X0185533Y0292149D02*
X0183698Y0292149D01*
X0207698Y0189086D02*
X0207698Y0187619D01*
X0207698Y0188353D02*
X0209900Y0188353D01*
X0209533Y0186877D02*
X0208065Y0186877D01*
X0207698Y0186510D01*
X0207698Y0185776D01*
X0208065Y0185409D01*
X0209533Y0185409D01*
X0209900Y0185776D01*
X0209900Y0186510D01*
X0209533Y0186877D01*
X0209900Y0184667D02*
X0209900Y0183199D01*
X0207698Y0183199D01*
X0208065Y0182457D02*
X0207698Y0182090D01*
X0207698Y0181356D01*
X0208065Y0180989D01*
X0208432Y0180989D01*
X0208799Y0181356D01*
X0208799Y0182090D01*
X0209166Y0182457D01*
X0209533Y0182457D01*
X0209900Y0182090D01*
X0209900Y0181356D01*
X0209533Y0180989D01*
X0207698Y0178037D02*
X0209900Y0176569D01*
X0209900Y0175093D02*
X0207698Y0175093D01*
X0207698Y0174359D02*
X0207698Y0175827D01*
X0207698Y0173617D02*
X0209533Y0173617D01*
X0209900Y0173250D01*
X0209900Y0172516D01*
X0209533Y0172149D01*
X0207698Y0172149D01*
X0208065Y0171407D02*
X0207698Y0171040D01*
X0207698Y0170306D01*
X0208065Y0169940D01*
X0209533Y0169940D01*
X0209900Y0170306D01*
X0209900Y0171040D01*
X0209533Y0171407D01*
X0208065Y0171407D01*
X0207698Y0166988D02*
X0207698Y0165520D01*
X0207698Y0166254D02*
X0209900Y0166254D01*
X0209533Y0164778D02*
X0207698Y0164778D01*
X0207698Y0163310D02*
X0209533Y0163310D01*
X0209900Y0163677D01*
X0209900Y0164411D01*
X0209533Y0164778D01*
X0209533Y0162568D02*
X0209900Y0162201D01*
X0209900Y0161467D01*
X0209533Y0161100D01*
X0208065Y0161100D01*
X0207698Y0161467D01*
X0207698Y0162201D01*
X0208065Y0162568D01*
X0178086Y0120302D02*
X0176619Y0120302D01*
X0177353Y0120302D02*
X0177353Y0118100D01*
X0175877Y0118467D02*
X0175877Y0119935D01*
X0175510Y0120302D01*
X0174776Y0120302D01*
X0174409Y0119935D01*
X0174409Y0118467D01*
X0174776Y0118100D01*
X0175510Y0118100D01*
X0175877Y0118467D01*
X0173667Y0118100D02*
X0172199Y0118100D01*
X0172199Y0120302D01*
X0171457Y0119935D02*
X0171090Y0120302D01*
X0170356Y0120302D01*
X0169989Y0119935D01*
X0169989Y0119568D01*
X0170356Y0119201D01*
X0171090Y0119201D01*
X0171457Y0118834D01*
X0171457Y0118467D01*
X0171090Y0118100D01*
X0170356Y0118100D01*
X0169989Y0118467D01*
X0167037Y0120302D02*
X0165569Y0118100D01*
X0164093Y0118100D02*
X0164093Y0120302D01*
X0163359Y0120302D02*
X0164827Y0120302D01*
X0162617Y0120302D02*
X0162617Y0118467D01*
X0162250Y0118100D01*
X0161516Y0118100D01*
X0161149Y0118467D01*
X0161149Y0120302D01*
X0160407Y0119935D02*
X0160407Y0118467D01*
X0160040Y0118100D01*
X0159306Y0118100D01*
X0158940Y0118467D01*
X0158940Y0119935D01*
X0159306Y0120302D01*
X0160040Y0120302D01*
X0160407Y0119935D01*
X0155988Y0120302D02*
X0154520Y0120302D01*
X0155254Y0120302D02*
X0155254Y0118100D01*
X0153778Y0118467D02*
X0153778Y0120302D01*
X0152310Y0120302D02*
X0152310Y0118467D01*
X0152677Y0118100D01*
X0153411Y0118100D01*
X0153778Y0118467D01*
X0151568Y0118467D02*
X0151201Y0118100D01*
X0150467Y0118100D01*
X0150100Y0118467D01*
X0150100Y0119935D01*
X0150467Y0120302D01*
X0151201Y0120302D01*
X0151568Y0119935D01*
X0067086Y0120302D02*
X0065619Y0120302D01*
X0066353Y0120302D02*
X0066353Y0118100D01*
X0064877Y0118467D02*
X0064877Y0119935D01*
X0064510Y0120302D01*
X0063776Y0120302D01*
X0063409Y0119935D01*
X0063409Y0118467D01*
X0063776Y0118100D01*
X0064510Y0118100D01*
X0064877Y0118467D01*
X0062667Y0118100D02*
X0061199Y0118100D01*
X0061199Y0120302D01*
X0060457Y0119935D02*
X0060090Y0120302D01*
X0059356Y0120302D01*
X0058989Y0119935D01*
X0058989Y0119568D01*
X0059356Y0119201D01*
X0060090Y0119201D01*
X0060457Y0118834D01*
X0060457Y0118467D01*
X0060090Y0118100D01*
X0059356Y0118100D01*
X0058989Y0118467D01*
X0056037Y0120302D02*
X0054569Y0118100D01*
X0053093Y0118100D02*
X0053093Y0120302D01*
X0052359Y0120302D02*
X0053827Y0120302D01*
X0051617Y0120302D02*
X0051617Y0118467D01*
X0051250Y0118100D01*
X0050516Y0118100D01*
X0050149Y0118467D01*
X0050149Y0120302D01*
X0049407Y0119935D02*
X0049040Y0120302D01*
X0048306Y0120302D01*
X0047940Y0119935D01*
X0047940Y0118467D01*
X0048306Y0118100D01*
X0049040Y0118100D01*
X0049407Y0118467D01*
X0049407Y0119935D01*
X0044988Y0120302D02*
X0043520Y0120302D01*
X0044254Y0120302D02*
X0044254Y0118100D01*
X0042778Y0118467D02*
X0042778Y0120302D01*
X0041310Y0120302D02*
X0041310Y0118467D01*
X0041677Y0118100D01*
X0042411Y0118100D01*
X0042778Y0118467D01*
X0040568Y0118467D02*
X0040201Y0118100D01*
X0039467Y0118100D01*
X0039100Y0118467D01*
X0039100Y0119935D01*
X0039467Y0120302D01*
X0040201Y0120302D01*
X0040568Y0119935D01*
X0089848Y0048802D02*
X0090582Y0048802D01*
X0090215Y0048802D02*
X0090215Y0046600D01*
X0089848Y0046600D02*
X0090582Y0046600D01*
X0091321Y0046967D02*
X0091688Y0046600D01*
X0092422Y0046600D01*
X0092789Y0046967D01*
X0092789Y0047701D01*
X0092422Y0048068D01*
X0091688Y0048068D01*
X0091321Y0047701D01*
X0091321Y0046967D01*
X0093531Y0046600D02*
X0093531Y0048068D01*
X0094632Y0048068D01*
X0094999Y0047701D01*
X0094999Y0046600D01*
X0095741Y0046233D02*
X0097209Y0046233D01*
X0097951Y0046600D02*
X0097951Y0048802D01*
X0099051Y0048802D01*
X0099418Y0048435D01*
X0099418Y0047701D01*
X0099051Y0047334D01*
X0097951Y0047334D01*
X0098684Y0047334D02*
X0099418Y0046600D01*
X0100160Y0046600D02*
X0101261Y0046600D01*
X0101628Y0046967D01*
X0101628Y0047334D01*
X0101261Y0047701D01*
X0100160Y0047701D01*
X0100160Y0048802D02*
X0101261Y0048802D01*
X0101628Y0048435D01*
X0101628Y0048068D01*
X0101261Y0047701D01*
X0100160Y0046600D02*
X0100160Y0048802D01*
X0102370Y0046233D02*
X0103838Y0046233D01*
X0104580Y0046600D02*
X0104580Y0048802D01*
X0105314Y0048068D01*
X0106048Y0048802D01*
X0106048Y0046600D01*
X0106790Y0046600D02*
X0107891Y0046600D01*
X0108258Y0046967D01*
X0108258Y0048435D01*
X0107891Y0048802D01*
X0106790Y0048802D01*
X0106790Y0046600D01*
D12*
X0051500Y0119000D03*
D13*
X0160000Y0119000D03*
D14*
X0209000Y0173000D03*
D15*
X0209000Y0258000D03*
D16*
X0185000Y0299500D03*
D17*
X0220488Y0116904D02*
X0220488Y0113067D01*
X0221256Y0112300D01*
X0222790Y0112300D01*
X0223557Y0113067D01*
X0223557Y0116904D01*
X0225092Y0116137D02*
X0225859Y0116904D01*
X0227394Y0116904D01*
X0228161Y0116137D01*
X0229696Y0116137D02*
X0230463Y0116904D01*
X0231998Y0116904D01*
X0232765Y0116137D01*
X0232765Y0115369D01*
X0229696Y0112300D01*
X0232765Y0112300D01*
X0234498Y0113067D02*
X0235266Y0112300D01*
X0236800Y0112300D01*
X0237568Y0113067D01*
X0237568Y0113835D01*
X0236800Y0114602D01*
X0235266Y0114602D01*
X0234498Y0115369D01*
X0234498Y0116137D01*
X0235266Y0116904D01*
X0236800Y0116904D01*
X0237568Y0116137D01*
X0239102Y0116904D02*
X0242172Y0116904D01*
X0240637Y0114602D02*
X0239102Y0114602D01*
X0239102Y0112300D02*
X0239102Y0116904D01*
X0248310Y0116137D02*
X0248310Y0115369D01*
X0249078Y0114602D01*
X0250612Y0114602D01*
X0251380Y0113835D01*
X0251380Y0113067D01*
X0250612Y0112300D01*
X0249078Y0112300D01*
X0248310Y0113067D01*
X0248310Y0116137D02*
X0249078Y0116904D01*
X0250612Y0116904D01*
X0251380Y0116137D01*
X0252914Y0115369D02*
X0254449Y0116904D01*
X0255983Y0115369D01*
X0255983Y0112300D01*
X0257518Y0112300D02*
X0257518Y0116904D01*
X0259053Y0115369D01*
X0260587Y0116904D01*
X0260587Y0112300D01*
X0262122Y0112300D02*
X0264424Y0112300D01*
X0265191Y0113067D01*
X0265191Y0116137D01*
X0264424Y0116904D01*
X0262122Y0116904D01*
X0262122Y0112300D01*
X0266726Y0112300D02*
X0269795Y0115369D01*
X0269795Y0116137D01*
X0269028Y0116904D01*
X0267493Y0116904D01*
X0266726Y0116137D01*
X0271330Y0115369D02*
X0272864Y0116904D01*
X0272864Y0112300D01*
X0271330Y0112300D02*
X0274399Y0112300D01*
X0275934Y0111533D02*
X0279003Y0111533D01*
X0280538Y0112300D02*
X0280538Y0116904D01*
X0282072Y0115369D01*
X0283607Y0116904D01*
X0283607Y0112300D01*
X0285142Y0112300D02*
X0286676Y0112300D01*
X0285909Y0112300D02*
X0285909Y0116904D01*
X0285142Y0116904D02*
X0286676Y0116904D01*
X0288211Y0116904D02*
X0291280Y0112300D01*
X0291280Y0116904D01*
X0292815Y0116904D02*
X0294349Y0116904D01*
X0293582Y0116904D02*
X0293582Y0112300D01*
X0292815Y0112300D02*
X0294349Y0112300D01*
X0295884Y0111533D02*
X0298953Y0111533D01*
X0300488Y0112300D02*
X0302790Y0112300D01*
X0303557Y0113067D01*
X0303557Y0113835D01*
X0302790Y0114602D01*
X0300488Y0114602D01*
X0300488Y0112300D02*
X0300488Y0116904D01*
X0302790Y0116904D01*
X0303557Y0116137D01*
X0303557Y0115369D01*
X0302790Y0114602D01*
X0305092Y0116137D02*
X0305092Y0113067D01*
X0305859Y0112300D01*
X0307394Y0112300D01*
X0308161Y0113067D01*
X0308161Y0116137D01*
X0307394Y0116904D01*
X0305859Y0116904D01*
X0305092Y0116137D01*
X0309696Y0116904D02*
X0311998Y0116904D01*
X0312765Y0116137D01*
X0312765Y0115369D01*
X0311998Y0114602D01*
X0309696Y0114602D01*
X0311998Y0114602D02*
X0312765Y0113835D01*
X0312765Y0113067D01*
X0311998Y0112300D01*
X0309696Y0112300D01*
X0309696Y0116904D01*
X0288211Y0116904D02*
X0288211Y0112300D01*
X0269795Y0112300D02*
X0266726Y0112300D01*
X0255983Y0114602D02*
X0252914Y0114602D01*
X0252914Y0115369D02*
X0252914Y0112300D01*
X0228161Y0113067D02*
X0228161Y0113835D01*
X0227394Y0114602D01*
X0225859Y0114602D01*
X0225092Y0115369D01*
X0225092Y0116137D01*
X0226627Y0117671D02*
X0226627Y0111533D01*
X0227394Y0112300D02*
X0228161Y0113067D01*
X0227394Y0112300D02*
X0225859Y0112300D01*
X0225092Y0113067D01*
X0097665Y0065037D02*
X0096898Y0065804D01*
X0095363Y0065804D01*
X0094596Y0065037D01*
X0095858Y0065002D02*
X0092789Y0065002D01*
X0093061Y0065804D02*
X0091527Y0065804D01*
X0092294Y0065804D02*
X0092294Y0061967D01*
X0091527Y0061200D01*
X0090759Y0061200D01*
X0089992Y0061967D01*
X0086650Y0062700D02*
X0085883Y0063467D01*
X0085883Y0066537D01*
X0085116Y0065769D02*
X0086650Y0065769D01*
X0083581Y0065002D02*
X0083581Y0062700D01*
X0081279Y0062700D01*
X0080512Y0063467D01*
X0081279Y0064235D01*
X0083581Y0064235D01*
X0083581Y0065002D02*
X0082814Y0065769D01*
X0081279Y0065769D01*
X0078977Y0065769D02*
X0078210Y0065002D01*
X0075908Y0065002D01*
X0078210Y0065002D02*
X0078977Y0064235D01*
X0078977Y0063467D01*
X0078210Y0062700D01*
X0075908Y0062700D01*
X0075908Y0067304D01*
X0078210Y0067304D01*
X0078977Y0066537D01*
X0078977Y0065769D01*
X0069769Y0065002D02*
X0066700Y0065002D01*
X0068235Y0066537D02*
X0068235Y0063467D01*
X0060631Y0056304D02*
X0060631Y0051700D01*
X0062165Y0051700D02*
X0059096Y0051700D01*
X0057561Y0052467D02*
X0057561Y0055537D01*
X0056794Y0056304D01*
X0054492Y0056304D01*
X0054492Y0051700D01*
X0056794Y0051700D01*
X0057561Y0052467D01*
X0059096Y0054769D02*
X0060631Y0056304D01*
X0050665Y0061200D02*
X0047596Y0061200D01*
X0049131Y0061200D02*
X0049131Y0065804D01*
X0047596Y0064269D01*
X0046061Y0065804D02*
X0044527Y0065804D01*
X0045294Y0065804D02*
X0045294Y0061967D01*
X0044527Y0061200D01*
X0043759Y0061200D01*
X0042992Y0061967D01*
X0042150Y0064002D02*
X0039081Y0064002D01*
X0040616Y0065537D02*
X0040616Y0062467D01*
X0037546Y0061700D02*
X0036012Y0061700D01*
X0036779Y0061700D02*
X0036779Y0066304D01*
X0036012Y0066304D01*
X0034477Y0065537D02*
X0034477Y0062467D01*
X0033710Y0061700D01*
X0032175Y0061700D01*
X0031408Y0062467D01*
X0031408Y0065537D01*
X0032175Y0066304D01*
X0033710Y0066304D01*
X0034477Y0065537D01*
X0029873Y0065537D02*
X0029106Y0066304D01*
X0027571Y0066304D01*
X0026804Y0065537D01*
X0026804Y0064769D01*
X0027571Y0064002D01*
X0029106Y0064002D01*
X0029873Y0063235D01*
X0029873Y0062467D01*
X0029106Y0061700D01*
X0027571Y0061700D01*
X0026804Y0062467D01*
X0025269Y0064002D02*
X0022200Y0064002D01*
X0042467Y0031804D02*
X0044002Y0031804D01*
X0044769Y0031037D01*
X0044769Y0027967D01*
X0044002Y0027200D01*
X0042467Y0027200D01*
X0041700Y0027967D01*
X0041700Y0031037D01*
X0042467Y0031804D01*
X0043235Y0028735D02*
X0044769Y0027200D01*
X0046304Y0027200D02*
X0049373Y0027200D01*
X0047839Y0027200D02*
X0047839Y0031804D01*
X0046304Y0030269D01*
X0094596Y0061200D02*
X0097665Y0064269D01*
X0097665Y0065037D01*
X0097665Y0061200D02*
X0094596Y0061200D01*
D18*
X0015837Y0026000D02*
X0011700Y0026000D01*
X0011700Y0030007D01*
X0011700Y0033944D02*
X0011700Y0037951D01*
X0011700Y0041888D02*
X0011700Y0045896D01*
X0011700Y0049833D02*
X0011700Y0053840D01*
X0011700Y0057777D02*
X0011700Y0061784D01*
X0011700Y0065721D02*
X0011700Y0069728D01*
X0009874Y0069937D02*
X0054126Y0069937D01*
X0054126Y0112063D01*
X0009874Y0112063D01*
X0009874Y0069937D01*
X0011700Y0073665D02*
X0011700Y0077673D01*
X0011700Y0081610D02*
X0011700Y0085617D01*
X0011700Y0089554D02*
X0011700Y0093561D01*
X0011700Y0097498D02*
X0011700Y0101505D01*
X0011700Y0105442D02*
X0011700Y0109450D01*
X0011700Y0113387D02*
X0011700Y0117394D01*
X0011700Y0121331D02*
X0011700Y0125338D01*
X0011700Y0129275D02*
X0011700Y0133282D01*
X0011700Y0137219D02*
X0011700Y0141227D01*
X0011700Y0145164D02*
X0011700Y0149171D01*
X0011700Y0153108D02*
X0011700Y0157115D01*
X0011700Y0161052D02*
X0011700Y0165059D01*
X0011700Y0168996D02*
X0011700Y0173004D01*
X0011700Y0176941D02*
X0011700Y0180948D01*
X0011700Y0184885D02*
X0011700Y0188892D01*
X0011700Y0192829D02*
X0011700Y0196836D01*
X0011700Y0200773D02*
X0011700Y0204781D01*
X0011700Y0208718D02*
X0011700Y0212725D01*
X0011700Y0216662D02*
X0011700Y0220669D01*
X0011700Y0224606D02*
X0011700Y0228613D01*
X0011700Y0232550D02*
X0011700Y0236558D01*
X0011700Y0240495D02*
X0011700Y0244502D01*
X0011700Y0248439D02*
X0011700Y0252446D01*
X0011700Y0256383D02*
X0011700Y0260390D01*
X0011700Y0264327D02*
X0011700Y0268335D01*
X0011700Y0272272D02*
X0011700Y0276279D01*
X0011700Y0280216D02*
X0011700Y0284223D01*
X0011700Y0288160D02*
X0011700Y0292167D01*
X0011700Y0296104D02*
X0011700Y0300112D01*
X0011700Y0304049D02*
X0011700Y0308056D01*
X0011700Y0311993D02*
X0011700Y0316000D01*
X0015837Y0316000D01*
X0019774Y0316000D02*
X0023912Y0316000D01*
X0027849Y0316000D02*
X0031986Y0316000D01*
X0035923Y0316000D02*
X0040061Y0316000D01*
X0043998Y0316000D02*
X0048135Y0316000D01*
X0052073Y0316000D02*
X0056210Y0316000D01*
X0060147Y0316000D02*
X0064284Y0316000D01*
X0068222Y0316000D02*
X0072359Y0316000D01*
X0076296Y0316000D02*
X0080433Y0316000D01*
X0084370Y0316000D02*
X0088508Y0316000D01*
X0092445Y0316000D02*
X0096582Y0316000D01*
X0100520Y0316000D02*
X0104657Y0316000D01*
X0108594Y0316000D02*
X0112731Y0316000D01*
X0116669Y0316000D02*
X0120806Y0316000D01*
X0124743Y0316000D02*
X0128880Y0316000D01*
X0132818Y0316000D02*
X0136955Y0316000D01*
X0140892Y0316000D02*
X0145030Y0316000D01*
X0148967Y0316000D02*
X0153104Y0316000D01*
X0157041Y0316000D02*
X0161178Y0316000D01*
X0165116Y0316000D02*
X0169253Y0316000D01*
X0173190Y0316000D02*
X0177327Y0316000D01*
X0181265Y0316000D02*
X0185402Y0316000D01*
X0189339Y0316000D02*
X0193477Y0316000D01*
X0197414Y0316000D02*
X0201551Y0316000D01*
X0205488Y0316000D02*
X0209626Y0316000D01*
X0213563Y0316000D02*
X0217700Y0316000D01*
X0217700Y0311993D01*
X0217700Y0308056D02*
X0217700Y0304049D01*
X0217700Y0300112D02*
X0217700Y0296104D01*
X0217700Y0292167D02*
X0217700Y0288160D01*
X0217700Y0284223D02*
X0217700Y0280216D01*
X0217700Y0276279D02*
X0217700Y0272272D01*
X0217700Y0268335D02*
X0217700Y0264327D01*
X0217700Y0260390D02*
X0217700Y0256383D01*
X0217700Y0252446D02*
X0217700Y0248439D01*
X0217700Y0244502D02*
X0217700Y0240495D01*
X0217700Y0236558D02*
X0217700Y0232550D01*
X0217700Y0228613D02*
X0217700Y0224606D01*
X0217700Y0220669D02*
X0217700Y0216662D01*
X0217700Y0212725D02*
X0217700Y0208718D01*
X0217700Y0204781D02*
X0217700Y0200773D01*
X0217700Y0196836D02*
X0217700Y0192829D01*
X0217700Y0188892D02*
X0217700Y0184885D01*
X0217700Y0180948D02*
X0217700Y0176941D01*
X0217700Y0173004D02*
X0217700Y0168996D01*
X0217700Y0165059D02*
X0217700Y0161052D01*
X0217700Y0157115D02*
X0217700Y0153108D01*
X0217700Y0149171D02*
X0217700Y0145164D01*
X0217700Y0141227D02*
X0217700Y0137219D01*
X0217700Y0133282D02*
X0217700Y0129275D01*
X0217700Y0125338D02*
X0217700Y0121331D01*
X0216600Y0119600D02*
X0291600Y0119600D01*
X0291600Y0244600D01*
X0266600Y0244600D01*
X0266600Y0239600D01*
X0241600Y0239600D01*
X0241600Y0244600D01*
X0216600Y0244600D01*
X0216600Y0119600D01*
X0217700Y0117394D02*
X0217700Y0113387D01*
X0217700Y0109450D02*
X0217700Y0105442D01*
X0217700Y0101505D02*
X0217700Y0097498D01*
X0217700Y0093561D02*
X0217700Y0089554D01*
X0217700Y0085617D02*
X0217700Y0081610D01*
X0217700Y0077673D02*
X0217700Y0073665D01*
X0217700Y0069728D02*
X0217700Y0065721D01*
X0217700Y0061784D02*
X0217700Y0057777D01*
X0217700Y0053840D02*
X0217700Y0049833D01*
X0217700Y0045896D02*
X0217700Y0041888D01*
X0217700Y0037951D02*
X0217700Y0033944D01*
X0217700Y0030007D02*
X0217700Y0026000D01*
X0213563Y0026000D01*
X0209626Y0026000D02*
X0205488Y0026000D01*
X0201551Y0026000D02*
X0197414Y0026000D01*
X0193477Y0026000D02*
X0189339Y0026000D01*
X0185402Y0026000D02*
X0181265Y0026000D01*
X0177327Y0026000D02*
X0173190Y0026000D01*
X0169253Y0026000D02*
X0165116Y0026000D01*
X0161178Y0026000D02*
X0157041Y0026000D01*
X0153104Y0026000D02*
X0148967Y0026000D01*
X0145030Y0026000D02*
X0140892Y0026000D01*
X0136955Y0026000D02*
X0132818Y0026000D01*
X0128880Y0026000D02*
X0124743Y0026000D01*
X0120806Y0026000D02*
X0116669Y0026000D01*
X0112731Y0026000D02*
X0108594Y0026000D01*
X0104657Y0026000D02*
X0100520Y0026000D01*
X0096582Y0026000D02*
X0092445Y0026000D01*
X0088508Y0026000D02*
X0084370Y0026000D01*
X0080433Y0026000D02*
X0076296Y0026000D01*
X0072359Y0026000D02*
X0068222Y0026000D01*
X0064284Y0026000D02*
X0060147Y0026000D01*
X0056210Y0026000D02*
X0052073Y0026000D01*
X0048135Y0026000D02*
X0043998Y0026000D01*
X0040061Y0026000D02*
X0035923Y0026000D01*
X0031986Y0026000D02*
X0027849Y0026000D01*
X0023912Y0026000D02*
X0019774Y0026000D01*
X0017950Y0039500D02*
X0017952Y0039666D01*
X0017958Y0039831D01*
X0017968Y0039997D01*
X0017983Y0040162D01*
X0018001Y0040326D01*
X0018023Y0040490D01*
X0018049Y0040654D01*
X0018080Y0040817D01*
X0018114Y0040979D01*
X0018152Y0041140D01*
X0018195Y0041300D01*
X0018241Y0041459D01*
X0018291Y0041617D01*
X0018345Y0041774D01*
X0018402Y0041929D01*
X0018464Y0042083D01*
X0018529Y0042235D01*
X0018598Y0042386D01*
X0018671Y0042535D01*
X0018747Y0042682D01*
X0018827Y0042827D01*
X0018910Y0042970D01*
X0018997Y0043111D01*
X0019088Y0043250D01*
X0019181Y0043387D01*
X0019278Y0043521D01*
X0019379Y0043653D01*
X0019482Y0043782D01*
X0019589Y0043909D01*
X0019699Y0044033D01*
X0019811Y0044154D01*
X0019927Y0044273D01*
X0020046Y0044389D01*
X0020167Y0044501D01*
X0020291Y0044611D01*
X0020418Y0044718D01*
X0020547Y0044821D01*
X0020679Y0044922D01*
X0020813Y0045019D01*
X0020950Y0045112D01*
X0021089Y0045203D01*
X0021230Y0045290D01*
X0021373Y0045373D01*
X0021518Y0045453D01*
X0021665Y0045529D01*
X0021814Y0045602D01*
X0021965Y0045671D01*
X0022117Y0045736D01*
X0022271Y0045798D01*
X0022426Y0045855D01*
X0022583Y0045909D01*
X0022741Y0045959D01*
X0022900Y0046005D01*
X0023060Y0046048D01*
X0023221Y0046086D01*
X0023383Y0046120D01*
X0023546Y0046151D01*
X0023710Y0046177D01*
X0023874Y0046199D01*
X0024038Y0046217D01*
X0024203Y0046232D01*
X0024369Y0046242D01*
X0024534Y0046248D01*
X0024700Y0046250D01*
X0024866Y0046248D01*
X0025031Y0046242D01*
X0025197Y0046232D01*
X0025362Y0046217D01*
X0025526Y0046199D01*
X0025690Y0046177D01*
X0025854Y0046151D01*
X0026017Y0046120D01*
X0026179Y0046086D01*
X0026340Y0046048D01*
X0026500Y0046005D01*
X0026659Y0045959D01*
X0026817Y0045909D01*
X0026974Y0045855D01*
X0027129Y0045798D01*
X0027283Y0045736D01*
X0027435Y0045671D01*
X0027586Y0045602D01*
X0027735Y0045529D01*
X0027882Y0045453D01*
X0028027Y0045373D01*
X0028170Y0045290D01*
X0028311Y0045203D01*
X0028450Y0045112D01*
X0028587Y0045019D01*
X0028721Y0044922D01*
X0028853Y0044821D01*
X0028982Y0044718D01*
X0029109Y0044611D01*
X0029233Y0044501D01*
X0029354Y0044389D01*
X0029473Y0044273D01*
X0029589Y0044154D01*
X0029701Y0044033D01*
X0029811Y0043909D01*
X0029918Y0043782D01*
X0030021Y0043653D01*
X0030122Y0043521D01*
X0030219Y0043387D01*
X0030312Y0043250D01*
X0030403Y0043111D01*
X0030490Y0042970D01*
X0030573Y0042827D01*
X0030653Y0042682D01*
X0030729Y0042535D01*
X0030802Y0042386D01*
X0030871Y0042235D01*
X0030936Y0042083D01*
X0030998Y0041929D01*
X0031055Y0041774D01*
X0031109Y0041617D01*
X0031159Y0041459D01*
X0031205Y0041300D01*
X0031248Y0041140D01*
X0031286Y0040979D01*
X0031320Y0040817D01*
X0031351Y0040654D01*
X0031377Y0040490D01*
X0031399Y0040326D01*
X0031417Y0040162D01*
X0031432Y0039997D01*
X0031442Y0039831D01*
X0031448Y0039666D01*
X0031450Y0039500D01*
X0031448Y0039334D01*
X0031442Y0039169D01*
X0031432Y0039003D01*
X0031417Y0038838D01*
X0031399Y0038674D01*
X0031377Y0038510D01*
X0031351Y0038346D01*
X0031320Y0038183D01*
X0031286Y0038021D01*
X0031248Y0037860D01*
X0031205Y0037700D01*
X0031159Y0037541D01*
X0031109Y0037383D01*
X0031055Y0037226D01*
X0030998Y0037071D01*
X0030936Y0036917D01*
X0030871Y0036765D01*
X0030802Y0036614D01*
X0030729Y0036465D01*
X0030653Y0036318D01*
X0030573Y0036173D01*
X0030490Y0036030D01*
X0030403Y0035889D01*
X0030312Y0035750D01*
X0030219Y0035613D01*
X0030122Y0035479D01*
X0030021Y0035347D01*
X0029918Y0035218D01*
X0029811Y0035091D01*
X0029701Y0034967D01*
X0029589Y0034846D01*
X0029473Y0034727D01*
X0029354Y0034611D01*
X0029233Y0034499D01*
X0029109Y0034389D01*
X0028982Y0034282D01*
X0028853Y0034179D01*
X0028721Y0034078D01*
X0028587Y0033981D01*
X0028450Y0033888D01*
X0028311Y0033797D01*
X0028170Y0033710D01*
X0028027Y0033627D01*
X0027882Y0033547D01*
X0027735Y0033471D01*
X0027586Y0033398D01*
X0027435Y0033329D01*
X0027283Y0033264D01*
X0027129Y0033202D01*
X0026974Y0033145D01*
X0026817Y0033091D01*
X0026659Y0033041D01*
X0026500Y0032995D01*
X0026340Y0032952D01*
X0026179Y0032914D01*
X0026017Y0032880D01*
X0025854Y0032849D01*
X0025690Y0032823D01*
X0025526Y0032801D01*
X0025362Y0032783D01*
X0025197Y0032768D01*
X0025031Y0032758D01*
X0024866Y0032752D01*
X0024700Y0032750D01*
X0024534Y0032752D01*
X0024369Y0032758D01*
X0024203Y0032768D01*
X0024038Y0032783D01*
X0023874Y0032801D01*
X0023710Y0032823D01*
X0023546Y0032849D01*
X0023383Y0032880D01*
X0023221Y0032914D01*
X0023060Y0032952D01*
X0022900Y0032995D01*
X0022741Y0033041D01*
X0022583Y0033091D01*
X0022426Y0033145D01*
X0022271Y0033202D01*
X0022117Y0033264D01*
X0021965Y0033329D01*
X0021814Y0033398D01*
X0021665Y0033471D01*
X0021518Y0033547D01*
X0021373Y0033627D01*
X0021230Y0033710D01*
X0021089Y0033797D01*
X0020950Y0033888D01*
X0020813Y0033981D01*
X0020679Y0034078D01*
X0020547Y0034179D01*
X0020418Y0034282D01*
X0020291Y0034389D01*
X0020167Y0034499D01*
X0020046Y0034611D01*
X0019927Y0034727D01*
X0019811Y0034846D01*
X0019699Y0034967D01*
X0019589Y0035091D01*
X0019482Y0035218D01*
X0019379Y0035347D01*
X0019278Y0035479D01*
X0019181Y0035613D01*
X0019088Y0035750D01*
X0018997Y0035889D01*
X0018910Y0036030D01*
X0018827Y0036173D01*
X0018747Y0036318D01*
X0018671Y0036465D01*
X0018598Y0036614D01*
X0018529Y0036765D01*
X0018464Y0036917D01*
X0018402Y0037071D01*
X0018345Y0037226D01*
X0018291Y0037383D01*
X0018241Y0037541D01*
X0018195Y0037700D01*
X0018152Y0037860D01*
X0018114Y0038021D01*
X0018080Y0038183D01*
X0018049Y0038346D01*
X0018023Y0038510D01*
X0018001Y0038674D01*
X0017983Y0038838D01*
X0017968Y0039003D01*
X0017958Y0039169D01*
X0017952Y0039334D01*
X0017950Y0039500D01*
X0050250Y0059125D02*
X0052750Y0061000D01*
X0053710Y0061000D01*
X0052750Y0061000D02*
X0052750Y0062875D01*
X0052750Y0061000D02*
X0050250Y0062875D01*
X0050250Y0061000D01*
X0049290Y0061000D01*
X0050250Y0061000D02*
X0050250Y0059125D01*
X0052750Y0059125D02*
X0052750Y0061000D01*
X0056874Y0069937D02*
X0101126Y0069937D01*
X0101126Y0112063D01*
X0056874Y0112063D01*
X0056874Y0069937D01*
X0047000Y0101000D02*
X0047000Y0106000D01*
X0042000Y0106000D01*
X0047000Y0106000D02*
X0047000Y0111000D01*
X0047000Y0106000D02*
X0052000Y0106000D01*
X0089000Y0106000D02*
X0094000Y0106000D01*
X0099000Y0106000D01*
X0094000Y0106000D02*
X0094000Y0111000D01*
X0094000Y0106000D02*
X0094000Y0101000D01*
X0127848Y0101567D02*
X0128165Y0101250D01*
X0127848Y0101567D02*
X0127848Y0102201D01*
X0128165Y0102518D01*
X0128482Y0102518D01*
X0129750Y0101250D01*
X0129750Y0102518D01*
X0129750Y0100308D02*
X0129116Y0099674D01*
X0129116Y0099991D02*
X0129116Y0099040D01*
X0129750Y0099040D02*
X0127848Y0099040D01*
X0127848Y0099991D01*
X0128165Y0100308D01*
X0128799Y0100308D01*
X0129116Y0099991D01*
X0135348Y0100357D02*
X0135348Y0100991D01*
X0135665Y0101308D01*
X0136933Y0101308D01*
X0137250Y0100991D01*
X0137250Y0100357D01*
X0136933Y0100040D01*
X0135665Y0100040D01*
X0135348Y0100357D01*
X0136616Y0100674D02*
X0137250Y0101308D01*
X0137250Y0102250D02*
X0135982Y0103518D01*
X0135665Y0103518D01*
X0135348Y0103201D01*
X0135348Y0102567D01*
X0135665Y0102250D01*
X0137250Y0102250D02*
X0137250Y0103518D01*
X0130364Y0048469D02*
X0130364Y0045933D01*
X0130047Y0046250D02*
X0130681Y0046250D01*
X0130998Y0046567D01*
X0130998Y0046884D01*
X0130681Y0047201D01*
X0130047Y0047201D01*
X0129730Y0047518D01*
X0129730Y0047835D01*
X0130047Y0048152D01*
X0130681Y0048152D01*
X0130998Y0047835D01*
X0131940Y0047835D02*
X0132257Y0048152D01*
X0132891Y0048152D01*
X0133208Y0047835D01*
X0133208Y0047518D01*
X0132891Y0047201D01*
X0133208Y0046884D01*
X0133208Y0046567D01*
X0132891Y0046250D01*
X0132257Y0046250D01*
X0131940Y0046567D01*
X0132574Y0047201D02*
X0132891Y0047201D01*
X0130047Y0046250D02*
X0129730Y0046567D01*
X0128788Y0046567D02*
X0128788Y0048152D01*
X0127520Y0048152D02*
X0127520Y0046567D01*
X0127837Y0046250D01*
X0128471Y0046250D01*
X0128788Y0046567D01*
X0197950Y0039500D02*
X0197952Y0039666D01*
X0197958Y0039831D01*
X0197968Y0039997D01*
X0197983Y0040162D01*
X0198001Y0040326D01*
X0198023Y0040490D01*
X0198049Y0040654D01*
X0198080Y0040817D01*
X0198114Y0040979D01*
X0198152Y0041140D01*
X0198195Y0041300D01*
X0198241Y0041459D01*
X0198291Y0041617D01*
X0198345Y0041774D01*
X0198402Y0041929D01*
X0198464Y0042083D01*
X0198529Y0042235D01*
X0198598Y0042386D01*
X0198671Y0042535D01*
X0198747Y0042682D01*
X0198827Y0042827D01*
X0198910Y0042970D01*
X0198997Y0043111D01*
X0199088Y0043250D01*
X0199181Y0043387D01*
X0199278Y0043521D01*
X0199379Y0043653D01*
X0199482Y0043782D01*
X0199589Y0043909D01*
X0199699Y0044033D01*
X0199811Y0044154D01*
X0199927Y0044273D01*
X0200046Y0044389D01*
X0200167Y0044501D01*
X0200291Y0044611D01*
X0200418Y0044718D01*
X0200547Y0044821D01*
X0200679Y0044922D01*
X0200813Y0045019D01*
X0200950Y0045112D01*
X0201089Y0045203D01*
X0201230Y0045290D01*
X0201373Y0045373D01*
X0201518Y0045453D01*
X0201665Y0045529D01*
X0201814Y0045602D01*
X0201965Y0045671D01*
X0202117Y0045736D01*
X0202271Y0045798D01*
X0202426Y0045855D01*
X0202583Y0045909D01*
X0202741Y0045959D01*
X0202900Y0046005D01*
X0203060Y0046048D01*
X0203221Y0046086D01*
X0203383Y0046120D01*
X0203546Y0046151D01*
X0203710Y0046177D01*
X0203874Y0046199D01*
X0204038Y0046217D01*
X0204203Y0046232D01*
X0204369Y0046242D01*
X0204534Y0046248D01*
X0204700Y0046250D01*
X0204866Y0046248D01*
X0205031Y0046242D01*
X0205197Y0046232D01*
X0205362Y0046217D01*
X0205526Y0046199D01*
X0205690Y0046177D01*
X0205854Y0046151D01*
X0206017Y0046120D01*
X0206179Y0046086D01*
X0206340Y0046048D01*
X0206500Y0046005D01*
X0206659Y0045959D01*
X0206817Y0045909D01*
X0206974Y0045855D01*
X0207129Y0045798D01*
X0207283Y0045736D01*
X0207435Y0045671D01*
X0207586Y0045602D01*
X0207735Y0045529D01*
X0207882Y0045453D01*
X0208027Y0045373D01*
X0208170Y0045290D01*
X0208311Y0045203D01*
X0208450Y0045112D01*
X0208587Y0045019D01*
X0208721Y0044922D01*
X0208853Y0044821D01*
X0208982Y0044718D01*
X0209109Y0044611D01*
X0209233Y0044501D01*
X0209354Y0044389D01*
X0209473Y0044273D01*
X0209589Y0044154D01*
X0209701Y0044033D01*
X0209811Y0043909D01*
X0209918Y0043782D01*
X0210021Y0043653D01*
X0210122Y0043521D01*
X0210219Y0043387D01*
X0210312Y0043250D01*
X0210403Y0043111D01*
X0210490Y0042970D01*
X0210573Y0042827D01*
X0210653Y0042682D01*
X0210729Y0042535D01*
X0210802Y0042386D01*
X0210871Y0042235D01*
X0210936Y0042083D01*
X0210998Y0041929D01*
X0211055Y0041774D01*
X0211109Y0041617D01*
X0211159Y0041459D01*
X0211205Y0041300D01*
X0211248Y0041140D01*
X0211286Y0040979D01*
X0211320Y0040817D01*
X0211351Y0040654D01*
X0211377Y0040490D01*
X0211399Y0040326D01*
X0211417Y0040162D01*
X0211432Y0039997D01*
X0211442Y0039831D01*
X0211448Y0039666D01*
X0211450Y0039500D01*
X0211448Y0039334D01*
X0211442Y0039169D01*
X0211432Y0039003D01*
X0211417Y0038838D01*
X0211399Y0038674D01*
X0211377Y0038510D01*
X0211351Y0038346D01*
X0211320Y0038183D01*
X0211286Y0038021D01*
X0211248Y0037860D01*
X0211205Y0037700D01*
X0211159Y0037541D01*
X0211109Y0037383D01*
X0211055Y0037226D01*
X0210998Y0037071D01*
X0210936Y0036917D01*
X0210871Y0036765D01*
X0210802Y0036614D01*
X0210729Y0036465D01*
X0210653Y0036318D01*
X0210573Y0036173D01*
X0210490Y0036030D01*
X0210403Y0035889D01*
X0210312Y0035750D01*
X0210219Y0035613D01*
X0210122Y0035479D01*
X0210021Y0035347D01*
X0209918Y0035218D01*
X0209811Y0035091D01*
X0209701Y0034967D01*
X0209589Y0034846D01*
X0209473Y0034727D01*
X0209354Y0034611D01*
X0209233Y0034499D01*
X0209109Y0034389D01*
X0208982Y0034282D01*
X0208853Y0034179D01*
X0208721Y0034078D01*
X0208587Y0033981D01*
X0208450Y0033888D01*
X0208311Y0033797D01*
X0208170Y0033710D01*
X0208027Y0033627D01*
X0207882Y0033547D01*
X0207735Y0033471D01*
X0207586Y0033398D01*
X0207435Y0033329D01*
X0207283Y0033264D01*
X0207129Y0033202D01*
X0206974Y0033145D01*
X0206817Y0033091D01*
X0206659Y0033041D01*
X0206500Y0032995D01*
X0206340Y0032952D01*
X0206179Y0032914D01*
X0206017Y0032880D01*
X0205854Y0032849D01*
X0205690Y0032823D01*
X0205526Y0032801D01*
X0205362Y0032783D01*
X0205197Y0032768D01*
X0205031Y0032758D01*
X0204866Y0032752D01*
X0204700Y0032750D01*
X0204534Y0032752D01*
X0204369Y0032758D01*
X0204203Y0032768D01*
X0204038Y0032783D01*
X0203874Y0032801D01*
X0203710Y0032823D01*
X0203546Y0032849D01*
X0203383Y0032880D01*
X0203221Y0032914D01*
X0203060Y0032952D01*
X0202900Y0032995D01*
X0202741Y0033041D01*
X0202583Y0033091D01*
X0202426Y0033145D01*
X0202271Y0033202D01*
X0202117Y0033264D01*
X0201965Y0033329D01*
X0201814Y0033398D01*
X0201665Y0033471D01*
X0201518Y0033547D01*
X0201373Y0033627D01*
X0201230Y0033710D01*
X0201089Y0033797D01*
X0200950Y0033888D01*
X0200813Y0033981D01*
X0200679Y0034078D01*
X0200547Y0034179D01*
X0200418Y0034282D01*
X0200291Y0034389D01*
X0200167Y0034499D01*
X0200046Y0034611D01*
X0199927Y0034727D01*
X0199811Y0034846D01*
X0199699Y0034967D01*
X0199589Y0035091D01*
X0199482Y0035218D01*
X0199379Y0035347D01*
X0199278Y0035479D01*
X0199181Y0035613D01*
X0199088Y0035750D01*
X0198997Y0035889D01*
X0198910Y0036030D01*
X0198827Y0036173D01*
X0198747Y0036318D01*
X0198671Y0036465D01*
X0198598Y0036614D01*
X0198529Y0036765D01*
X0198464Y0036917D01*
X0198402Y0037071D01*
X0198345Y0037226D01*
X0198291Y0037383D01*
X0198241Y0037541D01*
X0198195Y0037700D01*
X0198152Y0037860D01*
X0198114Y0038021D01*
X0198080Y0038183D01*
X0198049Y0038346D01*
X0198023Y0038510D01*
X0198001Y0038674D01*
X0197983Y0038838D01*
X0197968Y0039003D01*
X0197958Y0039169D01*
X0197952Y0039334D01*
X0197950Y0039500D01*
X0261040Y0071067D02*
X0261357Y0070750D01*
X0261991Y0070750D01*
X0262308Y0071067D01*
X0263250Y0070750D02*
X0264518Y0072018D01*
X0264518Y0072335D01*
X0264201Y0072652D01*
X0263567Y0072652D01*
X0263250Y0072335D01*
X0262308Y0072335D02*
X0261991Y0072652D01*
X0261357Y0072652D01*
X0261040Y0072335D01*
X0261040Y0071067D01*
X0263250Y0070750D02*
X0264518Y0070750D01*
X0294830Y0115350D02*
X0296098Y0115350D01*
X0297040Y0115350D02*
X0297040Y0117252D01*
X0298308Y0115350D01*
X0298308Y0117252D01*
X0299250Y0116935D02*
X0299250Y0115667D01*
X0299567Y0115350D01*
X0300201Y0115350D01*
X0300518Y0115667D01*
X0301460Y0115350D02*
X0301460Y0116618D01*
X0302094Y0117252D01*
X0302728Y0116618D01*
X0302728Y0115350D01*
X0302728Y0116301D02*
X0301460Y0116301D01*
X0300518Y0116935D02*
X0300201Y0117252D01*
X0299567Y0117252D01*
X0299250Y0116935D01*
X0296098Y0117252D02*
X0294830Y0117252D01*
X0294830Y0115350D01*
X0294830Y0116301D02*
X0295464Y0116301D01*
X0294830Y0131350D02*
X0296098Y0131350D01*
X0297040Y0131350D02*
X0297040Y0133252D01*
X0298308Y0131350D01*
X0298308Y0133252D01*
X0299250Y0132935D02*
X0299250Y0131667D01*
X0299567Y0131350D01*
X0300201Y0131350D01*
X0300518Y0131667D01*
X0301460Y0131350D02*
X0302411Y0131350D01*
X0302728Y0131667D01*
X0302728Y0131984D01*
X0302411Y0132301D01*
X0301460Y0132301D01*
X0301460Y0133252D02*
X0302411Y0133252D01*
X0302728Y0132935D01*
X0302728Y0132618D01*
X0302411Y0132301D01*
X0301460Y0131350D02*
X0301460Y0133252D01*
X0300518Y0132935D02*
X0300201Y0133252D01*
X0299567Y0133252D01*
X0299250Y0132935D01*
X0296098Y0133252D02*
X0294830Y0133252D01*
X0294830Y0131350D01*
X0294830Y0132301D02*
X0295464Y0132301D01*
X0343000Y0053000D02*
X0423000Y0053000D01*
X0423000Y0258000D01*
X0343000Y0258000D01*
X0343000Y0053000D01*
X0269833Y0228040D02*
X0270150Y0228357D01*
X0270150Y0228991D01*
X0269833Y0229308D01*
X0268750Y0228991D02*
X0268433Y0229308D01*
X0268565Y0229308D02*
X0268248Y0228991D01*
X0268248Y0228357D01*
X0268565Y0228040D01*
X0269833Y0228040D01*
X0268750Y0228357D02*
X0268750Y0228991D01*
X0268750Y0228357D02*
X0268433Y0228040D01*
X0267165Y0228040D01*
X0266848Y0228357D01*
X0266848Y0228991D01*
X0267165Y0229308D01*
X0266848Y0230250D02*
X0267799Y0230250D01*
X0267482Y0230884D01*
X0267482Y0231201D01*
X0267799Y0231518D01*
X0268433Y0231518D01*
X0268750Y0231201D01*
X0268750Y0230567D01*
X0268433Y0230250D01*
X0269199Y0230250D02*
X0269199Y0231518D01*
X0268248Y0231201D02*
X0269199Y0230250D01*
X0270150Y0231201D02*
X0268248Y0231201D01*
X0266848Y0231518D02*
X0266848Y0230250D01*
X0266600Y0244600D02*
X0241600Y0244600D01*
X0197950Y0302500D02*
X0197952Y0302666D01*
X0197958Y0302831D01*
X0197968Y0302997D01*
X0197983Y0303162D01*
X0198001Y0303326D01*
X0198023Y0303490D01*
X0198049Y0303654D01*
X0198080Y0303817D01*
X0198114Y0303979D01*
X0198152Y0304140D01*
X0198195Y0304300D01*
X0198241Y0304459D01*
X0198291Y0304617D01*
X0198345Y0304774D01*
X0198402Y0304929D01*
X0198464Y0305083D01*
X0198529Y0305235D01*
X0198598Y0305386D01*
X0198671Y0305535D01*
X0198747Y0305682D01*
X0198827Y0305827D01*
X0198910Y0305970D01*
X0198997Y0306111D01*
X0199088Y0306250D01*
X0199181Y0306387D01*
X0199278Y0306521D01*
X0199379Y0306653D01*
X0199482Y0306782D01*
X0199589Y0306909D01*
X0199699Y0307033D01*
X0199811Y0307154D01*
X0199927Y0307273D01*
X0200046Y0307389D01*
X0200167Y0307501D01*
X0200291Y0307611D01*
X0200418Y0307718D01*
X0200547Y0307821D01*
X0200679Y0307922D01*
X0200813Y0308019D01*
X0200950Y0308112D01*
X0201089Y0308203D01*
X0201230Y0308290D01*
X0201373Y0308373D01*
X0201518Y0308453D01*
X0201665Y0308529D01*
X0201814Y0308602D01*
X0201965Y0308671D01*
X0202117Y0308736D01*
X0202271Y0308798D01*
X0202426Y0308855D01*
X0202583Y0308909D01*
X0202741Y0308959D01*
X0202900Y0309005D01*
X0203060Y0309048D01*
X0203221Y0309086D01*
X0203383Y0309120D01*
X0203546Y0309151D01*
X0203710Y0309177D01*
X0203874Y0309199D01*
X0204038Y0309217D01*
X0204203Y0309232D01*
X0204369Y0309242D01*
X0204534Y0309248D01*
X0204700Y0309250D01*
X0204866Y0309248D01*
X0205031Y0309242D01*
X0205197Y0309232D01*
X0205362Y0309217D01*
X0205526Y0309199D01*
X0205690Y0309177D01*
X0205854Y0309151D01*
X0206017Y0309120D01*
X0206179Y0309086D01*
X0206340Y0309048D01*
X0206500Y0309005D01*
X0206659Y0308959D01*
X0206817Y0308909D01*
X0206974Y0308855D01*
X0207129Y0308798D01*
X0207283Y0308736D01*
X0207435Y0308671D01*
X0207586Y0308602D01*
X0207735Y0308529D01*
X0207882Y0308453D01*
X0208027Y0308373D01*
X0208170Y0308290D01*
X0208311Y0308203D01*
X0208450Y0308112D01*
X0208587Y0308019D01*
X0208721Y0307922D01*
X0208853Y0307821D01*
X0208982Y0307718D01*
X0209109Y0307611D01*
X0209233Y0307501D01*
X0209354Y0307389D01*
X0209473Y0307273D01*
X0209589Y0307154D01*
X0209701Y0307033D01*
X0209811Y0306909D01*
X0209918Y0306782D01*
X0210021Y0306653D01*
X0210122Y0306521D01*
X0210219Y0306387D01*
X0210312Y0306250D01*
X0210403Y0306111D01*
X0210490Y0305970D01*
X0210573Y0305827D01*
X0210653Y0305682D01*
X0210729Y0305535D01*
X0210802Y0305386D01*
X0210871Y0305235D01*
X0210936Y0305083D01*
X0210998Y0304929D01*
X0211055Y0304774D01*
X0211109Y0304617D01*
X0211159Y0304459D01*
X0211205Y0304300D01*
X0211248Y0304140D01*
X0211286Y0303979D01*
X0211320Y0303817D01*
X0211351Y0303654D01*
X0211377Y0303490D01*
X0211399Y0303326D01*
X0211417Y0303162D01*
X0211432Y0302997D01*
X0211442Y0302831D01*
X0211448Y0302666D01*
X0211450Y0302500D01*
X0211448Y0302334D01*
X0211442Y0302169D01*
X0211432Y0302003D01*
X0211417Y0301838D01*
X0211399Y0301674D01*
X0211377Y0301510D01*
X0211351Y0301346D01*
X0211320Y0301183D01*
X0211286Y0301021D01*
X0211248Y0300860D01*
X0211205Y0300700D01*
X0211159Y0300541D01*
X0211109Y0300383D01*
X0211055Y0300226D01*
X0210998Y0300071D01*
X0210936Y0299917D01*
X0210871Y0299765D01*
X0210802Y0299614D01*
X0210729Y0299465D01*
X0210653Y0299318D01*
X0210573Y0299173D01*
X0210490Y0299030D01*
X0210403Y0298889D01*
X0210312Y0298750D01*
X0210219Y0298613D01*
X0210122Y0298479D01*
X0210021Y0298347D01*
X0209918Y0298218D01*
X0209811Y0298091D01*
X0209701Y0297967D01*
X0209589Y0297846D01*
X0209473Y0297727D01*
X0209354Y0297611D01*
X0209233Y0297499D01*
X0209109Y0297389D01*
X0208982Y0297282D01*
X0208853Y0297179D01*
X0208721Y0297078D01*
X0208587Y0296981D01*
X0208450Y0296888D01*
X0208311Y0296797D01*
X0208170Y0296710D01*
X0208027Y0296627D01*
X0207882Y0296547D01*
X0207735Y0296471D01*
X0207586Y0296398D01*
X0207435Y0296329D01*
X0207283Y0296264D01*
X0207129Y0296202D01*
X0206974Y0296145D01*
X0206817Y0296091D01*
X0206659Y0296041D01*
X0206500Y0295995D01*
X0206340Y0295952D01*
X0206179Y0295914D01*
X0206017Y0295880D01*
X0205854Y0295849D01*
X0205690Y0295823D01*
X0205526Y0295801D01*
X0205362Y0295783D01*
X0205197Y0295768D01*
X0205031Y0295758D01*
X0204866Y0295752D01*
X0204700Y0295750D01*
X0204534Y0295752D01*
X0204369Y0295758D01*
X0204203Y0295768D01*
X0204038Y0295783D01*
X0203874Y0295801D01*
X0203710Y0295823D01*
X0203546Y0295849D01*
X0203383Y0295880D01*
X0203221Y0295914D01*
X0203060Y0295952D01*
X0202900Y0295995D01*
X0202741Y0296041D01*
X0202583Y0296091D01*
X0202426Y0296145D01*
X0202271Y0296202D01*
X0202117Y0296264D01*
X0201965Y0296329D01*
X0201814Y0296398D01*
X0201665Y0296471D01*
X0201518Y0296547D01*
X0201373Y0296627D01*
X0201230Y0296710D01*
X0201089Y0296797D01*
X0200950Y0296888D01*
X0200813Y0296981D01*
X0200679Y0297078D01*
X0200547Y0297179D01*
X0200418Y0297282D01*
X0200291Y0297389D01*
X0200167Y0297499D01*
X0200046Y0297611D01*
X0199927Y0297727D01*
X0199811Y0297846D01*
X0199699Y0297967D01*
X0199589Y0298091D01*
X0199482Y0298218D01*
X0199379Y0298347D01*
X0199278Y0298479D01*
X0199181Y0298613D01*
X0199088Y0298750D01*
X0198997Y0298889D01*
X0198910Y0299030D01*
X0198827Y0299173D01*
X0198747Y0299318D01*
X0198671Y0299465D01*
X0198598Y0299614D01*
X0198529Y0299765D01*
X0198464Y0299917D01*
X0198402Y0300071D01*
X0198345Y0300226D01*
X0198291Y0300383D01*
X0198241Y0300541D01*
X0198195Y0300700D01*
X0198152Y0300860D01*
X0198114Y0301021D01*
X0198080Y0301183D01*
X0198049Y0301346D01*
X0198023Y0301510D01*
X0198001Y0301674D01*
X0197983Y0301838D01*
X0197968Y0302003D01*
X0197958Y0302169D01*
X0197952Y0302334D01*
X0197950Y0302500D01*
X0128800Y0232900D02*
X0128800Y0229900D01*
X0128800Y0227900D02*
X0128800Y0224900D01*
X0126800Y0222900D01*
X0123800Y0222900D01*
X0122800Y0223900D01*
X0121800Y0222900D01*
X0118800Y0222900D01*
X0117800Y0223900D01*
X0116800Y0222900D01*
X0113800Y0222900D01*
X0112800Y0223900D01*
X0111800Y0222900D01*
X0108800Y0222900D01*
X0106800Y0222900D02*
X0103800Y0222900D01*
X0102800Y0223900D01*
X0101800Y0222900D01*
X0098800Y0222900D01*
X0097800Y0223900D01*
X0096800Y0222900D01*
X0093800Y0222900D01*
X0092800Y0223900D01*
X0091800Y0222900D01*
X0088800Y0222900D01*
X0086800Y0224900D01*
X0086800Y0227900D01*
X0086800Y0229900D02*
X0086800Y0232900D01*
X0088800Y0234900D01*
X0091800Y0234900D01*
X0092800Y0233900D01*
X0093800Y0234900D01*
X0096800Y0234900D01*
X0097800Y0233900D01*
X0098800Y0234900D01*
X0101800Y0234900D01*
X0102800Y0233900D01*
X0103800Y0234900D01*
X0106800Y0234900D01*
X0108800Y0234900D02*
X0111800Y0234900D01*
X0112800Y0233900D01*
X0113800Y0234900D01*
X0116800Y0234900D01*
X0117800Y0233900D01*
X0118800Y0234900D01*
X0121800Y0234900D01*
X0122800Y0233900D01*
X0123800Y0234900D01*
X0126800Y0234900D01*
X0128800Y0232900D01*
X0092028Y0235967D02*
X0091711Y0235650D01*
X0091077Y0235650D01*
X0090760Y0235967D01*
X0091394Y0236601D02*
X0091711Y0236601D01*
X0092028Y0236284D01*
X0092028Y0235967D01*
X0091711Y0236601D02*
X0092028Y0236918D01*
X0092028Y0237235D01*
X0091711Y0237552D01*
X0091077Y0237552D01*
X0090760Y0237235D01*
X0089818Y0237552D02*
X0089184Y0237552D01*
X0089501Y0237552D02*
X0089501Y0235967D01*
X0089184Y0235650D01*
X0088867Y0235650D01*
X0088550Y0235967D01*
X0017950Y0302500D02*
X0017952Y0302666D01*
X0017958Y0302831D01*
X0017968Y0302997D01*
X0017983Y0303162D01*
X0018001Y0303326D01*
X0018023Y0303490D01*
X0018049Y0303654D01*
X0018080Y0303817D01*
X0018114Y0303979D01*
X0018152Y0304140D01*
X0018195Y0304300D01*
X0018241Y0304459D01*
X0018291Y0304617D01*
X0018345Y0304774D01*
X0018402Y0304929D01*
X0018464Y0305083D01*
X0018529Y0305235D01*
X0018598Y0305386D01*
X0018671Y0305535D01*
X0018747Y0305682D01*
X0018827Y0305827D01*
X0018910Y0305970D01*
X0018997Y0306111D01*
X0019088Y0306250D01*
X0019181Y0306387D01*
X0019278Y0306521D01*
X0019379Y0306653D01*
X0019482Y0306782D01*
X0019589Y0306909D01*
X0019699Y0307033D01*
X0019811Y0307154D01*
X0019927Y0307273D01*
X0020046Y0307389D01*
X0020167Y0307501D01*
X0020291Y0307611D01*
X0020418Y0307718D01*
X0020547Y0307821D01*
X0020679Y0307922D01*
X0020813Y0308019D01*
X0020950Y0308112D01*
X0021089Y0308203D01*
X0021230Y0308290D01*
X0021373Y0308373D01*
X0021518Y0308453D01*
X0021665Y0308529D01*
X0021814Y0308602D01*
X0021965Y0308671D01*
X0022117Y0308736D01*
X0022271Y0308798D01*
X0022426Y0308855D01*
X0022583Y0308909D01*
X0022741Y0308959D01*
X0022900Y0309005D01*
X0023060Y0309048D01*
X0023221Y0309086D01*
X0023383Y0309120D01*
X0023546Y0309151D01*
X0023710Y0309177D01*
X0023874Y0309199D01*
X0024038Y0309217D01*
X0024203Y0309232D01*
X0024369Y0309242D01*
X0024534Y0309248D01*
X0024700Y0309250D01*
X0024866Y0309248D01*
X0025031Y0309242D01*
X0025197Y0309232D01*
X0025362Y0309217D01*
X0025526Y0309199D01*
X0025690Y0309177D01*
X0025854Y0309151D01*
X0026017Y0309120D01*
X0026179Y0309086D01*
X0026340Y0309048D01*
X0026500Y0309005D01*
X0026659Y0308959D01*
X0026817Y0308909D01*
X0026974Y0308855D01*
X0027129Y0308798D01*
X0027283Y0308736D01*
X0027435Y0308671D01*
X0027586Y0308602D01*
X0027735Y0308529D01*
X0027882Y0308453D01*
X0028027Y0308373D01*
X0028170Y0308290D01*
X0028311Y0308203D01*
X0028450Y0308112D01*
X0028587Y0308019D01*
X0028721Y0307922D01*
X0028853Y0307821D01*
X0028982Y0307718D01*
X0029109Y0307611D01*
X0029233Y0307501D01*
X0029354Y0307389D01*
X0029473Y0307273D01*
X0029589Y0307154D01*
X0029701Y0307033D01*
X0029811Y0306909D01*
X0029918Y0306782D01*
X0030021Y0306653D01*
X0030122Y0306521D01*
X0030219Y0306387D01*
X0030312Y0306250D01*
X0030403Y0306111D01*
X0030490Y0305970D01*
X0030573Y0305827D01*
X0030653Y0305682D01*
X0030729Y0305535D01*
X0030802Y0305386D01*
X0030871Y0305235D01*
X0030936Y0305083D01*
X0030998Y0304929D01*
X0031055Y0304774D01*
X0031109Y0304617D01*
X0031159Y0304459D01*
X0031205Y0304300D01*
X0031248Y0304140D01*
X0031286Y0303979D01*
X0031320Y0303817D01*
X0031351Y0303654D01*
X0031377Y0303490D01*
X0031399Y0303326D01*
X0031417Y0303162D01*
X0031432Y0302997D01*
X0031442Y0302831D01*
X0031448Y0302666D01*
X0031450Y0302500D01*
X0031448Y0302334D01*
X0031442Y0302169D01*
X0031432Y0302003D01*
X0031417Y0301838D01*
X0031399Y0301674D01*
X0031377Y0301510D01*
X0031351Y0301346D01*
X0031320Y0301183D01*
X0031286Y0301021D01*
X0031248Y0300860D01*
X0031205Y0300700D01*
X0031159Y0300541D01*
X0031109Y0300383D01*
X0031055Y0300226D01*
X0030998Y0300071D01*
X0030936Y0299917D01*
X0030871Y0299765D01*
X0030802Y0299614D01*
X0030729Y0299465D01*
X0030653Y0299318D01*
X0030573Y0299173D01*
X0030490Y0299030D01*
X0030403Y0298889D01*
X0030312Y0298750D01*
X0030219Y0298613D01*
X0030122Y0298479D01*
X0030021Y0298347D01*
X0029918Y0298218D01*
X0029811Y0298091D01*
X0029701Y0297967D01*
X0029589Y0297846D01*
X0029473Y0297727D01*
X0029354Y0297611D01*
X0029233Y0297499D01*
X0029109Y0297389D01*
X0028982Y0297282D01*
X0028853Y0297179D01*
X0028721Y0297078D01*
X0028587Y0296981D01*
X0028450Y0296888D01*
X0028311Y0296797D01*
X0028170Y0296710D01*
X0028027Y0296627D01*
X0027882Y0296547D01*
X0027735Y0296471D01*
X0027586Y0296398D01*
X0027435Y0296329D01*
X0027283Y0296264D01*
X0027129Y0296202D01*
X0026974Y0296145D01*
X0026817Y0296091D01*
X0026659Y0296041D01*
X0026500Y0295995D01*
X0026340Y0295952D01*
X0026179Y0295914D01*
X0026017Y0295880D01*
X0025854Y0295849D01*
X0025690Y0295823D01*
X0025526Y0295801D01*
X0025362Y0295783D01*
X0025197Y0295768D01*
X0025031Y0295758D01*
X0024866Y0295752D01*
X0024700Y0295750D01*
X0024534Y0295752D01*
X0024369Y0295758D01*
X0024203Y0295768D01*
X0024038Y0295783D01*
X0023874Y0295801D01*
X0023710Y0295823D01*
X0023546Y0295849D01*
X0023383Y0295880D01*
X0023221Y0295914D01*
X0023060Y0295952D01*
X0022900Y0295995D01*
X0022741Y0296041D01*
X0022583Y0296091D01*
X0022426Y0296145D01*
X0022271Y0296202D01*
X0022117Y0296264D01*
X0021965Y0296329D01*
X0021814Y0296398D01*
X0021665Y0296471D01*
X0021518Y0296547D01*
X0021373Y0296627D01*
X0021230Y0296710D01*
X0021089Y0296797D01*
X0020950Y0296888D01*
X0020813Y0296981D01*
X0020679Y0297078D01*
X0020547Y0297179D01*
X0020418Y0297282D01*
X0020291Y0297389D01*
X0020167Y0297499D01*
X0020046Y0297611D01*
X0019927Y0297727D01*
X0019811Y0297846D01*
X0019699Y0297967D01*
X0019589Y0298091D01*
X0019482Y0298218D01*
X0019379Y0298347D01*
X0019278Y0298479D01*
X0019181Y0298613D01*
X0019088Y0298750D01*
X0018997Y0298889D01*
X0018910Y0299030D01*
X0018827Y0299173D01*
X0018747Y0299318D01*
X0018671Y0299465D01*
X0018598Y0299614D01*
X0018529Y0299765D01*
X0018464Y0299917D01*
X0018402Y0300071D01*
X0018345Y0300226D01*
X0018291Y0300383D01*
X0018241Y0300541D01*
X0018195Y0300700D01*
X0018152Y0300860D01*
X0018114Y0301021D01*
X0018080Y0301183D01*
X0018049Y0301346D01*
X0018023Y0301510D01*
X0018001Y0301674D01*
X0017983Y0301838D01*
X0017968Y0302003D01*
X0017958Y0302169D01*
X0017952Y0302334D01*
X0017950Y0302500D01*
X0393748Y0245884D02*
X0395650Y0245884D01*
X0395650Y0245250D02*
X0395650Y0246518D01*
X0394382Y0245250D02*
X0393748Y0245884D01*
X0394065Y0244308D02*
X0393748Y0243991D01*
X0393748Y0243357D01*
X0394065Y0243040D01*
X0395333Y0243040D01*
X0395650Y0243357D01*
X0395650Y0243991D01*
X0395333Y0244308D01*
X0402248Y0245357D02*
X0402565Y0245040D01*
X0403833Y0245040D01*
X0404150Y0245357D01*
X0404150Y0245991D01*
X0403833Y0246308D01*
X0403833Y0247250D02*
X0404150Y0247567D01*
X0404150Y0248201D01*
X0403833Y0248518D01*
X0403516Y0248518D01*
X0403199Y0248201D01*
X0403199Y0247250D01*
X0403833Y0247250D01*
X0403199Y0247250D02*
X0402565Y0247884D01*
X0402248Y0248518D01*
X0402565Y0246308D02*
X0402248Y0245991D01*
X0402248Y0245357D01*
X0410248Y0245357D02*
X0410565Y0245040D01*
X0411833Y0245040D01*
X0412150Y0245357D01*
X0412150Y0245991D01*
X0411833Y0246308D01*
X0411833Y0247250D02*
X0412150Y0247567D01*
X0412150Y0248201D01*
X0411833Y0248518D01*
X0411516Y0248518D01*
X0411199Y0248201D01*
X0411199Y0247884D01*
X0411199Y0248201D02*
X0410882Y0248518D01*
X0410565Y0248518D01*
X0410248Y0248201D01*
X0410248Y0247567D01*
X0410565Y0247250D01*
X0410565Y0246308D02*
X0410248Y0245991D01*
X0410248Y0245357D01*
D19*
X0340618Y0257906D02*
X0279382Y0257906D01*
X0279382Y0272906D02*
X0279382Y0303638D01*
X0279382Y0320406D02*
X0279382Y0331138D01*
X0340618Y0331138D01*
X0340618Y0320406D01*
X0340618Y0303638D02*
X0340618Y0272906D01*
X0149512Y0104756D02*
X0147150Y0104756D01*
X0149512Y0104756D02*
X0149512Y0101606D01*
X0140850Y0104756D02*
X0138488Y0104756D01*
X0138488Y0101606D01*
X0290500Y0065000D02*
X0290506Y0065528D01*
X0290526Y0066055D01*
X0290558Y0066582D01*
X0290604Y0067107D01*
X0290662Y0067632D01*
X0290733Y0068155D01*
X0290817Y0068676D01*
X0290913Y0069194D01*
X0291022Y0069711D01*
X0291144Y0070224D01*
X0291279Y0070734D01*
X0291426Y0071241D01*
X0291585Y0071744D01*
X0291757Y0072243D01*
X0291941Y0072738D01*
X0292137Y0073228D01*
X0292344Y0073713D01*
X0292564Y0074192D01*
X0292796Y0074667D01*
X0293039Y0075135D01*
X0293293Y0075597D01*
X0293559Y0076053D01*
X0293836Y0076502D01*
X0294123Y0076945D01*
X0294422Y0077380D01*
X0294731Y0077808D01*
X0295051Y0078227D01*
X0295380Y0078639D01*
X0295720Y0079043D01*
X0296070Y0079439D01*
X0296429Y0079825D01*
X0296797Y0080203D01*
X0297175Y0080571D01*
X0297561Y0080930D01*
X0297957Y0081280D01*
X0298361Y0081620D01*
X0298773Y0081949D01*
X0299192Y0082269D01*
X0299620Y0082578D01*
X0300055Y0082877D01*
X0300498Y0083164D01*
X0300947Y0083441D01*
X0301403Y0083707D01*
X0301865Y0083961D01*
X0302333Y0084204D01*
X0302808Y0084436D01*
X0303287Y0084656D01*
X0303772Y0084863D01*
X0304262Y0085059D01*
X0304757Y0085243D01*
X0305256Y0085415D01*
X0305759Y0085574D01*
X0306266Y0085721D01*
X0306776Y0085856D01*
X0307289Y0085978D01*
X0307806Y0086087D01*
X0308324Y0086183D01*
X0308845Y0086267D01*
X0309368Y0086338D01*
X0309893Y0086396D01*
X0310418Y0086442D01*
X0310945Y0086474D01*
X0311472Y0086494D01*
X0312000Y0086500D01*
X0312528Y0086494D01*
X0313055Y0086474D01*
X0313582Y0086442D01*
X0314107Y0086396D01*
X0314632Y0086338D01*
X0315155Y0086267D01*
X0315676Y0086183D01*
X0316194Y0086087D01*
X0316711Y0085978D01*
X0317224Y0085856D01*
X0317734Y0085721D01*
X0318241Y0085574D01*
X0318744Y0085415D01*
X0319243Y0085243D01*
X0319738Y0085059D01*
X0320228Y0084863D01*
X0320713Y0084656D01*
X0321192Y0084436D01*
X0321667Y0084204D01*
X0322135Y0083961D01*
X0322597Y0083707D01*
X0323053Y0083441D01*
X0323502Y0083164D01*
X0323945Y0082877D01*
X0324380Y0082578D01*
X0324808Y0082269D01*
X0325227Y0081949D01*
X0325639Y0081620D01*
X0326043Y0081280D01*
X0326439Y0080930D01*
X0326825Y0080571D01*
X0327203Y0080203D01*
X0327571Y0079825D01*
X0327930Y0079439D01*
X0328280Y0079043D01*
X0328620Y0078639D01*
X0328949Y0078227D01*
X0329269Y0077808D01*
X0329578Y0077380D01*
X0329877Y0076945D01*
X0330164Y0076502D01*
X0330441Y0076053D01*
X0330707Y0075597D01*
X0330961Y0075135D01*
X0331204Y0074667D01*
X0331436Y0074192D01*
X0331656Y0073713D01*
X0331863Y0073228D01*
X0332059Y0072738D01*
X0332243Y0072243D01*
X0332415Y0071744D01*
X0332574Y0071241D01*
X0332721Y0070734D01*
X0332856Y0070224D01*
X0332978Y0069711D01*
X0333087Y0069194D01*
X0333183Y0068676D01*
X0333267Y0068155D01*
X0333338Y0067632D01*
X0333396Y0067107D01*
X0333442Y0066582D01*
X0333474Y0066055D01*
X0333494Y0065528D01*
X0333500Y0065000D01*
X0333494Y0064472D01*
X0333474Y0063945D01*
X0333442Y0063418D01*
X0333396Y0062893D01*
X0333338Y0062368D01*
X0333267Y0061845D01*
X0333183Y0061324D01*
X0333087Y0060806D01*
X0332978Y0060289D01*
X0332856Y0059776D01*
X0332721Y0059266D01*
X0332574Y0058759D01*
X0332415Y0058256D01*
X0332243Y0057757D01*
X0332059Y0057262D01*
X0331863Y0056772D01*
X0331656Y0056287D01*
X0331436Y0055808D01*
X0331204Y0055333D01*
X0330961Y0054865D01*
X0330707Y0054403D01*
X0330441Y0053947D01*
X0330164Y0053498D01*
X0329877Y0053055D01*
X0329578Y0052620D01*
X0329269Y0052192D01*
X0328949Y0051773D01*
X0328620Y0051361D01*
X0328280Y0050957D01*
X0327930Y0050561D01*
X0327571Y0050175D01*
X0327203Y0049797D01*
X0326825Y0049429D01*
X0326439Y0049070D01*
X0326043Y0048720D01*
X0325639Y0048380D01*
X0325227Y0048051D01*
X0324808Y0047731D01*
X0324380Y0047422D01*
X0323945Y0047123D01*
X0323502Y0046836D01*
X0323053Y0046559D01*
X0322597Y0046293D01*
X0322135Y0046039D01*
X0321667Y0045796D01*
X0321192Y0045564D01*
X0320713Y0045344D01*
X0320228Y0045137D01*
X0319738Y0044941D01*
X0319243Y0044757D01*
X0318744Y0044585D01*
X0318241Y0044426D01*
X0317734Y0044279D01*
X0317224Y0044144D01*
X0316711Y0044022D01*
X0316194Y0043913D01*
X0315676Y0043817D01*
X0315155Y0043733D01*
X0314632Y0043662D01*
X0314107Y0043604D01*
X0313582Y0043558D01*
X0313055Y0043526D01*
X0312528Y0043506D01*
X0312000Y0043500D01*
X0311472Y0043506D01*
X0310945Y0043526D01*
X0310418Y0043558D01*
X0309893Y0043604D01*
X0309368Y0043662D01*
X0308845Y0043733D01*
X0308324Y0043817D01*
X0307806Y0043913D01*
X0307289Y0044022D01*
X0306776Y0044144D01*
X0306266Y0044279D01*
X0305759Y0044426D01*
X0305256Y0044585D01*
X0304757Y0044757D01*
X0304262Y0044941D01*
X0303772Y0045137D01*
X0303287Y0045344D01*
X0302808Y0045564D01*
X0302333Y0045796D01*
X0301865Y0046039D01*
X0301403Y0046293D01*
X0300947Y0046559D01*
X0300498Y0046836D01*
X0300055Y0047123D01*
X0299620Y0047422D01*
X0299192Y0047731D01*
X0298773Y0048051D01*
X0298361Y0048380D01*
X0297957Y0048720D01*
X0297561Y0049070D01*
X0297175Y0049429D01*
X0296797Y0049797D01*
X0296429Y0050175D01*
X0296070Y0050561D01*
X0295720Y0050957D01*
X0295380Y0051361D01*
X0295051Y0051773D01*
X0294731Y0052192D01*
X0294422Y0052620D01*
X0294123Y0053055D01*
X0293836Y0053498D01*
X0293559Y0053947D01*
X0293293Y0054403D01*
X0293039Y0054865D01*
X0292796Y0055333D01*
X0292564Y0055808D01*
X0292344Y0056287D01*
X0292137Y0056772D01*
X0291941Y0057262D01*
X0291757Y0057757D01*
X0291585Y0058256D01*
X0291426Y0058759D01*
X0291279Y0059266D01*
X0291144Y0059776D01*
X0291022Y0060289D01*
X0290913Y0060806D01*
X0290817Y0061324D01*
X0290733Y0061845D01*
X0290662Y0062368D01*
X0290604Y0062893D01*
X0290558Y0063418D01*
X0290526Y0063945D01*
X0290506Y0064472D01*
X0290500Y0065000D01*
X0317000Y0072500D02*
X0317000Y0077500D01*
D20*
X0323549Y0067578D02*
X0323799Y0067578D01*
X0324800Y0066577D01*
X0325050Y0066577D01*
X0324800Y0066104D02*
X0325050Y0065854D01*
X0325050Y0065354D01*
X0324800Y0065103D01*
X0323799Y0065103D01*
X0323549Y0065354D01*
X0323549Y0065854D01*
X0323799Y0066104D01*
X0323549Y0066577D02*
X0323549Y0067578D01*
D21*
X0124937Y0096486D02*
X0121233Y0096486D01*
X0121233Y0098338D01*
X0121851Y0098955D01*
X0123085Y0098955D01*
X0123702Y0098338D01*
X0123702Y0096486D01*
X0123702Y0097721D02*
X0124937Y0098955D01*
X0124937Y0100170D02*
X0121233Y0100170D01*
X0124937Y0102638D01*
X0121233Y0102638D01*
X0122468Y0103853D02*
X0121233Y0105087D01*
X0124937Y0105087D01*
X0124937Y0103853D02*
X0124937Y0106321D01*
M02*
