%
M48
M72
T01C0.0197
T02C0.0200
T03C0.0236
T04C0.0276
T05C0.0354
T06C0.0400
T07C0.0630
T08C0.0748
T09C0.1000
T10C0.1150
T11C0.1200
T12C0.1280
T13C0.1500
T14C0.4375
%
T01
X1800Y5600
X6900Y5450
X7600Y5950
X7100Y6500
X7600Y7000
X7700Y7600
X8200Y8100
X10000Y7300
X10900Y7300
X11700Y7300
X14200Y8600
X15700Y10200
X17000Y8600
X18200Y10200
X19700Y8600
X19800Y6600
X21500Y6600
X22700Y6600
X24100Y6700
X22800Y8600
X21400Y10200
X24200Y12300
X26500Y10400
X27500Y11400
X28400Y10600
X30100Y10400
X30800Y11400
X31200Y8400
X32900Y8400
X32500Y6900
X29800Y6900
X27900Y6600
X26600Y8400
X29700Y4300
X28200Y3700
X25300Y3700
X22600Y3700
X31400Y3700
X32800Y4300
X38000Y10100
X40300Y10900
X39700Y13100
X38000Y12500
X37500Y14600
X38000Y16600
X40000Y15000
X40900Y16500
X40600Y17600
X40300Y18500
X40400Y20000
X39400Y20200
X39400Y21400
X40200Y21600
X40400Y22700
X36300Y25300
X36200Y24300
X35600Y26300
X37900Y28300
X37200Y29700
X39100Y29400
X38800Y31100
X41400Y31300
X41600Y30000
X41300Y26500
X42500Y26400
X39100Y26400
X36200Y22100
X32700Y24500
X31600Y23100
X32500Y22000
X31100Y20800
X29300Y21100
X29300Y19600
X29300Y18300
X29300Y17300
X29300Y15600
X31500Y15600
X32600Y17300
X31100Y17700
X32400Y19300
X29300Y22900
X29700Y24500
X30500Y25500
X28700Y28400
X27200Y28300
X25600Y27700
X25600Y29300
X24100Y29200
X23800Y27300
X24900Y25800
X26700Y25100
X23900Y24000
X24300Y21800
X24300Y19600
X26900Y21500
X26900Y17500
X26900Y15300
X26900Y13200
X24400Y14500
X24400Y16800
X14400Y21600
X11400Y21500
X9300Y23700
X8400Y23600
X8700Y24900
X8100Y25800
X6100Y27800
X5300Y28000
X4600Y28600
X4100Y27000
X3600Y25500
X4300Y23700
X4300Y22700
X4300Y21700
X6200Y21900
X7000Y23200
X11600Y26200
X13500Y27900
X14700Y30300
X11700Y30400
X9000Y30400
X9000Y28400
X6700Y29800
X3500Y31100
X1300Y30300
X1700Y21600
X14400Y24300
X24400Y31200
X30100Y29800
X30700Y31200
X32200Y31100
X9500Y10450
X10450Y9700
X8450Y10450
X6500Y10600
X3100Y10600
X8050Y6450
X7700Y5100
X7700Y4400
X8500Y4400
X8500Y3600
X7700Y3600
X10700Y3700
X13100Y4000
T02
X12530Y22640
X12530Y23140
X12030Y23140
X12030Y22640
X11530Y22640
X11530Y23140
X11030Y23140
X11030Y22640
X10530Y22640
X10530Y23140
X10030Y23140
X10030Y22640
X9530Y22640
X9530Y23140
X9030Y23140
X9030Y22640
T03
X24600Y10400
X27600Y7800
X26500Y7400
X25500Y5400
X30700Y12200
X30600Y13000
X29900Y13000
X30500Y14900
X35900Y8700
T04
X31200Y7500
X31200Y5500
T05
X31250Y26550
X30250Y26550
X29250Y26550
X29750Y27550
X30750Y27550
X31750Y27550
X32750Y27550
X32250Y26550
X2780Y26970
X2780Y27970
X2780Y28970
X2780Y29970
X1780Y29470
X1780Y28470
X1780Y27470
X1780Y26470
T06
X22410Y23710
X22410Y22710
X22410Y21710
X22410Y20710
X22410Y19710
X22410Y18710
X22410Y17710
X22410Y16710
X22410Y15710
X22410Y14710
X22410Y13710
X22410Y12710
X28410Y12710
X28410Y13710
X28410Y14710
X28410Y15710
X28410Y16710
X28410Y17710
X28410Y18710
X27410Y19210
X28410Y19710
X27410Y20210
X28410Y20710
X28410Y21710
X28410Y22710
X28410Y23710
X33800Y24050
X34800Y24050
X34800Y23050
X33800Y23050
X33800Y22050
X33800Y21050
X34800Y21050
X34800Y22050
X34800Y20050
X33800Y20050
X33800Y19050
X34800Y19050
X34800Y18050
X34800Y17050
X33800Y17050
X33800Y18050
X33800Y16050
X34800Y16050
X34800Y15050
X33800Y15050
X33800Y14050
X34800Y14050
X34800Y13050
X34800Y12050
X33800Y12050
X33800Y13050
X33800Y11050
X34800Y11050
X34800Y10050
X33800Y10050
X33800Y9050
X33800Y8050
X34800Y8050
X34800Y9050
X34800Y7050
X33800Y7050
X33800Y6050
X34800Y6050
X41800Y6050
X42800Y6050
X42800Y7050
X41800Y7050
X41800Y8050
X41800Y9050
X42800Y9050
X42800Y8050
X42800Y10050
X41800Y10050
X41800Y11050
X42800Y11050
X42800Y12050
X42800Y13050
X41800Y13050
X41800Y12050
X41800Y14050
X42800Y14050
X42800Y15050
X41800Y15050
X41800Y16050
X42800Y16050
X42800Y17050
X42800Y18050
X41800Y18050
X41800Y17050
X41800Y19050
X42800Y19050
X42800Y20050
X41800Y20050
X41800Y21050
X41800Y22050
X42800Y22050
X42800Y21050
X42800Y23050
X41800Y23050
X41800Y24050
X42800Y24050
X42800Y25050
X41800Y25050
X34800Y25050
X33800Y25050
X18390Y6390
X18390Y5390
X18390Y4390
X17390Y4390
X17390Y5390
X16390Y5390
X16390Y4390
X15390Y4390
X15390Y5390
X14390Y5390
X14390Y4390
X13390Y5390
X12390Y5390
X11390Y5390
X10390Y5390
X9390Y5390
X9390Y6390
X10390Y6390
X11390Y6390
X12390Y6390
X13390Y6390
X14390Y6390
X15390Y6390
X16390Y6390
X17390Y6390
T07
X8900Y9100
X6900Y9100
X4200Y9100
X2200Y9100
T08
X1831Y25020
X6480Y25020
X6480Y31420
X1831Y31420
X27800Y31250
X27800Y26601
X34200Y26601
X34200Y31250
T09
X20900Y28800
X19700Y28800
X18500Y28800
X18500Y31100
X20900Y22800
X20900Y20800
X20900Y13800
X19500Y11900
X12500Y11900
X8500Y11900
X1700Y11900
T10
X1435Y15290
X19625Y15290
T11
X2450Y3950
X20470Y3950
X41540Y3940
X41550Y28080
X20470Y30260
T12
X28750Y30050
X33250Y30050
X5280Y30470
X5280Y25970
T13
X16820Y25070
X22720Y29970
X26920Y29970
X35620Y30870
X40120Y30770
X16760Y30930
T14
X10530Y15290
M30
