G75*
%MOIN*%
%OFA0B0*%
%FSLAX25Y25*%
%IPPOS*%
%LPD*%
%AMOC8*
5,1,8,0,0,1.08239X$1,22.5*
%
%ADD10C,0.44250*%
%ADD11C,0.12000*%
%ADD12C,0.12500*%
%ADD13C,0.15500*%
%ADD14C,0.10500*%
%ADD15R,0.07587X0.06799*%
%ADD16R,0.06799X0.07587*%
%ADD17R,0.04437X0.04831*%
%ADD18C,0.07000*%
%ADD19R,0.07000X0.07000*%
%ADD20R,0.09949X0.09949*%
%ADD21R,0.04437X0.02272*%
%ADD22C,0.07900*%
%ADD23C,0.06012*%
%ADD24C,0.11720*%
%ADD25C,0.13300*%
%ADD26R,0.05933X0.03295*%
%ADD27R,0.15657X0.18295*%
%ADD28R,0.06406X0.08768*%
%ADD29C,0.04437*%
%ADD30R,0.03650X0.04043*%
%ADD31R,0.03000X0.05500*%
%ADD32C,0.00500*%
%ADD33C,0.03469*%
%ADD34C,0.16500*%
%ADD35C,0.04043*%
D10*
X0105300Y0152900D03*
D11*
X0014350Y0152900D03*
X0196250Y0152900D03*
D12*
X0024500Y0039500D03*
X0204700Y0302600D03*
X0415500Y0280800D03*
X0415400Y0039400D03*
D13*
X0168200Y0250700D03*
X0227200Y0299700D03*
X0269200Y0299700D03*
X0356200Y0308700D03*
X0401200Y0307700D03*
X0167600Y0309300D03*
D14*
X0185000Y0311000D03*
X0185000Y0288000D03*
X0197000Y0288000D03*
X0209000Y0288000D03*
X0209000Y0228000D03*
X0209000Y0208000D03*
X0209000Y0138000D03*
X0195000Y0119000D03*
X0125000Y0119000D03*
X0085000Y0119000D03*
X0017000Y0119000D03*
D15*
X0389000Y0239488D03*
X0389000Y0250512D03*
D16*
X0268512Y0066000D03*
X0257488Y0066000D03*
D17*
X0133000Y0097654D03*
X0133000Y0104346D03*
X0265000Y0226654D03*
X0272000Y0226654D03*
X0272000Y0233346D03*
X0265000Y0233346D03*
X0399000Y0243654D03*
X0399000Y0250346D03*
X0407000Y0250346D03*
X0407000Y0243654D03*
D18*
X0312000Y0075000D03*
D19*
X0312000Y0055000D03*
D20*
X0089000Y0091000D03*
X0069000Y0091000D03*
X0042000Y0091000D03*
X0022000Y0091000D03*
D21*
X0110457Y0092425D03*
X0110457Y0089276D03*
X0110457Y0086126D03*
X0110457Y0082976D03*
X0117543Y0082976D03*
X0117543Y0086126D03*
X0117543Y0089276D03*
X0117543Y0092425D03*
X0117543Y0095575D03*
X0117543Y0098724D03*
X0117543Y0101874D03*
X0117543Y0105024D03*
X0110457Y0105024D03*
X0110457Y0101874D03*
X0110457Y0098724D03*
X0110457Y0095575D03*
D22*
X0113900Y0063900D03*
X0103900Y0063900D03*
X0093900Y0063900D03*
X0093900Y0053900D03*
X0103900Y0053900D03*
X0113900Y0053900D03*
X0123900Y0053900D03*
X0133900Y0053900D03*
X0133900Y0063900D03*
X0123900Y0063900D03*
X0143900Y0063900D03*
X0153900Y0063900D03*
X0163900Y0063900D03*
X0173900Y0063900D03*
X0173900Y0053900D03*
X0173900Y0043900D03*
X0163900Y0043900D03*
X0163900Y0053900D03*
X0153900Y0053900D03*
X0153900Y0043900D03*
X0143900Y0043900D03*
X0143900Y0053900D03*
X0183900Y0053900D03*
X0183900Y0043900D03*
X0183900Y0063900D03*
X0224100Y0127100D03*
X0224100Y0137100D03*
X0224100Y0147100D03*
X0224100Y0157100D03*
X0224100Y0167100D03*
X0224100Y0177100D03*
X0224100Y0187100D03*
X0224100Y0197100D03*
X0224100Y0207100D03*
X0224100Y0217100D03*
X0224100Y0227100D03*
X0224100Y0237100D03*
X0274100Y0202100D03*
X0284100Y0207100D03*
X0284100Y0217100D03*
X0284100Y0227100D03*
X0284100Y0237100D03*
X0284100Y0197100D03*
X0274100Y0192100D03*
X0284100Y0187100D03*
X0284100Y0177100D03*
X0284100Y0167100D03*
X0284100Y0157100D03*
X0284100Y0147100D03*
X0284100Y0137100D03*
X0284100Y0127100D03*
X0338000Y0130500D03*
X0338000Y0120500D03*
X0348000Y0120500D03*
X0348000Y0130500D03*
X0348000Y0140500D03*
X0338000Y0140500D03*
X0338000Y0150500D03*
X0348000Y0150500D03*
X0348000Y0160500D03*
X0338000Y0160500D03*
X0338000Y0170500D03*
X0338000Y0180500D03*
X0348000Y0180500D03*
X0348000Y0170500D03*
X0348000Y0190500D03*
X0338000Y0190500D03*
X0338000Y0200500D03*
X0348000Y0200500D03*
X0348000Y0210500D03*
X0348000Y0220500D03*
X0338000Y0220500D03*
X0338000Y0210500D03*
X0338000Y0230500D03*
X0348000Y0230500D03*
X0348000Y0240500D03*
X0338000Y0240500D03*
X0338000Y0250500D03*
X0348000Y0250500D03*
X0418000Y0250500D03*
X0428000Y0250500D03*
X0428000Y0240500D03*
X0418000Y0240500D03*
X0418000Y0230500D03*
X0428000Y0230500D03*
X0428000Y0220500D03*
X0428000Y0210500D03*
X0418000Y0210500D03*
X0418000Y0220500D03*
X0418000Y0200500D03*
X0428000Y0200500D03*
X0428000Y0190500D03*
X0418000Y0190500D03*
X0418000Y0180500D03*
X0418000Y0170500D03*
X0428000Y0170500D03*
X0428000Y0180500D03*
X0428000Y0160500D03*
X0418000Y0160500D03*
X0418000Y0150500D03*
X0428000Y0150500D03*
X0428000Y0140500D03*
X0418000Y0140500D03*
X0418000Y0130500D03*
X0418000Y0120500D03*
X0428000Y0120500D03*
X0428000Y0130500D03*
X0428000Y0110500D03*
X0418000Y0110500D03*
X0418000Y0100500D03*
X0428000Y0100500D03*
X0428000Y0090500D03*
X0428000Y0080500D03*
X0418000Y0080500D03*
X0418000Y0090500D03*
X0418000Y0070500D03*
X0428000Y0070500D03*
X0428000Y0060500D03*
X0418000Y0060500D03*
X0348000Y0060500D03*
X0338000Y0060500D03*
X0338000Y0070500D03*
X0348000Y0070500D03*
X0348000Y0080500D03*
X0348000Y0090500D03*
X0338000Y0090500D03*
X0338000Y0080500D03*
X0338000Y0100500D03*
X0348000Y0100500D03*
X0348000Y0110500D03*
X0338000Y0110500D03*
D23*
X0322500Y0265500D03*
X0317500Y0275500D03*
X0327500Y0275500D03*
X0312500Y0265500D03*
X0302500Y0265500D03*
X0292500Y0265500D03*
X0297500Y0275500D03*
X0307500Y0275500D03*
X0027800Y0279700D03*
X0027800Y0289700D03*
X0027800Y0299700D03*
X0017800Y0294700D03*
X0017800Y0284700D03*
X0017800Y0274700D03*
X0017800Y0264700D03*
X0027800Y0269700D03*
D24*
X0018312Y0250200D03*
X0064800Y0250200D03*
X0064800Y0314200D03*
X0018312Y0314200D03*
X0278000Y0312500D03*
X0278000Y0266012D03*
X0342000Y0266012D03*
X0342000Y0312500D03*
D25*
X0332500Y0300500D03*
X0287500Y0300500D03*
X0052800Y0304700D03*
X0052800Y0259700D03*
D26*
X0045594Y0049500D03*
X0045594Y0044500D03*
X0045594Y0039500D03*
X0045594Y0034500D03*
X0067406Y0034500D03*
X0067406Y0039500D03*
X0067406Y0044500D03*
X0067406Y0049500D03*
D27*
X0052795Y0042000D03*
D28*
X0058587Y0061000D03*
X0044413Y0061000D03*
D29*
X0090300Y0226400D03*
X0090300Y0231400D03*
X0095300Y0231400D03*
X0095300Y0226400D03*
X0100300Y0226400D03*
X0100300Y0231400D03*
X0105300Y0231400D03*
X0105300Y0226400D03*
X0110300Y0226400D03*
X0110300Y0231400D03*
X0115300Y0231400D03*
X0115300Y0226400D03*
X0120300Y0226400D03*
X0120300Y0231400D03*
X0125300Y0231400D03*
X0125300Y0226400D03*
D30*
X0144000Y0106331D03*
X0140260Y0098063D03*
X0147740Y0098063D03*
D31*
X0295000Y0122000D03*
X0299000Y0122000D03*
X0303000Y0122000D03*
X0303000Y0138000D03*
X0299000Y0138000D03*
X0295000Y0138000D03*
D32*
X0296250Y0138171D02*
X0297750Y0138171D01*
X0297750Y0138500D02*
X0297750Y0137500D01*
X0296250Y0137500D01*
X0296250Y0138500D01*
X0297750Y0138500D01*
X0297750Y0137672D02*
X0296250Y0137672D01*
X0300250Y0137672D02*
X0301750Y0137672D01*
X0301750Y0137500D02*
X0301750Y0138500D01*
X0300250Y0138500D01*
X0300250Y0137500D01*
X0301750Y0137500D01*
X0301750Y0138171D02*
X0300250Y0138171D01*
X0300250Y0122500D02*
X0301750Y0122500D01*
X0301750Y0121500D01*
X0300250Y0121500D01*
X0300250Y0122500D01*
X0300250Y0122219D02*
X0301750Y0122219D01*
X0301750Y0121720D02*
X0300250Y0121720D01*
X0297750Y0121720D02*
X0296250Y0121720D01*
X0296250Y0121500D02*
X0296250Y0122500D01*
X0297750Y0122500D01*
X0297750Y0121500D01*
X0296250Y0121500D01*
X0296250Y0122219D02*
X0297750Y0122219D01*
D33*
X0308000Y0114000D03*
X0301000Y0104000D03*
X0284000Y0106000D03*
X0275000Y0114000D03*
X0265000Y0104000D03*
X0266000Y0084000D03*
X0279000Y0066000D03*
X0298000Y0069000D03*
X0312000Y0084000D03*
X0329000Y0084000D03*
X0325000Y0069000D03*
X0328000Y0043000D03*
X0314000Y0037000D03*
X0297000Y0043000D03*
X0282000Y0037000D03*
X0253000Y0037000D03*
X0226000Y0037000D03*
X0227000Y0066000D03*
X0215000Y0066000D03*
X0198000Y0066000D03*
X0197000Y0086000D03*
X0182000Y0102000D03*
X0170000Y0086000D03*
X0157000Y0102000D03*
X0142000Y0086000D03*
X0117000Y0073000D03*
X0109000Y0073000D03*
X0100000Y0073000D03*
X0082000Y0081000D03*
X0077000Y0076000D03*
X0076000Y0070000D03*
X0071000Y0065000D03*
X0076000Y0059500D03*
X0069000Y0054500D03*
X0077000Y0051000D03*
X0077000Y0044000D03*
X0085000Y0044000D03*
X0085000Y0036000D03*
X0077000Y0036000D03*
X0107000Y0037000D03*
X0131000Y0040000D03*
X0080500Y0064500D03*
X0104500Y0097000D03*
X0095000Y0104500D03*
X0084500Y0104500D03*
X0065000Y0106000D03*
X0031000Y0106000D03*
X0018000Y0056000D03*
X0214000Y0102000D03*
X0228000Y0086000D03*
X0241000Y0067000D03*
X0242000Y0123000D03*
X0244000Y0145000D03*
X0269000Y0153000D03*
X0293000Y0156000D03*
X0293000Y0173000D03*
X0293000Y0183000D03*
X0293000Y0196000D03*
X0293000Y0211000D03*
X0311000Y0208000D03*
X0325000Y0220000D03*
X0316000Y0231000D03*
X0327000Y0245000D03*
X0305000Y0255000D03*
X0297000Y0245000D03*
X0293000Y0229000D03*
X0269000Y0215000D03*
X0243000Y0218000D03*
X0243000Y0196000D03*
X0269000Y0175000D03*
X0244000Y0168000D03*
X0269000Y0132000D03*
X0315000Y0156000D03*
X0326000Y0173000D03*
X0311000Y0177000D03*
X0324000Y0193000D03*
X0362000Y0221000D03*
X0362000Y0243000D03*
X0363000Y0253000D03*
X0356000Y0263000D03*
X0379000Y0283000D03*
X0372000Y0297000D03*
X0391000Y0294000D03*
X0388000Y0311000D03*
X0414000Y0313000D03*
X0416000Y0300000D03*
X0413000Y0265000D03*
X0425000Y0264000D03*
X0391000Y0264000D03*
X0404000Y0227000D03*
X0402000Y0216000D03*
X0394000Y0214000D03*
X0394000Y0202000D03*
X0404000Y0200000D03*
X0403000Y0185000D03*
X0406000Y0176000D03*
X0409000Y0165000D03*
X0400000Y0150000D03*
X0397000Y0131000D03*
X0380000Y0125000D03*
X0375000Y0146000D03*
X0380000Y0166000D03*
X0403000Y0109000D03*
X0380000Y0101000D03*
X0239000Y0240000D03*
X0249000Y0258000D03*
X0238000Y0273000D03*
X0256000Y0277000D03*
X0272000Y0283000D03*
X0256000Y0293000D03*
X0241000Y0292000D03*
X0244000Y0312000D03*
X0287000Y0284000D03*
X0301000Y0298000D03*
X0307000Y0312000D03*
X0322000Y0311000D03*
X0267000Y0251000D03*
X0144000Y0243000D03*
X0116000Y0262000D03*
X0135000Y0279000D03*
X0147000Y0303000D03*
X0117000Y0304000D03*
X0090000Y0304000D03*
X0090000Y0284000D03*
X0067000Y0298000D03*
X0046000Y0286000D03*
X0053000Y0280000D03*
X0061000Y0278000D03*
X0041000Y0270000D03*
X0036000Y0255000D03*
X0043000Y0237000D03*
X0043000Y0227000D03*
X0043000Y0217000D03*
X0062000Y0219000D03*
X0070000Y0232000D03*
X0084000Y0236000D03*
X0093000Y0237000D03*
X0087000Y0249000D03*
X0081000Y0258000D03*
X0114000Y0215000D03*
X0144000Y0216000D03*
X0035000Y0311000D03*
X0013000Y0303000D03*
X0017000Y0216000D03*
D34*
X0204700Y0039500D03*
D35*
X0255000Y0054000D03*
X0265000Y0074000D03*
X0276000Y0078000D03*
X0246000Y0104000D03*
X0299000Y0130000D03*
X0306000Y0130000D03*
X0307000Y0122000D03*
X0305000Y0149000D03*
X0359000Y0087000D03*
M02*
