G75*
%MOIN*%
%OFA0B0*%
%FSLAX25Y25*%
%IPPOS*%
%LPD*%
%AMOC8*
5,1,8,0,0,1.08239X$1,22.5*
%
%ADD10C,0.06500*%
%ADD11R,0.06500X0.06500*%
%ADD12R,0.09449X0.09449*%
%ADD13C,0.07400*%
%ADD14C,0.05512*%
%ADD15C,0.11220*%
%ADD16R,0.04331X0.03937*%
%ADD17C,0.03937*%
%ADD18C,0.02969*%
%ADD19C,0.01000*%
%ADD20C,0.04000*%
%ADD21C,0.02400*%
%ADD22C,0.16000*%
%ADD23C,0.05000*%
%ADD24C,0.10000*%
%ADD25C,0.03543*%
D10*
X0312000Y0075000D03*
D11*
X0312000Y0055000D03*
D12*
X0089000Y0091000D03*
X0069000Y0091000D03*
X0042000Y0091000D03*
X0022000Y0091000D03*
D13*
X0093900Y0063900D03*
X0103900Y0063900D03*
X0113900Y0063900D03*
X0123900Y0063900D03*
X0133900Y0063900D03*
X0133900Y0053900D03*
X0123900Y0053900D03*
X0113900Y0053900D03*
X0103900Y0053900D03*
X0093900Y0053900D03*
X0143900Y0053900D03*
X0143900Y0043900D03*
X0153900Y0043900D03*
X0153900Y0053900D03*
X0163900Y0053900D03*
X0163900Y0043900D03*
X0173900Y0043900D03*
X0173900Y0053900D03*
X0173900Y0063900D03*
X0163900Y0063900D03*
X0153900Y0063900D03*
X0143900Y0063900D03*
X0183900Y0063900D03*
X0183900Y0053900D03*
X0183900Y0043900D03*
X0224100Y0127100D03*
X0224100Y0137100D03*
X0224100Y0147100D03*
X0224100Y0157100D03*
X0224100Y0167100D03*
X0224100Y0177100D03*
X0224100Y0187100D03*
X0224100Y0197100D03*
X0224100Y0207100D03*
X0224100Y0217100D03*
X0224100Y0227100D03*
X0224100Y0237100D03*
X0274100Y0202100D03*
X0284100Y0207100D03*
X0284100Y0217100D03*
X0284100Y0227100D03*
X0284100Y0237100D03*
X0284100Y0197100D03*
X0274100Y0192100D03*
X0284100Y0187100D03*
X0284100Y0177100D03*
X0284100Y0167100D03*
X0284100Y0157100D03*
X0284100Y0147100D03*
X0284100Y0137100D03*
X0284100Y0127100D03*
X0338000Y0130500D03*
X0338000Y0120500D03*
X0348000Y0120500D03*
X0348000Y0130500D03*
X0348000Y0140500D03*
X0338000Y0140500D03*
X0338000Y0150500D03*
X0348000Y0150500D03*
X0348000Y0160500D03*
X0338000Y0160500D03*
X0338000Y0170500D03*
X0338000Y0180500D03*
X0348000Y0180500D03*
X0348000Y0170500D03*
X0348000Y0190500D03*
X0338000Y0190500D03*
X0338000Y0200500D03*
X0348000Y0200500D03*
X0348000Y0210500D03*
X0348000Y0220500D03*
X0338000Y0220500D03*
X0338000Y0210500D03*
X0338000Y0230500D03*
X0348000Y0230500D03*
X0348000Y0240500D03*
X0338000Y0240500D03*
X0338000Y0250500D03*
X0348000Y0250500D03*
X0418000Y0250500D03*
X0428000Y0250500D03*
X0428000Y0240500D03*
X0418000Y0240500D03*
X0418000Y0230500D03*
X0428000Y0230500D03*
X0428000Y0220500D03*
X0428000Y0210500D03*
X0418000Y0210500D03*
X0418000Y0220500D03*
X0418000Y0200500D03*
X0428000Y0200500D03*
X0428000Y0190500D03*
X0418000Y0190500D03*
X0418000Y0180500D03*
X0418000Y0170500D03*
X0428000Y0170500D03*
X0428000Y0180500D03*
X0428000Y0160500D03*
X0418000Y0160500D03*
X0418000Y0150500D03*
X0428000Y0150500D03*
X0428000Y0140500D03*
X0418000Y0140500D03*
X0418000Y0130500D03*
X0418000Y0120500D03*
X0428000Y0120500D03*
X0428000Y0130500D03*
X0428000Y0110500D03*
X0418000Y0110500D03*
X0418000Y0100500D03*
X0428000Y0100500D03*
X0428000Y0090500D03*
X0428000Y0080500D03*
X0418000Y0080500D03*
X0418000Y0090500D03*
X0418000Y0070500D03*
X0428000Y0070500D03*
X0428000Y0060500D03*
X0418000Y0060500D03*
X0348000Y0060500D03*
X0338000Y0060500D03*
X0338000Y0070500D03*
X0348000Y0070500D03*
X0348000Y0080500D03*
X0348000Y0090500D03*
X0338000Y0090500D03*
X0338000Y0080500D03*
X0338000Y0100500D03*
X0348000Y0100500D03*
X0348000Y0110500D03*
X0338000Y0110500D03*
D14*
X0322500Y0265500D03*
X0317500Y0275500D03*
X0327500Y0275500D03*
X0312500Y0265500D03*
X0302500Y0265500D03*
X0292500Y0265500D03*
X0297500Y0275500D03*
X0307500Y0275500D03*
X0027800Y0279700D03*
X0027800Y0289700D03*
X0027800Y0299700D03*
X0017800Y0294700D03*
X0017800Y0284700D03*
X0017800Y0274700D03*
X0017800Y0264700D03*
X0027800Y0269700D03*
D15*
X0018312Y0250200D03*
X0064800Y0250200D03*
X0064800Y0314200D03*
X0018312Y0314200D03*
X0278000Y0312500D03*
X0278000Y0266012D03*
X0342000Y0266012D03*
X0342000Y0312500D03*
D16*
X0034346Y0237500D03*
X0027654Y0237500D03*
X0027654Y0226800D03*
X0034346Y0226800D03*
D17*
X0090300Y0226400D03*
X0090300Y0231400D03*
X0095300Y0231400D03*
X0095300Y0226400D03*
X0100300Y0226400D03*
X0100300Y0231400D03*
X0105300Y0231400D03*
X0105300Y0226400D03*
X0110300Y0226400D03*
X0110300Y0231400D03*
X0115300Y0231400D03*
X0115300Y0226400D03*
X0120300Y0226400D03*
X0120300Y0231400D03*
X0125300Y0231400D03*
X0125300Y0226400D03*
D18*
X0114000Y0215000D03*
X0093000Y0237000D03*
X0084000Y0236000D03*
X0087000Y0249000D03*
X0081000Y0258000D03*
X0061000Y0278000D03*
X0053000Y0280000D03*
X0046000Y0286000D03*
X0041000Y0270000D03*
X0036000Y0255000D03*
X0043000Y0237000D03*
X0043000Y0227000D03*
X0043000Y0217000D03*
X0062000Y0219000D03*
X0070000Y0232000D03*
X0116000Y0262000D03*
X0135000Y0279000D03*
X0147000Y0303000D03*
X0117000Y0304000D03*
X0090000Y0304000D03*
X0090000Y0284000D03*
X0067000Y0298000D03*
X0035000Y0311000D03*
X0013000Y0303000D03*
X0017000Y0216000D03*
X0144000Y0216000D03*
X0144000Y0243000D03*
X0239000Y0240000D03*
X0249000Y0258000D03*
X0238000Y0273000D03*
X0256000Y0277000D03*
X0272000Y0283000D03*
X0256000Y0293000D03*
X0241000Y0292000D03*
X0244000Y0312000D03*
X0287000Y0284000D03*
X0301000Y0298000D03*
X0307000Y0312000D03*
X0322000Y0311000D03*
X0372000Y0297000D03*
X0379000Y0283000D03*
X0391000Y0294000D03*
X0388000Y0311000D03*
X0414000Y0313000D03*
X0416000Y0300000D03*
X0413000Y0265000D03*
X0425000Y0264000D03*
X0391000Y0264000D03*
X0363000Y0253000D03*
X0362000Y0243000D03*
X0356000Y0263000D03*
X0327000Y0245000D03*
X0316000Y0231000D03*
X0325000Y0220000D03*
X0311000Y0208000D03*
X0293000Y0211000D03*
X0293000Y0196000D03*
X0293000Y0183000D03*
X0293000Y0173000D03*
X0293000Y0156000D03*
X0315000Y0156000D03*
X0326000Y0173000D03*
X0311000Y0177000D03*
X0324000Y0193000D03*
X0362000Y0221000D03*
X0394000Y0214000D03*
X0402000Y0216000D03*
X0404000Y0227000D03*
X0394000Y0202000D03*
X0404000Y0200000D03*
X0403000Y0185000D03*
X0406000Y0176000D03*
X0409000Y0165000D03*
X0400000Y0150000D03*
X0397000Y0131000D03*
X0380000Y0125000D03*
X0375000Y0146000D03*
X0380000Y0166000D03*
X0403000Y0109000D03*
X0380000Y0101000D03*
X0329000Y0084000D03*
X0325000Y0069000D03*
X0312000Y0084000D03*
X0298000Y0069000D03*
X0279000Y0066000D03*
X0266000Y0084000D03*
X0265000Y0104000D03*
X0275000Y0114000D03*
X0284000Y0106000D03*
X0301000Y0104000D03*
X0308000Y0114000D03*
X0269000Y0132000D03*
X0269000Y0153000D03*
X0269000Y0175000D03*
X0244000Y0168000D03*
X0244000Y0145000D03*
X0242000Y0123000D03*
X0214000Y0102000D03*
X0228000Y0086000D03*
X0227000Y0066000D03*
X0215000Y0066000D03*
X0198000Y0066000D03*
X0197000Y0086000D03*
X0182000Y0102000D03*
X0170000Y0086000D03*
X0157000Y0102000D03*
X0142000Y0086000D03*
X0117000Y0073000D03*
X0109000Y0073000D03*
X0100000Y0073000D03*
X0082000Y0081000D03*
X0077000Y0076000D03*
X0076000Y0070000D03*
X0071000Y0065000D03*
X0076000Y0059500D03*
X0069000Y0054500D03*
X0077000Y0051000D03*
X0077000Y0044000D03*
X0085000Y0044000D03*
X0085000Y0036000D03*
X0077000Y0036000D03*
X0107000Y0037000D03*
X0131000Y0040000D03*
X0080500Y0064500D03*
X0104500Y0097000D03*
X0095000Y0104500D03*
X0084500Y0104500D03*
X0065000Y0106000D03*
X0031000Y0106000D03*
X0018000Y0056000D03*
X0226000Y0037000D03*
X0253000Y0037000D03*
X0282000Y0037000D03*
X0297000Y0043000D03*
X0314000Y0037000D03*
X0328000Y0043000D03*
X0241000Y0067000D03*
X0243000Y0196000D03*
X0243000Y0218000D03*
X0269000Y0215000D03*
X0293000Y0229000D03*
X0297000Y0245000D03*
X0305000Y0255000D03*
X0267000Y0251000D03*
D19*
X0037000Y0052000D02*
X0037000Y0030000D01*
X0061389Y0030000D01*
X0059300Y0032089D01*
X0059300Y0051411D01*
X0063300Y0055411D01*
X0063300Y0055411D01*
X0064589Y0056700D01*
X0066697Y0056700D01*
X0067196Y0057199D01*
X0068367Y0057684D01*
X0069633Y0057684D01*
X0070804Y0057199D01*
X0071699Y0056304D01*
X0072184Y0055133D01*
X0072184Y0053867D01*
X0071699Y0052696D01*
X0070804Y0051801D01*
X0069633Y0051316D01*
X0068367Y0051316D01*
X0067196Y0051801D01*
X0066697Y0052300D01*
X0066411Y0052300D01*
X0063700Y0049589D01*
X0063700Y0034200D01*
X0091300Y0034200D01*
X0091300Y0039589D01*
X0083800Y0047089D01*
X0083800Y0070911D01*
X0085089Y0072200D01*
X0095089Y0082200D01*
X0102300Y0082200D01*
X0102300Y0094697D01*
X0101801Y0095196D01*
X0101316Y0096367D01*
X0101316Y0097633D01*
X0101801Y0098804D01*
X0102696Y0099699D01*
X0103867Y0100184D01*
X0105133Y0100184D01*
X0106304Y0099699D01*
X0107199Y0098804D01*
X0107684Y0097633D01*
X0107684Y0096367D01*
X0107199Y0095196D01*
X0106700Y0094697D01*
X0106700Y0080200D01*
X0273290Y0080200D01*
X0274033Y0080943D01*
X0275309Y0081472D01*
X0276691Y0081472D01*
X0277967Y0080943D01*
X0278943Y0079967D01*
X0279472Y0078691D01*
X0279472Y0077309D01*
X0278943Y0076033D01*
X0277967Y0075057D01*
X0276691Y0074528D01*
X0275309Y0074528D01*
X0274033Y0075057D01*
X0273290Y0075800D01*
X0268012Y0075800D01*
X0268472Y0074691D01*
X0268472Y0073309D01*
X0267943Y0072033D01*
X0266967Y0071057D01*
X0265691Y0070528D01*
X0264309Y0070528D01*
X0263033Y0071057D01*
X0262290Y0071800D01*
X0126911Y0071800D01*
X0126200Y0071089D01*
X0126200Y0068792D01*
X0126959Y0068478D01*
X0128478Y0066959D01*
X0128900Y0065940D01*
X0129322Y0066959D01*
X0130841Y0068478D01*
X0132826Y0069300D01*
X0134974Y0069300D01*
X0136959Y0068478D01*
X0138478Y0066959D01*
X0139009Y0065676D01*
X0139081Y0065896D01*
X0139453Y0066625D01*
X0139934Y0067288D01*
X0140512Y0067866D01*
X0141175Y0068347D01*
X0141904Y0068719D01*
X0142682Y0068972D01*
X0143400Y0069086D01*
X0143400Y0064400D01*
X0144400Y0064400D01*
X0148714Y0064400D01*
X0153400Y0064400D01*
X0153400Y0069086D01*
X0152682Y0068972D01*
X0151904Y0068719D01*
X0151175Y0068347D01*
X0150512Y0067866D01*
X0149934Y0067288D01*
X0149453Y0066625D01*
X0149081Y0065896D01*
X0148900Y0065339D01*
X0148719Y0065896D01*
X0148347Y0066625D01*
X0147866Y0067288D01*
X0147288Y0067866D01*
X0146625Y0068347D01*
X0145896Y0068719D01*
X0145118Y0068972D01*
X0144400Y0069086D01*
X0144400Y0064400D01*
X0144400Y0063400D01*
X0153400Y0063400D01*
X0153400Y0064400D01*
X0154400Y0064400D01*
X0159086Y0064400D01*
X0163400Y0064400D01*
X0163400Y0069086D01*
X0162682Y0068972D01*
X0161904Y0068719D01*
X0161175Y0068347D01*
X0160512Y0067866D01*
X0159934Y0067288D01*
X0159453Y0066625D01*
X0159081Y0065896D01*
X0158900Y0065339D01*
X0158719Y0065896D01*
X0158347Y0066625D01*
X0157866Y0067288D01*
X0157288Y0067866D01*
X0156625Y0068347D01*
X0155896Y0068719D01*
X0155118Y0068972D01*
X0154400Y0069086D01*
X0154400Y0064400D01*
X0154400Y0063400D01*
X0163400Y0063400D01*
X0163400Y0064400D01*
X0164400Y0064400D01*
X0169086Y0064400D01*
X0173400Y0064400D01*
X0173400Y0069086D01*
X0172682Y0068972D01*
X0171904Y0068719D01*
X0171175Y0068347D01*
X0170512Y0067866D01*
X0169934Y0067288D01*
X0169453Y0066625D01*
X0169081Y0065896D01*
X0168900Y0065339D01*
X0168719Y0065896D01*
X0168347Y0066625D01*
X0167866Y0067288D01*
X0167288Y0067866D01*
X0166625Y0068347D01*
X0165896Y0068719D01*
X0165118Y0068972D01*
X0164400Y0069086D01*
X0164400Y0064400D01*
X0164400Y0063400D01*
X0173400Y0063400D01*
X0173400Y0064400D01*
X0174400Y0064400D01*
X0179086Y0064400D01*
X0183400Y0064400D01*
X0183400Y0069086D01*
X0182682Y0068972D01*
X0181904Y0068719D01*
X0181175Y0068347D01*
X0180512Y0067866D01*
X0179934Y0067288D01*
X0179453Y0066625D01*
X0179081Y0065896D01*
X0178900Y0065339D01*
X0178719Y0065896D01*
X0178347Y0066625D01*
X0177866Y0067288D01*
X0177288Y0067866D01*
X0176625Y0068347D01*
X0175896Y0068719D01*
X0175118Y0068972D01*
X0174400Y0069086D01*
X0174400Y0064400D01*
X0174400Y0063400D01*
X0183400Y0063400D01*
X0183400Y0064400D01*
X0184400Y0064400D01*
X0184400Y0069086D01*
X0185118Y0068972D01*
X0185896Y0068719D01*
X0186625Y0068347D01*
X0187288Y0067866D01*
X0187866Y0067288D01*
X0188347Y0066625D01*
X0188719Y0065896D01*
X0188972Y0065118D01*
X0189086Y0064400D01*
X0184400Y0064400D01*
X0184400Y0063400D01*
X0189086Y0063400D01*
X0188972Y0062682D01*
X0188719Y0061904D01*
X0188347Y0061175D01*
X0187866Y0060512D01*
X0187288Y0059934D01*
X0186625Y0059453D01*
X0185896Y0059081D01*
X0185676Y0059009D01*
X0186959Y0058478D01*
X0187337Y0058100D01*
X0187625Y0058100D01*
X0189205Y0059680D01*
X0191667Y0060700D01*
X0305333Y0060700D01*
X0307781Y0059686D01*
X0308046Y0059950D01*
X0315954Y0059950D01*
X0316704Y0059200D01*
X0330760Y0059200D01*
X0332600Y0061040D01*
X0332600Y0061574D01*
X0333000Y0062540D01*
X0333000Y0068460D01*
X0332600Y0069426D01*
X0332600Y0071574D01*
X0333000Y0072540D01*
X0333000Y0075000D01*
X0334863Y0075000D01*
X0334941Y0075078D01*
X0336224Y0075609D01*
X0336004Y0075681D01*
X0335275Y0076053D01*
X0334612Y0076534D01*
X0334034Y0077112D01*
X0333553Y0077775D01*
X0333181Y0078504D01*
X0332928Y0079282D01*
X0332814Y0080000D01*
X0337500Y0080000D01*
X0337500Y0081000D01*
X0332814Y0081000D01*
X0332928Y0081718D01*
X0333181Y0082496D01*
X0333553Y0083225D01*
X0334034Y0083888D01*
X0334612Y0084466D01*
X0335275Y0084947D01*
X0336004Y0085319D01*
X0336224Y0085391D01*
X0334941Y0085922D01*
X0333422Y0087441D01*
X0333066Y0088300D01*
X0246589Y0088300D01*
X0232089Y0102800D01*
X0230800Y0104089D01*
X0230800Y0108000D01*
X0007000Y0108000D01*
X0007000Y0052000D01*
X0037000Y0052000D01*
X0037000Y0051964D02*
X0059853Y0051964D01*
X0059300Y0050966D02*
X0037000Y0050966D01*
X0037000Y0049967D02*
X0059300Y0049967D01*
X0059300Y0048969D02*
X0037000Y0048969D01*
X0037000Y0047970D02*
X0059300Y0047970D01*
X0059300Y0046972D02*
X0037000Y0046972D01*
X0037000Y0045973D02*
X0059300Y0045973D01*
X0059300Y0044975D02*
X0037000Y0044975D01*
X0037000Y0043976D02*
X0059300Y0043976D01*
X0059300Y0042978D02*
X0037000Y0042978D01*
X0037000Y0041979D02*
X0059300Y0041979D01*
X0059300Y0040981D02*
X0037000Y0040981D01*
X0037000Y0039982D02*
X0059300Y0039982D01*
X0059300Y0038984D02*
X0037000Y0038984D01*
X0037000Y0037985D02*
X0059300Y0037985D01*
X0059300Y0036987D02*
X0037000Y0036987D01*
X0037000Y0035988D02*
X0059300Y0035988D01*
X0059300Y0034990D02*
X0037000Y0034990D01*
X0037000Y0033991D02*
X0059300Y0033991D01*
X0059300Y0032993D02*
X0037000Y0032993D01*
X0037000Y0031994D02*
X0059395Y0031994D01*
X0060393Y0030996D02*
X0037000Y0030996D01*
X0061500Y0033000D02*
X0061500Y0050500D01*
X0065500Y0054500D01*
X0069000Y0054500D01*
X0071843Y0055958D02*
X0083800Y0055958D01*
X0083800Y0054960D02*
X0072184Y0054960D01*
X0072184Y0053961D02*
X0083800Y0053961D01*
X0083800Y0052963D02*
X0071810Y0052963D01*
X0070967Y0051964D02*
X0083800Y0051964D01*
X0083800Y0050966D02*
X0065077Y0050966D01*
X0066076Y0051964D02*
X0067033Y0051964D01*
X0064079Y0049967D02*
X0083800Y0049967D01*
X0083800Y0048969D02*
X0063700Y0048969D01*
X0063700Y0047970D02*
X0083800Y0047970D01*
X0083917Y0046972D02*
X0063700Y0046972D01*
X0063700Y0045973D02*
X0084916Y0045973D01*
X0085914Y0044975D02*
X0063700Y0044975D01*
X0063700Y0043976D02*
X0086913Y0043976D01*
X0087911Y0042978D02*
X0063700Y0042978D01*
X0063700Y0041979D02*
X0088910Y0041979D01*
X0089908Y0040981D02*
X0063700Y0040981D01*
X0063700Y0039982D02*
X0090907Y0039982D01*
X0091300Y0038984D02*
X0063700Y0038984D01*
X0063700Y0037985D02*
X0091300Y0037985D01*
X0091300Y0036987D02*
X0063700Y0036987D01*
X0063700Y0035988D02*
X0091300Y0035988D01*
X0091300Y0034990D02*
X0063700Y0034990D01*
X0061500Y0033000D02*
X0062500Y0032000D01*
X0092500Y0032000D01*
X0093500Y0033000D01*
X0093500Y0040500D01*
X0086000Y0048000D01*
X0086000Y0070000D01*
X0096000Y0080000D01*
X0104000Y0080000D01*
X0104500Y0080500D01*
X0104500Y0097000D01*
X0107684Y0096897D02*
X0237991Y0096897D01*
X0236993Y0097896D02*
X0107576Y0097896D01*
X0107109Y0098894D02*
X0235994Y0098894D01*
X0234996Y0099893D02*
X0105837Y0099893D01*
X0103163Y0099893D02*
X0007000Y0099893D01*
X0007000Y0100891D02*
X0233997Y0100891D01*
X0232999Y0101890D02*
X0007000Y0101890D01*
X0007000Y0102888D02*
X0232000Y0102888D01*
X0231002Y0103887D02*
X0007000Y0103887D01*
X0007000Y0104885D02*
X0230800Y0104885D01*
X0230800Y0105884D02*
X0007000Y0105884D01*
X0007000Y0106882D02*
X0230800Y0106882D01*
X0230800Y0107881D02*
X0007000Y0107881D01*
X0007000Y0098894D02*
X0101891Y0098894D01*
X0101424Y0097896D02*
X0007000Y0097896D01*
X0007000Y0096897D02*
X0016044Y0096897D01*
X0015576Y0096429D02*
X0015576Y0085571D01*
X0016571Y0084576D01*
X0027429Y0084576D01*
X0028424Y0085571D01*
X0028424Y0096429D01*
X0027429Y0097424D01*
X0016571Y0097424D01*
X0015576Y0096429D01*
X0015576Y0095899D02*
X0007000Y0095899D01*
X0007000Y0094900D02*
X0015576Y0094900D01*
X0015576Y0093902D02*
X0007000Y0093902D01*
X0007000Y0092903D02*
X0015576Y0092903D01*
X0015576Y0091905D02*
X0007000Y0091905D01*
X0007000Y0090906D02*
X0015576Y0090906D01*
X0015576Y0089908D02*
X0007000Y0089908D01*
X0007000Y0088909D02*
X0015576Y0088909D01*
X0015576Y0087911D02*
X0007000Y0087911D01*
X0007000Y0086912D02*
X0015576Y0086912D01*
X0015576Y0085914D02*
X0007000Y0085914D01*
X0007000Y0084915D02*
X0016232Y0084915D01*
X0007000Y0083917D02*
X0102300Y0083917D01*
X0102300Y0084915D02*
X0094368Y0084915D01*
X0094303Y0084878D02*
X0094645Y0085075D01*
X0094925Y0085355D01*
X0095122Y0085697D01*
X0095224Y0086078D01*
X0095224Y0090500D01*
X0089500Y0090500D01*
X0089500Y0091500D01*
X0095224Y0091500D01*
X0095224Y0095922D01*
X0095122Y0096303D01*
X0094925Y0096645D01*
X0094645Y0096925D01*
X0094303Y0097122D01*
X0093922Y0097224D01*
X0089500Y0097224D01*
X0089500Y0091500D01*
X0088500Y0091500D01*
X0088500Y0097224D01*
X0084078Y0097224D01*
X0083697Y0097122D01*
X0083355Y0096925D01*
X0083075Y0096645D01*
X0082878Y0096303D01*
X0082776Y0095922D01*
X0082776Y0091500D01*
X0088500Y0091500D01*
X0088500Y0090500D01*
X0089500Y0090500D01*
X0089500Y0084776D01*
X0093922Y0084776D01*
X0094303Y0084878D01*
X0095180Y0085914D02*
X0102300Y0085914D01*
X0102300Y0086912D02*
X0095224Y0086912D01*
X0095224Y0087911D02*
X0102300Y0087911D01*
X0102300Y0088909D02*
X0095224Y0088909D01*
X0095224Y0089908D02*
X0102300Y0089908D01*
X0102300Y0090906D02*
X0089500Y0090906D01*
X0089500Y0089908D02*
X0088500Y0089908D01*
X0088500Y0090500D02*
X0088500Y0084776D01*
X0084078Y0084776D01*
X0083697Y0084878D01*
X0083355Y0085075D01*
X0083075Y0085355D01*
X0082878Y0085697D01*
X0082776Y0086078D01*
X0082776Y0090500D01*
X0088500Y0090500D01*
X0088500Y0090906D02*
X0075424Y0090906D01*
X0075424Y0089908D02*
X0082776Y0089908D01*
X0082776Y0088909D02*
X0075424Y0088909D01*
X0075424Y0087911D02*
X0082776Y0087911D01*
X0082776Y0086912D02*
X0075424Y0086912D01*
X0075424Y0085914D02*
X0082820Y0085914D01*
X0083632Y0084915D02*
X0074768Y0084915D01*
X0074429Y0084576D02*
X0075424Y0085571D01*
X0075424Y0096429D01*
X0074429Y0097424D01*
X0063571Y0097424D01*
X0062576Y0096429D01*
X0062576Y0085571D01*
X0063571Y0084576D01*
X0074429Y0084576D01*
X0075424Y0091905D02*
X0082776Y0091905D01*
X0082776Y0092903D02*
X0075424Y0092903D01*
X0075424Y0093902D02*
X0082776Y0093902D01*
X0082776Y0094900D02*
X0075424Y0094900D01*
X0075424Y0095899D02*
X0082776Y0095899D01*
X0083327Y0096897D02*
X0074956Y0096897D01*
X0063044Y0096897D02*
X0047956Y0096897D01*
X0048424Y0096429D02*
X0047429Y0097424D01*
X0036571Y0097424D01*
X0035576Y0096429D01*
X0035576Y0085571D01*
X0036571Y0084576D01*
X0047429Y0084576D01*
X0048424Y0085571D01*
X0048424Y0096429D01*
X0048424Y0095899D02*
X0062576Y0095899D01*
X0062576Y0094900D02*
X0048424Y0094900D01*
X0048424Y0093902D02*
X0062576Y0093902D01*
X0062576Y0092903D02*
X0048424Y0092903D01*
X0048424Y0091905D02*
X0062576Y0091905D01*
X0062576Y0090906D02*
X0048424Y0090906D01*
X0048424Y0089908D02*
X0062576Y0089908D01*
X0062576Y0088909D02*
X0048424Y0088909D01*
X0048424Y0087911D02*
X0062576Y0087911D01*
X0062576Y0086912D02*
X0048424Y0086912D01*
X0048424Y0085914D02*
X0062576Y0085914D01*
X0063232Y0084915D02*
X0047768Y0084915D01*
X0036232Y0084915D02*
X0027768Y0084915D01*
X0028424Y0085914D02*
X0035576Y0085914D01*
X0035576Y0086912D02*
X0028424Y0086912D01*
X0028424Y0087911D02*
X0035576Y0087911D01*
X0035576Y0088909D02*
X0028424Y0088909D01*
X0028424Y0089908D02*
X0035576Y0089908D01*
X0035576Y0090906D02*
X0028424Y0090906D01*
X0028424Y0091905D02*
X0035576Y0091905D01*
X0035576Y0092903D02*
X0028424Y0092903D01*
X0028424Y0093902D02*
X0035576Y0093902D01*
X0035576Y0094900D02*
X0028424Y0094900D01*
X0028424Y0095899D02*
X0035576Y0095899D01*
X0036044Y0096897D02*
X0027956Y0096897D01*
X0007000Y0082918D02*
X0102300Y0082918D01*
X0106700Y0082918D02*
X0333396Y0082918D01*
X0332994Y0081920D02*
X0106700Y0081920D01*
X0106700Y0080921D02*
X0274011Y0080921D01*
X0276000Y0078000D02*
X0097000Y0078000D01*
X0088000Y0069000D01*
X0088000Y0049000D01*
X0094000Y0043000D01*
X0120000Y0043000D01*
X0123000Y0046000D01*
X0123000Y0053000D01*
X0123900Y0053900D01*
X0128900Y0051860D02*
X0129322Y0050841D01*
X0130841Y0049322D01*
X0132826Y0048500D01*
X0134974Y0048500D01*
X0136959Y0049322D01*
X0138478Y0050841D01*
X0138900Y0051860D01*
X0139322Y0050841D01*
X0140841Y0049322D01*
X0141860Y0048900D01*
X0140841Y0048478D01*
X0139322Y0046959D01*
X0138500Y0044974D01*
X0138500Y0042826D01*
X0139322Y0040841D01*
X0140841Y0039322D01*
X0142826Y0038500D01*
X0144974Y0038500D01*
X0146959Y0039322D01*
X0148478Y0040841D01*
X0148900Y0041860D01*
X0149322Y0040841D01*
X0150841Y0039322D01*
X0152826Y0038500D01*
X0154974Y0038500D01*
X0156959Y0039322D01*
X0158478Y0040841D01*
X0158900Y0041860D01*
X0159322Y0040841D01*
X0160841Y0039322D01*
X0162826Y0038500D01*
X0164974Y0038500D01*
X0166959Y0039322D01*
X0168478Y0040841D01*
X0168900Y0041860D01*
X0169322Y0040841D01*
X0170841Y0039322D01*
X0172826Y0038500D01*
X0174974Y0038500D01*
X0176959Y0039322D01*
X0178478Y0040841D01*
X0178900Y0041860D01*
X0179322Y0040841D01*
X0180841Y0039322D01*
X0182826Y0038500D01*
X0184974Y0038500D01*
X0186959Y0039322D01*
X0188478Y0040841D01*
X0189300Y0042826D01*
X0189300Y0044974D01*
X0188478Y0046959D01*
X0186959Y0048478D01*
X0185940Y0048900D01*
X0186959Y0049322D01*
X0187337Y0049700D01*
X0187825Y0049700D01*
X0189205Y0048320D01*
X0191667Y0047300D01*
X0305333Y0047300D01*
X0307795Y0048320D01*
X0309525Y0050050D01*
X0315954Y0050050D01*
X0316704Y0050800D01*
X0333000Y0050800D01*
X0333000Y0030000D01*
X0093611Y0030000D01*
X0094700Y0031089D01*
X0095700Y0032089D01*
X0095700Y0033911D01*
X0095700Y0040800D01*
X0120911Y0040800D01*
X0123911Y0043800D01*
X0125200Y0045089D01*
X0125200Y0048594D01*
X0126959Y0049322D01*
X0128478Y0050841D01*
X0128900Y0051860D01*
X0128530Y0050966D02*
X0129270Y0050966D01*
X0130196Y0049967D02*
X0127604Y0049967D01*
X0126106Y0048969D02*
X0131694Y0048969D01*
X0136106Y0048969D02*
X0141694Y0048969D01*
X0140333Y0047970D02*
X0125200Y0047970D01*
X0125200Y0046972D02*
X0139335Y0046972D01*
X0138914Y0045973D02*
X0125200Y0045973D01*
X0125086Y0044975D02*
X0138500Y0044975D01*
X0138500Y0043976D02*
X0124087Y0043976D01*
X0123089Y0042978D02*
X0138500Y0042978D01*
X0138851Y0041979D02*
X0122090Y0041979D01*
X0121092Y0040981D02*
X0139264Y0040981D01*
X0140181Y0039982D02*
X0095700Y0039982D01*
X0095700Y0038984D02*
X0141658Y0038984D01*
X0146142Y0038984D02*
X0151658Y0038984D01*
X0150181Y0039982D02*
X0147619Y0039982D01*
X0148536Y0040981D02*
X0149264Y0040981D01*
X0156142Y0038984D02*
X0161658Y0038984D01*
X0160181Y0039982D02*
X0157619Y0039982D01*
X0158536Y0040981D02*
X0159264Y0040981D01*
X0166142Y0038984D02*
X0171658Y0038984D01*
X0170181Y0039982D02*
X0167619Y0039982D01*
X0168536Y0040981D02*
X0169264Y0040981D01*
X0176142Y0038984D02*
X0181658Y0038984D01*
X0180181Y0039982D02*
X0177619Y0039982D01*
X0178536Y0040981D02*
X0179264Y0040981D01*
X0186142Y0038984D02*
X0333000Y0038984D01*
X0333000Y0039982D02*
X0187619Y0039982D01*
X0188536Y0040981D02*
X0333000Y0040981D01*
X0333000Y0041979D02*
X0188949Y0041979D01*
X0189300Y0042978D02*
X0333000Y0042978D01*
X0333000Y0043976D02*
X0189300Y0043976D01*
X0189300Y0044975D02*
X0333000Y0044975D01*
X0333000Y0045973D02*
X0188886Y0045973D01*
X0188465Y0046972D02*
X0333000Y0046972D01*
X0333000Y0047970D02*
X0306951Y0047970D01*
X0308444Y0048969D02*
X0333000Y0048969D01*
X0333000Y0049967D02*
X0309442Y0049967D01*
X0307138Y0059952D02*
X0331513Y0059952D01*
X0332511Y0060951D02*
X0188185Y0060951D01*
X0188734Y0061949D02*
X0332755Y0061949D01*
X0333000Y0062948D02*
X0189014Y0062948D01*
X0188999Y0064945D02*
X0333000Y0064945D01*
X0333000Y0065943D02*
X0188695Y0065943D01*
X0188117Y0066942D02*
X0333000Y0066942D01*
X0333000Y0067940D02*
X0187186Y0067940D01*
X0185219Y0068939D02*
X0332802Y0068939D01*
X0332600Y0069937D02*
X0126200Y0069937D01*
X0126200Y0068939D02*
X0131954Y0068939D01*
X0130304Y0067940D02*
X0127496Y0067940D01*
X0128485Y0066942D02*
X0129315Y0066942D01*
X0128902Y0065943D02*
X0128898Y0065943D01*
X0124000Y0064000D02*
X0123900Y0063900D01*
X0124000Y0064000D02*
X0124000Y0072000D01*
X0126000Y0074000D01*
X0265000Y0074000D01*
X0268472Y0073932D02*
X0307360Y0073932D01*
X0307367Y0073888D02*
X0307598Y0073177D01*
X0307937Y0072510D01*
X0308377Y0071906D01*
X0308906Y0071377D01*
X0309510Y0070937D01*
X0310177Y0070598D01*
X0310888Y0070367D01*
X0311626Y0070250D01*
X0311811Y0070250D01*
X0311811Y0074811D01*
X0307250Y0074811D01*
X0307250Y0074626D01*
X0307367Y0073888D01*
X0307722Y0072933D02*
X0268316Y0072933D01*
X0267844Y0071934D02*
X0308356Y0071934D01*
X0309513Y0070936D02*
X0266675Y0070936D01*
X0263325Y0070936D02*
X0126200Y0070936D01*
X0121800Y0070936D02*
X0093047Y0070936D01*
X0092049Y0069937D02*
X0121800Y0069937D01*
X0121800Y0068939D02*
X0115219Y0068939D01*
X0115118Y0068972D02*
X0114400Y0069086D01*
X0114400Y0064400D01*
X0113400Y0064400D01*
X0113400Y0069086D01*
X0112682Y0068972D01*
X0111904Y0068719D01*
X0111175Y0068347D01*
X0110512Y0067866D01*
X0109934Y0067288D01*
X0109453Y0066625D01*
X0109081Y0065896D01*
X0108900Y0065339D01*
X0108719Y0065896D01*
X0108347Y0066625D01*
X0107866Y0067288D01*
X0107288Y0067866D01*
X0106625Y0068347D01*
X0105896Y0068719D01*
X0105118Y0068972D01*
X0104400Y0069086D01*
X0104400Y0064400D01*
X0103400Y0064400D01*
X0103400Y0069086D01*
X0102682Y0068972D01*
X0101904Y0068719D01*
X0101175Y0068347D01*
X0100512Y0067866D01*
X0099934Y0067288D01*
X0099453Y0066625D01*
X0099081Y0065896D01*
X0099009Y0065676D01*
X0098478Y0066959D01*
X0096959Y0068478D01*
X0094974Y0069300D01*
X0092826Y0069300D01*
X0090841Y0068478D01*
X0090200Y0067837D01*
X0090200Y0068089D01*
X0097911Y0075800D01*
X0124689Y0075800D01*
X0123089Y0074200D01*
X0121800Y0072911D01*
X0121800Y0068875D01*
X0120841Y0068478D01*
X0119322Y0066959D01*
X0118791Y0065676D01*
X0118719Y0065896D01*
X0118347Y0066625D01*
X0117866Y0067288D01*
X0117288Y0067866D01*
X0116625Y0068347D01*
X0115896Y0068719D01*
X0115118Y0068972D01*
X0114400Y0068939D02*
X0113400Y0068939D01*
X0112581Y0068939D02*
X0105219Y0068939D01*
X0104400Y0068939D02*
X0103400Y0068939D01*
X0102581Y0068939D02*
X0095846Y0068939D01*
X0097496Y0067940D02*
X0100614Y0067940D01*
X0099683Y0066942D02*
X0098485Y0066942D01*
X0098898Y0065943D02*
X0099105Y0065943D01*
X0103400Y0065943D02*
X0104400Y0065943D01*
X0104400Y0064945D02*
X0103400Y0064945D01*
X0104400Y0064400D02*
X0109086Y0064400D01*
X0113400Y0064400D01*
X0113400Y0063400D01*
X0104400Y0063400D01*
X0104400Y0064400D01*
X0104400Y0063946D02*
X0113400Y0063946D01*
X0113400Y0064945D02*
X0114400Y0064945D01*
X0114400Y0065943D02*
X0113400Y0065943D01*
X0113400Y0066942D02*
X0114400Y0066942D01*
X0114400Y0067940D02*
X0113400Y0067940D01*
X0110614Y0067940D02*
X0107186Y0067940D01*
X0108117Y0066942D02*
X0109683Y0066942D01*
X0109105Y0065943D02*
X0108695Y0065943D01*
X0104400Y0066942D02*
X0103400Y0066942D01*
X0103400Y0067940D02*
X0104400Y0067940D01*
X0097041Y0074930D02*
X0123819Y0074930D01*
X0122820Y0073932D02*
X0096043Y0073932D01*
X0095044Y0072933D02*
X0121822Y0072933D01*
X0121800Y0071934D02*
X0094046Y0071934D01*
X0091954Y0068939D02*
X0091050Y0068939D01*
X0090304Y0067940D02*
X0090200Y0067940D01*
X0083800Y0067940D02*
X0007000Y0067940D01*
X0007000Y0066942D02*
X0083800Y0066942D01*
X0083800Y0065943D02*
X0007000Y0065943D01*
X0007000Y0064945D02*
X0083800Y0064945D01*
X0083800Y0063946D02*
X0007000Y0063946D01*
X0007000Y0062948D02*
X0083800Y0062948D01*
X0083800Y0061949D02*
X0007000Y0061949D01*
X0007000Y0060951D02*
X0083800Y0060951D01*
X0083800Y0059952D02*
X0007000Y0059952D01*
X0007000Y0058954D02*
X0083800Y0058954D01*
X0083800Y0057955D02*
X0007000Y0057955D01*
X0007000Y0056957D02*
X0066954Y0056957D01*
X0063847Y0055958D02*
X0007000Y0055958D01*
X0007000Y0054960D02*
X0062849Y0054960D01*
X0061850Y0053961D02*
X0007000Y0053961D01*
X0007000Y0052963D02*
X0060852Y0052963D01*
X0071046Y0056957D02*
X0083800Y0056957D01*
X0083800Y0068939D02*
X0007000Y0068939D01*
X0007000Y0069937D02*
X0083800Y0069937D01*
X0083825Y0070936D02*
X0007000Y0070936D01*
X0007000Y0071934D02*
X0084823Y0071934D01*
X0085822Y0072933D02*
X0007000Y0072933D01*
X0007000Y0073932D02*
X0086820Y0073932D01*
X0087819Y0074930D02*
X0007000Y0074930D01*
X0007000Y0075929D02*
X0088817Y0075929D01*
X0089816Y0076927D02*
X0007000Y0076927D01*
X0007000Y0077926D02*
X0090814Y0077926D01*
X0091813Y0078924D02*
X0007000Y0078924D01*
X0007000Y0079923D02*
X0092811Y0079923D01*
X0093810Y0080921D02*
X0007000Y0080921D01*
X0007000Y0081920D02*
X0094808Y0081920D01*
X0089500Y0084915D02*
X0088500Y0084915D01*
X0088500Y0085914D02*
X0089500Y0085914D01*
X0089500Y0086912D02*
X0088500Y0086912D01*
X0088500Y0087911D02*
X0089500Y0087911D01*
X0089500Y0088909D02*
X0088500Y0088909D01*
X0088500Y0091905D02*
X0089500Y0091905D01*
X0089500Y0092903D02*
X0088500Y0092903D01*
X0088500Y0093902D02*
X0089500Y0093902D01*
X0089500Y0094900D02*
X0088500Y0094900D01*
X0088500Y0095899D02*
X0089500Y0095899D01*
X0089500Y0096897D02*
X0088500Y0096897D01*
X0094673Y0096897D02*
X0101316Y0096897D01*
X0101510Y0095899D02*
X0095224Y0095899D01*
X0095224Y0094900D02*
X0102097Y0094900D01*
X0102300Y0093902D02*
X0095224Y0093902D01*
X0095224Y0092903D02*
X0102300Y0092903D01*
X0102300Y0091905D02*
X0095224Y0091905D01*
X0106700Y0091905D02*
X0242984Y0091905D01*
X0241985Y0092903D02*
X0106700Y0092903D01*
X0106700Y0093902D02*
X0240987Y0093902D01*
X0239988Y0094900D02*
X0106903Y0094900D01*
X0107490Y0095899D02*
X0238990Y0095899D01*
X0243983Y0090906D02*
X0106700Y0090906D01*
X0106700Y0089908D02*
X0244981Y0089908D01*
X0245980Y0088909D02*
X0106700Y0088909D01*
X0106700Y0087911D02*
X0333228Y0087911D01*
X0333951Y0086912D02*
X0106700Y0086912D01*
X0106700Y0085914D02*
X0334962Y0085914D01*
X0335230Y0084915D02*
X0106700Y0084915D01*
X0106700Y0083917D02*
X0334063Y0083917D01*
X0332827Y0079923D02*
X0278961Y0079923D01*
X0279375Y0078924D02*
X0309320Y0078924D01*
X0309510Y0079063D02*
X0308906Y0078623D01*
X0308377Y0078094D01*
X0307937Y0077490D01*
X0307598Y0076823D01*
X0307367Y0076112D01*
X0307250Y0075374D01*
X0307250Y0075189D01*
X0311811Y0075189D01*
X0311811Y0079750D01*
X0311626Y0079750D01*
X0310888Y0079633D01*
X0310177Y0079402D01*
X0309510Y0079063D01*
X0308254Y0077926D02*
X0279472Y0077926D01*
X0279313Y0076927D02*
X0307651Y0076927D01*
X0307338Y0075929D02*
X0278838Y0075929D01*
X0277660Y0074930D02*
X0311811Y0074930D01*
X0311811Y0074811D02*
X0311811Y0075189D01*
X0312189Y0075189D01*
X0312189Y0079750D01*
X0312374Y0079750D01*
X0313112Y0079633D01*
X0313823Y0079402D01*
X0314490Y0079063D01*
X0315094Y0078623D01*
X0315623Y0078094D01*
X0316063Y0077490D01*
X0316402Y0076823D01*
X0316633Y0076112D01*
X0316750Y0075374D01*
X0316750Y0075189D01*
X0312189Y0075189D01*
X0312189Y0074811D01*
X0316750Y0074811D01*
X0316750Y0074626D01*
X0316633Y0073888D01*
X0316402Y0073177D01*
X0316063Y0072510D01*
X0315623Y0071906D01*
X0315094Y0071377D01*
X0314490Y0070937D01*
X0313823Y0070598D01*
X0313112Y0070367D01*
X0312374Y0070250D01*
X0312189Y0070250D01*
X0312189Y0074811D01*
X0311811Y0074811D01*
X0312189Y0074930D02*
X0333000Y0074930D01*
X0333000Y0073932D02*
X0316640Y0073932D01*
X0316278Y0072933D02*
X0333000Y0072933D01*
X0332749Y0071934D02*
X0315644Y0071934D01*
X0314487Y0070936D02*
X0332600Y0070936D01*
X0335518Y0075929D02*
X0316662Y0075929D01*
X0316349Y0076927D02*
X0334219Y0076927D01*
X0333476Y0077926D02*
X0315746Y0077926D01*
X0314680Y0078924D02*
X0333044Y0078924D01*
X0337500Y0080921D02*
X0277989Y0080921D01*
X0274340Y0074930D02*
X0268372Y0074930D01*
X0247500Y0090500D02*
X0233000Y0105000D01*
X0233000Y0218200D01*
X0224100Y0227100D01*
X0232415Y0231696D02*
X0281667Y0231696D01*
X0281375Y0231547D02*
X0280712Y0231066D01*
X0280134Y0230488D01*
X0279653Y0229825D01*
X0279281Y0229096D01*
X0279028Y0228318D01*
X0278914Y0227600D01*
X0283600Y0227600D01*
X0283600Y0226600D01*
X0278914Y0226600D01*
X0279028Y0225882D01*
X0279281Y0225104D01*
X0279653Y0224375D01*
X0280134Y0223712D01*
X0280712Y0223134D01*
X0281375Y0222653D01*
X0282104Y0222281D01*
X0282324Y0222209D01*
X0281041Y0221678D01*
X0279522Y0220159D01*
X0278700Y0218174D01*
X0278700Y0216026D01*
X0279522Y0214041D01*
X0281041Y0212522D01*
X0282060Y0212100D01*
X0281041Y0211678D01*
X0279522Y0210159D01*
X0278700Y0208174D01*
X0278700Y0206026D01*
X0279522Y0204041D01*
X0281041Y0202522D01*
X0282060Y0202100D01*
X0281041Y0201678D01*
X0279522Y0200159D01*
X0278700Y0198174D01*
X0278700Y0196026D01*
X0279522Y0194041D01*
X0281041Y0192522D01*
X0282060Y0192100D01*
X0281041Y0191678D01*
X0279522Y0190159D01*
X0278700Y0188174D01*
X0278700Y0186026D01*
X0279522Y0184041D01*
X0281041Y0182522D01*
X0282060Y0182100D01*
X0281041Y0181678D01*
X0279522Y0180159D01*
X0278700Y0178174D01*
X0278700Y0176026D01*
X0279522Y0174041D01*
X0281041Y0172522D01*
X0282060Y0172100D01*
X0281041Y0171678D01*
X0279522Y0170159D01*
X0278700Y0168174D01*
X0278700Y0166026D01*
X0279522Y0164041D01*
X0281041Y0162522D01*
X0282060Y0162100D01*
X0281041Y0161678D01*
X0279522Y0160159D01*
X0278700Y0158174D01*
X0278700Y0156026D01*
X0279522Y0154041D01*
X0281041Y0152522D01*
X0282060Y0152100D01*
X0281041Y0151678D01*
X0279522Y0150159D01*
X0278700Y0148174D01*
X0278700Y0146026D01*
X0279522Y0144041D01*
X0281041Y0142522D01*
X0282060Y0142100D01*
X0281041Y0141678D01*
X0279522Y0140159D01*
X0278700Y0138174D01*
X0278700Y0136026D01*
X0279522Y0134041D01*
X0281041Y0132522D01*
X0282060Y0132100D01*
X0281041Y0131678D01*
X0279522Y0130159D01*
X0278700Y0128174D01*
X0278700Y0126026D01*
X0279522Y0124041D01*
X0281041Y0122522D01*
X0283026Y0121700D01*
X0285174Y0121700D01*
X0287159Y0122522D01*
X0288678Y0124041D01*
X0289500Y0126026D01*
X0289500Y0128174D01*
X0288678Y0130159D01*
X0287159Y0131678D01*
X0286140Y0132100D01*
X0287159Y0132522D01*
X0288678Y0134041D01*
X0289500Y0136026D01*
X0289500Y0138174D01*
X0288678Y0140159D01*
X0287159Y0141678D01*
X0286140Y0142100D01*
X0287159Y0142522D01*
X0288678Y0144041D01*
X0289500Y0146026D01*
X0289500Y0148174D01*
X0288678Y0150159D01*
X0287159Y0151678D01*
X0286140Y0152100D01*
X0287159Y0152522D01*
X0288678Y0154041D01*
X0289500Y0156026D01*
X0289500Y0158174D01*
X0288678Y0160159D01*
X0287159Y0161678D01*
X0286140Y0162100D01*
X0287159Y0162522D01*
X0288678Y0164041D01*
X0289500Y0166026D01*
X0289500Y0168174D01*
X0288678Y0170159D01*
X0287159Y0171678D01*
X0286140Y0172100D01*
X0287159Y0172522D01*
X0288678Y0174041D01*
X0289500Y0176026D01*
X0289500Y0178174D01*
X0288678Y0180159D01*
X0287159Y0181678D01*
X0286140Y0182100D01*
X0287159Y0182522D01*
X0288678Y0184041D01*
X0289500Y0186026D01*
X0289500Y0188174D01*
X0288678Y0190159D01*
X0287159Y0191678D01*
X0286140Y0192100D01*
X0287159Y0192522D01*
X0288678Y0194041D01*
X0289500Y0196026D01*
X0289500Y0198174D01*
X0288678Y0200159D01*
X0287159Y0201678D01*
X0286140Y0202100D01*
X0287159Y0202522D01*
X0288678Y0204041D01*
X0289500Y0206026D01*
X0289500Y0208174D01*
X0288678Y0210159D01*
X0287159Y0211678D01*
X0286140Y0212100D01*
X0287159Y0212522D01*
X0288678Y0214041D01*
X0289500Y0216026D01*
X0289500Y0218174D01*
X0288678Y0220159D01*
X0287159Y0221678D01*
X0285876Y0222209D01*
X0286096Y0222281D01*
X0286825Y0222653D01*
X0287488Y0223134D01*
X0288066Y0223712D01*
X0288547Y0224375D01*
X0288919Y0225104D01*
X0289172Y0225882D01*
X0289286Y0226600D01*
X0284600Y0226600D01*
X0284600Y0227600D01*
X0289286Y0227600D01*
X0289172Y0228318D01*
X0288919Y0229096D01*
X0288547Y0229825D01*
X0288066Y0230488D01*
X0287488Y0231066D01*
X0286825Y0231547D01*
X0286096Y0231919D01*
X0285876Y0231991D01*
X0287159Y0232522D01*
X0288678Y0234041D01*
X0289500Y0236026D01*
X0289500Y0238174D01*
X0288678Y0240159D01*
X0288300Y0240537D01*
X0288300Y0243360D01*
X0294379Y0249439D01*
X0295561Y0250621D01*
X0296200Y0252165D01*
X0296200Y0262898D01*
X0296278Y0262976D01*
X0296956Y0264614D01*
X0296956Y0266386D01*
X0296278Y0268024D01*
X0295024Y0269278D01*
X0293386Y0269956D01*
X0291614Y0269956D01*
X0289976Y0269278D01*
X0288722Y0268024D01*
X0288467Y0267406D01*
X0288439Y0267379D01*
X0287800Y0265835D01*
X0287800Y0254740D01*
X0280539Y0247479D01*
X0279900Y0245935D01*
X0279900Y0240537D01*
X0279522Y0240159D01*
X0278700Y0238174D01*
X0278700Y0236026D01*
X0279522Y0234041D01*
X0281041Y0232522D01*
X0282324Y0231991D01*
X0282104Y0231919D01*
X0281375Y0231547D01*
X0280868Y0232695D02*
X0231416Y0232695D01*
X0231000Y0233111D02*
X0231000Y0290991D01*
X0232581Y0291646D01*
X0235254Y0294319D01*
X0236700Y0297810D01*
X0236700Y0301590D01*
X0235254Y0305081D01*
X0232581Y0307754D01*
X0231000Y0308409D01*
X0231000Y0321000D01*
X0424000Y0321000D01*
X0424000Y0293000D01*
X0403000Y0293000D01*
X0403000Y0269000D01*
X0433000Y0269000D01*
X0433000Y0252540D01*
X0432578Y0253559D01*
X0431059Y0255078D01*
X0429074Y0255900D01*
X0426926Y0255900D01*
X0424941Y0255078D01*
X0423422Y0253559D01*
X0423000Y0252540D01*
X0422578Y0253559D01*
X0421059Y0255078D01*
X0419074Y0255900D01*
X0416926Y0255900D01*
X0415236Y0255200D01*
X0412165Y0255200D01*
X0410621Y0254561D01*
X0409760Y0253700D01*
X0407667Y0253700D01*
X0405205Y0252680D01*
X0359205Y0206680D01*
X0359205Y0206680D01*
X0357320Y0204795D01*
X0356300Y0202333D01*
X0356300Y0093775D01*
X0353400Y0090875D01*
X0353400Y0091574D01*
X0352578Y0093559D01*
X0351059Y0095078D01*
X0350040Y0095500D01*
X0351059Y0095922D01*
X0352578Y0097441D01*
X0353400Y0099426D01*
X0353400Y0101574D01*
X0352578Y0103559D01*
X0351059Y0105078D01*
X0350040Y0105500D01*
X0351059Y0105922D01*
X0352578Y0107441D01*
X0353400Y0109426D01*
X0353400Y0111574D01*
X0352578Y0113559D01*
X0351059Y0115078D01*
X0350040Y0115500D01*
X0351059Y0115922D01*
X0352578Y0117441D01*
X0353400Y0119426D01*
X0353400Y0121574D01*
X0352578Y0123559D01*
X0351059Y0125078D01*
X0350040Y0125500D01*
X0351059Y0125922D01*
X0352578Y0127441D01*
X0353400Y0129426D01*
X0353400Y0131574D01*
X0352578Y0133559D01*
X0351059Y0135078D01*
X0350040Y0135500D01*
X0351059Y0135922D01*
X0352578Y0137441D01*
X0353400Y0139426D01*
X0353400Y0141574D01*
X0352578Y0143559D01*
X0351059Y0145078D01*
X0350040Y0145500D01*
X0351059Y0145922D01*
X0352578Y0147441D01*
X0353400Y0149426D01*
X0353400Y0151574D01*
X0352578Y0153559D01*
X0351059Y0155078D01*
X0350040Y0155500D01*
X0351059Y0155922D01*
X0352578Y0157441D01*
X0353400Y0159426D01*
X0353400Y0161574D01*
X0352578Y0163559D01*
X0351059Y0165078D01*
X0350040Y0165500D01*
X0351059Y0165922D01*
X0352578Y0167441D01*
X0353400Y0169426D01*
X0353400Y0171574D01*
X0352578Y0173559D01*
X0351059Y0175078D01*
X0350040Y0175500D01*
X0351059Y0175922D01*
X0352578Y0177441D01*
X0353400Y0179426D01*
X0353400Y0181574D01*
X0352578Y0183559D01*
X0351059Y0185078D01*
X0350040Y0185500D01*
X0351059Y0185922D01*
X0352578Y0187441D01*
X0353400Y0189426D01*
X0353400Y0191574D01*
X0352578Y0193559D01*
X0351059Y0195078D01*
X0350040Y0195500D01*
X0351059Y0195922D01*
X0352578Y0197441D01*
X0353400Y0199426D01*
X0353400Y0201574D01*
X0352578Y0203559D01*
X0351059Y0205078D01*
X0350040Y0205500D01*
X0351059Y0205922D01*
X0352578Y0207441D01*
X0353400Y0209426D01*
X0353400Y0211574D01*
X0352578Y0213559D01*
X0351059Y0215078D01*
X0350040Y0215500D01*
X0351059Y0215922D01*
X0352578Y0217441D01*
X0353400Y0219426D01*
X0353400Y0221574D01*
X0352578Y0223559D01*
X0351059Y0225078D01*
X0350040Y0225500D01*
X0351059Y0225922D01*
X0352578Y0227441D01*
X0353400Y0229426D01*
X0353400Y0231574D01*
X0352578Y0233559D01*
X0351059Y0235078D01*
X0349776Y0235609D01*
X0349996Y0235681D01*
X0350725Y0236053D01*
X0351388Y0236534D01*
X0351966Y0237112D01*
X0352447Y0237775D01*
X0352819Y0238504D01*
X0353072Y0239282D01*
X0353186Y0240000D01*
X0348500Y0240000D01*
X0348500Y0241000D01*
X0353186Y0241000D01*
X0353072Y0241718D01*
X0352819Y0242496D01*
X0352447Y0243225D01*
X0351966Y0243888D01*
X0351388Y0244466D01*
X0350725Y0244947D01*
X0349996Y0245319D01*
X0349776Y0245391D01*
X0351059Y0245922D01*
X0352578Y0247441D01*
X0353400Y0249426D01*
X0353400Y0251574D01*
X0352578Y0253559D01*
X0351059Y0255078D01*
X0349074Y0255900D01*
X0346926Y0255900D01*
X0344941Y0255078D01*
X0343422Y0253559D01*
X0343000Y0252540D01*
X0342578Y0253559D01*
X0341059Y0255078D01*
X0339074Y0255900D01*
X0336926Y0255900D01*
X0334941Y0255078D01*
X0333422Y0253559D01*
X0332600Y0251574D01*
X0332600Y0249426D01*
X0333422Y0247441D01*
X0334941Y0245922D01*
X0336224Y0245391D01*
X0336004Y0245319D01*
X0335275Y0244947D01*
X0334612Y0244466D01*
X0334034Y0243888D01*
X0333553Y0243225D01*
X0333181Y0242496D01*
X0332928Y0241718D01*
X0332814Y0241000D01*
X0337500Y0241000D01*
X0337500Y0240000D01*
X0332814Y0240000D01*
X0332928Y0239282D01*
X0333181Y0238504D01*
X0333553Y0237775D01*
X0334034Y0237112D01*
X0334612Y0236534D01*
X0335275Y0236053D01*
X0336004Y0235681D01*
X0336224Y0235609D01*
X0334941Y0235078D01*
X0333422Y0233559D01*
X0332600Y0231574D01*
X0332600Y0229426D01*
X0333422Y0227441D01*
X0334941Y0225922D01*
X0335960Y0225500D01*
X0334941Y0225078D01*
X0333422Y0223559D01*
X0332600Y0221574D01*
X0332600Y0219426D01*
X0333422Y0217441D01*
X0334941Y0215922D01*
X0335960Y0215500D01*
X0334941Y0215078D01*
X0333422Y0213559D01*
X0332600Y0211574D01*
X0332600Y0209426D01*
X0333422Y0207441D01*
X0334941Y0205922D01*
X0335960Y0205500D01*
X0334941Y0205078D01*
X0333422Y0203559D01*
X0332600Y0201574D01*
X0332600Y0199426D01*
X0333422Y0197441D01*
X0334941Y0195922D01*
X0335960Y0195500D01*
X0334941Y0195078D01*
X0333422Y0193559D01*
X0332600Y0191574D01*
X0332600Y0189426D01*
X0333422Y0187441D01*
X0334941Y0185922D01*
X0335960Y0185500D01*
X0334941Y0185078D01*
X0333422Y0183559D01*
X0332600Y0181574D01*
X0332600Y0179426D01*
X0333422Y0177441D01*
X0334941Y0175922D01*
X0335960Y0175500D01*
X0334941Y0175078D01*
X0333422Y0173559D01*
X0332600Y0171574D01*
X0332600Y0169426D01*
X0333422Y0167441D01*
X0334941Y0165922D01*
X0335960Y0165500D01*
X0334941Y0165078D01*
X0333422Y0163559D01*
X0332600Y0161574D01*
X0332600Y0159426D01*
X0333422Y0157441D01*
X0334941Y0155922D01*
X0335960Y0155500D01*
X0334941Y0155078D01*
X0333422Y0153559D01*
X0332600Y0151574D01*
X0332600Y0149426D01*
X0333422Y0147441D01*
X0334941Y0145922D01*
X0335960Y0145500D01*
X0334941Y0145078D01*
X0333422Y0143559D01*
X0332600Y0141574D01*
X0332600Y0139426D01*
X0333422Y0137441D01*
X0334941Y0135922D01*
X0335960Y0135500D01*
X0334941Y0135078D01*
X0333422Y0133559D01*
X0332600Y0131574D01*
X0332600Y0129426D01*
X0332809Y0128921D01*
X0329089Y0125200D01*
X0313911Y0125200D01*
X0309472Y0129640D01*
X0309472Y0130691D01*
X0308943Y0131967D01*
X0307967Y0132943D01*
X0306691Y0133472D01*
X0305583Y0133472D01*
X0307200Y0135089D01*
X0307200Y0146290D01*
X0307943Y0147033D01*
X0308472Y0148309D01*
X0308472Y0149691D01*
X0307943Y0150967D01*
X0306967Y0151943D01*
X0305691Y0152472D01*
X0304309Y0152472D01*
X0303033Y0151943D01*
X0302057Y0150967D01*
X0301528Y0149691D01*
X0301528Y0148309D01*
X0302057Y0147033D01*
X0302800Y0146290D01*
X0302800Y0136911D01*
X0299360Y0133472D01*
X0298309Y0133472D01*
X0297033Y0132943D01*
X0296057Y0131967D01*
X0295528Y0130691D01*
X0295528Y0129309D01*
X0296057Y0128033D01*
X0297033Y0127057D01*
X0298309Y0126528D01*
X0299691Y0126528D01*
X0300967Y0127057D01*
X0301943Y0128033D01*
X0302472Y0129309D01*
X0302472Y0130360D01*
X0302528Y0130417D01*
X0302528Y0129309D01*
X0303057Y0128033D01*
X0304033Y0127057D01*
X0305309Y0126528D01*
X0306360Y0126528D01*
X0307417Y0125472D01*
X0306309Y0125472D01*
X0305033Y0124943D01*
X0304057Y0123967D01*
X0303528Y0122691D01*
X0303528Y0121309D01*
X0304057Y0120033D01*
X0305033Y0119057D01*
X0306309Y0118528D01*
X0307360Y0118528D01*
X0307589Y0118300D01*
X0333066Y0118300D01*
X0333422Y0117441D01*
X0334941Y0115922D01*
X0335960Y0115500D01*
X0334941Y0115078D01*
X0333422Y0113559D01*
X0332600Y0111574D01*
X0332600Y0109426D01*
X0332809Y0108921D01*
X0324089Y0100200D01*
X0252911Y0100200D01*
X0249472Y0103640D01*
X0249472Y0104691D01*
X0248943Y0105967D01*
X0247967Y0106943D01*
X0246691Y0107472D01*
X0245309Y0107472D01*
X0244033Y0106943D01*
X0243057Y0105967D01*
X0242528Y0104691D01*
X0242528Y0103583D01*
X0238200Y0107911D01*
X0238200Y0225911D01*
X0236911Y0227200D01*
X0231000Y0233111D01*
X0231000Y0233693D02*
X0279870Y0233693D01*
X0279253Y0234692D02*
X0231000Y0234692D01*
X0231000Y0235690D02*
X0278839Y0235690D01*
X0278700Y0236689D02*
X0231000Y0236689D01*
X0231000Y0237687D02*
X0278700Y0237687D01*
X0278912Y0238686D02*
X0231000Y0238686D01*
X0231000Y0239684D02*
X0279326Y0239684D01*
X0279900Y0240683D02*
X0231000Y0240683D01*
X0231000Y0241681D02*
X0279900Y0241681D01*
X0279900Y0242680D02*
X0231000Y0242680D01*
X0231000Y0243678D02*
X0279900Y0243678D01*
X0279900Y0244677D02*
X0231000Y0244677D01*
X0231000Y0245675D02*
X0279900Y0245675D01*
X0280206Y0246674D02*
X0231000Y0246674D01*
X0231000Y0247672D02*
X0280733Y0247672D01*
X0281731Y0248671D02*
X0231000Y0248671D01*
X0231000Y0249670D02*
X0282730Y0249670D01*
X0283728Y0250668D02*
X0231000Y0250668D01*
X0231000Y0251667D02*
X0284727Y0251667D01*
X0285725Y0252665D02*
X0231000Y0252665D01*
X0231000Y0253664D02*
X0286724Y0253664D01*
X0287722Y0254662D02*
X0231000Y0254662D01*
X0231000Y0255661D02*
X0287800Y0255661D01*
X0287800Y0256659D02*
X0231000Y0256659D01*
X0231000Y0257658D02*
X0287800Y0257658D01*
X0287800Y0258656D02*
X0231000Y0258656D01*
X0231000Y0259655D02*
X0274790Y0259655D01*
X0274848Y0259621D02*
X0275710Y0259264D01*
X0276610Y0259023D01*
X0277500Y0258906D01*
X0277500Y0265512D01*
X0270894Y0265512D01*
X0271011Y0264622D01*
X0271253Y0263721D01*
X0271609Y0262860D01*
X0272075Y0262053D01*
X0272643Y0261314D01*
X0273302Y0260655D01*
X0274041Y0260087D01*
X0274848Y0259621D01*
X0273304Y0260653D02*
X0231000Y0260653D01*
X0231000Y0261652D02*
X0272383Y0261652D01*
X0271731Y0262650D02*
X0231000Y0262650D01*
X0231000Y0263649D02*
X0271283Y0263649D01*
X0271008Y0264647D02*
X0231000Y0264647D01*
X0231000Y0265646D02*
X0277500Y0265646D01*
X0277500Y0265512D02*
X0277500Y0266512D01*
X0277500Y0273118D01*
X0276610Y0273000D01*
X0275710Y0272759D01*
X0274848Y0272402D01*
X0274041Y0271936D01*
X0273302Y0271369D01*
X0272643Y0270710D01*
X0272075Y0269971D01*
X0271609Y0269163D01*
X0271253Y0268302D01*
X0271011Y0267402D01*
X0270894Y0266512D01*
X0277500Y0266512D01*
X0278500Y0266512D01*
X0278500Y0273118D01*
X0279390Y0273000D01*
X0280290Y0272759D01*
X0281152Y0272402D01*
X0281959Y0271936D01*
X0282698Y0271369D01*
X0283357Y0270710D01*
X0283925Y0269971D01*
X0284391Y0269163D01*
X0284747Y0268302D01*
X0284989Y0267402D01*
X0285106Y0266512D01*
X0278500Y0266512D01*
X0278500Y0265512D01*
X0285106Y0265512D01*
X0284989Y0264622D01*
X0284747Y0263721D01*
X0284391Y0262860D01*
X0283925Y0262053D01*
X0283357Y0261314D01*
X0282698Y0260655D01*
X0281959Y0260087D01*
X0281152Y0259621D01*
X0280290Y0259264D01*
X0279390Y0259023D01*
X0278500Y0258906D01*
X0278500Y0265512D01*
X0277500Y0265512D01*
X0277500Y0264647D02*
X0278500Y0264647D01*
X0278500Y0263649D02*
X0277500Y0263649D01*
X0277500Y0262650D02*
X0278500Y0262650D01*
X0278500Y0261652D02*
X0277500Y0261652D01*
X0277500Y0260653D02*
X0278500Y0260653D01*
X0278500Y0259655D02*
X0277500Y0259655D01*
X0281209Y0259655D02*
X0287800Y0259655D01*
X0287800Y0260653D02*
X0282696Y0260653D01*
X0283617Y0261652D02*
X0287800Y0261652D01*
X0287800Y0262650D02*
X0284269Y0262650D01*
X0284717Y0263649D02*
X0287800Y0263649D01*
X0287800Y0264647D02*
X0284992Y0264647D01*
X0285088Y0266644D02*
X0288135Y0266644D01*
X0287800Y0265646D02*
X0278500Y0265646D01*
X0278500Y0266644D02*
X0277500Y0266644D01*
X0277500Y0267643D02*
X0278500Y0267643D01*
X0278500Y0268641D02*
X0277500Y0268641D01*
X0277500Y0269640D02*
X0278500Y0269640D01*
X0278500Y0270638D02*
X0277500Y0270638D01*
X0277500Y0271637D02*
X0278500Y0271637D01*
X0278500Y0272635D02*
X0277500Y0272635D01*
X0275411Y0272635D02*
X0231000Y0272635D01*
X0231000Y0271637D02*
X0273651Y0271637D01*
X0272588Y0270638D02*
X0231000Y0270638D01*
X0231000Y0269640D02*
X0271884Y0269640D01*
X0271393Y0268641D02*
X0231000Y0268641D01*
X0231000Y0267643D02*
X0271076Y0267643D01*
X0270912Y0266644D02*
X0231000Y0266644D01*
X0231000Y0273634D02*
X0293450Y0273634D01*
X0293722Y0272976D02*
X0294976Y0271722D01*
X0296614Y0271044D01*
X0298386Y0271044D01*
X0300024Y0271722D01*
X0301278Y0272976D01*
X0301956Y0274614D01*
X0301956Y0276386D01*
X0301278Y0278024D01*
X0300024Y0279278D01*
X0298386Y0279956D01*
X0296614Y0279956D01*
X0294976Y0279278D01*
X0293722Y0278024D01*
X0293044Y0276386D01*
X0293044Y0274614D01*
X0293722Y0272976D01*
X0294063Y0272635D02*
X0280589Y0272635D01*
X0282349Y0271637D02*
X0295183Y0271637D01*
X0294150Y0269640D02*
X0300850Y0269640D01*
X0301614Y0269956D02*
X0299976Y0269278D01*
X0298722Y0268024D01*
X0298044Y0266386D01*
X0298044Y0264614D01*
X0298722Y0262976D01*
X0299976Y0261722D01*
X0301614Y0261044D01*
X0303386Y0261044D01*
X0305024Y0261722D01*
X0306278Y0262976D01*
X0306956Y0264614D01*
X0306956Y0266386D01*
X0306278Y0268024D01*
X0305024Y0269278D01*
X0303386Y0269956D01*
X0301614Y0269956D01*
X0299817Y0271637D02*
X0305183Y0271637D01*
X0304976Y0271722D02*
X0306614Y0271044D01*
X0308386Y0271044D01*
X0310024Y0271722D01*
X0311278Y0272976D01*
X0311956Y0274614D01*
X0311956Y0276386D01*
X0311278Y0278024D01*
X0310024Y0279278D01*
X0308386Y0279956D01*
X0306614Y0279956D01*
X0304976Y0279278D01*
X0303722Y0278024D01*
X0303044Y0276386D01*
X0303044Y0274614D01*
X0303722Y0272976D01*
X0304976Y0271722D01*
X0304063Y0272635D02*
X0300937Y0272635D01*
X0301550Y0273634D02*
X0303450Y0273634D01*
X0303044Y0274632D02*
X0301956Y0274632D01*
X0301956Y0275631D02*
X0303044Y0275631D01*
X0303145Y0276629D02*
X0301855Y0276629D01*
X0301442Y0277628D02*
X0303558Y0277628D01*
X0304325Y0278626D02*
X0300675Y0278626D01*
X0299186Y0279625D02*
X0305814Y0279625D01*
X0309186Y0279625D02*
X0315814Y0279625D01*
X0316614Y0279956D02*
X0314976Y0279278D01*
X0313722Y0278024D01*
X0313044Y0276386D01*
X0313044Y0274614D01*
X0313722Y0272976D01*
X0314976Y0271722D01*
X0316614Y0271044D01*
X0318386Y0271044D01*
X0320024Y0271722D01*
X0321278Y0272976D01*
X0321956Y0274614D01*
X0321956Y0276386D01*
X0321278Y0278024D01*
X0320024Y0279278D01*
X0318386Y0279956D01*
X0316614Y0279956D01*
X0319186Y0279625D02*
X0325814Y0279625D01*
X0326614Y0279956D02*
X0324976Y0279278D01*
X0323722Y0278024D01*
X0323044Y0276386D01*
X0323044Y0274614D01*
X0323722Y0272976D01*
X0324976Y0271722D01*
X0326614Y0271044D01*
X0328386Y0271044D01*
X0330024Y0271722D01*
X0331278Y0272976D01*
X0331956Y0274614D01*
X0331956Y0276386D01*
X0331278Y0278024D01*
X0330024Y0279278D01*
X0328386Y0279956D01*
X0326614Y0279956D01*
X0329186Y0279625D02*
X0403000Y0279625D01*
X0403000Y0280623D02*
X0231000Y0280623D01*
X0231000Y0279625D02*
X0295814Y0279625D01*
X0294325Y0278626D02*
X0231000Y0278626D01*
X0231000Y0277628D02*
X0293558Y0277628D01*
X0293145Y0276629D02*
X0231000Y0276629D01*
X0231000Y0275631D02*
X0293044Y0275631D01*
X0293044Y0274632D02*
X0231000Y0274632D01*
X0231000Y0281622D02*
X0403000Y0281622D01*
X0403000Y0282620D02*
X0231000Y0282620D01*
X0231000Y0283619D02*
X0403000Y0283619D01*
X0403000Y0284617D02*
X0231000Y0284617D01*
X0231000Y0285616D02*
X0403000Y0285616D01*
X0403000Y0286614D02*
X0231000Y0286614D01*
X0231000Y0287613D02*
X0403000Y0287613D01*
X0403000Y0288611D02*
X0231000Y0288611D01*
X0231000Y0289610D02*
X0403000Y0289610D01*
X0403000Y0290608D02*
X0272076Y0290608D01*
X0271090Y0290200D02*
X0274581Y0291646D01*
X0277254Y0294319D01*
X0278700Y0297810D01*
X0278700Y0301590D01*
X0277254Y0305081D01*
X0277145Y0305190D01*
X0279454Y0305190D01*
X0280916Y0305795D01*
X0280379Y0305258D01*
X0279100Y0302171D01*
X0279100Y0298829D01*
X0280379Y0295742D01*
X0282742Y0293379D01*
X0285829Y0292100D01*
X0289171Y0292100D01*
X0292258Y0293379D01*
X0294621Y0295742D01*
X0295900Y0298829D01*
X0295900Y0302171D01*
X0294621Y0305258D01*
X0292258Y0307621D01*
X0289171Y0308900D01*
X0285829Y0308900D01*
X0283967Y0308129D01*
X0284197Y0308359D01*
X0285310Y0311046D01*
X0285310Y0313954D01*
X0284197Y0316641D01*
X0282141Y0318697D01*
X0279454Y0319810D01*
X0276546Y0319810D01*
X0273859Y0318697D01*
X0271803Y0316641D01*
X0270690Y0313954D01*
X0270690Y0311046D01*
X0271530Y0309018D01*
X0271090Y0309200D01*
X0267310Y0309200D01*
X0263819Y0307754D01*
X0261146Y0305081D01*
X0259700Y0301590D01*
X0259700Y0297810D01*
X0261146Y0294319D01*
X0263819Y0291646D01*
X0267310Y0290200D01*
X0271090Y0290200D01*
X0274486Y0291607D02*
X0403000Y0291607D01*
X0403000Y0292605D02*
X0335391Y0292605D01*
X0334171Y0292100D02*
X0337258Y0293379D01*
X0339621Y0295742D01*
X0340900Y0298829D01*
X0340900Y0302171D01*
X0339621Y0305258D01*
X0339084Y0305795D01*
X0340546Y0305190D01*
X0343454Y0305190D01*
X0346141Y0306303D01*
X0346700Y0306862D01*
X0346700Y0306810D01*
X0348146Y0303319D01*
X0350819Y0300646D01*
X0354310Y0299200D01*
X0358090Y0299200D01*
X0361581Y0300646D01*
X0364254Y0303319D01*
X0365700Y0306810D01*
X0365700Y0310590D01*
X0364254Y0314081D01*
X0361581Y0316754D01*
X0358090Y0318200D01*
X0354310Y0318200D01*
X0350819Y0316754D01*
X0348932Y0314867D01*
X0348197Y0316641D01*
X0346141Y0318697D01*
X0343454Y0319810D01*
X0340546Y0319810D01*
X0337859Y0318697D01*
X0335803Y0316641D01*
X0334690Y0313954D01*
X0334690Y0311046D01*
X0335803Y0308359D01*
X0336033Y0308129D01*
X0334171Y0308900D01*
X0330829Y0308900D01*
X0327742Y0307621D01*
X0325379Y0305258D01*
X0324100Y0302171D01*
X0324100Y0298829D01*
X0325379Y0295742D01*
X0327742Y0293379D01*
X0330829Y0292100D01*
X0334171Y0292100D01*
X0337483Y0293604D02*
X0424000Y0293604D01*
X0424000Y0294603D02*
X0338482Y0294603D01*
X0339480Y0295601D02*
X0424000Y0295601D01*
X0424000Y0296600D02*
X0339976Y0296600D01*
X0340390Y0297598D02*
X0424000Y0297598D01*
X0424000Y0298597D02*
X0404047Y0298597D01*
X0403090Y0298200D02*
X0406581Y0299646D01*
X0409254Y0302319D01*
X0410700Y0305810D01*
X0410700Y0309590D01*
X0409254Y0313081D01*
X0406581Y0315754D01*
X0403090Y0317200D01*
X0399310Y0317200D01*
X0395819Y0315754D01*
X0393146Y0313081D01*
X0391700Y0309590D01*
X0391700Y0305810D01*
X0393146Y0302319D01*
X0395819Y0299646D01*
X0399310Y0298200D01*
X0403090Y0298200D01*
X0406458Y0299595D02*
X0424000Y0299595D01*
X0424000Y0300594D02*
X0407529Y0300594D01*
X0408527Y0301592D02*
X0424000Y0301592D01*
X0424000Y0302591D02*
X0409366Y0302591D01*
X0409780Y0303589D02*
X0424000Y0303589D01*
X0424000Y0304588D02*
X0410194Y0304588D01*
X0410607Y0305586D02*
X0424000Y0305586D01*
X0424000Y0306585D02*
X0410700Y0306585D01*
X0410700Y0307583D02*
X0424000Y0307583D01*
X0424000Y0308582D02*
X0410700Y0308582D01*
X0410700Y0309580D02*
X0424000Y0309580D01*
X0424000Y0310579D02*
X0410290Y0310579D01*
X0409877Y0311577D02*
X0424000Y0311577D01*
X0424000Y0312576D02*
X0409463Y0312576D01*
X0408761Y0313574D02*
X0424000Y0313574D01*
X0424000Y0314573D02*
X0407762Y0314573D01*
X0406764Y0315571D02*
X0424000Y0315571D01*
X0424000Y0316570D02*
X0404611Y0316570D01*
X0397789Y0316570D02*
X0361765Y0316570D01*
X0362764Y0315571D02*
X0395636Y0315571D01*
X0394638Y0314573D02*
X0363762Y0314573D01*
X0364464Y0313574D02*
X0393639Y0313574D01*
X0392937Y0312576D02*
X0364877Y0312576D01*
X0365291Y0311577D02*
X0392523Y0311577D01*
X0392110Y0310579D02*
X0365700Y0310579D01*
X0365700Y0309580D02*
X0391700Y0309580D01*
X0391700Y0308582D02*
X0365700Y0308582D01*
X0365700Y0307583D02*
X0391700Y0307583D01*
X0391700Y0306585D02*
X0365607Y0306585D01*
X0365193Y0305586D02*
X0391793Y0305586D01*
X0392206Y0304588D02*
X0364779Y0304588D01*
X0364366Y0303589D02*
X0392620Y0303589D01*
X0393034Y0302591D02*
X0363526Y0302591D01*
X0362527Y0301592D02*
X0393873Y0301592D01*
X0394871Y0300594D02*
X0361454Y0300594D01*
X0359043Y0299595D02*
X0395942Y0299595D01*
X0398353Y0298597D02*
X0340804Y0298597D01*
X0340900Y0299595D02*
X0353357Y0299595D01*
X0350946Y0300594D02*
X0340900Y0300594D01*
X0340900Y0301592D02*
X0349873Y0301592D01*
X0348874Y0302591D02*
X0340726Y0302591D01*
X0340313Y0303589D02*
X0348034Y0303589D01*
X0347621Y0304588D02*
X0339899Y0304588D01*
X0339589Y0305586D02*
X0339293Y0305586D01*
X0335710Y0308582D02*
X0334939Y0308582D01*
X0335297Y0309580D02*
X0284703Y0309580D01*
X0285061Y0308582D02*
X0284290Y0308582D01*
X0285117Y0310579D02*
X0334883Y0310579D01*
X0334690Y0311577D02*
X0285310Y0311577D01*
X0285310Y0312576D02*
X0334690Y0312576D01*
X0334690Y0313574D02*
X0285310Y0313574D01*
X0285054Y0314573D02*
X0334946Y0314573D01*
X0335360Y0315571D02*
X0284640Y0315571D01*
X0284227Y0316570D02*
X0335773Y0316570D01*
X0336730Y0317568D02*
X0283270Y0317568D01*
X0282271Y0318567D02*
X0337729Y0318567D01*
X0339955Y0319565D02*
X0280045Y0319565D01*
X0275955Y0319565D02*
X0231000Y0319565D01*
X0231000Y0318567D02*
X0273729Y0318567D01*
X0272730Y0317568D02*
X0231000Y0317568D01*
X0231000Y0316570D02*
X0271773Y0316570D01*
X0271360Y0315571D02*
X0231000Y0315571D01*
X0231000Y0314573D02*
X0270946Y0314573D01*
X0270690Y0313574D02*
X0231000Y0313574D01*
X0231000Y0312576D02*
X0270690Y0312576D01*
X0270690Y0311577D02*
X0231000Y0311577D01*
X0231000Y0310579D02*
X0270883Y0310579D01*
X0271297Y0309580D02*
X0231000Y0309580D01*
X0231000Y0308582D02*
X0265818Y0308582D01*
X0263648Y0307583D02*
X0232752Y0307583D01*
X0233750Y0306585D02*
X0262650Y0306585D01*
X0261651Y0305586D02*
X0234749Y0305586D01*
X0235458Y0304588D02*
X0260942Y0304588D01*
X0260528Y0303589D02*
X0235872Y0303589D01*
X0236285Y0302591D02*
X0260115Y0302591D01*
X0259701Y0301592D02*
X0236699Y0301592D01*
X0236700Y0300594D02*
X0259700Y0300594D01*
X0259700Y0299595D02*
X0236700Y0299595D01*
X0236700Y0298597D02*
X0259700Y0298597D01*
X0259788Y0297598D02*
X0236612Y0297598D01*
X0236198Y0296600D02*
X0260202Y0296600D01*
X0260615Y0295601D02*
X0235785Y0295601D01*
X0235371Y0294603D02*
X0261029Y0294603D01*
X0261861Y0293604D02*
X0234539Y0293604D01*
X0233541Y0292605D02*
X0262859Y0292605D01*
X0263914Y0291607D02*
X0232486Y0291607D01*
X0231000Y0290608D02*
X0266324Y0290608D01*
X0275541Y0292605D02*
X0284609Y0292605D01*
X0282517Y0293604D02*
X0276539Y0293604D01*
X0277371Y0294603D02*
X0281518Y0294603D01*
X0280520Y0295601D02*
X0277785Y0295601D01*
X0278198Y0296600D02*
X0280024Y0296600D01*
X0279610Y0297598D02*
X0278612Y0297598D01*
X0278700Y0298597D02*
X0279196Y0298597D01*
X0279100Y0299595D02*
X0278700Y0299595D01*
X0278700Y0300594D02*
X0279100Y0300594D01*
X0279100Y0301592D02*
X0278699Y0301592D01*
X0278285Y0302591D02*
X0279274Y0302591D01*
X0279687Y0303589D02*
X0277872Y0303589D01*
X0277458Y0304588D02*
X0280101Y0304588D01*
X0280411Y0305586D02*
X0280707Y0305586D01*
X0289939Y0308582D02*
X0330061Y0308582D01*
X0327704Y0307583D02*
X0292296Y0307583D01*
X0293295Y0306585D02*
X0326705Y0306585D01*
X0325707Y0305586D02*
X0294293Y0305586D01*
X0294899Y0304588D02*
X0325101Y0304588D01*
X0324687Y0303589D02*
X0295313Y0303589D01*
X0295726Y0302591D02*
X0324274Y0302591D01*
X0324100Y0301592D02*
X0295900Y0301592D01*
X0295900Y0300594D02*
X0324100Y0300594D01*
X0324100Y0299595D02*
X0295900Y0299595D01*
X0295804Y0298597D02*
X0324196Y0298597D01*
X0324610Y0297598D02*
X0295390Y0297598D01*
X0294976Y0296600D02*
X0325024Y0296600D01*
X0325520Y0295601D02*
X0294480Y0295601D01*
X0293482Y0294603D02*
X0326518Y0294603D01*
X0327517Y0293604D02*
X0292483Y0293604D01*
X0290391Y0292605D02*
X0329609Y0292605D01*
X0330675Y0278626D02*
X0403000Y0278626D01*
X0403000Y0277628D02*
X0331442Y0277628D01*
X0331855Y0276629D02*
X0403000Y0276629D01*
X0403000Y0275631D02*
X0331956Y0275631D01*
X0331956Y0274632D02*
X0403000Y0274632D01*
X0403000Y0273634D02*
X0331550Y0273634D01*
X0330937Y0272635D02*
X0339411Y0272635D01*
X0339710Y0272759D02*
X0338848Y0272402D01*
X0338041Y0271936D01*
X0337302Y0271369D01*
X0336643Y0270710D01*
X0336075Y0269971D01*
X0335609Y0269163D01*
X0335253Y0268302D01*
X0335011Y0267402D01*
X0334894Y0266512D01*
X0341500Y0266512D01*
X0341500Y0273118D01*
X0340610Y0273000D01*
X0339710Y0272759D01*
X0341500Y0272635D02*
X0342500Y0272635D01*
X0342500Y0273118D02*
X0343390Y0273000D01*
X0344290Y0272759D01*
X0345152Y0272402D01*
X0345959Y0271936D01*
X0346698Y0271369D01*
X0347357Y0270710D01*
X0347925Y0269971D01*
X0348391Y0269163D01*
X0348747Y0268302D01*
X0348989Y0267402D01*
X0349106Y0266512D01*
X0342500Y0266512D01*
X0341500Y0266512D01*
X0341500Y0265512D01*
X0334894Y0265512D01*
X0335011Y0264622D01*
X0335253Y0263721D01*
X0335609Y0262860D01*
X0336075Y0262053D01*
X0336643Y0261314D01*
X0337302Y0260655D01*
X0338041Y0260087D01*
X0338848Y0259621D01*
X0339710Y0259264D01*
X0340610Y0259023D01*
X0341500Y0258906D01*
X0341500Y0265512D01*
X0342500Y0265512D01*
X0342500Y0266512D01*
X0342500Y0273118D01*
X0342500Y0271637D02*
X0341500Y0271637D01*
X0341500Y0270638D02*
X0342500Y0270638D01*
X0342500Y0269640D02*
X0341500Y0269640D01*
X0341500Y0268641D02*
X0342500Y0268641D01*
X0342500Y0267643D02*
X0341500Y0267643D01*
X0341500Y0266644D02*
X0342500Y0266644D01*
X0342500Y0265646D02*
X0433000Y0265646D01*
X0433000Y0266644D02*
X0349088Y0266644D01*
X0348924Y0267643D02*
X0433000Y0267643D01*
X0433000Y0268641D02*
X0348607Y0268641D01*
X0348116Y0269640D02*
X0403000Y0269640D01*
X0403000Y0270638D02*
X0347412Y0270638D01*
X0346349Y0271637D02*
X0403000Y0271637D01*
X0403000Y0272635D02*
X0344589Y0272635D01*
X0337651Y0271637D02*
X0329817Y0271637D01*
X0325183Y0271637D02*
X0319817Y0271637D01*
X0320937Y0272635D02*
X0324063Y0272635D01*
X0323450Y0273634D02*
X0321550Y0273634D01*
X0321956Y0274632D02*
X0323044Y0274632D01*
X0323044Y0275631D02*
X0321956Y0275631D01*
X0321855Y0276629D02*
X0323145Y0276629D01*
X0323558Y0277628D02*
X0321442Y0277628D01*
X0320675Y0278626D02*
X0324325Y0278626D01*
X0323386Y0269956D02*
X0321614Y0269956D01*
X0319976Y0269278D01*
X0318722Y0268024D01*
X0318044Y0266386D01*
X0318044Y0264614D01*
X0318722Y0262976D01*
X0319976Y0261722D01*
X0321614Y0261044D01*
X0323386Y0261044D01*
X0325024Y0261722D01*
X0326278Y0262976D01*
X0326956Y0264614D01*
X0326956Y0266386D01*
X0326278Y0268024D01*
X0325024Y0269278D01*
X0323386Y0269956D01*
X0324150Y0269640D02*
X0335884Y0269640D01*
X0335393Y0268641D02*
X0325660Y0268641D01*
X0326435Y0267643D02*
X0335076Y0267643D01*
X0334912Y0266644D02*
X0326849Y0266644D01*
X0326956Y0265646D02*
X0341500Y0265646D01*
X0341500Y0264647D02*
X0342500Y0264647D01*
X0342500Y0265512D02*
X0342500Y0258906D01*
X0343390Y0259023D01*
X0344290Y0259264D01*
X0345152Y0259621D01*
X0345959Y0260087D01*
X0346698Y0260655D01*
X0347357Y0261314D01*
X0347925Y0262053D01*
X0348391Y0262860D01*
X0348747Y0263721D01*
X0348989Y0264622D01*
X0349106Y0265512D01*
X0342500Y0265512D01*
X0342500Y0263649D02*
X0341500Y0263649D01*
X0341500Y0262650D02*
X0342500Y0262650D01*
X0342500Y0261652D02*
X0341500Y0261652D01*
X0341500Y0260653D02*
X0342500Y0260653D01*
X0342500Y0259655D02*
X0341500Y0259655D01*
X0338790Y0259655D02*
X0296200Y0259655D01*
X0296200Y0260653D02*
X0337304Y0260653D01*
X0336383Y0261652D02*
X0324853Y0261652D01*
X0325952Y0262650D02*
X0335731Y0262650D01*
X0335283Y0263649D02*
X0326556Y0263649D01*
X0326956Y0264647D02*
X0335008Y0264647D01*
X0336588Y0270638D02*
X0283412Y0270638D01*
X0284116Y0269640D02*
X0290850Y0269640D01*
X0289340Y0268641D02*
X0284607Y0268641D01*
X0284924Y0267643D02*
X0288565Y0267643D01*
X0295660Y0268641D02*
X0299340Y0268641D01*
X0298565Y0267643D02*
X0296435Y0267643D01*
X0296849Y0266644D02*
X0298151Y0266644D01*
X0298044Y0265646D02*
X0296956Y0265646D01*
X0296956Y0264647D02*
X0298044Y0264647D01*
X0298444Y0263649D02*
X0296556Y0263649D01*
X0296200Y0262650D02*
X0299048Y0262650D01*
X0300147Y0261652D02*
X0296200Y0261652D01*
X0296200Y0258656D02*
X0433000Y0258656D01*
X0433000Y0257658D02*
X0296200Y0257658D01*
X0296200Y0256659D02*
X0433000Y0256659D01*
X0433000Y0255661D02*
X0429652Y0255661D01*
X0431475Y0254662D02*
X0433000Y0254662D01*
X0433000Y0253664D02*
X0432473Y0253664D01*
X0432948Y0252665D02*
X0433000Y0252665D01*
X0426348Y0255661D02*
X0419652Y0255661D01*
X0421475Y0254662D02*
X0424525Y0254662D01*
X0423527Y0253664D02*
X0422473Y0253664D01*
X0422948Y0252665D02*
X0423052Y0252665D01*
X0416348Y0255661D02*
X0349652Y0255661D01*
X0351475Y0254662D02*
X0410866Y0254662D01*
X0407579Y0253664D02*
X0352473Y0253664D01*
X0352948Y0252665D02*
X0405190Y0252665D01*
X0404191Y0251667D02*
X0353362Y0251667D01*
X0353400Y0250668D02*
X0403193Y0250668D01*
X0402194Y0249670D02*
X0353400Y0249670D01*
X0353087Y0248671D02*
X0401196Y0248671D01*
X0400197Y0247672D02*
X0352674Y0247672D01*
X0351811Y0246674D02*
X0399199Y0246674D01*
X0398200Y0245675D02*
X0350463Y0245675D01*
X0351098Y0244677D02*
X0397202Y0244677D01*
X0396203Y0243678D02*
X0352118Y0243678D01*
X0352725Y0242680D02*
X0395205Y0242680D01*
X0394206Y0241681D02*
X0353078Y0241681D01*
X0353136Y0239684D02*
X0392209Y0239684D01*
X0391211Y0238686D02*
X0352878Y0238686D01*
X0352384Y0237687D02*
X0390212Y0237687D01*
X0389214Y0236689D02*
X0351543Y0236689D01*
X0350015Y0235690D02*
X0388215Y0235690D01*
X0387217Y0234692D02*
X0351445Y0234692D01*
X0352443Y0233693D02*
X0386218Y0233693D01*
X0385220Y0232695D02*
X0352936Y0232695D01*
X0353349Y0231696D02*
X0384221Y0231696D01*
X0383223Y0230698D02*
X0353400Y0230698D01*
X0353400Y0229699D02*
X0382224Y0229699D01*
X0381226Y0228701D02*
X0353100Y0228701D01*
X0352686Y0227702D02*
X0380227Y0227702D01*
X0379229Y0226704D02*
X0351841Y0226704D01*
X0350535Y0225705D02*
X0378230Y0225705D01*
X0377232Y0224707D02*
X0351430Y0224707D01*
X0352429Y0223708D02*
X0376233Y0223708D01*
X0375234Y0222710D02*
X0352930Y0222710D01*
X0353343Y0221711D02*
X0374236Y0221711D01*
X0373237Y0220713D02*
X0353400Y0220713D01*
X0353400Y0219714D02*
X0372239Y0219714D01*
X0371240Y0218716D02*
X0353106Y0218716D01*
X0352692Y0217717D02*
X0370242Y0217717D01*
X0369243Y0216719D02*
X0351855Y0216719D01*
X0350571Y0215720D02*
X0368245Y0215720D01*
X0367246Y0214722D02*
X0351415Y0214722D01*
X0352414Y0213723D02*
X0366248Y0213723D01*
X0365249Y0212725D02*
X0352923Y0212725D01*
X0353337Y0211726D02*
X0364251Y0211726D01*
X0363252Y0210728D02*
X0353400Y0210728D01*
X0353400Y0209729D02*
X0362254Y0209729D01*
X0361255Y0208731D02*
X0353112Y0208731D01*
X0352698Y0207732D02*
X0360257Y0207732D01*
X0359258Y0206734D02*
X0351870Y0206734D01*
X0350607Y0205735D02*
X0358260Y0205735D01*
X0357296Y0204737D02*
X0351400Y0204737D01*
X0352399Y0203738D02*
X0356882Y0203738D01*
X0356468Y0202739D02*
X0352917Y0202739D01*
X0353331Y0201741D02*
X0356300Y0201741D01*
X0356300Y0200742D02*
X0353400Y0200742D01*
X0353400Y0199744D02*
X0356300Y0199744D01*
X0356300Y0198745D02*
X0353118Y0198745D01*
X0352705Y0197747D02*
X0356300Y0197747D01*
X0356300Y0196748D02*
X0351885Y0196748D01*
X0350643Y0195750D02*
X0356300Y0195750D01*
X0356300Y0194751D02*
X0351385Y0194751D01*
X0352384Y0193753D02*
X0356300Y0193753D01*
X0356300Y0192754D02*
X0352911Y0192754D01*
X0353325Y0191756D02*
X0356300Y0191756D01*
X0356300Y0190757D02*
X0353400Y0190757D01*
X0353400Y0189759D02*
X0356300Y0189759D01*
X0356300Y0188760D02*
X0353124Y0188760D01*
X0352711Y0187762D02*
X0356300Y0187762D01*
X0356300Y0186763D02*
X0351900Y0186763D01*
X0350679Y0185765D02*
X0356300Y0185765D01*
X0356300Y0184766D02*
X0351370Y0184766D01*
X0352369Y0183768D02*
X0356300Y0183768D01*
X0356300Y0182769D02*
X0352905Y0182769D01*
X0353319Y0181771D02*
X0356300Y0181771D01*
X0356300Y0180772D02*
X0353400Y0180772D01*
X0353400Y0179774D02*
X0356300Y0179774D01*
X0356300Y0178775D02*
X0353130Y0178775D01*
X0352717Y0177777D02*
X0356300Y0177777D01*
X0356300Y0176778D02*
X0351915Y0176778D01*
X0350715Y0175780D02*
X0356300Y0175780D01*
X0356300Y0174781D02*
X0351356Y0174781D01*
X0352354Y0173783D02*
X0356300Y0173783D01*
X0356300Y0172784D02*
X0352899Y0172784D01*
X0353312Y0171786D02*
X0356300Y0171786D01*
X0356300Y0170787D02*
X0353400Y0170787D01*
X0353400Y0169789D02*
X0356300Y0169789D01*
X0356300Y0168790D02*
X0353137Y0168790D01*
X0352723Y0167792D02*
X0356300Y0167792D01*
X0356300Y0166793D02*
X0351930Y0166793D01*
X0350751Y0165795D02*
X0356300Y0165795D01*
X0356300Y0164796D02*
X0351341Y0164796D01*
X0352339Y0163798D02*
X0356300Y0163798D01*
X0356300Y0162799D02*
X0352893Y0162799D01*
X0353306Y0161801D02*
X0356300Y0161801D01*
X0356300Y0160802D02*
X0353400Y0160802D01*
X0353400Y0159803D02*
X0356300Y0159803D01*
X0356300Y0158805D02*
X0353143Y0158805D01*
X0352729Y0157806D02*
X0356300Y0157806D01*
X0356300Y0156808D02*
X0351945Y0156808D01*
X0350787Y0155809D02*
X0356300Y0155809D01*
X0356300Y0154811D02*
X0351326Y0154811D01*
X0352324Y0153812D02*
X0356300Y0153812D01*
X0356300Y0152814D02*
X0352886Y0152814D01*
X0353300Y0151815D02*
X0356300Y0151815D01*
X0356300Y0150817D02*
X0353400Y0150817D01*
X0353400Y0149818D02*
X0356300Y0149818D01*
X0356300Y0148820D02*
X0353149Y0148820D01*
X0352735Y0147821D02*
X0356300Y0147821D01*
X0356300Y0146823D02*
X0351960Y0146823D01*
X0350823Y0145824D02*
X0356300Y0145824D01*
X0356300Y0144826D02*
X0351311Y0144826D01*
X0352309Y0143827D02*
X0356300Y0143827D01*
X0356300Y0142829D02*
X0352880Y0142829D01*
X0353294Y0141830D02*
X0356300Y0141830D01*
X0356300Y0140832D02*
X0353400Y0140832D01*
X0353400Y0139833D02*
X0356300Y0139833D01*
X0356300Y0138835D02*
X0353155Y0138835D01*
X0352742Y0137836D02*
X0356300Y0137836D01*
X0356300Y0136838D02*
X0351974Y0136838D01*
X0350859Y0135839D02*
X0356300Y0135839D01*
X0356300Y0134841D02*
X0351296Y0134841D01*
X0352295Y0133842D02*
X0356300Y0133842D01*
X0356300Y0132844D02*
X0352874Y0132844D01*
X0353288Y0131845D02*
X0356300Y0131845D01*
X0356300Y0130847D02*
X0353400Y0130847D01*
X0353400Y0129848D02*
X0356300Y0129848D01*
X0356300Y0128850D02*
X0353161Y0128850D01*
X0352748Y0127851D02*
X0356300Y0127851D01*
X0356300Y0126853D02*
X0351989Y0126853D01*
X0350895Y0125854D02*
X0356300Y0125854D01*
X0356300Y0124856D02*
X0351281Y0124856D01*
X0352280Y0123857D02*
X0356300Y0123857D01*
X0356300Y0122859D02*
X0352868Y0122859D01*
X0353282Y0121860D02*
X0356300Y0121860D01*
X0356300Y0120862D02*
X0353400Y0120862D01*
X0353400Y0119863D02*
X0356300Y0119863D01*
X0356300Y0118865D02*
X0353167Y0118865D01*
X0352754Y0117866D02*
X0356300Y0117866D01*
X0356300Y0116868D02*
X0352004Y0116868D01*
X0350931Y0115869D02*
X0356300Y0115869D01*
X0356300Y0114870D02*
X0351266Y0114870D01*
X0352265Y0113872D02*
X0356300Y0113872D01*
X0356300Y0112873D02*
X0352862Y0112873D01*
X0353275Y0111875D02*
X0356300Y0111875D01*
X0356300Y0110876D02*
X0353400Y0110876D01*
X0353400Y0109878D02*
X0356300Y0109878D01*
X0356300Y0108879D02*
X0353174Y0108879D01*
X0352760Y0107881D02*
X0356300Y0107881D01*
X0356300Y0106882D02*
X0352019Y0106882D01*
X0350967Y0105884D02*
X0356300Y0105884D01*
X0356300Y0104885D02*
X0351251Y0104885D01*
X0352250Y0103887D02*
X0356300Y0103887D01*
X0356300Y0102888D02*
X0352856Y0102888D01*
X0353269Y0101890D02*
X0356300Y0101890D01*
X0356300Y0100891D02*
X0353400Y0100891D01*
X0353400Y0099893D02*
X0356300Y0099893D01*
X0356300Y0098894D02*
X0353180Y0098894D01*
X0352766Y0097896D02*
X0356300Y0097896D01*
X0356300Y0096897D02*
X0352034Y0096897D01*
X0351003Y0095899D02*
X0356300Y0095899D01*
X0356300Y0094900D02*
X0351236Y0094900D01*
X0352235Y0093902D02*
X0356300Y0093902D01*
X0355428Y0092903D02*
X0352849Y0092903D01*
X0353263Y0091905D02*
X0354430Y0091905D01*
X0353431Y0090906D02*
X0353400Y0090906D01*
X0352300Y0087163D02*
X0352300Y0085667D01*
X0353320Y0083205D01*
X0354000Y0082525D01*
X0354000Y0075000D01*
X0351137Y0075000D01*
X0351059Y0075078D01*
X0349776Y0075609D01*
X0349996Y0075681D01*
X0350725Y0076053D01*
X0351388Y0076534D01*
X0351966Y0077112D01*
X0352447Y0077775D01*
X0352819Y0078504D01*
X0353072Y0079282D01*
X0353186Y0080000D01*
X0348500Y0080000D01*
X0348500Y0081000D01*
X0353186Y0081000D01*
X0353072Y0081718D01*
X0352819Y0082496D01*
X0352447Y0083225D01*
X0351966Y0083888D01*
X0351388Y0084466D01*
X0350725Y0084947D01*
X0349996Y0085319D01*
X0349776Y0085391D01*
X0351059Y0085922D01*
X0352300Y0087163D01*
X0352300Y0086912D02*
X0352049Y0086912D01*
X0352300Y0085914D02*
X0351038Y0085914D01*
X0350770Y0084915D02*
X0352612Y0084915D01*
X0353025Y0083917D02*
X0351937Y0083917D01*
X0352604Y0082918D02*
X0353607Y0082918D01*
X0354000Y0081920D02*
X0353006Y0081920D01*
X0354000Y0080921D02*
X0348500Y0080921D01*
X0347500Y0080921D02*
X0338500Y0080921D01*
X0338500Y0081000D02*
X0342814Y0081000D01*
X0347500Y0081000D01*
X0347500Y0080000D01*
X0338500Y0080000D01*
X0338500Y0081000D01*
X0338000Y0090500D02*
X0247500Y0090500D01*
X0249000Y0094000D02*
X0331500Y0094000D01*
X0338000Y0100500D01*
X0335500Y0108500D02*
X0325000Y0098000D01*
X0252000Y0098000D01*
X0246000Y0104000D01*
X0249472Y0103887D02*
X0327776Y0103887D01*
X0328774Y0104885D02*
X0249391Y0104885D01*
X0248977Y0105884D02*
X0329773Y0105884D01*
X0330771Y0106882D02*
X0248027Y0106882D01*
X0243973Y0106882D02*
X0239229Y0106882D01*
X0240227Y0105884D02*
X0243023Y0105884D01*
X0242609Y0104885D02*
X0241226Y0104885D01*
X0242224Y0103887D02*
X0242528Y0103887D01*
X0238230Y0107881D02*
X0331770Y0107881D01*
X0332768Y0108879D02*
X0238200Y0108879D01*
X0238200Y0109878D02*
X0332600Y0109878D01*
X0332600Y0110876D02*
X0238200Y0110876D01*
X0238200Y0111875D02*
X0332725Y0111875D01*
X0333138Y0112873D02*
X0238200Y0112873D01*
X0238200Y0113872D02*
X0333735Y0113872D01*
X0334734Y0114870D02*
X0238200Y0114870D01*
X0238200Y0115869D02*
X0335069Y0115869D01*
X0333996Y0116868D02*
X0238200Y0116868D01*
X0238200Y0117866D02*
X0333246Y0117866D01*
X0338000Y0120500D02*
X0308500Y0120500D01*
X0307000Y0122000D01*
X0303528Y0121860D02*
X0285561Y0121860D01*
X0287495Y0122859D02*
X0303598Y0122859D01*
X0304012Y0123857D02*
X0288494Y0123857D01*
X0289015Y0124856D02*
X0304946Y0124856D01*
X0304527Y0126853D02*
X0300473Y0126853D01*
X0301761Y0127851D02*
X0303239Y0127851D01*
X0302719Y0128850D02*
X0302281Y0128850D01*
X0302472Y0129848D02*
X0302528Y0129848D01*
X0306000Y0130000D02*
X0313000Y0123000D01*
X0330000Y0123000D01*
X0337500Y0130500D01*
X0338000Y0130500D01*
X0333126Y0132844D02*
X0308066Y0132844D01*
X0308993Y0131845D02*
X0332712Y0131845D01*
X0332600Y0130847D02*
X0309407Y0130847D01*
X0309472Y0129848D02*
X0332600Y0129848D01*
X0332738Y0128850D02*
X0310262Y0128850D01*
X0311260Y0127851D02*
X0331740Y0127851D01*
X0330741Y0126853D02*
X0312259Y0126853D01*
X0313257Y0125854D02*
X0329743Y0125854D01*
X0333705Y0133842D02*
X0305953Y0133842D01*
X0306952Y0134841D02*
X0334704Y0134841D01*
X0335141Y0135839D02*
X0307200Y0135839D01*
X0307200Y0136838D02*
X0334026Y0136838D01*
X0333258Y0137836D02*
X0307200Y0137836D01*
X0307200Y0138835D02*
X0332845Y0138835D01*
X0332600Y0139833D02*
X0307200Y0139833D01*
X0307200Y0140832D02*
X0332600Y0140832D01*
X0332706Y0141830D02*
X0307200Y0141830D01*
X0307200Y0142829D02*
X0333120Y0142829D01*
X0333691Y0143827D02*
X0307200Y0143827D01*
X0307200Y0144826D02*
X0334689Y0144826D01*
X0335177Y0145824D02*
X0307200Y0145824D01*
X0307732Y0146823D02*
X0334040Y0146823D01*
X0333265Y0147821D02*
X0308269Y0147821D01*
X0308472Y0148820D02*
X0332851Y0148820D01*
X0332600Y0149818D02*
X0308419Y0149818D01*
X0308005Y0150817D02*
X0332600Y0150817D01*
X0332700Y0151815D02*
X0307094Y0151815D01*
X0305000Y0149000D02*
X0305000Y0136000D01*
X0299000Y0130000D01*
X0295528Y0129848D02*
X0288807Y0129848D01*
X0289220Y0128850D02*
X0295719Y0128850D01*
X0296239Y0127851D02*
X0289500Y0127851D01*
X0289500Y0126853D02*
X0297527Y0126853D01*
X0303714Y0120862D02*
X0238200Y0120862D01*
X0238200Y0121860D02*
X0282639Y0121860D01*
X0280705Y0122859D02*
X0238200Y0122859D01*
X0238200Y0123857D02*
X0279706Y0123857D01*
X0279185Y0124856D02*
X0238200Y0124856D01*
X0238200Y0125854D02*
X0278771Y0125854D01*
X0278700Y0126853D02*
X0238200Y0126853D01*
X0238200Y0127851D02*
X0278700Y0127851D01*
X0278980Y0128850D02*
X0238200Y0128850D01*
X0238200Y0129848D02*
X0279393Y0129848D01*
X0280210Y0130847D02*
X0238200Y0130847D01*
X0238200Y0131845D02*
X0281445Y0131845D01*
X0280720Y0132844D02*
X0238200Y0132844D01*
X0238200Y0133842D02*
X0279721Y0133842D01*
X0279191Y0134841D02*
X0238200Y0134841D01*
X0238200Y0135839D02*
X0278777Y0135839D01*
X0278700Y0136838D02*
X0238200Y0136838D01*
X0238200Y0137836D02*
X0278700Y0137836D01*
X0278974Y0138835D02*
X0238200Y0138835D01*
X0238200Y0139833D02*
X0279387Y0139833D01*
X0280195Y0140832D02*
X0238200Y0140832D01*
X0238200Y0141830D02*
X0281409Y0141830D01*
X0280734Y0142829D02*
X0238200Y0142829D01*
X0238200Y0143827D02*
X0279736Y0143827D01*
X0279197Y0144826D02*
X0238200Y0144826D01*
X0238200Y0145824D02*
X0278783Y0145824D01*
X0278700Y0146823D02*
X0238200Y0146823D01*
X0238200Y0147821D02*
X0278700Y0147821D01*
X0278967Y0148820D02*
X0238200Y0148820D01*
X0238200Y0149818D02*
X0279381Y0149818D01*
X0280180Y0150817D02*
X0238200Y0150817D01*
X0238200Y0151815D02*
X0281373Y0151815D01*
X0280749Y0152814D02*
X0238200Y0152814D01*
X0238200Y0153812D02*
X0279751Y0153812D01*
X0279203Y0154811D02*
X0238200Y0154811D01*
X0238200Y0155809D02*
X0278790Y0155809D01*
X0278700Y0156808D02*
X0238200Y0156808D01*
X0238200Y0157806D02*
X0278700Y0157806D01*
X0278961Y0158805D02*
X0238200Y0158805D01*
X0238200Y0159803D02*
X0279375Y0159803D01*
X0280165Y0160802D02*
X0238200Y0160802D01*
X0238200Y0161801D02*
X0281337Y0161801D01*
X0280764Y0162799D02*
X0238200Y0162799D01*
X0238200Y0163798D02*
X0279766Y0163798D01*
X0279209Y0164796D02*
X0238200Y0164796D01*
X0238200Y0165795D02*
X0278796Y0165795D01*
X0278700Y0166793D02*
X0238200Y0166793D01*
X0238200Y0167792D02*
X0278700Y0167792D01*
X0278955Y0168790D02*
X0238200Y0168790D01*
X0238200Y0169789D02*
X0279369Y0169789D01*
X0280150Y0170787D02*
X0238200Y0170787D01*
X0238200Y0171786D02*
X0281301Y0171786D01*
X0280779Y0172784D02*
X0238200Y0172784D01*
X0238200Y0173783D02*
X0279781Y0173783D01*
X0279216Y0174781D02*
X0238200Y0174781D01*
X0238200Y0175780D02*
X0278802Y0175780D01*
X0278700Y0176778D02*
X0238200Y0176778D01*
X0238200Y0177777D02*
X0278700Y0177777D01*
X0278949Y0178775D02*
X0238200Y0178775D01*
X0238200Y0179774D02*
X0279363Y0179774D01*
X0280135Y0180772D02*
X0238200Y0180772D01*
X0238200Y0181771D02*
X0281265Y0181771D01*
X0280794Y0182769D02*
X0238200Y0182769D01*
X0238200Y0183768D02*
X0279795Y0183768D01*
X0279222Y0184766D02*
X0238200Y0184766D01*
X0238200Y0185765D02*
X0278808Y0185765D01*
X0278700Y0186763D02*
X0275327Y0186763D01*
X0275174Y0186700D02*
X0277159Y0187522D01*
X0278678Y0189041D01*
X0279500Y0191026D01*
X0279500Y0193174D01*
X0278678Y0195159D01*
X0277159Y0196678D01*
X0276140Y0197100D01*
X0277159Y0197522D01*
X0278678Y0199041D01*
X0279500Y0201026D01*
X0279500Y0203174D01*
X0278678Y0205159D01*
X0277159Y0206678D01*
X0275174Y0207500D01*
X0273026Y0207500D01*
X0271041Y0206678D01*
X0269522Y0205159D01*
X0268700Y0203174D01*
X0268700Y0201026D01*
X0269522Y0199041D01*
X0271041Y0197522D01*
X0272060Y0197100D01*
X0271041Y0196678D01*
X0269522Y0195159D01*
X0268700Y0193174D01*
X0268700Y0191026D01*
X0269522Y0189041D01*
X0271041Y0187522D01*
X0273026Y0186700D01*
X0275174Y0186700D01*
X0272873Y0186763D02*
X0238200Y0186763D01*
X0238200Y0187762D02*
X0270801Y0187762D01*
X0269803Y0188760D02*
X0238200Y0188760D01*
X0238200Y0189759D02*
X0269225Y0189759D01*
X0268811Y0190757D02*
X0238200Y0190757D01*
X0238200Y0191756D02*
X0268700Y0191756D01*
X0268700Y0192754D02*
X0238200Y0192754D01*
X0238200Y0193753D02*
X0268940Y0193753D01*
X0269353Y0194751D02*
X0238200Y0194751D01*
X0238200Y0195750D02*
X0270113Y0195750D01*
X0271211Y0196748D02*
X0238200Y0196748D01*
X0238200Y0197747D02*
X0270816Y0197747D01*
X0269818Y0198745D02*
X0238200Y0198745D01*
X0238200Y0199744D02*
X0269231Y0199744D01*
X0268817Y0200742D02*
X0238200Y0200742D01*
X0238200Y0201741D02*
X0268700Y0201741D01*
X0268700Y0202739D02*
X0238200Y0202739D01*
X0238200Y0203738D02*
X0268934Y0203738D01*
X0269347Y0204737D02*
X0238200Y0204737D01*
X0238200Y0205735D02*
X0270098Y0205735D01*
X0271175Y0206734D02*
X0238200Y0206734D01*
X0238200Y0207732D02*
X0278700Y0207732D01*
X0278700Y0206734D02*
X0277025Y0206734D01*
X0278102Y0205735D02*
X0278820Y0205735D01*
X0278853Y0204737D02*
X0279234Y0204737D01*
X0279266Y0203738D02*
X0279825Y0203738D01*
X0279500Y0202739D02*
X0280824Y0202739D01*
X0281193Y0201741D02*
X0279500Y0201741D01*
X0279383Y0200742D02*
X0280106Y0200742D01*
X0279350Y0199744D02*
X0278969Y0199744D01*
X0278937Y0198745D02*
X0278382Y0198745D01*
X0278700Y0197747D02*
X0277384Y0197747D01*
X0276989Y0196748D02*
X0278700Y0196748D01*
X0278814Y0195750D02*
X0278087Y0195750D01*
X0278847Y0194751D02*
X0279228Y0194751D01*
X0279260Y0193753D02*
X0279810Y0193753D01*
X0279500Y0192754D02*
X0280809Y0192754D01*
X0281229Y0191756D02*
X0279500Y0191756D01*
X0279389Y0190757D02*
X0280121Y0190757D01*
X0279356Y0189759D02*
X0278975Y0189759D01*
X0278943Y0188760D02*
X0278397Y0188760D01*
X0278700Y0187762D02*
X0277399Y0187762D01*
X0286971Y0191756D02*
X0332675Y0191756D01*
X0332600Y0190757D02*
X0288079Y0190757D01*
X0288844Y0189759D02*
X0332600Y0189759D01*
X0332876Y0188760D02*
X0289257Y0188760D01*
X0289500Y0187762D02*
X0333289Y0187762D01*
X0334100Y0186763D02*
X0289500Y0186763D01*
X0289392Y0185765D02*
X0335321Y0185765D01*
X0334630Y0184766D02*
X0288978Y0184766D01*
X0288405Y0183768D02*
X0333631Y0183768D01*
X0333095Y0182769D02*
X0287406Y0182769D01*
X0286935Y0181771D02*
X0332681Y0181771D01*
X0332600Y0180772D02*
X0288065Y0180772D01*
X0288837Y0179774D02*
X0332600Y0179774D01*
X0332870Y0178775D02*
X0289251Y0178775D01*
X0289500Y0177777D02*
X0333283Y0177777D01*
X0334085Y0176778D02*
X0289500Y0176778D01*
X0289398Y0175780D02*
X0335285Y0175780D01*
X0334644Y0174781D02*
X0288984Y0174781D01*
X0288419Y0173783D02*
X0333646Y0173783D01*
X0333101Y0172784D02*
X0287421Y0172784D01*
X0286899Y0171786D02*
X0332688Y0171786D01*
X0332600Y0170787D02*
X0288050Y0170787D01*
X0288831Y0169789D02*
X0332600Y0169789D01*
X0332863Y0168790D02*
X0289245Y0168790D01*
X0289500Y0167792D02*
X0333277Y0167792D01*
X0334070Y0166793D02*
X0289500Y0166793D01*
X0289404Y0165795D02*
X0335249Y0165795D01*
X0334659Y0164796D02*
X0288991Y0164796D01*
X0288434Y0163798D02*
X0333661Y0163798D01*
X0333107Y0162799D02*
X0287436Y0162799D01*
X0286863Y0161801D02*
X0332694Y0161801D01*
X0332600Y0160802D02*
X0288035Y0160802D01*
X0288825Y0159803D02*
X0332600Y0159803D01*
X0332857Y0158805D02*
X0289239Y0158805D01*
X0289500Y0157806D02*
X0333271Y0157806D01*
X0334055Y0156808D02*
X0289500Y0156808D01*
X0289410Y0155809D02*
X0335213Y0155809D01*
X0334674Y0154811D02*
X0288997Y0154811D01*
X0288449Y0153812D02*
X0333676Y0153812D01*
X0333114Y0152814D02*
X0287451Y0152814D01*
X0286827Y0151815D02*
X0302906Y0151815D01*
X0301995Y0150817D02*
X0288020Y0150817D01*
X0288819Y0149818D02*
X0301581Y0149818D01*
X0301528Y0148820D02*
X0289233Y0148820D01*
X0289500Y0147821D02*
X0301731Y0147821D01*
X0302267Y0146823D02*
X0289500Y0146823D01*
X0289417Y0145824D02*
X0302800Y0145824D01*
X0302800Y0144826D02*
X0289003Y0144826D01*
X0288464Y0143827D02*
X0302800Y0143827D01*
X0302800Y0142829D02*
X0287466Y0142829D01*
X0286791Y0141830D02*
X0302800Y0141830D01*
X0302800Y0140832D02*
X0288005Y0140832D01*
X0288813Y0139833D02*
X0302800Y0139833D01*
X0302800Y0138835D02*
X0289226Y0138835D01*
X0289500Y0137836D02*
X0302800Y0137836D01*
X0302726Y0136838D02*
X0289500Y0136838D01*
X0289423Y0135839D02*
X0301728Y0135839D01*
X0300729Y0134841D02*
X0289009Y0134841D01*
X0288479Y0133842D02*
X0299731Y0133842D01*
X0296934Y0132844D02*
X0287480Y0132844D01*
X0286755Y0131845D02*
X0296007Y0131845D01*
X0295593Y0130847D02*
X0287990Y0130847D01*
X0289429Y0125854D02*
X0307035Y0125854D01*
X0304227Y0119863D02*
X0238200Y0119863D01*
X0238200Y0118865D02*
X0305498Y0118865D01*
X0325779Y0101890D02*
X0251221Y0101890D01*
X0250223Y0102888D02*
X0326777Y0102888D01*
X0324780Y0100891D02*
X0252220Y0100891D01*
X0249000Y0094000D02*
X0236000Y0107000D01*
X0236000Y0225000D01*
X0224100Y0236900D01*
X0224100Y0237100D01*
X0233413Y0230698D02*
X0280344Y0230698D01*
X0279588Y0229699D02*
X0234412Y0229699D01*
X0235410Y0228701D02*
X0279153Y0228701D01*
X0278931Y0227702D02*
X0236409Y0227702D01*
X0237408Y0226704D02*
X0283600Y0226704D01*
X0284600Y0226704D02*
X0334159Y0226704D01*
X0333314Y0227702D02*
X0289269Y0227702D01*
X0289047Y0228701D02*
X0332900Y0228701D01*
X0332600Y0229699D02*
X0288612Y0229699D01*
X0287856Y0230698D02*
X0332600Y0230698D01*
X0332651Y0231696D02*
X0286533Y0231696D01*
X0287332Y0232695D02*
X0333064Y0232695D01*
X0333557Y0233693D02*
X0288330Y0233693D01*
X0288947Y0234692D02*
X0334555Y0234692D01*
X0335985Y0235690D02*
X0289361Y0235690D01*
X0289500Y0236689D02*
X0334457Y0236689D01*
X0333616Y0237687D02*
X0289500Y0237687D01*
X0289288Y0238686D02*
X0333122Y0238686D01*
X0332864Y0239684D02*
X0288874Y0239684D01*
X0288300Y0240683D02*
X0337500Y0240683D01*
X0338500Y0240683D02*
X0347500Y0240683D01*
X0347500Y0241000D02*
X0347500Y0240000D01*
X0338500Y0240000D01*
X0338500Y0241000D01*
X0342814Y0241000D01*
X0347500Y0241000D01*
X0348500Y0240683D02*
X0393208Y0240683D01*
X0403172Y0231696D02*
X0412000Y0231696D01*
X0412000Y0230698D02*
X0402173Y0230698D01*
X0401174Y0229699D02*
X0412000Y0229699D01*
X0412000Y0228701D02*
X0400176Y0228701D01*
X0399177Y0227702D02*
X0412000Y0227702D01*
X0412000Y0226704D02*
X0398179Y0226704D01*
X0397180Y0225705D02*
X0412000Y0225705D01*
X0412000Y0224707D02*
X0396182Y0224707D01*
X0395183Y0223708D02*
X0412000Y0223708D01*
X0412000Y0222710D02*
X0394185Y0222710D01*
X0393186Y0221711D02*
X0412000Y0221711D01*
X0412000Y0220713D02*
X0392188Y0220713D01*
X0391189Y0219714D02*
X0412000Y0219714D01*
X0412000Y0218716D02*
X0390191Y0218716D01*
X0389192Y0217717D02*
X0412000Y0217717D01*
X0412000Y0216719D02*
X0388194Y0216719D01*
X0387195Y0215720D02*
X0412000Y0215720D01*
X0412000Y0214722D02*
X0386197Y0214722D01*
X0385198Y0213723D02*
X0412000Y0213723D01*
X0412000Y0212725D02*
X0384200Y0212725D01*
X0383201Y0211726D02*
X0412000Y0211726D01*
X0412000Y0210728D02*
X0382203Y0210728D01*
X0381204Y0209729D02*
X0412000Y0209729D01*
X0412000Y0208731D02*
X0380206Y0208731D01*
X0379207Y0207732D02*
X0412000Y0207732D01*
X0412000Y0206734D02*
X0378209Y0206734D01*
X0377210Y0205735D02*
X0412000Y0205735D01*
X0412000Y0204737D02*
X0376212Y0204737D01*
X0375213Y0203738D02*
X0412000Y0203738D01*
X0412000Y0202739D02*
X0374215Y0202739D01*
X0373216Y0201741D02*
X0412000Y0201741D01*
X0412000Y0200742D02*
X0372218Y0200742D01*
X0371219Y0199744D02*
X0412000Y0199744D01*
X0412000Y0198745D02*
X0370221Y0198745D01*
X0369700Y0198225D02*
X0412878Y0241403D01*
X0412814Y0241000D01*
X0417500Y0241000D01*
X0417500Y0240000D01*
X0412814Y0240000D01*
X0412928Y0239282D01*
X0413181Y0238504D01*
X0413553Y0237775D01*
X0414034Y0237112D01*
X0414612Y0236534D01*
X0415275Y0236053D01*
X0415378Y0236000D01*
X0412000Y0236000D01*
X0412000Y0091000D01*
X0369700Y0091000D01*
X0369700Y0198225D01*
X0369700Y0197747D02*
X0412000Y0197747D01*
X0412000Y0196748D02*
X0369700Y0196748D01*
X0369700Y0195750D02*
X0412000Y0195750D01*
X0412000Y0194751D02*
X0369700Y0194751D01*
X0369700Y0193753D02*
X0412000Y0193753D01*
X0412000Y0192754D02*
X0369700Y0192754D01*
X0369700Y0191756D02*
X0412000Y0191756D01*
X0412000Y0190757D02*
X0369700Y0190757D01*
X0369700Y0189759D02*
X0412000Y0189759D01*
X0412000Y0188760D02*
X0369700Y0188760D01*
X0369700Y0187762D02*
X0412000Y0187762D01*
X0412000Y0186763D02*
X0369700Y0186763D01*
X0369700Y0185765D02*
X0412000Y0185765D01*
X0412000Y0184766D02*
X0369700Y0184766D01*
X0369700Y0183768D02*
X0412000Y0183768D01*
X0412000Y0182769D02*
X0369700Y0182769D01*
X0369700Y0181771D02*
X0412000Y0181771D01*
X0412000Y0180772D02*
X0369700Y0180772D01*
X0369700Y0179774D02*
X0412000Y0179774D01*
X0412000Y0178775D02*
X0369700Y0178775D01*
X0369700Y0177777D02*
X0412000Y0177777D01*
X0412000Y0176778D02*
X0369700Y0176778D01*
X0369700Y0175780D02*
X0412000Y0175780D01*
X0412000Y0174781D02*
X0369700Y0174781D01*
X0369700Y0173783D02*
X0412000Y0173783D01*
X0412000Y0172784D02*
X0369700Y0172784D01*
X0369700Y0171786D02*
X0412000Y0171786D01*
X0412000Y0170787D02*
X0369700Y0170787D01*
X0369700Y0169789D02*
X0412000Y0169789D01*
X0412000Y0168790D02*
X0369700Y0168790D01*
X0369700Y0167792D02*
X0412000Y0167792D01*
X0412000Y0166793D02*
X0369700Y0166793D01*
X0369700Y0165795D02*
X0412000Y0165795D01*
X0412000Y0164796D02*
X0369700Y0164796D01*
X0369700Y0163798D02*
X0412000Y0163798D01*
X0412000Y0162799D02*
X0369700Y0162799D01*
X0369700Y0161801D02*
X0412000Y0161801D01*
X0412000Y0160802D02*
X0369700Y0160802D01*
X0369700Y0159803D02*
X0412000Y0159803D01*
X0412000Y0158805D02*
X0369700Y0158805D01*
X0369700Y0157806D02*
X0412000Y0157806D01*
X0412000Y0156808D02*
X0369700Y0156808D01*
X0369700Y0155809D02*
X0412000Y0155809D01*
X0412000Y0154811D02*
X0369700Y0154811D01*
X0369700Y0153812D02*
X0412000Y0153812D01*
X0412000Y0152814D02*
X0369700Y0152814D01*
X0369700Y0151815D02*
X0412000Y0151815D01*
X0412000Y0150817D02*
X0369700Y0150817D01*
X0369700Y0149818D02*
X0412000Y0149818D01*
X0412000Y0148820D02*
X0369700Y0148820D01*
X0369700Y0147821D02*
X0412000Y0147821D01*
X0412000Y0146823D02*
X0369700Y0146823D01*
X0369700Y0145824D02*
X0412000Y0145824D01*
X0412000Y0144826D02*
X0369700Y0144826D01*
X0369700Y0143827D02*
X0412000Y0143827D01*
X0412000Y0142829D02*
X0369700Y0142829D01*
X0369700Y0141830D02*
X0412000Y0141830D01*
X0412000Y0140832D02*
X0369700Y0140832D01*
X0369700Y0139833D02*
X0412000Y0139833D01*
X0412000Y0138835D02*
X0369700Y0138835D01*
X0369700Y0137836D02*
X0412000Y0137836D01*
X0412000Y0136838D02*
X0369700Y0136838D01*
X0369700Y0135839D02*
X0412000Y0135839D01*
X0412000Y0134841D02*
X0369700Y0134841D01*
X0369700Y0133842D02*
X0412000Y0133842D01*
X0412000Y0132844D02*
X0369700Y0132844D01*
X0369700Y0131845D02*
X0412000Y0131845D01*
X0412000Y0130847D02*
X0369700Y0130847D01*
X0369700Y0129848D02*
X0412000Y0129848D01*
X0412000Y0128850D02*
X0369700Y0128850D01*
X0369700Y0127851D02*
X0412000Y0127851D01*
X0412000Y0126853D02*
X0369700Y0126853D01*
X0369700Y0125854D02*
X0412000Y0125854D01*
X0412000Y0124856D02*
X0369700Y0124856D01*
X0369700Y0123857D02*
X0412000Y0123857D01*
X0412000Y0122859D02*
X0369700Y0122859D01*
X0369700Y0121860D02*
X0412000Y0121860D01*
X0412000Y0120862D02*
X0369700Y0120862D01*
X0369700Y0119863D02*
X0412000Y0119863D01*
X0412000Y0118865D02*
X0369700Y0118865D01*
X0369700Y0117866D02*
X0412000Y0117866D01*
X0412000Y0116868D02*
X0369700Y0116868D01*
X0369700Y0115869D02*
X0412000Y0115869D01*
X0412000Y0114870D02*
X0369700Y0114870D01*
X0369700Y0113872D02*
X0412000Y0113872D01*
X0412000Y0112873D02*
X0369700Y0112873D01*
X0369700Y0111875D02*
X0412000Y0111875D01*
X0412000Y0110876D02*
X0369700Y0110876D01*
X0369700Y0109878D02*
X0412000Y0109878D01*
X0412000Y0108879D02*
X0369700Y0108879D01*
X0369700Y0107881D02*
X0412000Y0107881D01*
X0412000Y0106882D02*
X0369700Y0106882D01*
X0369700Y0105884D02*
X0412000Y0105884D01*
X0412000Y0104885D02*
X0369700Y0104885D01*
X0369700Y0103887D02*
X0412000Y0103887D01*
X0412000Y0102888D02*
X0369700Y0102888D01*
X0369700Y0101890D02*
X0412000Y0101890D01*
X0412000Y0100891D02*
X0369700Y0100891D01*
X0369700Y0099893D02*
X0412000Y0099893D01*
X0412000Y0098894D02*
X0369700Y0098894D01*
X0369700Y0097896D02*
X0412000Y0097896D01*
X0412000Y0096897D02*
X0369700Y0096897D01*
X0369700Y0095899D02*
X0412000Y0095899D01*
X0412000Y0094900D02*
X0369700Y0094900D01*
X0369700Y0093902D02*
X0412000Y0093902D01*
X0412000Y0092903D02*
X0369700Y0092903D01*
X0369700Y0091905D02*
X0412000Y0091905D01*
X0354000Y0079923D02*
X0353173Y0079923D01*
X0352956Y0078924D02*
X0354000Y0078924D01*
X0354000Y0077926D02*
X0352524Y0077926D01*
X0351781Y0076927D02*
X0354000Y0076927D01*
X0354000Y0075929D02*
X0350482Y0075929D01*
X0333000Y0063946D02*
X0184400Y0063946D01*
X0184400Y0064945D02*
X0183400Y0064945D01*
X0183400Y0065943D02*
X0184400Y0065943D01*
X0184400Y0066942D02*
X0183400Y0066942D01*
X0183400Y0067940D02*
X0184400Y0067940D01*
X0184400Y0068939D02*
X0183400Y0068939D01*
X0182581Y0068939D02*
X0175219Y0068939D01*
X0174400Y0068939D02*
X0173400Y0068939D01*
X0172581Y0068939D02*
X0165219Y0068939D01*
X0164400Y0068939D02*
X0163400Y0068939D01*
X0162581Y0068939D02*
X0155219Y0068939D01*
X0154400Y0068939D02*
X0153400Y0068939D01*
X0152581Y0068939D02*
X0145219Y0068939D01*
X0144400Y0068939D02*
X0143400Y0068939D01*
X0142581Y0068939D02*
X0135846Y0068939D01*
X0137496Y0067940D02*
X0140614Y0067940D01*
X0139683Y0066942D02*
X0138485Y0066942D01*
X0138898Y0065943D02*
X0139105Y0065943D01*
X0143400Y0065943D02*
X0144400Y0065943D01*
X0144400Y0064945D02*
X0143400Y0064945D01*
X0144400Y0063946D02*
X0153400Y0063946D01*
X0153400Y0064945D02*
X0154400Y0064945D01*
X0154400Y0065943D02*
X0153400Y0065943D01*
X0153400Y0066942D02*
X0154400Y0066942D01*
X0154400Y0067940D02*
X0153400Y0067940D01*
X0150614Y0067940D02*
X0147186Y0067940D01*
X0148117Y0066942D02*
X0149683Y0066942D01*
X0149105Y0065943D02*
X0148695Y0065943D01*
X0144400Y0066942D02*
X0143400Y0066942D01*
X0143400Y0067940D02*
X0144400Y0067940D01*
X0154400Y0063946D02*
X0163400Y0063946D01*
X0163400Y0064945D02*
X0164400Y0064945D01*
X0164400Y0065943D02*
X0163400Y0065943D01*
X0163400Y0066942D02*
X0164400Y0066942D01*
X0164400Y0067940D02*
X0163400Y0067940D01*
X0160614Y0067940D02*
X0157186Y0067940D01*
X0158117Y0066942D02*
X0159683Y0066942D01*
X0159105Y0065943D02*
X0158695Y0065943D01*
X0164400Y0063946D02*
X0173400Y0063946D01*
X0173400Y0064945D02*
X0174400Y0064945D01*
X0174400Y0065943D02*
X0173400Y0065943D01*
X0173400Y0066942D02*
X0174400Y0066942D01*
X0174400Y0067940D02*
X0173400Y0067940D01*
X0170614Y0067940D02*
X0167186Y0067940D01*
X0168117Y0066942D02*
X0169683Y0066942D01*
X0169105Y0065943D02*
X0168695Y0065943D01*
X0174400Y0063946D02*
X0183400Y0063946D01*
X0179105Y0065943D02*
X0178695Y0065943D01*
X0178117Y0066942D02*
X0179683Y0066942D01*
X0180614Y0067940D02*
X0177186Y0067940D01*
X0185810Y0058954D02*
X0188479Y0058954D01*
X0187306Y0059952D02*
X0189862Y0059952D01*
X0188556Y0048969D02*
X0186106Y0048969D01*
X0187467Y0047970D02*
X0190049Y0047970D01*
X0140196Y0049967D02*
X0137604Y0049967D01*
X0138530Y0050966D02*
X0139270Y0050966D01*
X0118902Y0065943D02*
X0118695Y0065943D01*
X0118117Y0066942D02*
X0119315Y0066942D01*
X0120304Y0067940D02*
X0117186Y0067940D01*
X0095700Y0037985D02*
X0333000Y0037985D01*
X0333000Y0036987D02*
X0095700Y0036987D01*
X0095700Y0035988D02*
X0333000Y0035988D01*
X0333000Y0034990D02*
X0095700Y0034990D01*
X0095700Y0033991D02*
X0333000Y0033991D01*
X0333000Y0032993D02*
X0095700Y0032993D01*
X0095605Y0031994D02*
X0333000Y0031994D01*
X0333000Y0030996D02*
X0094607Y0030996D01*
X0287391Y0192754D02*
X0333089Y0192754D01*
X0333616Y0193753D02*
X0288390Y0193753D01*
X0288972Y0194751D02*
X0334615Y0194751D01*
X0335357Y0195750D02*
X0289386Y0195750D01*
X0289500Y0196748D02*
X0334115Y0196748D01*
X0333295Y0197747D02*
X0289500Y0197747D01*
X0289263Y0198745D02*
X0332882Y0198745D01*
X0332600Y0199744D02*
X0288850Y0199744D01*
X0288094Y0200742D02*
X0332600Y0200742D01*
X0332669Y0201741D02*
X0287007Y0201741D01*
X0287376Y0202739D02*
X0333083Y0202739D01*
X0333601Y0203738D02*
X0288375Y0203738D01*
X0288966Y0204737D02*
X0334600Y0204737D01*
X0335393Y0205735D02*
X0289380Y0205735D01*
X0289500Y0206734D02*
X0334130Y0206734D01*
X0333302Y0207732D02*
X0289500Y0207732D01*
X0289270Y0208731D02*
X0332888Y0208731D01*
X0332600Y0209729D02*
X0288856Y0209729D01*
X0288109Y0210728D02*
X0332600Y0210728D01*
X0332663Y0211726D02*
X0287043Y0211726D01*
X0287361Y0212725D02*
X0333077Y0212725D01*
X0333586Y0213723D02*
X0288360Y0213723D01*
X0288960Y0214722D02*
X0334585Y0214722D01*
X0335429Y0215720D02*
X0289373Y0215720D01*
X0289500Y0216719D02*
X0334145Y0216719D01*
X0333308Y0217717D02*
X0289500Y0217717D01*
X0289276Y0218716D02*
X0332894Y0218716D01*
X0332600Y0219714D02*
X0288862Y0219714D01*
X0288124Y0220713D02*
X0332600Y0220713D01*
X0332657Y0221711D02*
X0287078Y0221711D01*
X0286904Y0222710D02*
X0333070Y0222710D01*
X0333571Y0223708D02*
X0288062Y0223708D01*
X0288717Y0224707D02*
X0334570Y0224707D01*
X0335465Y0225705D02*
X0289114Y0225705D01*
X0281296Y0222710D02*
X0238200Y0222710D01*
X0238200Y0223708D02*
X0280138Y0223708D01*
X0279483Y0224707D02*
X0238200Y0224707D01*
X0238200Y0225705D02*
X0279086Y0225705D01*
X0281122Y0221711D02*
X0238200Y0221711D01*
X0238200Y0220713D02*
X0280076Y0220713D01*
X0279338Y0219714D02*
X0238200Y0219714D01*
X0238200Y0218716D02*
X0278924Y0218716D01*
X0278700Y0217717D02*
X0238200Y0217717D01*
X0238200Y0216719D02*
X0278700Y0216719D01*
X0278827Y0215720D02*
X0238200Y0215720D01*
X0238200Y0214722D02*
X0279240Y0214722D01*
X0279840Y0213723D02*
X0238200Y0213723D01*
X0238200Y0212725D02*
X0280839Y0212725D01*
X0281157Y0211726D02*
X0238200Y0211726D01*
X0238200Y0210728D02*
X0280091Y0210728D01*
X0279344Y0209729D02*
X0238200Y0209729D01*
X0238200Y0208731D02*
X0278930Y0208731D01*
X0288300Y0241681D02*
X0332922Y0241681D01*
X0333275Y0242680D02*
X0288300Y0242680D01*
X0288618Y0243678D02*
X0333882Y0243678D01*
X0334902Y0244677D02*
X0289617Y0244677D01*
X0290615Y0245675D02*
X0335537Y0245675D01*
X0334189Y0246674D02*
X0291614Y0246674D01*
X0292612Y0247672D02*
X0333326Y0247672D01*
X0332913Y0248671D02*
X0293611Y0248671D01*
X0294609Y0249670D02*
X0332600Y0249670D01*
X0332600Y0250668D02*
X0295580Y0250668D01*
X0295994Y0251667D02*
X0332638Y0251667D01*
X0333052Y0252665D02*
X0296200Y0252665D01*
X0296200Y0253664D02*
X0333527Y0253664D01*
X0334525Y0254662D02*
X0296200Y0254662D01*
X0296200Y0255661D02*
X0336348Y0255661D01*
X0339652Y0255661D02*
X0346348Y0255661D01*
X0344525Y0254662D02*
X0341475Y0254662D01*
X0342473Y0253664D02*
X0343527Y0253664D01*
X0343052Y0252665D02*
X0342948Y0252665D01*
X0345209Y0259655D02*
X0433000Y0259655D01*
X0433000Y0260653D02*
X0346696Y0260653D01*
X0347617Y0261652D02*
X0433000Y0261652D01*
X0433000Y0262650D02*
X0348269Y0262650D01*
X0348717Y0263649D02*
X0433000Y0263649D01*
X0433000Y0264647D02*
X0348992Y0264647D01*
X0320850Y0269640D02*
X0314150Y0269640D01*
X0313386Y0269956D02*
X0311614Y0269956D01*
X0309976Y0269278D01*
X0308722Y0268024D01*
X0308044Y0266386D01*
X0308044Y0264614D01*
X0308722Y0262976D01*
X0309976Y0261722D01*
X0311614Y0261044D01*
X0313386Y0261044D01*
X0315024Y0261722D01*
X0316278Y0262976D01*
X0316956Y0264614D01*
X0316956Y0266386D01*
X0316278Y0268024D01*
X0315024Y0269278D01*
X0313386Y0269956D01*
X0315183Y0271637D02*
X0309817Y0271637D01*
X0310937Y0272635D02*
X0314063Y0272635D01*
X0313450Y0273634D02*
X0311550Y0273634D01*
X0311956Y0274632D02*
X0313044Y0274632D01*
X0313044Y0275631D02*
X0311956Y0275631D01*
X0311855Y0276629D02*
X0313145Y0276629D01*
X0313558Y0277628D02*
X0311442Y0277628D01*
X0310675Y0278626D02*
X0314325Y0278626D01*
X0310850Y0269640D02*
X0304150Y0269640D01*
X0305660Y0268641D02*
X0309340Y0268641D01*
X0308565Y0267643D02*
X0306435Y0267643D01*
X0306849Y0266644D02*
X0308151Y0266644D01*
X0308044Y0265646D02*
X0306956Y0265646D01*
X0306956Y0264647D02*
X0308044Y0264647D01*
X0308444Y0263649D02*
X0306556Y0263649D01*
X0305952Y0262650D02*
X0309048Y0262650D01*
X0310147Y0261652D02*
X0304853Y0261652D01*
X0314853Y0261652D02*
X0320147Y0261652D01*
X0319048Y0262650D02*
X0315952Y0262650D01*
X0316556Y0263649D02*
X0318444Y0263649D01*
X0318044Y0264647D02*
X0316956Y0264647D01*
X0316956Y0265646D02*
X0318044Y0265646D01*
X0318151Y0266644D02*
X0316849Y0266644D01*
X0316435Y0267643D02*
X0318565Y0267643D01*
X0319340Y0268641D02*
X0315660Y0268641D01*
X0344411Y0305586D02*
X0347207Y0305586D01*
X0346793Y0306585D02*
X0346423Y0306585D01*
X0348640Y0315571D02*
X0349636Y0315571D01*
X0350635Y0316570D02*
X0348227Y0316570D01*
X0347270Y0317568D02*
X0352785Y0317568D01*
X0346271Y0318567D02*
X0424000Y0318567D01*
X0424000Y0319565D02*
X0344045Y0319565D01*
X0359615Y0317568D02*
X0424000Y0317568D01*
X0424000Y0320564D02*
X0231000Y0320564D01*
X0158000Y0320564D02*
X0067998Y0320564D01*
X0067952Y0320591D02*
X0067090Y0320947D01*
X0066894Y0321000D01*
X0158000Y0321000D01*
X0158000Y0210000D01*
X0157966Y0209741D01*
X0157866Y0209500D01*
X0157707Y0209293D01*
X0157500Y0209134D01*
X0157259Y0209034D01*
X0157000Y0209000D01*
X0007000Y0209000D01*
X0007000Y0321000D01*
X0016218Y0321000D01*
X0016021Y0320947D01*
X0015160Y0320591D01*
X0014353Y0320125D01*
X0013614Y0319557D01*
X0012955Y0318898D01*
X0012387Y0318159D01*
X0011921Y0317352D01*
X0011564Y0316490D01*
X0011323Y0315590D01*
X0011206Y0314700D01*
X0017812Y0314700D01*
X0017812Y0313700D01*
X0018812Y0313700D01*
X0018812Y0314700D01*
X0025418Y0314700D01*
X0025300Y0315590D01*
X0025059Y0316490D01*
X0024702Y0317352D01*
X0024236Y0318159D01*
X0023669Y0318898D01*
X0023010Y0319557D01*
X0022271Y0320125D01*
X0021463Y0320591D01*
X0020602Y0320947D01*
X0020406Y0321000D01*
X0062706Y0321000D01*
X0062510Y0320947D01*
X0061648Y0320591D01*
X0060841Y0320125D01*
X0060102Y0319557D01*
X0059443Y0318898D01*
X0058875Y0318159D01*
X0058409Y0317352D01*
X0058053Y0316490D01*
X0057811Y0315590D01*
X0057694Y0314700D01*
X0064300Y0314700D01*
X0064300Y0313700D01*
X0065300Y0313700D01*
X0065300Y0314700D01*
X0071906Y0314700D01*
X0071789Y0315590D01*
X0071547Y0316490D01*
X0071191Y0317352D01*
X0070725Y0318159D01*
X0070157Y0318898D01*
X0069498Y0319557D01*
X0068759Y0320125D01*
X0067952Y0320591D01*
X0069488Y0319565D02*
X0158000Y0319565D01*
X0158000Y0318567D02*
X0070411Y0318567D01*
X0071066Y0317568D02*
X0158000Y0317568D01*
X0158000Y0316570D02*
X0071514Y0316570D01*
X0071791Y0315571D02*
X0158000Y0315571D01*
X0158000Y0314573D02*
X0065300Y0314573D01*
X0065300Y0313700D02*
X0071906Y0313700D01*
X0071789Y0312810D01*
X0071547Y0311910D01*
X0071191Y0311048D01*
X0070725Y0310241D01*
X0070157Y0309502D01*
X0069498Y0308843D01*
X0068759Y0308275D01*
X0067952Y0307809D01*
X0067090Y0307453D01*
X0066190Y0307211D01*
X0065300Y0307094D01*
X0065300Y0313700D01*
X0065300Y0313574D02*
X0064300Y0313574D01*
X0064300Y0313700D02*
X0064300Y0307094D01*
X0063410Y0307211D01*
X0062510Y0307453D01*
X0061648Y0307809D01*
X0060841Y0308275D01*
X0060211Y0308759D01*
X0061200Y0306371D01*
X0061200Y0303029D01*
X0059921Y0299942D01*
X0057558Y0297579D01*
X0054471Y0296300D01*
X0051129Y0296300D01*
X0048042Y0297579D01*
X0045679Y0299942D01*
X0044400Y0303029D01*
X0044400Y0306371D01*
X0045679Y0309458D01*
X0048042Y0311821D01*
X0051129Y0313100D01*
X0054471Y0313100D01*
X0057558Y0311821D01*
X0058517Y0310863D01*
X0058409Y0311048D01*
X0058053Y0311910D01*
X0057811Y0312810D01*
X0057694Y0313700D01*
X0064300Y0313700D01*
X0064300Y0314573D02*
X0018812Y0314573D01*
X0018812Y0313700D02*
X0025418Y0313700D01*
X0025300Y0312810D01*
X0025059Y0311910D01*
X0024702Y0311048D01*
X0024236Y0310241D01*
X0023669Y0309502D01*
X0023010Y0308843D01*
X0022271Y0308275D01*
X0021463Y0307809D01*
X0020602Y0307453D01*
X0019702Y0307211D01*
X0018812Y0307094D01*
X0018812Y0313700D01*
X0018812Y0313574D02*
X0017812Y0313574D01*
X0017812Y0313700D02*
X0017812Y0307094D01*
X0016922Y0307211D01*
X0016021Y0307453D01*
X0015160Y0307809D01*
X0014353Y0308275D01*
X0013614Y0308843D01*
X0012955Y0309502D01*
X0012387Y0310241D01*
X0011921Y0311048D01*
X0011564Y0311910D01*
X0011323Y0312810D01*
X0011206Y0313700D01*
X0017812Y0313700D01*
X0017812Y0314573D02*
X0007000Y0314573D01*
X0007000Y0315571D02*
X0011321Y0315571D01*
X0011597Y0316570D02*
X0007000Y0316570D01*
X0007000Y0317568D02*
X0012046Y0317568D01*
X0012700Y0318567D02*
X0007000Y0318567D01*
X0007000Y0319565D02*
X0013624Y0319565D01*
X0015114Y0320564D02*
X0007000Y0320564D01*
X0007000Y0313574D02*
X0011223Y0313574D01*
X0011386Y0312576D02*
X0007000Y0312576D01*
X0007000Y0311577D02*
X0011702Y0311577D01*
X0012192Y0310579D02*
X0007000Y0310579D01*
X0007000Y0309580D02*
X0012894Y0309580D01*
X0013954Y0308582D02*
X0007000Y0308582D01*
X0007000Y0307583D02*
X0015706Y0307583D01*
X0017812Y0307583D02*
X0018812Y0307583D01*
X0018812Y0308582D02*
X0017812Y0308582D01*
X0017812Y0309580D02*
X0018812Y0309580D01*
X0018812Y0310579D02*
X0017812Y0310579D01*
X0017812Y0311577D02*
X0018812Y0311577D01*
X0018812Y0312576D02*
X0017812Y0312576D01*
X0020917Y0307583D02*
X0044902Y0307583D01*
X0044489Y0306585D02*
X0007000Y0306585D01*
X0007000Y0305586D02*
X0044400Y0305586D01*
X0044400Y0304588D02*
X0007000Y0304588D01*
X0007000Y0303589D02*
X0025545Y0303589D01*
X0025276Y0303478D02*
X0024022Y0302224D01*
X0023344Y0300586D01*
X0023344Y0298814D01*
X0024022Y0297176D01*
X0025276Y0295922D01*
X0026914Y0295244D01*
X0028686Y0295244D01*
X0030324Y0295922D01*
X0031578Y0297176D01*
X0032256Y0298814D01*
X0032256Y0300586D01*
X0031578Y0302224D01*
X0030324Y0303478D01*
X0028686Y0304156D01*
X0026914Y0304156D01*
X0025276Y0303478D01*
X0024389Y0302591D02*
X0007000Y0302591D01*
X0007000Y0301592D02*
X0023761Y0301592D01*
X0023347Y0300594D02*
X0007000Y0300594D01*
X0007000Y0299595D02*
X0023344Y0299595D01*
X0023434Y0298597D02*
X0020037Y0298597D01*
X0020324Y0298478D02*
X0018686Y0299156D01*
X0016914Y0299156D01*
X0015276Y0298478D01*
X0014022Y0297224D01*
X0013344Y0295586D01*
X0013344Y0293814D01*
X0014022Y0292176D01*
X0015276Y0290922D01*
X0016914Y0290244D01*
X0018686Y0290244D01*
X0020324Y0290922D01*
X0021578Y0292176D01*
X0022256Y0293814D01*
X0022256Y0295586D01*
X0021578Y0297224D01*
X0020324Y0298478D01*
X0021204Y0297598D02*
X0023848Y0297598D01*
X0024599Y0296600D02*
X0021836Y0296600D01*
X0022250Y0295601D02*
X0026052Y0295601D01*
X0026914Y0294156D02*
X0025276Y0293478D01*
X0024022Y0292224D01*
X0023344Y0290586D01*
X0023344Y0288814D01*
X0024022Y0287176D01*
X0025276Y0285922D01*
X0026914Y0285244D01*
X0028686Y0285244D01*
X0030324Y0285922D01*
X0031578Y0287176D01*
X0032256Y0288814D01*
X0032256Y0290586D01*
X0031578Y0292224D01*
X0030324Y0293478D01*
X0028686Y0294156D01*
X0026914Y0294156D01*
X0025581Y0293604D02*
X0022169Y0293604D01*
X0022256Y0294603D02*
X0158000Y0294603D01*
X0158000Y0295601D02*
X0029548Y0295601D01*
X0031001Y0296600D02*
X0050406Y0296600D01*
X0048023Y0297598D02*
X0031752Y0297598D01*
X0032166Y0298597D02*
X0047024Y0298597D01*
X0046026Y0299595D02*
X0032256Y0299595D01*
X0032253Y0300594D02*
X0045409Y0300594D01*
X0044995Y0301592D02*
X0031839Y0301592D01*
X0031211Y0302591D02*
X0044582Y0302591D01*
X0044400Y0303589D02*
X0030055Y0303589D01*
X0023729Y0309580D02*
X0045801Y0309580D01*
X0045316Y0308582D02*
X0022670Y0308582D01*
X0024431Y0310579D02*
X0046799Y0310579D01*
X0047798Y0311577D02*
X0024921Y0311577D01*
X0025238Y0312576D02*
X0049863Y0312576D01*
X0055737Y0312576D02*
X0057874Y0312576D01*
X0057802Y0311577D02*
X0058190Y0311577D01*
X0057711Y0313574D02*
X0025401Y0313574D01*
X0025303Y0315571D02*
X0057809Y0315571D01*
X0058086Y0316570D02*
X0025026Y0316570D01*
X0024577Y0317568D02*
X0058534Y0317568D01*
X0059189Y0318567D02*
X0023923Y0318567D01*
X0022999Y0319565D02*
X0060112Y0319565D01*
X0061602Y0320564D02*
X0021510Y0320564D01*
X0015563Y0298597D02*
X0007000Y0298597D01*
X0007000Y0297598D02*
X0014396Y0297598D01*
X0013764Y0296600D02*
X0007000Y0296600D01*
X0007000Y0295601D02*
X0013350Y0295601D01*
X0013344Y0294603D02*
X0007000Y0294603D01*
X0007000Y0293604D02*
X0013431Y0293604D01*
X0013845Y0292605D02*
X0007000Y0292605D01*
X0007000Y0291607D02*
X0014591Y0291607D01*
X0016034Y0290608D02*
X0007000Y0290608D01*
X0007000Y0289610D02*
X0023344Y0289610D01*
X0023353Y0290608D02*
X0019566Y0290608D01*
X0018686Y0289156D02*
X0016914Y0289156D01*
X0015276Y0288478D01*
X0014022Y0287224D01*
X0013344Y0285586D01*
X0013344Y0283814D01*
X0014022Y0282176D01*
X0015276Y0280922D01*
X0016914Y0280244D01*
X0018686Y0280244D01*
X0020324Y0280922D01*
X0021578Y0282176D01*
X0022256Y0283814D01*
X0022256Y0285586D01*
X0021578Y0287224D01*
X0020324Y0288478D01*
X0018686Y0289156D01*
X0020001Y0288611D02*
X0023428Y0288611D01*
X0023841Y0287613D02*
X0021189Y0287613D01*
X0021830Y0286614D02*
X0024584Y0286614D01*
X0026016Y0285616D02*
X0022244Y0285616D01*
X0022256Y0284617D02*
X0158000Y0284617D01*
X0158000Y0283619D02*
X0029983Y0283619D01*
X0030324Y0283478D02*
X0028686Y0284156D01*
X0026914Y0284156D01*
X0025276Y0283478D01*
X0024022Y0282224D01*
X0023344Y0280586D01*
X0023344Y0278814D01*
X0024022Y0277176D01*
X0025276Y0275922D01*
X0026914Y0275244D01*
X0028686Y0275244D01*
X0030324Y0275922D01*
X0031578Y0277176D01*
X0031836Y0277800D01*
X0050697Y0277800D01*
X0051196Y0277301D01*
X0052367Y0276816D01*
X0053633Y0276816D01*
X0054804Y0277301D01*
X0055699Y0278196D01*
X0056184Y0279367D01*
X0056184Y0280633D01*
X0055699Y0281804D01*
X0054804Y0282699D01*
X0053633Y0283184D01*
X0052367Y0283184D01*
X0051196Y0282699D01*
X0050697Y0282200D01*
X0031587Y0282200D01*
X0031578Y0282224D01*
X0030324Y0283478D01*
X0031181Y0282620D02*
X0051117Y0282620D01*
X0053000Y0280000D02*
X0028514Y0280000D01*
X0027807Y0279707D02*
X0027800Y0279700D01*
X0027807Y0279707D02*
X0027851Y0279749D01*
X0027897Y0279787D01*
X0027946Y0279823D01*
X0027997Y0279856D01*
X0028049Y0279885D01*
X0028104Y0279912D01*
X0028159Y0279935D01*
X0028216Y0279955D01*
X0028275Y0279971D01*
X0028334Y0279984D01*
X0028393Y0279993D01*
X0028454Y0279998D01*
X0028514Y0280000D01*
X0031765Y0277628D02*
X0050869Y0277628D01*
X0055131Y0277628D02*
X0158000Y0277628D01*
X0158000Y0278626D02*
X0055878Y0278626D01*
X0056184Y0279625D02*
X0158000Y0279625D01*
X0158000Y0280623D02*
X0056184Y0280623D01*
X0055775Y0281622D02*
X0158000Y0281622D01*
X0158000Y0282620D02*
X0054883Y0282620D01*
X0055194Y0296600D02*
X0158000Y0296600D01*
X0158000Y0297598D02*
X0057577Y0297598D01*
X0058576Y0298597D02*
X0158000Y0298597D01*
X0158000Y0299595D02*
X0059574Y0299595D01*
X0060191Y0300594D02*
X0158000Y0300594D01*
X0158000Y0301592D02*
X0060605Y0301592D01*
X0061018Y0302591D02*
X0158000Y0302591D01*
X0158000Y0303589D02*
X0061200Y0303589D01*
X0061200Y0304588D02*
X0158000Y0304588D01*
X0158000Y0305586D02*
X0061200Y0305586D01*
X0061111Y0306585D02*
X0158000Y0306585D01*
X0158000Y0307583D02*
X0067405Y0307583D01*
X0069158Y0308582D02*
X0158000Y0308582D01*
X0158000Y0309580D02*
X0070217Y0309580D01*
X0070919Y0310579D02*
X0158000Y0310579D01*
X0158000Y0311577D02*
X0071410Y0311577D01*
X0071726Y0312576D02*
X0158000Y0312576D01*
X0158000Y0313574D02*
X0071889Y0313574D01*
X0065300Y0312576D02*
X0064300Y0312576D01*
X0064300Y0311577D02*
X0065300Y0311577D01*
X0065300Y0310579D02*
X0064300Y0310579D01*
X0064300Y0309580D02*
X0065300Y0309580D01*
X0065300Y0308582D02*
X0064300Y0308582D01*
X0064300Y0307583D02*
X0065300Y0307583D01*
X0062194Y0307583D02*
X0060698Y0307583D01*
X0060442Y0308582D02*
X0060284Y0308582D01*
X0031833Y0291607D02*
X0158000Y0291607D01*
X0158000Y0292605D02*
X0031196Y0292605D01*
X0030019Y0293604D02*
X0158000Y0293604D01*
X0158000Y0290608D02*
X0032247Y0290608D01*
X0032256Y0289610D02*
X0158000Y0289610D01*
X0158000Y0288611D02*
X0032172Y0288611D01*
X0031759Y0287613D02*
X0158000Y0287613D01*
X0158000Y0286614D02*
X0031016Y0286614D01*
X0029584Y0285616D02*
X0158000Y0285616D01*
X0158000Y0276629D02*
X0031031Y0276629D01*
X0029620Y0275631D02*
X0158000Y0275631D01*
X0158000Y0274632D02*
X0022256Y0274632D01*
X0022256Y0273814D02*
X0021578Y0272176D01*
X0020324Y0270922D01*
X0018686Y0270244D01*
X0016914Y0270244D01*
X0015276Y0270922D01*
X0014022Y0272176D01*
X0013344Y0273814D01*
X0013344Y0275586D01*
X0014022Y0277224D01*
X0015276Y0278478D01*
X0016914Y0279156D01*
X0018686Y0279156D01*
X0020324Y0278478D01*
X0021578Y0277224D01*
X0022256Y0275586D01*
X0022256Y0273814D01*
X0022181Y0273634D02*
X0025653Y0273634D01*
X0025276Y0273478D02*
X0024022Y0272224D01*
X0023344Y0270586D01*
X0023344Y0268814D01*
X0024022Y0267176D01*
X0025276Y0265922D01*
X0026914Y0265244D01*
X0028686Y0265244D01*
X0030324Y0265922D01*
X0031578Y0267176D01*
X0032256Y0268814D01*
X0032256Y0270586D01*
X0031578Y0272224D01*
X0030324Y0273478D01*
X0028686Y0274156D01*
X0026914Y0274156D01*
X0025276Y0273478D01*
X0024434Y0272635D02*
X0021768Y0272635D01*
X0021038Y0271637D02*
X0023779Y0271637D01*
X0023366Y0270638D02*
X0019638Y0270638D01*
X0018686Y0269156D02*
X0016914Y0269156D01*
X0015276Y0268478D01*
X0014022Y0267224D01*
X0013344Y0265586D01*
X0013344Y0263814D01*
X0014022Y0262176D01*
X0015276Y0260922D01*
X0016914Y0260244D01*
X0017523Y0260244D01*
X0020974Y0256793D01*
X0020602Y0256947D01*
X0019702Y0257189D01*
X0018812Y0257306D01*
X0018812Y0250700D01*
X0017812Y0250700D01*
X0017812Y0257306D01*
X0016922Y0257189D01*
X0016021Y0256947D01*
X0015160Y0256591D01*
X0014353Y0256125D01*
X0013614Y0255557D01*
X0012955Y0254898D01*
X0012387Y0254159D01*
X0011921Y0253352D01*
X0011564Y0252490D01*
X0011323Y0251590D01*
X0011206Y0250700D01*
X0017812Y0250700D01*
X0017812Y0249700D01*
X0018812Y0249700D01*
X0018812Y0243094D01*
X0019702Y0243211D01*
X0020602Y0243453D01*
X0021463Y0243809D01*
X0022271Y0244275D01*
X0023010Y0244843D01*
X0023300Y0245133D01*
X0023300Y0237418D01*
X0023788Y0236239D01*
X0023788Y0234827D01*
X0023954Y0234662D01*
X0023954Y0229638D01*
X0023788Y0229473D01*
X0023788Y0224127D01*
X0024784Y0223131D01*
X0026842Y0223131D01*
X0026918Y0223100D01*
X0028390Y0223100D01*
X0028466Y0223131D01*
X0030523Y0223131D01*
X0031141Y0223750D01*
X0031260Y0223631D01*
X0031602Y0223434D01*
X0031984Y0223331D01*
X0033862Y0223331D01*
X0033862Y0226316D01*
X0034831Y0226316D01*
X0034831Y0227284D01*
X0038012Y0227284D01*
X0038012Y0228966D01*
X0037910Y0229347D01*
X0037712Y0229690D01*
X0037433Y0229969D01*
X0037091Y0230166D01*
X0036709Y0230268D01*
X0034831Y0230268D01*
X0034831Y0227284D01*
X0033862Y0227284D01*
X0033862Y0230268D01*
X0031984Y0230268D01*
X0031602Y0230166D01*
X0031354Y0230023D01*
X0031354Y0234277D01*
X0031602Y0234134D01*
X0031984Y0234031D01*
X0033862Y0234031D01*
X0033862Y0237016D01*
X0034831Y0237016D01*
X0034831Y0237984D01*
X0038012Y0237984D01*
X0038012Y0239666D01*
X0037910Y0240047D01*
X0037764Y0240300D01*
X0048467Y0240300D01*
X0049863Y0238904D01*
X0050904Y0237863D01*
X0052264Y0237300D01*
X0087736Y0237300D01*
X0089096Y0237863D01*
X0089333Y0238100D01*
X0097100Y0238100D01*
X0097100Y0234369D01*
X0096943Y0234474D01*
X0096312Y0234735D01*
X0095642Y0234868D01*
X0095300Y0234868D01*
X0094958Y0234868D01*
X0094288Y0234735D01*
X0093657Y0234474D01*
X0093089Y0234094D01*
X0092941Y0233947D01*
X0092378Y0234510D01*
X0091030Y0235068D01*
X0089570Y0235068D01*
X0088222Y0234510D01*
X0087312Y0233600D01*
X0072784Y0233600D01*
X0072699Y0233804D01*
X0071804Y0234699D01*
X0070633Y0235184D01*
X0069367Y0235184D01*
X0068196Y0234699D01*
X0067301Y0233804D01*
X0066816Y0232633D01*
X0066816Y0231367D01*
X0067301Y0230196D01*
X0068196Y0229301D01*
X0069367Y0228816D01*
X0070633Y0228816D01*
X0071561Y0229200D01*
X0087312Y0229200D01*
X0087612Y0228900D01*
X0087190Y0228478D01*
X0086631Y0227130D01*
X0086631Y0225670D01*
X0087190Y0224322D01*
X0088222Y0223290D01*
X0089570Y0222731D01*
X0091030Y0222731D01*
X0092378Y0223290D01*
X0092800Y0223712D01*
X0093222Y0223290D01*
X0094570Y0222731D01*
X0096030Y0222731D01*
X0097378Y0223290D01*
X0097800Y0223712D01*
X0098222Y0223290D01*
X0099570Y0222731D01*
X0101030Y0222731D01*
X0102378Y0223290D01*
X0102800Y0223712D01*
X0103222Y0223290D01*
X0104570Y0222731D01*
X0106030Y0222731D01*
X0107378Y0223290D01*
X0107800Y0223712D01*
X0108222Y0223290D01*
X0109570Y0222731D01*
X0111030Y0222731D01*
X0112378Y0223290D01*
X0112800Y0223712D01*
X0113222Y0223290D01*
X0114570Y0222731D01*
X0116030Y0222731D01*
X0117378Y0223290D01*
X0117800Y0223712D01*
X0118222Y0223290D01*
X0119570Y0222731D01*
X0121030Y0222731D01*
X0122378Y0223290D01*
X0122800Y0223712D01*
X0123222Y0223290D01*
X0124570Y0222731D01*
X0126030Y0222731D01*
X0127378Y0223290D01*
X0128410Y0224322D01*
X0128968Y0225670D01*
X0128968Y0227130D01*
X0128410Y0228478D01*
X0127988Y0228900D01*
X0128410Y0229322D01*
X0128968Y0230670D01*
X0128968Y0232130D01*
X0128410Y0233478D01*
X0127378Y0234510D01*
X0126030Y0235068D01*
X0124570Y0235068D01*
X0123222Y0234510D01*
X0122800Y0234088D01*
X0122378Y0234510D01*
X0121030Y0235068D01*
X0119570Y0235068D01*
X0118222Y0234510D01*
X0117800Y0234088D01*
X0117378Y0234510D01*
X0116030Y0235068D01*
X0114570Y0235068D01*
X0113222Y0234510D01*
X0112800Y0234088D01*
X0112378Y0234510D01*
X0111030Y0235068D01*
X0109570Y0235068D01*
X0108222Y0234510D01*
X0107800Y0234088D01*
X0107378Y0234510D01*
X0106030Y0235068D01*
X0104570Y0235068D01*
X0103222Y0234510D01*
X0102900Y0234188D01*
X0102900Y0241577D01*
X0102458Y0242643D01*
X0101643Y0243458D01*
X0100577Y0243900D01*
X0089333Y0243900D01*
X0089096Y0244137D01*
X0087736Y0244700D01*
X0069312Y0244700D01*
X0069498Y0244843D01*
X0070157Y0245502D01*
X0070725Y0246241D01*
X0071191Y0247048D01*
X0071547Y0247910D01*
X0071789Y0248810D01*
X0071906Y0249700D01*
X0065300Y0249700D01*
X0065300Y0250700D01*
X0064300Y0250700D01*
X0064300Y0257306D01*
X0063410Y0257189D01*
X0062510Y0256947D01*
X0061648Y0256591D01*
X0060841Y0256125D01*
X0060211Y0255641D01*
X0061200Y0258029D01*
X0061200Y0261371D01*
X0059921Y0264458D01*
X0057558Y0266821D01*
X0054471Y0268100D01*
X0051129Y0268100D01*
X0048042Y0266821D01*
X0045679Y0264458D01*
X0044400Y0261371D01*
X0044400Y0258029D01*
X0045679Y0254942D01*
X0048042Y0252579D01*
X0051129Y0251300D01*
X0054471Y0251300D01*
X0057558Y0252579D01*
X0058517Y0253537D01*
X0058409Y0253352D01*
X0058053Y0252490D01*
X0057811Y0251590D01*
X0057694Y0250700D01*
X0064300Y0250700D01*
X0064300Y0249700D01*
X0057694Y0249700D01*
X0057811Y0248810D01*
X0058053Y0247910D01*
X0058409Y0247048D01*
X0058875Y0246241D01*
X0059443Y0245502D01*
X0060102Y0244843D01*
X0060288Y0244700D01*
X0054533Y0244700D01*
X0052096Y0247137D01*
X0050736Y0247700D01*
X0030700Y0247700D01*
X0030700Y0256736D01*
X0030137Y0258096D01*
X0029096Y0259137D01*
X0021980Y0266253D01*
X0021578Y0267224D01*
X0020324Y0268478D01*
X0018686Y0269156D01*
X0019929Y0268641D02*
X0023416Y0268641D01*
X0023344Y0269640D02*
X0007000Y0269640D01*
X0007000Y0270638D02*
X0015962Y0270638D01*
X0014562Y0271637D02*
X0007000Y0271637D01*
X0007000Y0272635D02*
X0013832Y0272635D01*
X0013419Y0273634D02*
X0007000Y0273634D01*
X0007000Y0274632D02*
X0013344Y0274632D01*
X0013363Y0275631D02*
X0007000Y0275631D01*
X0007000Y0276629D02*
X0013776Y0276629D01*
X0014426Y0277628D02*
X0007000Y0277628D01*
X0007000Y0278626D02*
X0015635Y0278626D01*
X0015998Y0280623D02*
X0007000Y0280623D01*
X0007000Y0279625D02*
X0023344Y0279625D01*
X0023359Y0280623D02*
X0019602Y0280623D01*
X0021023Y0281622D02*
X0023773Y0281622D01*
X0024419Y0282620D02*
X0021762Y0282620D01*
X0022175Y0283619D02*
X0025617Y0283619D01*
X0023422Y0278626D02*
X0019965Y0278626D01*
X0021174Y0277628D02*
X0023835Y0277628D01*
X0024569Y0276629D02*
X0021824Y0276629D01*
X0022237Y0275631D02*
X0025980Y0275631D01*
X0029947Y0273634D02*
X0158000Y0273634D01*
X0158000Y0272635D02*
X0031166Y0272635D01*
X0031821Y0271637D02*
X0158000Y0271637D01*
X0158000Y0270638D02*
X0032234Y0270638D01*
X0032256Y0269640D02*
X0158000Y0269640D01*
X0158000Y0268641D02*
X0032184Y0268641D01*
X0031771Y0267643D02*
X0050025Y0267643D01*
X0047865Y0266644D02*
X0031046Y0266644D01*
X0029656Y0265646D02*
X0046866Y0265646D01*
X0045868Y0264647D02*
X0023585Y0264647D01*
X0022587Y0265646D02*
X0025944Y0265646D01*
X0024554Y0266644D02*
X0021818Y0266644D01*
X0021159Y0267643D02*
X0023829Y0267643D01*
X0024584Y0263649D02*
X0045344Y0263649D01*
X0044930Y0262650D02*
X0025582Y0262650D01*
X0026581Y0261652D02*
X0044516Y0261652D01*
X0044400Y0260653D02*
X0027579Y0260653D01*
X0028578Y0259655D02*
X0044400Y0259655D01*
X0044400Y0258656D02*
X0029576Y0258656D01*
X0030318Y0257658D02*
X0044554Y0257658D01*
X0044967Y0256659D02*
X0030700Y0256659D01*
X0030700Y0255661D02*
X0045381Y0255661D01*
X0045959Y0254662D02*
X0030700Y0254662D01*
X0030700Y0253664D02*
X0046957Y0253664D01*
X0047956Y0252665D02*
X0030700Y0252665D01*
X0030700Y0251667D02*
X0050244Y0251667D01*
X0050802Y0247672D02*
X0058151Y0247672D01*
X0057849Y0248671D02*
X0030700Y0248671D01*
X0030700Y0249670D02*
X0057698Y0249670D01*
X0057832Y0251667D02*
X0055356Y0251667D01*
X0057644Y0252665D02*
X0058125Y0252665D01*
X0060219Y0255661D02*
X0060237Y0255661D01*
X0060632Y0256659D02*
X0061814Y0256659D01*
X0061046Y0257658D02*
X0158000Y0257658D01*
X0158000Y0258656D02*
X0061200Y0258656D01*
X0061200Y0259655D02*
X0158000Y0259655D01*
X0158000Y0260653D02*
X0061200Y0260653D01*
X0061084Y0261652D02*
X0158000Y0261652D01*
X0158000Y0262650D02*
X0060670Y0262650D01*
X0060256Y0263649D02*
X0158000Y0263649D01*
X0158000Y0264647D02*
X0059732Y0264647D01*
X0058734Y0265646D02*
X0158000Y0265646D01*
X0158000Y0266644D02*
X0057735Y0266644D01*
X0055575Y0267643D02*
X0158000Y0267643D01*
X0158000Y0256659D02*
X0067786Y0256659D01*
X0067952Y0256591D02*
X0067090Y0256947D01*
X0066190Y0257189D01*
X0065300Y0257306D01*
X0065300Y0250700D01*
X0071906Y0250700D01*
X0071789Y0251590D01*
X0071547Y0252490D01*
X0071191Y0253352D01*
X0070725Y0254159D01*
X0070157Y0254898D01*
X0069498Y0255557D01*
X0068759Y0256125D01*
X0067952Y0256591D01*
X0069363Y0255661D02*
X0158000Y0255661D01*
X0158000Y0254662D02*
X0070338Y0254662D01*
X0071010Y0253664D02*
X0158000Y0253664D01*
X0158000Y0252665D02*
X0071475Y0252665D01*
X0071768Y0251667D02*
X0158000Y0251667D01*
X0158000Y0250668D02*
X0065300Y0250668D01*
X0065300Y0251667D02*
X0064300Y0251667D01*
X0064300Y0252665D02*
X0065300Y0252665D01*
X0065300Y0253664D02*
X0064300Y0253664D01*
X0064300Y0254662D02*
X0065300Y0254662D01*
X0065300Y0255661D02*
X0064300Y0255661D01*
X0064300Y0256659D02*
X0065300Y0256659D01*
X0064300Y0250668D02*
X0030700Y0250668D01*
X0023300Y0244677D02*
X0022794Y0244677D01*
X0023300Y0243678D02*
X0021147Y0243678D01*
X0018812Y0243678D02*
X0017812Y0243678D01*
X0017812Y0243094D02*
X0017812Y0249700D01*
X0011206Y0249700D01*
X0011323Y0248810D01*
X0011564Y0247910D01*
X0011921Y0247048D01*
X0012387Y0246241D01*
X0012955Y0245502D01*
X0013614Y0244843D01*
X0014353Y0244275D01*
X0015160Y0243809D01*
X0016021Y0243453D01*
X0016922Y0243211D01*
X0017812Y0243094D01*
X0017812Y0244677D02*
X0018812Y0244677D01*
X0018812Y0245675D02*
X0017812Y0245675D01*
X0017812Y0246674D02*
X0018812Y0246674D01*
X0018812Y0247672D02*
X0017812Y0247672D01*
X0017812Y0248671D02*
X0018812Y0248671D01*
X0018812Y0249670D02*
X0017812Y0249670D01*
X0017812Y0250668D02*
X0007000Y0250668D01*
X0007000Y0249670D02*
X0011210Y0249670D01*
X0011360Y0248671D02*
X0007000Y0248671D01*
X0007000Y0247672D02*
X0011663Y0247672D01*
X0012137Y0246674D02*
X0007000Y0246674D01*
X0007000Y0245675D02*
X0012821Y0245675D01*
X0013830Y0244677D02*
X0007000Y0244677D01*
X0007000Y0243678D02*
X0015476Y0243678D01*
X0023300Y0242680D02*
X0007000Y0242680D01*
X0007000Y0241681D02*
X0023300Y0241681D01*
X0023300Y0240683D02*
X0007000Y0240683D01*
X0007000Y0239684D02*
X0023300Y0239684D01*
X0023300Y0238686D02*
X0007000Y0238686D01*
X0007000Y0237687D02*
X0023300Y0237687D01*
X0023602Y0236689D02*
X0007000Y0236689D01*
X0007000Y0235690D02*
X0023788Y0235690D01*
X0023924Y0234692D02*
X0007000Y0234692D01*
X0007000Y0233693D02*
X0023954Y0233693D01*
X0023954Y0232695D02*
X0007000Y0232695D01*
X0007000Y0231696D02*
X0023954Y0231696D01*
X0023954Y0230698D02*
X0007000Y0230698D01*
X0007000Y0229699D02*
X0023954Y0229699D01*
X0023788Y0228701D02*
X0007000Y0228701D01*
X0007000Y0227702D02*
X0023788Y0227702D01*
X0023788Y0226704D02*
X0007000Y0226704D01*
X0007000Y0225705D02*
X0023788Y0225705D01*
X0023788Y0224707D02*
X0007000Y0224707D01*
X0007000Y0223708D02*
X0024207Y0223708D01*
X0031100Y0223708D02*
X0031183Y0223708D01*
X0033862Y0223708D02*
X0034831Y0223708D01*
X0034831Y0223331D02*
X0036709Y0223331D01*
X0037091Y0223434D01*
X0037433Y0223631D01*
X0037712Y0223910D01*
X0037910Y0224253D01*
X0038012Y0224634D01*
X0038012Y0226316D01*
X0034831Y0226316D01*
X0034831Y0223331D01*
X0034831Y0224707D02*
X0033862Y0224707D01*
X0033862Y0225705D02*
X0034831Y0225705D01*
X0034831Y0226704D02*
X0086631Y0226704D01*
X0086631Y0225705D02*
X0038012Y0225705D01*
X0038012Y0224707D02*
X0087031Y0224707D01*
X0087804Y0223708D02*
X0037510Y0223708D01*
X0038012Y0227702D02*
X0086869Y0227702D01*
X0087413Y0228701D02*
X0038012Y0228701D01*
X0037702Y0229699D02*
X0067797Y0229699D01*
X0067093Y0230698D02*
X0031354Y0230698D01*
X0031354Y0231696D02*
X0066816Y0231696D01*
X0066841Y0232695D02*
X0031354Y0232695D01*
X0031354Y0233693D02*
X0067255Y0233693D01*
X0068189Y0234692D02*
X0037759Y0234692D01*
X0037712Y0234610D02*
X0037910Y0234953D01*
X0038012Y0235334D01*
X0038012Y0237016D01*
X0034831Y0237016D01*
X0034831Y0234031D01*
X0036709Y0234031D01*
X0037091Y0234134D01*
X0037433Y0234331D01*
X0037712Y0234610D01*
X0038012Y0235690D02*
X0097100Y0235690D01*
X0097100Y0234692D02*
X0096416Y0234692D01*
X0095300Y0234692D02*
X0095300Y0234692D01*
X0095300Y0234868D02*
X0095300Y0231400D01*
X0095300Y0231400D01*
X0095300Y0234868D01*
X0094184Y0234692D02*
X0091939Y0234692D01*
X0088661Y0234692D02*
X0071811Y0234692D01*
X0072745Y0233693D02*
X0087405Y0233693D01*
X0090300Y0231400D02*
X0071014Y0231400D01*
X0070307Y0231693D02*
X0070000Y0232000D01*
X0070307Y0231693D02*
X0070351Y0231651D01*
X0070397Y0231613D01*
X0070446Y0231577D01*
X0070497Y0231544D01*
X0070549Y0231515D01*
X0070604Y0231488D01*
X0070659Y0231465D01*
X0070716Y0231445D01*
X0070775Y0231429D01*
X0070834Y0231416D01*
X0070893Y0231407D01*
X0070954Y0231402D01*
X0071014Y0231400D01*
X0070290Y0245675D02*
X0158000Y0245675D01*
X0158000Y0244677D02*
X0087792Y0244677D01*
X0088671Y0237687D02*
X0097100Y0237687D01*
X0097100Y0236689D02*
X0038012Y0236689D01*
X0038012Y0238686D02*
X0050082Y0238686D01*
X0049083Y0239684D02*
X0038007Y0239684D01*
X0034831Y0237687D02*
X0051329Y0237687D01*
X0053557Y0245675D02*
X0059310Y0245675D01*
X0058626Y0246674D02*
X0052559Y0246674D01*
X0070974Y0246674D02*
X0158000Y0246674D01*
X0158000Y0247672D02*
X0071449Y0247672D01*
X0071751Y0248671D02*
X0158000Y0248671D01*
X0158000Y0249670D02*
X0071902Y0249670D01*
X0095300Y0233693D02*
X0095300Y0233693D01*
X0095300Y0232695D02*
X0095300Y0232695D01*
X0095300Y0231696D02*
X0095300Y0231696D01*
X0102900Y0234692D02*
X0103661Y0234692D01*
X0102900Y0235690D02*
X0158000Y0235690D01*
X0158000Y0234692D02*
X0126939Y0234692D01*
X0128195Y0233693D02*
X0158000Y0233693D01*
X0158000Y0232695D02*
X0128734Y0232695D01*
X0128968Y0231696D02*
X0158000Y0231696D01*
X0158000Y0230698D02*
X0128968Y0230698D01*
X0128566Y0229699D02*
X0158000Y0229699D01*
X0158000Y0228701D02*
X0128187Y0228701D01*
X0128731Y0227702D02*
X0158000Y0227702D01*
X0158000Y0226704D02*
X0128968Y0226704D01*
X0128968Y0225705D02*
X0158000Y0225705D01*
X0158000Y0224707D02*
X0128569Y0224707D01*
X0127796Y0223708D02*
X0158000Y0223708D01*
X0158000Y0222710D02*
X0007000Y0222710D01*
X0007000Y0221711D02*
X0158000Y0221711D01*
X0158000Y0220713D02*
X0007000Y0220713D01*
X0007000Y0219714D02*
X0158000Y0219714D01*
X0158000Y0218716D02*
X0007000Y0218716D01*
X0007000Y0217717D02*
X0158000Y0217717D01*
X0158000Y0216719D02*
X0007000Y0216719D01*
X0007000Y0215720D02*
X0158000Y0215720D01*
X0158000Y0214722D02*
X0007000Y0214722D01*
X0007000Y0213723D02*
X0158000Y0213723D01*
X0158000Y0212725D02*
X0007000Y0212725D01*
X0007000Y0211726D02*
X0158000Y0211726D01*
X0158000Y0210728D02*
X0007000Y0210728D01*
X0007000Y0209729D02*
X0157961Y0209729D01*
X0158000Y0236689D02*
X0102900Y0236689D01*
X0102900Y0237687D02*
X0158000Y0237687D01*
X0158000Y0238686D02*
X0102900Y0238686D01*
X0102900Y0239684D02*
X0158000Y0239684D01*
X0158000Y0240683D02*
X0102900Y0240683D01*
X0102857Y0241681D02*
X0158000Y0241681D01*
X0158000Y0242680D02*
X0102421Y0242680D01*
X0101112Y0243678D02*
X0158000Y0243678D01*
X0123661Y0234692D02*
X0121939Y0234692D01*
X0118661Y0234692D02*
X0116939Y0234692D01*
X0113661Y0234692D02*
X0111939Y0234692D01*
X0108661Y0234692D02*
X0106939Y0234692D01*
X0107796Y0223708D02*
X0107804Y0223708D01*
X0112796Y0223708D02*
X0112804Y0223708D01*
X0117796Y0223708D02*
X0117804Y0223708D01*
X0122796Y0223708D02*
X0122804Y0223708D01*
X0102804Y0223708D02*
X0102796Y0223708D01*
X0097804Y0223708D02*
X0097796Y0223708D01*
X0092804Y0223708D02*
X0092796Y0223708D01*
X0034831Y0227702D02*
X0033862Y0227702D01*
X0033862Y0228701D02*
X0034831Y0228701D01*
X0034831Y0229699D02*
X0033862Y0229699D01*
X0033862Y0234692D02*
X0034831Y0234692D01*
X0034831Y0235690D02*
X0033862Y0235690D01*
X0033862Y0236689D02*
X0034831Y0236689D01*
X0018812Y0251667D02*
X0017812Y0251667D01*
X0017812Y0252665D02*
X0018812Y0252665D01*
X0018812Y0253664D02*
X0017812Y0253664D01*
X0017812Y0254662D02*
X0018812Y0254662D01*
X0018812Y0255661D02*
X0017812Y0255661D01*
X0017812Y0256659D02*
X0018812Y0256659D01*
X0020110Y0257658D02*
X0007000Y0257658D01*
X0007000Y0258656D02*
X0019111Y0258656D01*
X0018113Y0259655D02*
X0007000Y0259655D01*
X0007000Y0260653D02*
X0015926Y0260653D01*
X0014547Y0261652D02*
X0007000Y0261652D01*
X0007000Y0262650D02*
X0013826Y0262650D01*
X0013412Y0263649D02*
X0007000Y0263649D01*
X0007000Y0264647D02*
X0013344Y0264647D01*
X0013369Y0265646D02*
X0007000Y0265646D01*
X0007000Y0266644D02*
X0013782Y0266644D01*
X0014441Y0267643D02*
X0007000Y0267643D01*
X0007000Y0268641D02*
X0015671Y0268641D01*
X0014577Y0281622D02*
X0007000Y0281622D01*
X0007000Y0282620D02*
X0013838Y0282620D01*
X0013425Y0283619D02*
X0007000Y0283619D01*
X0007000Y0284617D02*
X0013344Y0284617D01*
X0013356Y0285616D02*
X0007000Y0285616D01*
X0007000Y0286614D02*
X0013770Y0286614D01*
X0014411Y0287613D02*
X0007000Y0287613D01*
X0007000Y0288611D02*
X0015599Y0288611D01*
X0021009Y0291607D02*
X0023767Y0291607D01*
X0024404Y0292605D02*
X0021755Y0292605D01*
X0015326Y0256659D02*
X0007000Y0256659D01*
X0007000Y0255661D02*
X0013748Y0255661D01*
X0012773Y0254662D02*
X0007000Y0254662D01*
X0007000Y0253664D02*
X0012101Y0253664D01*
X0011637Y0252665D02*
X0007000Y0252665D01*
X0007000Y0251667D02*
X0011344Y0251667D01*
X0311811Y0078924D02*
X0312189Y0078924D01*
X0312189Y0077926D02*
X0311811Y0077926D01*
X0311811Y0076927D02*
X0312189Y0076927D01*
X0312189Y0075929D02*
X0311811Y0075929D01*
X0311811Y0073932D02*
X0312189Y0073932D01*
X0312189Y0072933D02*
X0311811Y0072933D01*
X0311811Y0071934D02*
X0312189Y0071934D01*
X0312189Y0070936D02*
X0311811Y0070936D01*
X0335500Y0108500D02*
X0335500Y0110500D01*
X0338000Y0110500D01*
X0404170Y0232695D02*
X0412000Y0232695D01*
X0412000Y0233693D02*
X0405169Y0233693D01*
X0406167Y0234692D02*
X0412000Y0234692D01*
X0412000Y0235690D02*
X0407166Y0235690D01*
X0408164Y0236689D02*
X0414457Y0236689D01*
X0413616Y0237687D02*
X0409163Y0237687D01*
X0410161Y0238686D02*
X0413122Y0238686D01*
X0412864Y0239684D02*
X0411160Y0239684D01*
X0412158Y0240683D02*
X0417500Y0240683D01*
X0418500Y0240683D02*
X0427500Y0240683D01*
X0427500Y0241000D02*
X0427500Y0240000D01*
X0423186Y0240000D01*
X0418500Y0240000D01*
X0418500Y0241000D01*
X0427500Y0241000D01*
D20*
X0087000Y0241000D02*
X0053000Y0241000D01*
X0050000Y0244000D01*
X0027000Y0244000D01*
X0027000Y0238154D01*
X0027654Y0237500D01*
X0027654Y0226800D01*
X0027000Y0244000D02*
X0027000Y0256000D01*
X0018300Y0264700D01*
D21*
X0087000Y0241000D02*
X0100000Y0241000D01*
X0100000Y0231700D01*
X0100300Y0231400D01*
D22*
X0204700Y0039500D03*
D23*
X0192900Y0053900D02*
X0183900Y0053900D01*
X0192900Y0053900D02*
X0193000Y0054000D01*
X0304000Y0054000D02*
X0306000Y0054000D01*
X0306000Y0055000D01*
X0312000Y0055000D01*
X0332500Y0055000D01*
X0338000Y0060500D01*
X0359000Y0060500D01*
X0359000Y0087000D01*
X0284100Y0237100D02*
X0284100Y0245100D01*
X0292000Y0253000D01*
X0292000Y0265000D01*
X0292500Y0265500D01*
X0409000Y0247000D02*
X0413000Y0251000D01*
X0417500Y0251000D01*
X0418000Y0250500D01*
D24*
X0409000Y0247000D02*
X0363000Y0201000D01*
X0363000Y0091000D01*
X0359000Y0087000D01*
X0304000Y0054000D02*
X0255000Y0054000D01*
X0193000Y0054000D01*
D25*
X0255000Y0054000D03*
X0265000Y0074000D03*
X0276000Y0078000D03*
X0246000Y0104000D03*
X0299000Y0130000D03*
X0306000Y0130000D03*
X0307000Y0122000D03*
X0305000Y0149000D03*
X0359000Y0087000D03*
M02*
