G75*
%MOIN*%
%OFA0B0*%
%FSLAX25Y25*%
%IPPOS*%
%LPD*%
%AMOC8*
5,1,8,0,0,1.08239X$1,22.5*
%
%ADD10C,0.00600*%
%ADD11C,0.00500*%
%ADD12C,0.00800*%
D10*
X0099443Y0290800D02*
X0101578Y0290800D01*
X0102646Y0291868D01*
X0102646Y0294003D01*
X0101578Y0295070D01*
X0099443Y0295070D01*
X0098375Y0294003D01*
X0098375Y0292935D01*
X0102646Y0292935D01*
X0104821Y0290800D02*
X0104821Y0297205D01*
X0104821Y0295070D02*
X0108024Y0295070D01*
X0109091Y0294003D01*
X0109091Y0291868D01*
X0108024Y0290800D01*
X0104821Y0290800D01*
X0111253Y0290800D02*
X0113388Y0290800D01*
X0112321Y0290800D02*
X0112321Y0295070D01*
X0113388Y0295070D01*
X0112321Y0297205D02*
X0112321Y0298273D01*
X0115563Y0296138D02*
X0116631Y0297205D01*
X0118766Y0297205D01*
X0119834Y0296138D01*
X0119834Y0295070D01*
X0118766Y0294003D01*
X0116631Y0294003D01*
X0115563Y0292935D01*
X0115563Y0291868D01*
X0116631Y0290800D01*
X0118766Y0290800D01*
X0119834Y0291868D01*
X0128441Y0290800D02*
X0129509Y0291868D01*
X0129509Y0296138D01*
X0130576Y0295070D02*
X0128441Y0295070D01*
X0132751Y0294003D02*
X0132751Y0290800D01*
X0132751Y0294003D02*
X0133819Y0295070D01*
X0137022Y0295070D01*
X0137022Y0290800D01*
X0139197Y0290800D02*
X0139197Y0295070D01*
X0139197Y0290800D02*
X0142400Y0290800D01*
X0143467Y0291868D01*
X0143467Y0295070D01*
X0145642Y0294003D02*
X0146710Y0295070D01*
X0148845Y0295070D01*
X0149913Y0294003D01*
X0149913Y0291868D01*
X0148845Y0290800D01*
X0146710Y0290800D01*
X0145642Y0291868D01*
X0145642Y0294003D01*
X0152088Y0297205D02*
X0152088Y0290800D01*
X0156358Y0290800D02*
X0156358Y0297205D01*
X0154223Y0295070D01*
X0152088Y0297205D01*
X0055000Y0320000D02*
X0050730Y0326405D01*
X0048555Y0324270D02*
X0046419Y0326405D01*
X0046419Y0320000D01*
X0044284Y0320000D02*
X0048555Y0320000D01*
X0050730Y0320000D02*
X0055000Y0326405D01*
D11*
X0029482Y0221967D02*
X0029799Y0221650D01*
X0030433Y0221650D01*
X0030750Y0221967D01*
X0030433Y0222601D02*
X0029482Y0222601D01*
X0029482Y0223235D02*
X0029799Y0223552D01*
X0030433Y0223552D01*
X0030750Y0223235D01*
X0030750Y0222918D01*
X0030433Y0222601D01*
X0029482Y0221967D02*
X0029482Y0223235D01*
X0031692Y0223235D02*
X0032009Y0223552D01*
X0032643Y0223552D01*
X0032960Y0223235D01*
X0032960Y0221967D01*
X0032643Y0221650D01*
X0032009Y0221650D01*
X0031692Y0221967D01*
X0032009Y0232350D02*
X0031692Y0232667D01*
X0032009Y0232350D02*
X0032643Y0232350D01*
X0032960Y0232667D01*
X0032960Y0233935D01*
X0032643Y0234252D01*
X0032009Y0234252D01*
X0031692Y0233935D01*
X0030750Y0233935D02*
X0030750Y0233618D01*
X0030433Y0233301D01*
X0029799Y0233301D01*
X0029482Y0232984D01*
X0029482Y0232667D01*
X0029799Y0232350D01*
X0030433Y0232350D01*
X0030750Y0232667D01*
X0030750Y0232984D01*
X0030433Y0233301D01*
X0029799Y0233301D02*
X0029482Y0233618D01*
X0029482Y0233935D01*
X0029799Y0234252D01*
X0030433Y0234252D01*
X0030750Y0233935D01*
D12*
X0025206Y0251582D02*
X0055938Y0251582D01*
X0072706Y0251582D02*
X0083438Y0251582D01*
X0083438Y0312818D01*
X0072706Y0312818D01*
X0055938Y0312818D02*
X0025206Y0312818D01*
X0010206Y0312818D02*
X0010206Y0251582D01*
M02*
