G75*
%MOIN*%
%OFA0B0*%
%FSLAX25Y25*%
%IPPOS*%
%LPD*%
%AMOC8*
5,1,8,0,0,1.08239X$1,22.5*
%
%ADD10C,0.00000*%
%ADD11C,0.00400*%
D10*
X0005000Y0028000D02*
X0005000Y0323000D01*
X0435000Y0323000D01*
X0435000Y0028000D01*
X0005000Y0028000D01*
X0018500Y0039500D02*
X0018502Y0039654D01*
X0018508Y0039809D01*
X0018518Y0039963D01*
X0018532Y0040117D01*
X0018550Y0040270D01*
X0018571Y0040423D01*
X0018597Y0040576D01*
X0018627Y0040727D01*
X0018660Y0040878D01*
X0018698Y0041028D01*
X0018739Y0041177D01*
X0018784Y0041325D01*
X0018833Y0041471D01*
X0018886Y0041617D01*
X0018942Y0041760D01*
X0019002Y0041903D01*
X0019066Y0042043D01*
X0019133Y0042183D01*
X0019204Y0042320D01*
X0019278Y0042455D01*
X0019356Y0042589D01*
X0019437Y0042720D01*
X0019522Y0042849D01*
X0019610Y0042977D01*
X0019701Y0043101D01*
X0019795Y0043224D01*
X0019893Y0043344D01*
X0019993Y0043461D01*
X0020097Y0043576D01*
X0020203Y0043688D01*
X0020312Y0043797D01*
X0020424Y0043903D01*
X0020539Y0044007D01*
X0020656Y0044107D01*
X0020776Y0044205D01*
X0020899Y0044299D01*
X0021023Y0044390D01*
X0021151Y0044478D01*
X0021280Y0044563D01*
X0021411Y0044644D01*
X0021545Y0044722D01*
X0021680Y0044796D01*
X0021817Y0044867D01*
X0021957Y0044934D01*
X0022097Y0044998D01*
X0022240Y0045058D01*
X0022383Y0045114D01*
X0022529Y0045167D01*
X0022675Y0045216D01*
X0022823Y0045261D01*
X0022972Y0045302D01*
X0023122Y0045340D01*
X0023273Y0045373D01*
X0023424Y0045403D01*
X0023577Y0045429D01*
X0023730Y0045450D01*
X0023883Y0045468D01*
X0024037Y0045482D01*
X0024191Y0045492D01*
X0024346Y0045498D01*
X0024500Y0045500D01*
X0024654Y0045498D01*
X0024809Y0045492D01*
X0024963Y0045482D01*
X0025117Y0045468D01*
X0025270Y0045450D01*
X0025423Y0045429D01*
X0025576Y0045403D01*
X0025727Y0045373D01*
X0025878Y0045340D01*
X0026028Y0045302D01*
X0026177Y0045261D01*
X0026325Y0045216D01*
X0026471Y0045167D01*
X0026617Y0045114D01*
X0026760Y0045058D01*
X0026903Y0044998D01*
X0027043Y0044934D01*
X0027183Y0044867D01*
X0027320Y0044796D01*
X0027455Y0044722D01*
X0027589Y0044644D01*
X0027720Y0044563D01*
X0027849Y0044478D01*
X0027977Y0044390D01*
X0028101Y0044299D01*
X0028224Y0044205D01*
X0028344Y0044107D01*
X0028461Y0044007D01*
X0028576Y0043903D01*
X0028688Y0043797D01*
X0028797Y0043688D01*
X0028903Y0043576D01*
X0029007Y0043461D01*
X0029107Y0043344D01*
X0029205Y0043224D01*
X0029299Y0043101D01*
X0029390Y0042977D01*
X0029478Y0042849D01*
X0029563Y0042720D01*
X0029644Y0042589D01*
X0029722Y0042455D01*
X0029796Y0042320D01*
X0029867Y0042183D01*
X0029934Y0042043D01*
X0029998Y0041903D01*
X0030058Y0041760D01*
X0030114Y0041617D01*
X0030167Y0041471D01*
X0030216Y0041325D01*
X0030261Y0041177D01*
X0030302Y0041028D01*
X0030340Y0040878D01*
X0030373Y0040727D01*
X0030403Y0040576D01*
X0030429Y0040423D01*
X0030450Y0040270D01*
X0030468Y0040117D01*
X0030482Y0039963D01*
X0030492Y0039809D01*
X0030498Y0039654D01*
X0030500Y0039500D01*
X0030498Y0039346D01*
X0030492Y0039191D01*
X0030482Y0039037D01*
X0030468Y0038883D01*
X0030450Y0038730D01*
X0030429Y0038577D01*
X0030403Y0038424D01*
X0030373Y0038273D01*
X0030340Y0038122D01*
X0030302Y0037972D01*
X0030261Y0037823D01*
X0030216Y0037675D01*
X0030167Y0037529D01*
X0030114Y0037383D01*
X0030058Y0037240D01*
X0029998Y0037097D01*
X0029934Y0036957D01*
X0029867Y0036817D01*
X0029796Y0036680D01*
X0029722Y0036545D01*
X0029644Y0036411D01*
X0029563Y0036280D01*
X0029478Y0036151D01*
X0029390Y0036023D01*
X0029299Y0035899D01*
X0029205Y0035776D01*
X0029107Y0035656D01*
X0029007Y0035539D01*
X0028903Y0035424D01*
X0028797Y0035312D01*
X0028688Y0035203D01*
X0028576Y0035097D01*
X0028461Y0034993D01*
X0028344Y0034893D01*
X0028224Y0034795D01*
X0028101Y0034701D01*
X0027977Y0034610D01*
X0027849Y0034522D01*
X0027720Y0034437D01*
X0027589Y0034356D01*
X0027455Y0034278D01*
X0027320Y0034204D01*
X0027183Y0034133D01*
X0027043Y0034066D01*
X0026903Y0034002D01*
X0026760Y0033942D01*
X0026617Y0033886D01*
X0026471Y0033833D01*
X0026325Y0033784D01*
X0026177Y0033739D01*
X0026028Y0033698D01*
X0025878Y0033660D01*
X0025727Y0033627D01*
X0025576Y0033597D01*
X0025423Y0033571D01*
X0025270Y0033550D01*
X0025117Y0033532D01*
X0024963Y0033518D01*
X0024809Y0033508D01*
X0024654Y0033502D01*
X0024500Y0033500D01*
X0024346Y0033502D01*
X0024191Y0033508D01*
X0024037Y0033518D01*
X0023883Y0033532D01*
X0023730Y0033550D01*
X0023577Y0033571D01*
X0023424Y0033597D01*
X0023273Y0033627D01*
X0023122Y0033660D01*
X0022972Y0033698D01*
X0022823Y0033739D01*
X0022675Y0033784D01*
X0022529Y0033833D01*
X0022383Y0033886D01*
X0022240Y0033942D01*
X0022097Y0034002D01*
X0021957Y0034066D01*
X0021817Y0034133D01*
X0021680Y0034204D01*
X0021545Y0034278D01*
X0021411Y0034356D01*
X0021280Y0034437D01*
X0021151Y0034522D01*
X0021023Y0034610D01*
X0020899Y0034701D01*
X0020776Y0034795D01*
X0020656Y0034893D01*
X0020539Y0034993D01*
X0020424Y0035097D01*
X0020312Y0035203D01*
X0020203Y0035312D01*
X0020097Y0035424D01*
X0019993Y0035539D01*
X0019893Y0035656D01*
X0019795Y0035776D01*
X0019701Y0035899D01*
X0019610Y0036023D01*
X0019522Y0036151D01*
X0019437Y0036280D01*
X0019356Y0036411D01*
X0019278Y0036545D01*
X0019204Y0036680D01*
X0019133Y0036817D01*
X0019066Y0036957D01*
X0019002Y0037097D01*
X0018942Y0037240D01*
X0018886Y0037383D01*
X0018833Y0037529D01*
X0018784Y0037675D01*
X0018739Y0037823D01*
X0018698Y0037972D01*
X0018660Y0038122D01*
X0018627Y0038273D01*
X0018597Y0038424D01*
X0018571Y0038577D01*
X0018550Y0038730D01*
X0018532Y0038883D01*
X0018518Y0039037D01*
X0018508Y0039191D01*
X0018502Y0039346D01*
X0018500Y0039500D01*
X0012000Y0119000D02*
X0012002Y0119141D01*
X0012008Y0119282D01*
X0012018Y0119422D01*
X0012032Y0119562D01*
X0012050Y0119702D01*
X0012071Y0119841D01*
X0012097Y0119980D01*
X0012126Y0120118D01*
X0012160Y0120254D01*
X0012197Y0120390D01*
X0012238Y0120525D01*
X0012283Y0120659D01*
X0012332Y0120791D01*
X0012384Y0120922D01*
X0012440Y0121051D01*
X0012500Y0121178D01*
X0012563Y0121304D01*
X0012629Y0121428D01*
X0012700Y0121551D01*
X0012773Y0121671D01*
X0012850Y0121789D01*
X0012930Y0121905D01*
X0013014Y0122018D01*
X0013100Y0122129D01*
X0013190Y0122238D01*
X0013283Y0122344D01*
X0013378Y0122447D01*
X0013477Y0122548D01*
X0013578Y0122646D01*
X0013682Y0122741D01*
X0013789Y0122833D01*
X0013898Y0122922D01*
X0014010Y0123007D01*
X0014124Y0123090D01*
X0014240Y0123170D01*
X0014359Y0123246D01*
X0014480Y0123318D01*
X0014602Y0123388D01*
X0014727Y0123453D01*
X0014853Y0123516D01*
X0014981Y0123574D01*
X0015111Y0123629D01*
X0015242Y0123681D01*
X0015375Y0123728D01*
X0015509Y0123772D01*
X0015644Y0123813D01*
X0015780Y0123849D01*
X0015917Y0123881D01*
X0016055Y0123910D01*
X0016193Y0123935D01*
X0016333Y0123955D01*
X0016473Y0123972D01*
X0016613Y0123985D01*
X0016754Y0123994D01*
X0016894Y0123999D01*
X0017035Y0124000D01*
X0017176Y0123997D01*
X0017317Y0123990D01*
X0017457Y0123979D01*
X0017597Y0123964D01*
X0017737Y0123945D01*
X0017876Y0123923D01*
X0018014Y0123896D01*
X0018152Y0123866D01*
X0018288Y0123831D01*
X0018424Y0123793D01*
X0018558Y0123751D01*
X0018692Y0123705D01*
X0018824Y0123656D01*
X0018954Y0123602D01*
X0019083Y0123545D01*
X0019210Y0123485D01*
X0019336Y0123421D01*
X0019459Y0123353D01*
X0019581Y0123282D01*
X0019701Y0123208D01*
X0019818Y0123130D01*
X0019933Y0123049D01*
X0020046Y0122965D01*
X0020157Y0122878D01*
X0020265Y0122787D01*
X0020370Y0122694D01*
X0020473Y0122597D01*
X0020573Y0122498D01*
X0020670Y0122396D01*
X0020764Y0122291D01*
X0020855Y0122184D01*
X0020943Y0122074D01*
X0021028Y0121962D01*
X0021110Y0121847D01*
X0021189Y0121730D01*
X0021264Y0121611D01*
X0021336Y0121490D01*
X0021404Y0121367D01*
X0021469Y0121242D01*
X0021531Y0121115D01*
X0021588Y0120986D01*
X0021643Y0120856D01*
X0021693Y0120725D01*
X0021740Y0120592D01*
X0021783Y0120458D01*
X0021822Y0120322D01*
X0021857Y0120186D01*
X0021889Y0120049D01*
X0021916Y0119911D01*
X0021940Y0119772D01*
X0021960Y0119632D01*
X0021976Y0119492D01*
X0021988Y0119352D01*
X0021996Y0119211D01*
X0022000Y0119070D01*
X0022000Y0118930D01*
X0021996Y0118789D01*
X0021988Y0118648D01*
X0021976Y0118508D01*
X0021960Y0118368D01*
X0021940Y0118228D01*
X0021916Y0118089D01*
X0021889Y0117951D01*
X0021857Y0117814D01*
X0021822Y0117678D01*
X0021783Y0117542D01*
X0021740Y0117408D01*
X0021693Y0117275D01*
X0021643Y0117144D01*
X0021588Y0117014D01*
X0021531Y0116885D01*
X0021469Y0116758D01*
X0021404Y0116633D01*
X0021336Y0116510D01*
X0021264Y0116389D01*
X0021189Y0116270D01*
X0021110Y0116153D01*
X0021028Y0116038D01*
X0020943Y0115926D01*
X0020855Y0115816D01*
X0020764Y0115709D01*
X0020670Y0115604D01*
X0020573Y0115502D01*
X0020473Y0115403D01*
X0020370Y0115306D01*
X0020265Y0115213D01*
X0020157Y0115122D01*
X0020046Y0115035D01*
X0019933Y0114951D01*
X0019818Y0114870D01*
X0019701Y0114792D01*
X0019581Y0114718D01*
X0019459Y0114647D01*
X0019336Y0114579D01*
X0019210Y0114515D01*
X0019083Y0114455D01*
X0018954Y0114398D01*
X0018824Y0114344D01*
X0018692Y0114295D01*
X0018558Y0114249D01*
X0018424Y0114207D01*
X0018288Y0114169D01*
X0018152Y0114134D01*
X0018014Y0114104D01*
X0017876Y0114077D01*
X0017737Y0114055D01*
X0017597Y0114036D01*
X0017457Y0114021D01*
X0017317Y0114010D01*
X0017176Y0114003D01*
X0017035Y0114000D01*
X0016894Y0114001D01*
X0016754Y0114006D01*
X0016613Y0114015D01*
X0016473Y0114028D01*
X0016333Y0114045D01*
X0016193Y0114065D01*
X0016055Y0114090D01*
X0015917Y0114119D01*
X0015780Y0114151D01*
X0015644Y0114187D01*
X0015509Y0114228D01*
X0015375Y0114272D01*
X0015242Y0114319D01*
X0015111Y0114371D01*
X0014981Y0114426D01*
X0014853Y0114484D01*
X0014727Y0114547D01*
X0014602Y0114612D01*
X0014480Y0114682D01*
X0014359Y0114754D01*
X0014240Y0114830D01*
X0014124Y0114910D01*
X0014010Y0114993D01*
X0013898Y0115078D01*
X0013789Y0115167D01*
X0013682Y0115259D01*
X0013578Y0115354D01*
X0013477Y0115452D01*
X0013378Y0115553D01*
X0013283Y0115656D01*
X0013190Y0115762D01*
X0013100Y0115871D01*
X0013014Y0115982D01*
X0012930Y0116095D01*
X0012850Y0116211D01*
X0012773Y0116329D01*
X0012700Y0116449D01*
X0012629Y0116572D01*
X0012563Y0116696D01*
X0012500Y0116822D01*
X0012440Y0116949D01*
X0012384Y0117078D01*
X0012332Y0117209D01*
X0012283Y0117341D01*
X0012238Y0117475D01*
X0012197Y0117610D01*
X0012160Y0117746D01*
X0012126Y0117882D01*
X0012097Y0118020D01*
X0012071Y0118159D01*
X0012050Y0118298D01*
X0012032Y0118438D01*
X0012018Y0118578D01*
X0012008Y0118718D01*
X0012002Y0118859D01*
X0012000Y0119000D01*
X0008600Y0152900D02*
X0008602Y0153051D01*
X0008608Y0153202D01*
X0008618Y0153353D01*
X0008632Y0153504D01*
X0008650Y0153654D01*
X0008671Y0153803D01*
X0008697Y0153952D01*
X0008727Y0154100D01*
X0008760Y0154248D01*
X0008798Y0154394D01*
X0008839Y0154540D01*
X0008884Y0154684D01*
X0008933Y0154827D01*
X0008985Y0154969D01*
X0009041Y0155109D01*
X0009101Y0155248D01*
X0009165Y0155385D01*
X0009232Y0155521D01*
X0009303Y0155654D01*
X0009377Y0155786D01*
X0009454Y0155916D01*
X0009535Y0156043D01*
X0009619Y0156169D01*
X0009707Y0156292D01*
X0009798Y0156413D01*
X0009892Y0156531D01*
X0009989Y0156647D01*
X0010089Y0156761D01*
X0010192Y0156871D01*
X0010298Y0156979D01*
X0010406Y0157084D01*
X0010518Y0157187D01*
X0010632Y0157286D01*
X0010748Y0157382D01*
X0010867Y0157475D01*
X0010989Y0157565D01*
X0011112Y0157652D01*
X0011238Y0157735D01*
X0011367Y0157815D01*
X0011497Y0157892D01*
X0011629Y0157965D01*
X0011763Y0158035D01*
X0011899Y0158101D01*
X0012037Y0158164D01*
X0012176Y0158223D01*
X0012316Y0158278D01*
X0012459Y0158330D01*
X0012602Y0158378D01*
X0012747Y0158422D01*
X0012892Y0158462D01*
X0013039Y0158499D01*
X0013187Y0158531D01*
X0013335Y0158560D01*
X0013484Y0158584D01*
X0013634Y0158605D01*
X0013784Y0158622D01*
X0013935Y0158635D01*
X0014086Y0158644D01*
X0014237Y0158649D01*
X0014388Y0158650D01*
X0014539Y0158647D01*
X0014690Y0158640D01*
X0014841Y0158629D01*
X0014991Y0158614D01*
X0015141Y0158595D01*
X0015291Y0158573D01*
X0015439Y0158546D01*
X0015587Y0158515D01*
X0015735Y0158481D01*
X0015881Y0158442D01*
X0016026Y0158400D01*
X0016170Y0158354D01*
X0016313Y0158305D01*
X0016454Y0158251D01*
X0016594Y0158194D01*
X0016732Y0158133D01*
X0016869Y0158069D01*
X0017004Y0158001D01*
X0017137Y0157929D01*
X0017269Y0157854D01*
X0017398Y0157776D01*
X0017525Y0157694D01*
X0017650Y0157609D01*
X0017772Y0157521D01*
X0017893Y0157429D01*
X0018011Y0157334D01*
X0018126Y0157237D01*
X0018239Y0157136D01*
X0018349Y0157032D01*
X0018456Y0156926D01*
X0018560Y0156816D01*
X0018662Y0156704D01*
X0018760Y0156590D01*
X0018856Y0156472D01*
X0018948Y0156353D01*
X0019037Y0156231D01*
X0019123Y0156106D01*
X0019206Y0155980D01*
X0019285Y0155851D01*
X0019361Y0155720D01*
X0019433Y0155588D01*
X0019502Y0155453D01*
X0019567Y0155317D01*
X0019629Y0155179D01*
X0019687Y0155039D01*
X0019742Y0154898D01*
X0019792Y0154756D01*
X0019839Y0154612D01*
X0019882Y0154467D01*
X0019922Y0154321D01*
X0019957Y0154174D01*
X0019989Y0154026D01*
X0020016Y0153878D01*
X0020040Y0153729D01*
X0020060Y0153579D01*
X0020076Y0153428D01*
X0020088Y0153278D01*
X0020096Y0153127D01*
X0020100Y0152976D01*
X0020100Y0152824D01*
X0020096Y0152673D01*
X0020088Y0152522D01*
X0020076Y0152372D01*
X0020060Y0152221D01*
X0020040Y0152071D01*
X0020016Y0151922D01*
X0019989Y0151774D01*
X0019957Y0151626D01*
X0019922Y0151479D01*
X0019882Y0151333D01*
X0019839Y0151188D01*
X0019792Y0151044D01*
X0019742Y0150902D01*
X0019687Y0150761D01*
X0019629Y0150621D01*
X0019567Y0150483D01*
X0019502Y0150347D01*
X0019433Y0150212D01*
X0019361Y0150080D01*
X0019285Y0149949D01*
X0019206Y0149820D01*
X0019123Y0149694D01*
X0019037Y0149569D01*
X0018948Y0149447D01*
X0018856Y0149328D01*
X0018760Y0149210D01*
X0018662Y0149096D01*
X0018560Y0148984D01*
X0018456Y0148874D01*
X0018349Y0148768D01*
X0018239Y0148664D01*
X0018126Y0148563D01*
X0018011Y0148466D01*
X0017893Y0148371D01*
X0017772Y0148279D01*
X0017650Y0148191D01*
X0017525Y0148106D01*
X0017398Y0148024D01*
X0017269Y0147946D01*
X0017137Y0147871D01*
X0017004Y0147799D01*
X0016869Y0147731D01*
X0016732Y0147667D01*
X0016594Y0147606D01*
X0016454Y0147549D01*
X0016313Y0147495D01*
X0016170Y0147446D01*
X0016026Y0147400D01*
X0015881Y0147358D01*
X0015735Y0147319D01*
X0015587Y0147285D01*
X0015439Y0147254D01*
X0015291Y0147227D01*
X0015141Y0147205D01*
X0014991Y0147186D01*
X0014841Y0147171D01*
X0014690Y0147160D01*
X0014539Y0147153D01*
X0014388Y0147150D01*
X0014237Y0147151D01*
X0014086Y0147156D01*
X0013935Y0147165D01*
X0013784Y0147178D01*
X0013634Y0147195D01*
X0013484Y0147216D01*
X0013335Y0147240D01*
X0013187Y0147269D01*
X0013039Y0147301D01*
X0012892Y0147338D01*
X0012747Y0147378D01*
X0012602Y0147422D01*
X0012459Y0147470D01*
X0012316Y0147522D01*
X0012176Y0147577D01*
X0012037Y0147636D01*
X0011899Y0147699D01*
X0011763Y0147765D01*
X0011629Y0147835D01*
X0011497Y0147908D01*
X0011367Y0147985D01*
X0011238Y0148065D01*
X0011112Y0148148D01*
X0010989Y0148235D01*
X0010867Y0148325D01*
X0010748Y0148418D01*
X0010632Y0148514D01*
X0010518Y0148613D01*
X0010406Y0148716D01*
X0010298Y0148821D01*
X0010192Y0148929D01*
X0010089Y0149039D01*
X0009989Y0149153D01*
X0009892Y0149269D01*
X0009798Y0149387D01*
X0009707Y0149508D01*
X0009619Y0149631D01*
X0009535Y0149757D01*
X0009454Y0149884D01*
X0009377Y0150014D01*
X0009303Y0150146D01*
X0009232Y0150279D01*
X0009165Y0150415D01*
X0009101Y0150552D01*
X0009041Y0150691D01*
X0008985Y0150831D01*
X0008933Y0150973D01*
X0008884Y0151116D01*
X0008839Y0151260D01*
X0008798Y0151406D01*
X0008760Y0151552D01*
X0008727Y0151700D01*
X0008697Y0151848D01*
X0008671Y0151997D01*
X0008650Y0152146D01*
X0008632Y0152296D01*
X0008618Y0152447D01*
X0008608Y0152598D01*
X0008602Y0152749D01*
X0008600Y0152900D01*
X0080000Y0119000D02*
X0080002Y0119141D01*
X0080008Y0119282D01*
X0080018Y0119422D01*
X0080032Y0119562D01*
X0080050Y0119702D01*
X0080071Y0119841D01*
X0080097Y0119980D01*
X0080126Y0120118D01*
X0080160Y0120254D01*
X0080197Y0120390D01*
X0080238Y0120525D01*
X0080283Y0120659D01*
X0080332Y0120791D01*
X0080384Y0120922D01*
X0080440Y0121051D01*
X0080500Y0121178D01*
X0080563Y0121304D01*
X0080629Y0121428D01*
X0080700Y0121551D01*
X0080773Y0121671D01*
X0080850Y0121789D01*
X0080930Y0121905D01*
X0081014Y0122018D01*
X0081100Y0122129D01*
X0081190Y0122238D01*
X0081283Y0122344D01*
X0081378Y0122447D01*
X0081477Y0122548D01*
X0081578Y0122646D01*
X0081682Y0122741D01*
X0081789Y0122833D01*
X0081898Y0122922D01*
X0082010Y0123007D01*
X0082124Y0123090D01*
X0082240Y0123170D01*
X0082359Y0123246D01*
X0082480Y0123318D01*
X0082602Y0123388D01*
X0082727Y0123453D01*
X0082853Y0123516D01*
X0082981Y0123574D01*
X0083111Y0123629D01*
X0083242Y0123681D01*
X0083375Y0123728D01*
X0083509Y0123772D01*
X0083644Y0123813D01*
X0083780Y0123849D01*
X0083917Y0123881D01*
X0084055Y0123910D01*
X0084193Y0123935D01*
X0084333Y0123955D01*
X0084473Y0123972D01*
X0084613Y0123985D01*
X0084754Y0123994D01*
X0084894Y0123999D01*
X0085035Y0124000D01*
X0085176Y0123997D01*
X0085317Y0123990D01*
X0085457Y0123979D01*
X0085597Y0123964D01*
X0085737Y0123945D01*
X0085876Y0123923D01*
X0086014Y0123896D01*
X0086152Y0123866D01*
X0086288Y0123831D01*
X0086424Y0123793D01*
X0086558Y0123751D01*
X0086692Y0123705D01*
X0086824Y0123656D01*
X0086954Y0123602D01*
X0087083Y0123545D01*
X0087210Y0123485D01*
X0087336Y0123421D01*
X0087459Y0123353D01*
X0087581Y0123282D01*
X0087701Y0123208D01*
X0087818Y0123130D01*
X0087933Y0123049D01*
X0088046Y0122965D01*
X0088157Y0122878D01*
X0088265Y0122787D01*
X0088370Y0122694D01*
X0088473Y0122597D01*
X0088573Y0122498D01*
X0088670Y0122396D01*
X0088764Y0122291D01*
X0088855Y0122184D01*
X0088943Y0122074D01*
X0089028Y0121962D01*
X0089110Y0121847D01*
X0089189Y0121730D01*
X0089264Y0121611D01*
X0089336Y0121490D01*
X0089404Y0121367D01*
X0089469Y0121242D01*
X0089531Y0121115D01*
X0089588Y0120986D01*
X0089643Y0120856D01*
X0089693Y0120725D01*
X0089740Y0120592D01*
X0089783Y0120458D01*
X0089822Y0120322D01*
X0089857Y0120186D01*
X0089889Y0120049D01*
X0089916Y0119911D01*
X0089940Y0119772D01*
X0089960Y0119632D01*
X0089976Y0119492D01*
X0089988Y0119352D01*
X0089996Y0119211D01*
X0090000Y0119070D01*
X0090000Y0118930D01*
X0089996Y0118789D01*
X0089988Y0118648D01*
X0089976Y0118508D01*
X0089960Y0118368D01*
X0089940Y0118228D01*
X0089916Y0118089D01*
X0089889Y0117951D01*
X0089857Y0117814D01*
X0089822Y0117678D01*
X0089783Y0117542D01*
X0089740Y0117408D01*
X0089693Y0117275D01*
X0089643Y0117144D01*
X0089588Y0117014D01*
X0089531Y0116885D01*
X0089469Y0116758D01*
X0089404Y0116633D01*
X0089336Y0116510D01*
X0089264Y0116389D01*
X0089189Y0116270D01*
X0089110Y0116153D01*
X0089028Y0116038D01*
X0088943Y0115926D01*
X0088855Y0115816D01*
X0088764Y0115709D01*
X0088670Y0115604D01*
X0088573Y0115502D01*
X0088473Y0115403D01*
X0088370Y0115306D01*
X0088265Y0115213D01*
X0088157Y0115122D01*
X0088046Y0115035D01*
X0087933Y0114951D01*
X0087818Y0114870D01*
X0087701Y0114792D01*
X0087581Y0114718D01*
X0087459Y0114647D01*
X0087336Y0114579D01*
X0087210Y0114515D01*
X0087083Y0114455D01*
X0086954Y0114398D01*
X0086824Y0114344D01*
X0086692Y0114295D01*
X0086558Y0114249D01*
X0086424Y0114207D01*
X0086288Y0114169D01*
X0086152Y0114134D01*
X0086014Y0114104D01*
X0085876Y0114077D01*
X0085737Y0114055D01*
X0085597Y0114036D01*
X0085457Y0114021D01*
X0085317Y0114010D01*
X0085176Y0114003D01*
X0085035Y0114000D01*
X0084894Y0114001D01*
X0084754Y0114006D01*
X0084613Y0114015D01*
X0084473Y0114028D01*
X0084333Y0114045D01*
X0084193Y0114065D01*
X0084055Y0114090D01*
X0083917Y0114119D01*
X0083780Y0114151D01*
X0083644Y0114187D01*
X0083509Y0114228D01*
X0083375Y0114272D01*
X0083242Y0114319D01*
X0083111Y0114371D01*
X0082981Y0114426D01*
X0082853Y0114484D01*
X0082727Y0114547D01*
X0082602Y0114612D01*
X0082480Y0114682D01*
X0082359Y0114754D01*
X0082240Y0114830D01*
X0082124Y0114910D01*
X0082010Y0114993D01*
X0081898Y0115078D01*
X0081789Y0115167D01*
X0081682Y0115259D01*
X0081578Y0115354D01*
X0081477Y0115452D01*
X0081378Y0115553D01*
X0081283Y0115656D01*
X0081190Y0115762D01*
X0081100Y0115871D01*
X0081014Y0115982D01*
X0080930Y0116095D01*
X0080850Y0116211D01*
X0080773Y0116329D01*
X0080700Y0116449D01*
X0080629Y0116572D01*
X0080563Y0116696D01*
X0080500Y0116822D01*
X0080440Y0116949D01*
X0080384Y0117078D01*
X0080332Y0117209D01*
X0080283Y0117341D01*
X0080238Y0117475D01*
X0080197Y0117610D01*
X0080160Y0117746D01*
X0080126Y0117882D01*
X0080097Y0118020D01*
X0080071Y0118159D01*
X0080050Y0118298D01*
X0080032Y0118438D01*
X0080018Y0118578D01*
X0080008Y0118718D01*
X0080002Y0118859D01*
X0080000Y0119000D01*
X0083425Y0152900D02*
X0083432Y0153437D01*
X0083451Y0153973D01*
X0083484Y0154509D01*
X0083530Y0155044D01*
X0083590Y0155578D01*
X0083662Y0156110D01*
X0083747Y0156640D01*
X0083845Y0157168D01*
X0083957Y0157693D01*
X0084081Y0158215D01*
X0084217Y0158734D01*
X0084367Y0159250D01*
X0084529Y0159762D01*
X0084704Y0160269D01*
X0084891Y0160773D01*
X0085090Y0161271D01*
X0085302Y0161765D01*
X0085525Y0162253D01*
X0085761Y0162735D01*
X0086008Y0163212D01*
X0086267Y0163682D01*
X0086537Y0164146D01*
X0086819Y0164603D01*
X0087112Y0165053D01*
X0087415Y0165496D01*
X0087730Y0165931D01*
X0088055Y0166358D01*
X0088390Y0166777D01*
X0088736Y0167188D01*
X0089092Y0167590D01*
X0089457Y0167984D01*
X0089832Y0168368D01*
X0090216Y0168743D01*
X0090610Y0169108D01*
X0091012Y0169464D01*
X0091423Y0169810D01*
X0091842Y0170145D01*
X0092269Y0170470D01*
X0092704Y0170785D01*
X0093147Y0171088D01*
X0093597Y0171381D01*
X0094054Y0171663D01*
X0094518Y0171933D01*
X0094988Y0172192D01*
X0095465Y0172439D01*
X0095947Y0172675D01*
X0096435Y0172898D01*
X0096929Y0173110D01*
X0097427Y0173309D01*
X0097931Y0173496D01*
X0098438Y0173671D01*
X0098950Y0173833D01*
X0099466Y0173983D01*
X0099985Y0174119D01*
X0100507Y0174243D01*
X0101032Y0174355D01*
X0101560Y0174453D01*
X0102090Y0174538D01*
X0102622Y0174610D01*
X0103156Y0174670D01*
X0103691Y0174716D01*
X0104227Y0174749D01*
X0104763Y0174768D01*
X0105300Y0174775D01*
X0105837Y0174768D01*
X0106373Y0174749D01*
X0106909Y0174716D01*
X0107444Y0174670D01*
X0107978Y0174610D01*
X0108510Y0174538D01*
X0109040Y0174453D01*
X0109568Y0174355D01*
X0110093Y0174243D01*
X0110615Y0174119D01*
X0111134Y0173983D01*
X0111650Y0173833D01*
X0112162Y0173671D01*
X0112669Y0173496D01*
X0113173Y0173309D01*
X0113671Y0173110D01*
X0114165Y0172898D01*
X0114653Y0172675D01*
X0115135Y0172439D01*
X0115612Y0172192D01*
X0116082Y0171933D01*
X0116546Y0171663D01*
X0117003Y0171381D01*
X0117453Y0171088D01*
X0117896Y0170785D01*
X0118331Y0170470D01*
X0118758Y0170145D01*
X0119177Y0169810D01*
X0119588Y0169464D01*
X0119990Y0169108D01*
X0120384Y0168743D01*
X0120768Y0168368D01*
X0121143Y0167984D01*
X0121508Y0167590D01*
X0121864Y0167188D01*
X0122210Y0166777D01*
X0122545Y0166358D01*
X0122870Y0165931D01*
X0123185Y0165496D01*
X0123488Y0165053D01*
X0123781Y0164603D01*
X0124063Y0164146D01*
X0124333Y0163682D01*
X0124592Y0163212D01*
X0124839Y0162735D01*
X0125075Y0162253D01*
X0125298Y0161765D01*
X0125510Y0161271D01*
X0125709Y0160773D01*
X0125896Y0160269D01*
X0126071Y0159762D01*
X0126233Y0159250D01*
X0126383Y0158734D01*
X0126519Y0158215D01*
X0126643Y0157693D01*
X0126755Y0157168D01*
X0126853Y0156640D01*
X0126938Y0156110D01*
X0127010Y0155578D01*
X0127070Y0155044D01*
X0127116Y0154509D01*
X0127149Y0153973D01*
X0127168Y0153437D01*
X0127175Y0152900D01*
X0127168Y0152363D01*
X0127149Y0151827D01*
X0127116Y0151291D01*
X0127070Y0150756D01*
X0127010Y0150222D01*
X0126938Y0149690D01*
X0126853Y0149160D01*
X0126755Y0148632D01*
X0126643Y0148107D01*
X0126519Y0147585D01*
X0126383Y0147066D01*
X0126233Y0146550D01*
X0126071Y0146038D01*
X0125896Y0145531D01*
X0125709Y0145027D01*
X0125510Y0144529D01*
X0125298Y0144035D01*
X0125075Y0143547D01*
X0124839Y0143065D01*
X0124592Y0142588D01*
X0124333Y0142118D01*
X0124063Y0141654D01*
X0123781Y0141197D01*
X0123488Y0140747D01*
X0123185Y0140304D01*
X0122870Y0139869D01*
X0122545Y0139442D01*
X0122210Y0139023D01*
X0121864Y0138612D01*
X0121508Y0138210D01*
X0121143Y0137816D01*
X0120768Y0137432D01*
X0120384Y0137057D01*
X0119990Y0136692D01*
X0119588Y0136336D01*
X0119177Y0135990D01*
X0118758Y0135655D01*
X0118331Y0135330D01*
X0117896Y0135015D01*
X0117453Y0134712D01*
X0117003Y0134419D01*
X0116546Y0134137D01*
X0116082Y0133867D01*
X0115612Y0133608D01*
X0115135Y0133361D01*
X0114653Y0133125D01*
X0114165Y0132902D01*
X0113671Y0132690D01*
X0113173Y0132491D01*
X0112669Y0132304D01*
X0112162Y0132129D01*
X0111650Y0131967D01*
X0111134Y0131817D01*
X0110615Y0131681D01*
X0110093Y0131557D01*
X0109568Y0131445D01*
X0109040Y0131347D01*
X0108510Y0131262D01*
X0107978Y0131190D01*
X0107444Y0131130D01*
X0106909Y0131084D01*
X0106373Y0131051D01*
X0105837Y0131032D01*
X0105300Y0131025D01*
X0104763Y0131032D01*
X0104227Y0131051D01*
X0103691Y0131084D01*
X0103156Y0131130D01*
X0102622Y0131190D01*
X0102090Y0131262D01*
X0101560Y0131347D01*
X0101032Y0131445D01*
X0100507Y0131557D01*
X0099985Y0131681D01*
X0099466Y0131817D01*
X0098950Y0131967D01*
X0098438Y0132129D01*
X0097931Y0132304D01*
X0097427Y0132491D01*
X0096929Y0132690D01*
X0096435Y0132902D01*
X0095947Y0133125D01*
X0095465Y0133361D01*
X0094988Y0133608D01*
X0094518Y0133867D01*
X0094054Y0134137D01*
X0093597Y0134419D01*
X0093147Y0134712D01*
X0092704Y0135015D01*
X0092269Y0135330D01*
X0091842Y0135655D01*
X0091423Y0135990D01*
X0091012Y0136336D01*
X0090610Y0136692D01*
X0090216Y0137057D01*
X0089832Y0137432D01*
X0089457Y0137816D01*
X0089092Y0138210D01*
X0088736Y0138612D01*
X0088390Y0139023D01*
X0088055Y0139442D01*
X0087730Y0139869D01*
X0087415Y0140304D01*
X0087112Y0140747D01*
X0086819Y0141197D01*
X0086537Y0141654D01*
X0086267Y0142118D01*
X0086008Y0142588D01*
X0085761Y0143065D01*
X0085525Y0143547D01*
X0085302Y0144035D01*
X0085090Y0144529D01*
X0084891Y0145027D01*
X0084704Y0145531D01*
X0084529Y0146038D01*
X0084367Y0146550D01*
X0084217Y0147066D01*
X0084081Y0147585D01*
X0083957Y0148107D01*
X0083845Y0148632D01*
X0083747Y0149160D01*
X0083662Y0149690D01*
X0083590Y0150222D01*
X0083530Y0150756D01*
X0083484Y0151291D01*
X0083451Y0151827D01*
X0083432Y0152363D01*
X0083425Y0152900D01*
X0120000Y0119000D02*
X0120002Y0119141D01*
X0120008Y0119282D01*
X0120018Y0119422D01*
X0120032Y0119562D01*
X0120050Y0119702D01*
X0120071Y0119841D01*
X0120097Y0119980D01*
X0120126Y0120118D01*
X0120160Y0120254D01*
X0120197Y0120390D01*
X0120238Y0120525D01*
X0120283Y0120659D01*
X0120332Y0120791D01*
X0120384Y0120922D01*
X0120440Y0121051D01*
X0120500Y0121178D01*
X0120563Y0121304D01*
X0120629Y0121428D01*
X0120700Y0121551D01*
X0120773Y0121671D01*
X0120850Y0121789D01*
X0120930Y0121905D01*
X0121014Y0122018D01*
X0121100Y0122129D01*
X0121190Y0122238D01*
X0121283Y0122344D01*
X0121378Y0122447D01*
X0121477Y0122548D01*
X0121578Y0122646D01*
X0121682Y0122741D01*
X0121789Y0122833D01*
X0121898Y0122922D01*
X0122010Y0123007D01*
X0122124Y0123090D01*
X0122240Y0123170D01*
X0122359Y0123246D01*
X0122480Y0123318D01*
X0122602Y0123388D01*
X0122727Y0123453D01*
X0122853Y0123516D01*
X0122981Y0123574D01*
X0123111Y0123629D01*
X0123242Y0123681D01*
X0123375Y0123728D01*
X0123509Y0123772D01*
X0123644Y0123813D01*
X0123780Y0123849D01*
X0123917Y0123881D01*
X0124055Y0123910D01*
X0124193Y0123935D01*
X0124333Y0123955D01*
X0124473Y0123972D01*
X0124613Y0123985D01*
X0124754Y0123994D01*
X0124894Y0123999D01*
X0125035Y0124000D01*
X0125176Y0123997D01*
X0125317Y0123990D01*
X0125457Y0123979D01*
X0125597Y0123964D01*
X0125737Y0123945D01*
X0125876Y0123923D01*
X0126014Y0123896D01*
X0126152Y0123866D01*
X0126288Y0123831D01*
X0126424Y0123793D01*
X0126558Y0123751D01*
X0126692Y0123705D01*
X0126824Y0123656D01*
X0126954Y0123602D01*
X0127083Y0123545D01*
X0127210Y0123485D01*
X0127336Y0123421D01*
X0127459Y0123353D01*
X0127581Y0123282D01*
X0127701Y0123208D01*
X0127818Y0123130D01*
X0127933Y0123049D01*
X0128046Y0122965D01*
X0128157Y0122878D01*
X0128265Y0122787D01*
X0128370Y0122694D01*
X0128473Y0122597D01*
X0128573Y0122498D01*
X0128670Y0122396D01*
X0128764Y0122291D01*
X0128855Y0122184D01*
X0128943Y0122074D01*
X0129028Y0121962D01*
X0129110Y0121847D01*
X0129189Y0121730D01*
X0129264Y0121611D01*
X0129336Y0121490D01*
X0129404Y0121367D01*
X0129469Y0121242D01*
X0129531Y0121115D01*
X0129588Y0120986D01*
X0129643Y0120856D01*
X0129693Y0120725D01*
X0129740Y0120592D01*
X0129783Y0120458D01*
X0129822Y0120322D01*
X0129857Y0120186D01*
X0129889Y0120049D01*
X0129916Y0119911D01*
X0129940Y0119772D01*
X0129960Y0119632D01*
X0129976Y0119492D01*
X0129988Y0119352D01*
X0129996Y0119211D01*
X0130000Y0119070D01*
X0130000Y0118930D01*
X0129996Y0118789D01*
X0129988Y0118648D01*
X0129976Y0118508D01*
X0129960Y0118368D01*
X0129940Y0118228D01*
X0129916Y0118089D01*
X0129889Y0117951D01*
X0129857Y0117814D01*
X0129822Y0117678D01*
X0129783Y0117542D01*
X0129740Y0117408D01*
X0129693Y0117275D01*
X0129643Y0117144D01*
X0129588Y0117014D01*
X0129531Y0116885D01*
X0129469Y0116758D01*
X0129404Y0116633D01*
X0129336Y0116510D01*
X0129264Y0116389D01*
X0129189Y0116270D01*
X0129110Y0116153D01*
X0129028Y0116038D01*
X0128943Y0115926D01*
X0128855Y0115816D01*
X0128764Y0115709D01*
X0128670Y0115604D01*
X0128573Y0115502D01*
X0128473Y0115403D01*
X0128370Y0115306D01*
X0128265Y0115213D01*
X0128157Y0115122D01*
X0128046Y0115035D01*
X0127933Y0114951D01*
X0127818Y0114870D01*
X0127701Y0114792D01*
X0127581Y0114718D01*
X0127459Y0114647D01*
X0127336Y0114579D01*
X0127210Y0114515D01*
X0127083Y0114455D01*
X0126954Y0114398D01*
X0126824Y0114344D01*
X0126692Y0114295D01*
X0126558Y0114249D01*
X0126424Y0114207D01*
X0126288Y0114169D01*
X0126152Y0114134D01*
X0126014Y0114104D01*
X0125876Y0114077D01*
X0125737Y0114055D01*
X0125597Y0114036D01*
X0125457Y0114021D01*
X0125317Y0114010D01*
X0125176Y0114003D01*
X0125035Y0114000D01*
X0124894Y0114001D01*
X0124754Y0114006D01*
X0124613Y0114015D01*
X0124473Y0114028D01*
X0124333Y0114045D01*
X0124193Y0114065D01*
X0124055Y0114090D01*
X0123917Y0114119D01*
X0123780Y0114151D01*
X0123644Y0114187D01*
X0123509Y0114228D01*
X0123375Y0114272D01*
X0123242Y0114319D01*
X0123111Y0114371D01*
X0122981Y0114426D01*
X0122853Y0114484D01*
X0122727Y0114547D01*
X0122602Y0114612D01*
X0122480Y0114682D01*
X0122359Y0114754D01*
X0122240Y0114830D01*
X0122124Y0114910D01*
X0122010Y0114993D01*
X0121898Y0115078D01*
X0121789Y0115167D01*
X0121682Y0115259D01*
X0121578Y0115354D01*
X0121477Y0115452D01*
X0121378Y0115553D01*
X0121283Y0115656D01*
X0121190Y0115762D01*
X0121100Y0115871D01*
X0121014Y0115982D01*
X0120930Y0116095D01*
X0120850Y0116211D01*
X0120773Y0116329D01*
X0120700Y0116449D01*
X0120629Y0116572D01*
X0120563Y0116696D01*
X0120500Y0116822D01*
X0120440Y0116949D01*
X0120384Y0117078D01*
X0120332Y0117209D01*
X0120283Y0117341D01*
X0120238Y0117475D01*
X0120197Y0117610D01*
X0120160Y0117746D01*
X0120126Y0117882D01*
X0120097Y0118020D01*
X0120071Y0118159D01*
X0120050Y0118298D01*
X0120032Y0118438D01*
X0120018Y0118578D01*
X0120008Y0118718D01*
X0120002Y0118859D01*
X0120000Y0119000D01*
X0190000Y0119000D02*
X0190002Y0119141D01*
X0190008Y0119282D01*
X0190018Y0119422D01*
X0190032Y0119562D01*
X0190050Y0119702D01*
X0190071Y0119841D01*
X0190097Y0119980D01*
X0190126Y0120118D01*
X0190160Y0120254D01*
X0190197Y0120390D01*
X0190238Y0120525D01*
X0190283Y0120659D01*
X0190332Y0120791D01*
X0190384Y0120922D01*
X0190440Y0121051D01*
X0190500Y0121178D01*
X0190563Y0121304D01*
X0190629Y0121428D01*
X0190700Y0121551D01*
X0190773Y0121671D01*
X0190850Y0121789D01*
X0190930Y0121905D01*
X0191014Y0122018D01*
X0191100Y0122129D01*
X0191190Y0122238D01*
X0191283Y0122344D01*
X0191378Y0122447D01*
X0191477Y0122548D01*
X0191578Y0122646D01*
X0191682Y0122741D01*
X0191789Y0122833D01*
X0191898Y0122922D01*
X0192010Y0123007D01*
X0192124Y0123090D01*
X0192240Y0123170D01*
X0192359Y0123246D01*
X0192480Y0123318D01*
X0192602Y0123388D01*
X0192727Y0123453D01*
X0192853Y0123516D01*
X0192981Y0123574D01*
X0193111Y0123629D01*
X0193242Y0123681D01*
X0193375Y0123728D01*
X0193509Y0123772D01*
X0193644Y0123813D01*
X0193780Y0123849D01*
X0193917Y0123881D01*
X0194055Y0123910D01*
X0194193Y0123935D01*
X0194333Y0123955D01*
X0194473Y0123972D01*
X0194613Y0123985D01*
X0194754Y0123994D01*
X0194894Y0123999D01*
X0195035Y0124000D01*
X0195176Y0123997D01*
X0195317Y0123990D01*
X0195457Y0123979D01*
X0195597Y0123964D01*
X0195737Y0123945D01*
X0195876Y0123923D01*
X0196014Y0123896D01*
X0196152Y0123866D01*
X0196288Y0123831D01*
X0196424Y0123793D01*
X0196558Y0123751D01*
X0196692Y0123705D01*
X0196824Y0123656D01*
X0196954Y0123602D01*
X0197083Y0123545D01*
X0197210Y0123485D01*
X0197336Y0123421D01*
X0197459Y0123353D01*
X0197581Y0123282D01*
X0197701Y0123208D01*
X0197818Y0123130D01*
X0197933Y0123049D01*
X0198046Y0122965D01*
X0198157Y0122878D01*
X0198265Y0122787D01*
X0198370Y0122694D01*
X0198473Y0122597D01*
X0198573Y0122498D01*
X0198670Y0122396D01*
X0198764Y0122291D01*
X0198855Y0122184D01*
X0198943Y0122074D01*
X0199028Y0121962D01*
X0199110Y0121847D01*
X0199189Y0121730D01*
X0199264Y0121611D01*
X0199336Y0121490D01*
X0199404Y0121367D01*
X0199469Y0121242D01*
X0199531Y0121115D01*
X0199588Y0120986D01*
X0199643Y0120856D01*
X0199693Y0120725D01*
X0199740Y0120592D01*
X0199783Y0120458D01*
X0199822Y0120322D01*
X0199857Y0120186D01*
X0199889Y0120049D01*
X0199916Y0119911D01*
X0199940Y0119772D01*
X0199960Y0119632D01*
X0199976Y0119492D01*
X0199988Y0119352D01*
X0199996Y0119211D01*
X0200000Y0119070D01*
X0200000Y0118930D01*
X0199996Y0118789D01*
X0199988Y0118648D01*
X0199976Y0118508D01*
X0199960Y0118368D01*
X0199940Y0118228D01*
X0199916Y0118089D01*
X0199889Y0117951D01*
X0199857Y0117814D01*
X0199822Y0117678D01*
X0199783Y0117542D01*
X0199740Y0117408D01*
X0199693Y0117275D01*
X0199643Y0117144D01*
X0199588Y0117014D01*
X0199531Y0116885D01*
X0199469Y0116758D01*
X0199404Y0116633D01*
X0199336Y0116510D01*
X0199264Y0116389D01*
X0199189Y0116270D01*
X0199110Y0116153D01*
X0199028Y0116038D01*
X0198943Y0115926D01*
X0198855Y0115816D01*
X0198764Y0115709D01*
X0198670Y0115604D01*
X0198573Y0115502D01*
X0198473Y0115403D01*
X0198370Y0115306D01*
X0198265Y0115213D01*
X0198157Y0115122D01*
X0198046Y0115035D01*
X0197933Y0114951D01*
X0197818Y0114870D01*
X0197701Y0114792D01*
X0197581Y0114718D01*
X0197459Y0114647D01*
X0197336Y0114579D01*
X0197210Y0114515D01*
X0197083Y0114455D01*
X0196954Y0114398D01*
X0196824Y0114344D01*
X0196692Y0114295D01*
X0196558Y0114249D01*
X0196424Y0114207D01*
X0196288Y0114169D01*
X0196152Y0114134D01*
X0196014Y0114104D01*
X0195876Y0114077D01*
X0195737Y0114055D01*
X0195597Y0114036D01*
X0195457Y0114021D01*
X0195317Y0114010D01*
X0195176Y0114003D01*
X0195035Y0114000D01*
X0194894Y0114001D01*
X0194754Y0114006D01*
X0194613Y0114015D01*
X0194473Y0114028D01*
X0194333Y0114045D01*
X0194193Y0114065D01*
X0194055Y0114090D01*
X0193917Y0114119D01*
X0193780Y0114151D01*
X0193644Y0114187D01*
X0193509Y0114228D01*
X0193375Y0114272D01*
X0193242Y0114319D01*
X0193111Y0114371D01*
X0192981Y0114426D01*
X0192853Y0114484D01*
X0192727Y0114547D01*
X0192602Y0114612D01*
X0192480Y0114682D01*
X0192359Y0114754D01*
X0192240Y0114830D01*
X0192124Y0114910D01*
X0192010Y0114993D01*
X0191898Y0115078D01*
X0191789Y0115167D01*
X0191682Y0115259D01*
X0191578Y0115354D01*
X0191477Y0115452D01*
X0191378Y0115553D01*
X0191283Y0115656D01*
X0191190Y0115762D01*
X0191100Y0115871D01*
X0191014Y0115982D01*
X0190930Y0116095D01*
X0190850Y0116211D01*
X0190773Y0116329D01*
X0190700Y0116449D01*
X0190629Y0116572D01*
X0190563Y0116696D01*
X0190500Y0116822D01*
X0190440Y0116949D01*
X0190384Y0117078D01*
X0190332Y0117209D01*
X0190283Y0117341D01*
X0190238Y0117475D01*
X0190197Y0117610D01*
X0190160Y0117746D01*
X0190126Y0117882D01*
X0190097Y0118020D01*
X0190071Y0118159D01*
X0190050Y0118298D01*
X0190032Y0118438D01*
X0190018Y0118578D01*
X0190008Y0118718D01*
X0190002Y0118859D01*
X0190000Y0119000D01*
X0204000Y0138000D02*
X0204002Y0138141D01*
X0204008Y0138282D01*
X0204018Y0138422D01*
X0204032Y0138562D01*
X0204050Y0138702D01*
X0204071Y0138841D01*
X0204097Y0138980D01*
X0204126Y0139118D01*
X0204160Y0139254D01*
X0204197Y0139390D01*
X0204238Y0139525D01*
X0204283Y0139659D01*
X0204332Y0139791D01*
X0204384Y0139922D01*
X0204440Y0140051D01*
X0204500Y0140178D01*
X0204563Y0140304D01*
X0204629Y0140428D01*
X0204700Y0140551D01*
X0204773Y0140671D01*
X0204850Y0140789D01*
X0204930Y0140905D01*
X0205014Y0141018D01*
X0205100Y0141129D01*
X0205190Y0141238D01*
X0205283Y0141344D01*
X0205378Y0141447D01*
X0205477Y0141548D01*
X0205578Y0141646D01*
X0205682Y0141741D01*
X0205789Y0141833D01*
X0205898Y0141922D01*
X0206010Y0142007D01*
X0206124Y0142090D01*
X0206240Y0142170D01*
X0206359Y0142246D01*
X0206480Y0142318D01*
X0206602Y0142388D01*
X0206727Y0142453D01*
X0206853Y0142516D01*
X0206981Y0142574D01*
X0207111Y0142629D01*
X0207242Y0142681D01*
X0207375Y0142728D01*
X0207509Y0142772D01*
X0207644Y0142813D01*
X0207780Y0142849D01*
X0207917Y0142881D01*
X0208055Y0142910D01*
X0208193Y0142935D01*
X0208333Y0142955D01*
X0208473Y0142972D01*
X0208613Y0142985D01*
X0208754Y0142994D01*
X0208894Y0142999D01*
X0209035Y0143000D01*
X0209176Y0142997D01*
X0209317Y0142990D01*
X0209457Y0142979D01*
X0209597Y0142964D01*
X0209737Y0142945D01*
X0209876Y0142923D01*
X0210014Y0142896D01*
X0210152Y0142866D01*
X0210288Y0142831D01*
X0210424Y0142793D01*
X0210558Y0142751D01*
X0210692Y0142705D01*
X0210824Y0142656D01*
X0210954Y0142602D01*
X0211083Y0142545D01*
X0211210Y0142485D01*
X0211336Y0142421D01*
X0211459Y0142353D01*
X0211581Y0142282D01*
X0211701Y0142208D01*
X0211818Y0142130D01*
X0211933Y0142049D01*
X0212046Y0141965D01*
X0212157Y0141878D01*
X0212265Y0141787D01*
X0212370Y0141694D01*
X0212473Y0141597D01*
X0212573Y0141498D01*
X0212670Y0141396D01*
X0212764Y0141291D01*
X0212855Y0141184D01*
X0212943Y0141074D01*
X0213028Y0140962D01*
X0213110Y0140847D01*
X0213189Y0140730D01*
X0213264Y0140611D01*
X0213336Y0140490D01*
X0213404Y0140367D01*
X0213469Y0140242D01*
X0213531Y0140115D01*
X0213588Y0139986D01*
X0213643Y0139856D01*
X0213693Y0139725D01*
X0213740Y0139592D01*
X0213783Y0139458D01*
X0213822Y0139322D01*
X0213857Y0139186D01*
X0213889Y0139049D01*
X0213916Y0138911D01*
X0213940Y0138772D01*
X0213960Y0138632D01*
X0213976Y0138492D01*
X0213988Y0138352D01*
X0213996Y0138211D01*
X0214000Y0138070D01*
X0214000Y0137930D01*
X0213996Y0137789D01*
X0213988Y0137648D01*
X0213976Y0137508D01*
X0213960Y0137368D01*
X0213940Y0137228D01*
X0213916Y0137089D01*
X0213889Y0136951D01*
X0213857Y0136814D01*
X0213822Y0136678D01*
X0213783Y0136542D01*
X0213740Y0136408D01*
X0213693Y0136275D01*
X0213643Y0136144D01*
X0213588Y0136014D01*
X0213531Y0135885D01*
X0213469Y0135758D01*
X0213404Y0135633D01*
X0213336Y0135510D01*
X0213264Y0135389D01*
X0213189Y0135270D01*
X0213110Y0135153D01*
X0213028Y0135038D01*
X0212943Y0134926D01*
X0212855Y0134816D01*
X0212764Y0134709D01*
X0212670Y0134604D01*
X0212573Y0134502D01*
X0212473Y0134403D01*
X0212370Y0134306D01*
X0212265Y0134213D01*
X0212157Y0134122D01*
X0212046Y0134035D01*
X0211933Y0133951D01*
X0211818Y0133870D01*
X0211701Y0133792D01*
X0211581Y0133718D01*
X0211459Y0133647D01*
X0211336Y0133579D01*
X0211210Y0133515D01*
X0211083Y0133455D01*
X0210954Y0133398D01*
X0210824Y0133344D01*
X0210692Y0133295D01*
X0210558Y0133249D01*
X0210424Y0133207D01*
X0210288Y0133169D01*
X0210152Y0133134D01*
X0210014Y0133104D01*
X0209876Y0133077D01*
X0209737Y0133055D01*
X0209597Y0133036D01*
X0209457Y0133021D01*
X0209317Y0133010D01*
X0209176Y0133003D01*
X0209035Y0133000D01*
X0208894Y0133001D01*
X0208754Y0133006D01*
X0208613Y0133015D01*
X0208473Y0133028D01*
X0208333Y0133045D01*
X0208193Y0133065D01*
X0208055Y0133090D01*
X0207917Y0133119D01*
X0207780Y0133151D01*
X0207644Y0133187D01*
X0207509Y0133228D01*
X0207375Y0133272D01*
X0207242Y0133319D01*
X0207111Y0133371D01*
X0206981Y0133426D01*
X0206853Y0133484D01*
X0206727Y0133547D01*
X0206602Y0133612D01*
X0206480Y0133682D01*
X0206359Y0133754D01*
X0206240Y0133830D01*
X0206124Y0133910D01*
X0206010Y0133993D01*
X0205898Y0134078D01*
X0205789Y0134167D01*
X0205682Y0134259D01*
X0205578Y0134354D01*
X0205477Y0134452D01*
X0205378Y0134553D01*
X0205283Y0134656D01*
X0205190Y0134762D01*
X0205100Y0134871D01*
X0205014Y0134982D01*
X0204930Y0135095D01*
X0204850Y0135211D01*
X0204773Y0135329D01*
X0204700Y0135449D01*
X0204629Y0135572D01*
X0204563Y0135696D01*
X0204500Y0135822D01*
X0204440Y0135949D01*
X0204384Y0136078D01*
X0204332Y0136209D01*
X0204283Y0136341D01*
X0204238Y0136475D01*
X0204197Y0136610D01*
X0204160Y0136746D01*
X0204126Y0136882D01*
X0204097Y0137020D01*
X0204071Y0137159D01*
X0204050Y0137298D01*
X0204032Y0137438D01*
X0204018Y0137578D01*
X0204008Y0137718D01*
X0204002Y0137859D01*
X0204000Y0138000D01*
X0190500Y0152900D02*
X0190502Y0153051D01*
X0190508Y0153202D01*
X0190518Y0153353D01*
X0190532Y0153504D01*
X0190550Y0153654D01*
X0190571Y0153803D01*
X0190597Y0153952D01*
X0190627Y0154100D01*
X0190660Y0154248D01*
X0190698Y0154394D01*
X0190739Y0154540D01*
X0190784Y0154684D01*
X0190833Y0154827D01*
X0190885Y0154969D01*
X0190941Y0155109D01*
X0191001Y0155248D01*
X0191065Y0155385D01*
X0191132Y0155521D01*
X0191203Y0155654D01*
X0191277Y0155786D01*
X0191354Y0155916D01*
X0191435Y0156043D01*
X0191519Y0156169D01*
X0191607Y0156292D01*
X0191698Y0156413D01*
X0191792Y0156531D01*
X0191889Y0156647D01*
X0191989Y0156761D01*
X0192092Y0156871D01*
X0192198Y0156979D01*
X0192306Y0157084D01*
X0192418Y0157187D01*
X0192532Y0157286D01*
X0192648Y0157382D01*
X0192767Y0157475D01*
X0192889Y0157565D01*
X0193012Y0157652D01*
X0193138Y0157735D01*
X0193267Y0157815D01*
X0193397Y0157892D01*
X0193529Y0157965D01*
X0193663Y0158035D01*
X0193799Y0158101D01*
X0193937Y0158164D01*
X0194076Y0158223D01*
X0194216Y0158278D01*
X0194359Y0158330D01*
X0194502Y0158378D01*
X0194647Y0158422D01*
X0194792Y0158462D01*
X0194939Y0158499D01*
X0195087Y0158531D01*
X0195235Y0158560D01*
X0195384Y0158584D01*
X0195534Y0158605D01*
X0195684Y0158622D01*
X0195835Y0158635D01*
X0195986Y0158644D01*
X0196137Y0158649D01*
X0196288Y0158650D01*
X0196439Y0158647D01*
X0196590Y0158640D01*
X0196741Y0158629D01*
X0196891Y0158614D01*
X0197041Y0158595D01*
X0197191Y0158573D01*
X0197339Y0158546D01*
X0197487Y0158515D01*
X0197635Y0158481D01*
X0197781Y0158442D01*
X0197926Y0158400D01*
X0198070Y0158354D01*
X0198213Y0158305D01*
X0198354Y0158251D01*
X0198494Y0158194D01*
X0198632Y0158133D01*
X0198769Y0158069D01*
X0198904Y0158001D01*
X0199037Y0157929D01*
X0199169Y0157854D01*
X0199298Y0157776D01*
X0199425Y0157694D01*
X0199550Y0157609D01*
X0199672Y0157521D01*
X0199793Y0157429D01*
X0199911Y0157334D01*
X0200026Y0157237D01*
X0200139Y0157136D01*
X0200249Y0157032D01*
X0200356Y0156926D01*
X0200460Y0156816D01*
X0200562Y0156704D01*
X0200660Y0156590D01*
X0200756Y0156472D01*
X0200848Y0156353D01*
X0200937Y0156231D01*
X0201023Y0156106D01*
X0201106Y0155980D01*
X0201185Y0155851D01*
X0201261Y0155720D01*
X0201333Y0155588D01*
X0201402Y0155453D01*
X0201467Y0155317D01*
X0201529Y0155179D01*
X0201587Y0155039D01*
X0201642Y0154898D01*
X0201692Y0154756D01*
X0201739Y0154612D01*
X0201782Y0154467D01*
X0201822Y0154321D01*
X0201857Y0154174D01*
X0201889Y0154026D01*
X0201916Y0153878D01*
X0201940Y0153729D01*
X0201960Y0153579D01*
X0201976Y0153428D01*
X0201988Y0153278D01*
X0201996Y0153127D01*
X0202000Y0152976D01*
X0202000Y0152824D01*
X0201996Y0152673D01*
X0201988Y0152522D01*
X0201976Y0152372D01*
X0201960Y0152221D01*
X0201940Y0152071D01*
X0201916Y0151922D01*
X0201889Y0151774D01*
X0201857Y0151626D01*
X0201822Y0151479D01*
X0201782Y0151333D01*
X0201739Y0151188D01*
X0201692Y0151044D01*
X0201642Y0150902D01*
X0201587Y0150761D01*
X0201529Y0150621D01*
X0201467Y0150483D01*
X0201402Y0150347D01*
X0201333Y0150212D01*
X0201261Y0150080D01*
X0201185Y0149949D01*
X0201106Y0149820D01*
X0201023Y0149694D01*
X0200937Y0149569D01*
X0200848Y0149447D01*
X0200756Y0149328D01*
X0200660Y0149210D01*
X0200562Y0149096D01*
X0200460Y0148984D01*
X0200356Y0148874D01*
X0200249Y0148768D01*
X0200139Y0148664D01*
X0200026Y0148563D01*
X0199911Y0148466D01*
X0199793Y0148371D01*
X0199672Y0148279D01*
X0199550Y0148191D01*
X0199425Y0148106D01*
X0199298Y0148024D01*
X0199169Y0147946D01*
X0199037Y0147871D01*
X0198904Y0147799D01*
X0198769Y0147731D01*
X0198632Y0147667D01*
X0198494Y0147606D01*
X0198354Y0147549D01*
X0198213Y0147495D01*
X0198070Y0147446D01*
X0197926Y0147400D01*
X0197781Y0147358D01*
X0197635Y0147319D01*
X0197487Y0147285D01*
X0197339Y0147254D01*
X0197191Y0147227D01*
X0197041Y0147205D01*
X0196891Y0147186D01*
X0196741Y0147171D01*
X0196590Y0147160D01*
X0196439Y0147153D01*
X0196288Y0147150D01*
X0196137Y0147151D01*
X0195986Y0147156D01*
X0195835Y0147165D01*
X0195684Y0147178D01*
X0195534Y0147195D01*
X0195384Y0147216D01*
X0195235Y0147240D01*
X0195087Y0147269D01*
X0194939Y0147301D01*
X0194792Y0147338D01*
X0194647Y0147378D01*
X0194502Y0147422D01*
X0194359Y0147470D01*
X0194216Y0147522D01*
X0194076Y0147577D01*
X0193937Y0147636D01*
X0193799Y0147699D01*
X0193663Y0147765D01*
X0193529Y0147835D01*
X0193397Y0147908D01*
X0193267Y0147985D01*
X0193138Y0148065D01*
X0193012Y0148148D01*
X0192889Y0148235D01*
X0192767Y0148325D01*
X0192648Y0148418D01*
X0192532Y0148514D01*
X0192418Y0148613D01*
X0192306Y0148716D01*
X0192198Y0148821D01*
X0192092Y0148929D01*
X0191989Y0149039D01*
X0191889Y0149153D01*
X0191792Y0149269D01*
X0191698Y0149387D01*
X0191607Y0149508D01*
X0191519Y0149631D01*
X0191435Y0149757D01*
X0191354Y0149884D01*
X0191277Y0150014D01*
X0191203Y0150146D01*
X0191132Y0150279D01*
X0191065Y0150415D01*
X0191001Y0150552D01*
X0190941Y0150691D01*
X0190885Y0150831D01*
X0190833Y0150973D01*
X0190784Y0151116D01*
X0190739Y0151260D01*
X0190698Y0151406D01*
X0190660Y0151552D01*
X0190627Y0151700D01*
X0190597Y0151848D01*
X0190571Y0151997D01*
X0190550Y0152146D01*
X0190532Y0152296D01*
X0190518Y0152447D01*
X0190508Y0152598D01*
X0190502Y0152749D01*
X0190500Y0152900D01*
X0204000Y0208000D02*
X0204002Y0208141D01*
X0204008Y0208282D01*
X0204018Y0208422D01*
X0204032Y0208562D01*
X0204050Y0208702D01*
X0204071Y0208841D01*
X0204097Y0208980D01*
X0204126Y0209118D01*
X0204160Y0209254D01*
X0204197Y0209390D01*
X0204238Y0209525D01*
X0204283Y0209659D01*
X0204332Y0209791D01*
X0204384Y0209922D01*
X0204440Y0210051D01*
X0204500Y0210178D01*
X0204563Y0210304D01*
X0204629Y0210428D01*
X0204700Y0210551D01*
X0204773Y0210671D01*
X0204850Y0210789D01*
X0204930Y0210905D01*
X0205014Y0211018D01*
X0205100Y0211129D01*
X0205190Y0211238D01*
X0205283Y0211344D01*
X0205378Y0211447D01*
X0205477Y0211548D01*
X0205578Y0211646D01*
X0205682Y0211741D01*
X0205789Y0211833D01*
X0205898Y0211922D01*
X0206010Y0212007D01*
X0206124Y0212090D01*
X0206240Y0212170D01*
X0206359Y0212246D01*
X0206480Y0212318D01*
X0206602Y0212388D01*
X0206727Y0212453D01*
X0206853Y0212516D01*
X0206981Y0212574D01*
X0207111Y0212629D01*
X0207242Y0212681D01*
X0207375Y0212728D01*
X0207509Y0212772D01*
X0207644Y0212813D01*
X0207780Y0212849D01*
X0207917Y0212881D01*
X0208055Y0212910D01*
X0208193Y0212935D01*
X0208333Y0212955D01*
X0208473Y0212972D01*
X0208613Y0212985D01*
X0208754Y0212994D01*
X0208894Y0212999D01*
X0209035Y0213000D01*
X0209176Y0212997D01*
X0209317Y0212990D01*
X0209457Y0212979D01*
X0209597Y0212964D01*
X0209737Y0212945D01*
X0209876Y0212923D01*
X0210014Y0212896D01*
X0210152Y0212866D01*
X0210288Y0212831D01*
X0210424Y0212793D01*
X0210558Y0212751D01*
X0210692Y0212705D01*
X0210824Y0212656D01*
X0210954Y0212602D01*
X0211083Y0212545D01*
X0211210Y0212485D01*
X0211336Y0212421D01*
X0211459Y0212353D01*
X0211581Y0212282D01*
X0211701Y0212208D01*
X0211818Y0212130D01*
X0211933Y0212049D01*
X0212046Y0211965D01*
X0212157Y0211878D01*
X0212265Y0211787D01*
X0212370Y0211694D01*
X0212473Y0211597D01*
X0212573Y0211498D01*
X0212670Y0211396D01*
X0212764Y0211291D01*
X0212855Y0211184D01*
X0212943Y0211074D01*
X0213028Y0210962D01*
X0213110Y0210847D01*
X0213189Y0210730D01*
X0213264Y0210611D01*
X0213336Y0210490D01*
X0213404Y0210367D01*
X0213469Y0210242D01*
X0213531Y0210115D01*
X0213588Y0209986D01*
X0213643Y0209856D01*
X0213693Y0209725D01*
X0213740Y0209592D01*
X0213783Y0209458D01*
X0213822Y0209322D01*
X0213857Y0209186D01*
X0213889Y0209049D01*
X0213916Y0208911D01*
X0213940Y0208772D01*
X0213960Y0208632D01*
X0213976Y0208492D01*
X0213988Y0208352D01*
X0213996Y0208211D01*
X0214000Y0208070D01*
X0214000Y0207930D01*
X0213996Y0207789D01*
X0213988Y0207648D01*
X0213976Y0207508D01*
X0213960Y0207368D01*
X0213940Y0207228D01*
X0213916Y0207089D01*
X0213889Y0206951D01*
X0213857Y0206814D01*
X0213822Y0206678D01*
X0213783Y0206542D01*
X0213740Y0206408D01*
X0213693Y0206275D01*
X0213643Y0206144D01*
X0213588Y0206014D01*
X0213531Y0205885D01*
X0213469Y0205758D01*
X0213404Y0205633D01*
X0213336Y0205510D01*
X0213264Y0205389D01*
X0213189Y0205270D01*
X0213110Y0205153D01*
X0213028Y0205038D01*
X0212943Y0204926D01*
X0212855Y0204816D01*
X0212764Y0204709D01*
X0212670Y0204604D01*
X0212573Y0204502D01*
X0212473Y0204403D01*
X0212370Y0204306D01*
X0212265Y0204213D01*
X0212157Y0204122D01*
X0212046Y0204035D01*
X0211933Y0203951D01*
X0211818Y0203870D01*
X0211701Y0203792D01*
X0211581Y0203718D01*
X0211459Y0203647D01*
X0211336Y0203579D01*
X0211210Y0203515D01*
X0211083Y0203455D01*
X0210954Y0203398D01*
X0210824Y0203344D01*
X0210692Y0203295D01*
X0210558Y0203249D01*
X0210424Y0203207D01*
X0210288Y0203169D01*
X0210152Y0203134D01*
X0210014Y0203104D01*
X0209876Y0203077D01*
X0209737Y0203055D01*
X0209597Y0203036D01*
X0209457Y0203021D01*
X0209317Y0203010D01*
X0209176Y0203003D01*
X0209035Y0203000D01*
X0208894Y0203001D01*
X0208754Y0203006D01*
X0208613Y0203015D01*
X0208473Y0203028D01*
X0208333Y0203045D01*
X0208193Y0203065D01*
X0208055Y0203090D01*
X0207917Y0203119D01*
X0207780Y0203151D01*
X0207644Y0203187D01*
X0207509Y0203228D01*
X0207375Y0203272D01*
X0207242Y0203319D01*
X0207111Y0203371D01*
X0206981Y0203426D01*
X0206853Y0203484D01*
X0206727Y0203547D01*
X0206602Y0203612D01*
X0206480Y0203682D01*
X0206359Y0203754D01*
X0206240Y0203830D01*
X0206124Y0203910D01*
X0206010Y0203993D01*
X0205898Y0204078D01*
X0205789Y0204167D01*
X0205682Y0204259D01*
X0205578Y0204354D01*
X0205477Y0204452D01*
X0205378Y0204553D01*
X0205283Y0204656D01*
X0205190Y0204762D01*
X0205100Y0204871D01*
X0205014Y0204982D01*
X0204930Y0205095D01*
X0204850Y0205211D01*
X0204773Y0205329D01*
X0204700Y0205449D01*
X0204629Y0205572D01*
X0204563Y0205696D01*
X0204500Y0205822D01*
X0204440Y0205949D01*
X0204384Y0206078D01*
X0204332Y0206209D01*
X0204283Y0206341D01*
X0204238Y0206475D01*
X0204197Y0206610D01*
X0204160Y0206746D01*
X0204126Y0206882D01*
X0204097Y0207020D01*
X0204071Y0207159D01*
X0204050Y0207298D01*
X0204032Y0207438D01*
X0204018Y0207578D01*
X0204008Y0207718D01*
X0204002Y0207859D01*
X0204000Y0208000D01*
X0204000Y0228000D02*
X0204002Y0228141D01*
X0204008Y0228282D01*
X0204018Y0228422D01*
X0204032Y0228562D01*
X0204050Y0228702D01*
X0204071Y0228841D01*
X0204097Y0228980D01*
X0204126Y0229118D01*
X0204160Y0229254D01*
X0204197Y0229390D01*
X0204238Y0229525D01*
X0204283Y0229659D01*
X0204332Y0229791D01*
X0204384Y0229922D01*
X0204440Y0230051D01*
X0204500Y0230178D01*
X0204563Y0230304D01*
X0204629Y0230428D01*
X0204700Y0230551D01*
X0204773Y0230671D01*
X0204850Y0230789D01*
X0204930Y0230905D01*
X0205014Y0231018D01*
X0205100Y0231129D01*
X0205190Y0231238D01*
X0205283Y0231344D01*
X0205378Y0231447D01*
X0205477Y0231548D01*
X0205578Y0231646D01*
X0205682Y0231741D01*
X0205789Y0231833D01*
X0205898Y0231922D01*
X0206010Y0232007D01*
X0206124Y0232090D01*
X0206240Y0232170D01*
X0206359Y0232246D01*
X0206480Y0232318D01*
X0206602Y0232388D01*
X0206727Y0232453D01*
X0206853Y0232516D01*
X0206981Y0232574D01*
X0207111Y0232629D01*
X0207242Y0232681D01*
X0207375Y0232728D01*
X0207509Y0232772D01*
X0207644Y0232813D01*
X0207780Y0232849D01*
X0207917Y0232881D01*
X0208055Y0232910D01*
X0208193Y0232935D01*
X0208333Y0232955D01*
X0208473Y0232972D01*
X0208613Y0232985D01*
X0208754Y0232994D01*
X0208894Y0232999D01*
X0209035Y0233000D01*
X0209176Y0232997D01*
X0209317Y0232990D01*
X0209457Y0232979D01*
X0209597Y0232964D01*
X0209737Y0232945D01*
X0209876Y0232923D01*
X0210014Y0232896D01*
X0210152Y0232866D01*
X0210288Y0232831D01*
X0210424Y0232793D01*
X0210558Y0232751D01*
X0210692Y0232705D01*
X0210824Y0232656D01*
X0210954Y0232602D01*
X0211083Y0232545D01*
X0211210Y0232485D01*
X0211336Y0232421D01*
X0211459Y0232353D01*
X0211581Y0232282D01*
X0211701Y0232208D01*
X0211818Y0232130D01*
X0211933Y0232049D01*
X0212046Y0231965D01*
X0212157Y0231878D01*
X0212265Y0231787D01*
X0212370Y0231694D01*
X0212473Y0231597D01*
X0212573Y0231498D01*
X0212670Y0231396D01*
X0212764Y0231291D01*
X0212855Y0231184D01*
X0212943Y0231074D01*
X0213028Y0230962D01*
X0213110Y0230847D01*
X0213189Y0230730D01*
X0213264Y0230611D01*
X0213336Y0230490D01*
X0213404Y0230367D01*
X0213469Y0230242D01*
X0213531Y0230115D01*
X0213588Y0229986D01*
X0213643Y0229856D01*
X0213693Y0229725D01*
X0213740Y0229592D01*
X0213783Y0229458D01*
X0213822Y0229322D01*
X0213857Y0229186D01*
X0213889Y0229049D01*
X0213916Y0228911D01*
X0213940Y0228772D01*
X0213960Y0228632D01*
X0213976Y0228492D01*
X0213988Y0228352D01*
X0213996Y0228211D01*
X0214000Y0228070D01*
X0214000Y0227930D01*
X0213996Y0227789D01*
X0213988Y0227648D01*
X0213976Y0227508D01*
X0213960Y0227368D01*
X0213940Y0227228D01*
X0213916Y0227089D01*
X0213889Y0226951D01*
X0213857Y0226814D01*
X0213822Y0226678D01*
X0213783Y0226542D01*
X0213740Y0226408D01*
X0213693Y0226275D01*
X0213643Y0226144D01*
X0213588Y0226014D01*
X0213531Y0225885D01*
X0213469Y0225758D01*
X0213404Y0225633D01*
X0213336Y0225510D01*
X0213264Y0225389D01*
X0213189Y0225270D01*
X0213110Y0225153D01*
X0213028Y0225038D01*
X0212943Y0224926D01*
X0212855Y0224816D01*
X0212764Y0224709D01*
X0212670Y0224604D01*
X0212573Y0224502D01*
X0212473Y0224403D01*
X0212370Y0224306D01*
X0212265Y0224213D01*
X0212157Y0224122D01*
X0212046Y0224035D01*
X0211933Y0223951D01*
X0211818Y0223870D01*
X0211701Y0223792D01*
X0211581Y0223718D01*
X0211459Y0223647D01*
X0211336Y0223579D01*
X0211210Y0223515D01*
X0211083Y0223455D01*
X0210954Y0223398D01*
X0210824Y0223344D01*
X0210692Y0223295D01*
X0210558Y0223249D01*
X0210424Y0223207D01*
X0210288Y0223169D01*
X0210152Y0223134D01*
X0210014Y0223104D01*
X0209876Y0223077D01*
X0209737Y0223055D01*
X0209597Y0223036D01*
X0209457Y0223021D01*
X0209317Y0223010D01*
X0209176Y0223003D01*
X0209035Y0223000D01*
X0208894Y0223001D01*
X0208754Y0223006D01*
X0208613Y0223015D01*
X0208473Y0223028D01*
X0208333Y0223045D01*
X0208193Y0223065D01*
X0208055Y0223090D01*
X0207917Y0223119D01*
X0207780Y0223151D01*
X0207644Y0223187D01*
X0207509Y0223228D01*
X0207375Y0223272D01*
X0207242Y0223319D01*
X0207111Y0223371D01*
X0206981Y0223426D01*
X0206853Y0223484D01*
X0206727Y0223547D01*
X0206602Y0223612D01*
X0206480Y0223682D01*
X0206359Y0223754D01*
X0206240Y0223830D01*
X0206124Y0223910D01*
X0206010Y0223993D01*
X0205898Y0224078D01*
X0205789Y0224167D01*
X0205682Y0224259D01*
X0205578Y0224354D01*
X0205477Y0224452D01*
X0205378Y0224553D01*
X0205283Y0224656D01*
X0205190Y0224762D01*
X0205100Y0224871D01*
X0205014Y0224982D01*
X0204930Y0225095D01*
X0204850Y0225211D01*
X0204773Y0225329D01*
X0204700Y0225449D01*
X0204629Y0225572D01*
X0204563Y0225696D01*
X0204500Y0225822D01*
X0204440Y0225949D01*
X0204384Y0226078D01*
X0204332Y0226209D01*
X0204283Y0226341D01*
X0204238Y0226475D01*
X0204197Y0226610D01*
X0204160Y0226746D01*
X0204126Y0226882D01*
X0204097Y0227020D01*
X0204071Y0227159D01*
X0204050Y0227298D01*
X0204032Y0227438D01*
X0204018Y0227578D01*
X0204008Y0227718D01*
X0204002Y0227859D01*
X0204000Y0228000D01*
X0160700Y0250700D02*
X0160702Y0250884D01*
X0160709Y0251068D01*
X0160720Y0251252D01*
X0160736Y0251435D01*
X0160756Y0251618D01*
X0160781Y0251800D01*
X0160810Y0251982D01*
X0160844Y0252163D01*
X0160882Y0252343D01*
X0160925Y0252522D01*
X0160972Y0252700D01*
X0161023Y0252877D01*
X0161079Y0253053D01*
X0161138Y0253227D01*
X0161203Y0253399D01*
X0161271Y0253570D01*
X0161343Y0253739D01*
X0161420Y0253907D01*
X0161501Y0254072D01*
X0161586Y0254235D01*
X0161674Y0254397D01*
X0161767Y0254556D01*
X0161864Y0254712D01*
X0161964Y0254867D01*
X0162068Y0255019D01*
X0162176Y0255168D01*
X0162287Y0255314D01*
X0162402Y0255458D01*
X0162521Y0255599D01*
X0162643Y0255737D01*
X0162768Y0255872D01*
X0162897Y0256003D01*
X0163028Y0256132D01*
X0163163Y0256257D01*
X0163301Y0256379D01*
X0163442Y0256498D01*
X0163586Y0256613D01*
X0163732Y0256724D01*
X0163881Y0256832D01*
X0164033Y0256936D01*
X0164188Y0257036D01*
X0164344Y0257133D01*
X0164503Y0257226D01*
X0164665Y0257314D01*
X0164828Y0257399D01*
X0164993Y0257480D01*
X0165161Y0257557D01*
X0165330Y0257629D01*
X0165501Y0257697D01*
X0165673Y0257762D01*
X0165847Y0257821D01*
X0166023Y0257877D01*
X0166200Y0257928D01*
X0166378Y0257975D01*
X0166557Y0258018D01*
X0166737Y0258056D01*
X0166918Y0258090D01*
X0167100Y0258119D01*
X0167282Y0258144D01*
X0167465Y0258164D01*
X0167648Y0258180D01*
X0167832Y0258191D01*
X0168016Y0258198D01*
X0168200Y0258200D01*
X0168384Y0258198D01*
X0168568Y0258191D01*
X0168752Y0258180D01*
X0168935Y0258164D01*
X0169118Y0258144D01*
X0169300Y0258119D01*
X0169482Y0258090D01*
X0169663Y0258056D01*
X0169843Y0258018D01*
X0170022Y0257975D01*
X0170200Y0257928D01*
X0170377Y0257877D01*
X0170553Y0257821D01*
X0170727Y0257762D01*
X0170899Y0257697D01*
X0171070Y0257629D01*
X0171239Y0257557D01*
X0171407Y0257480D01*
X0171572Y0257399D01*
X0171735Y0257314D01*
X0171897Y0257226D01*
X0172056Y0257133D01*
X0172212Y0257036D01*
X0172367Y0256936D01*
X0172519Y0256832D01*
X0172668Y0256724D01*
X0172814Y0256613D01*
X0172958Y0256498D01*
X0173099Y0256379D01*
X0173237Y0256257D01*
X0173372Y0256132D01*
X0173503Y0256003D01*
X0173632Y0255872D01*
X0173757Y0255737D01*
X0173879Y0255599D01*
X0173998Y0255458D01*
X0174113Y0255314D01*
X0174224Y0255168D01*
X0174332Y0255019D01*
X0174436Y0254867D01*
X0174536Y0254712D01*
X0174633Y0254556D01*
X0174726Y0254397D01*
X0174814Y0254235D01*
X0174899Y0254072D01*
X0174980Y0253907D01*
X0175057Y0253739D01*
X0175129Y0253570D01*
X0175197Y0253399D01*
X0175262Y0253227D01*
X0175321Y0253053D01*
X0175377Y0252877D01*
X0175428Y0252700D01*
X0175475Y0252522D01*
X0175518Y0252343D01*
X0175556Y0252163D01*
X0175590Y0251982D01*
X0175619Y0251800D01*
X0175644Y0251618D01*
X0175664Y0251435D01*
X0175680Y0251252D01*
X0175691Y0251068D01*
X0175698Y0250884D01*
X0175700Y0250700D01*
X0175698Y0250516D01*
X0175691Y0250332D01*
X0175680Y0250148D01*
X0175664Y0249965D01*
X0175644Y0249782D01*
X0175619Y0249600D01*
X0175590Y0249418D01*
X0175556Y0249237D01*
X0175518Y0249057D01*
X0175475Y0248878D01*
X0175428Y0248700D01*
X0175377Y0248523D01*
X0175321Y0248347D01*
X0175262Y0248173D01*
X0175197Y0248001D01*
X0175129Y0247830D01*
X0175057Y0247661D01*
X0174980Y0247493D01*
X0174899Y0247328D01*
X0174814Y0247165D01*
X0174726Y0247003D01*
X0174633Y0246844D01*
X0174536Y0246688D01*
X0174436Y0246533D01*
X0174332Y0246381D01*
X0174224Y0246232D01*
X0174113Y0246086D01*
X0173998Y0245942D01*
X0173879Y0245801D01*
X0173757Y0245663D01*
X0173632Y0245528D01*
X0173503Y0245397D01*
X0173372Y0245268D01*
X0173237Y0245143D01*
X0173099Y0245021D01*
X0172958Y0244902D01*
X0172814Y0244787D01*
X0172668Y0244676D01*
X0172519Y0244568D01*
X0172367Y0244464D01*
X0172212Y0244364D01*
X0172056Y0244267D01*
X0171897Y0244174D01*
X0171735Y0244086D01*
X0171572Y0244001D01*
X0171407Y0243920D01*
X0171239Y0243843D01*
X0171070Y0243771D01*
X0170899Y0243703D01*
X0170727Y0243638D01*
X0170553Y0243579D01*
X0170377Y0243523D01*
X0170200Y0243472D01*
X0170022Y0243425D01*
X0169843Y0243382D01*
X0169663Y0243344D01*
X0169482Y0243310D01*
X0169300Y0243281D01*
X0169118Y0243256D01*
X0168935Y0243236D01*
X0168752Y0243220D01*
X0168568Y0243209D01*
X0168384Y0243202D01*
X0168200Y0243200D01*
X0168016Y0243202D01*
X0167832Y0243209D01*
X0167648Y0243220D01*
X0167465Y0243236D01*
X0167282Y0243256D01*
X0167100Y0243281D01*
X0166918Y0243310D01*
X0166737Y0243344D01*
X0166557Y0243382D01*
X0166378Y0243425D01*
X0166200Y0243472D01*
X0166023Y0243523D01*
X0165847Y0243579D01*
X0165673Y0243638D01*
X0165501Y0243703D01*
X0165330Y0243771D01*
X0165161Y0243843D01*
X0164993Y0243920D01*
X0164828Y0244001D01*
X0164665Y0244086D01*
X0164503Y0244174D01*
X0164344Y0244267D01*
X0164188Y0244364D01*
X0164033Y0244464D01*
X0163881Y0244568D01*
X0163732Y0244676D01*
X0163586Y0244787D01*
X0163442Y0244902D01*
X0163301Y0245021D01*
X0163163Y0245143D01*
X0163028Y0245268D01*
X0162897Y0245397D01*
X0162768Y0245528D01*
X0162643Y0245663D01*
X0162521Y0245801D01*
X0162402Y0245942D01*
X0162287Y0246086D01*
X0162176Y0246232D01*
X0162068Y0246381D01*
X0161964Y0246533D01*
X0161864Y0246688D01*
X0161767Y0246844D01*
X0161674Y0247003D01*
X0161586Y0247165D01*
X0161501Y0247328D01*
X0161420Y0247493D01*
X0161343Y0247661D01*
X0161271Y0247830D01*
X0161203Y0248001D01*
X0161138Y0248173D01*
X0161079Y0248347D01*
X0161023Y0248523D01*
X0160972Y0248700D01*
X0160925Y0248878D01*
X0160882Y0249057D01*
X0160844Y0249237D01*
X0160810Y0249418D01*
X0160781Y0249600D01*
X0160756Y0249782D01*
X0160736Y0249965D01*
X0160720Y0250148D01*
X0160709Y0250332D01*
X0160702Y0250516D01*
X0160700Y0250700D01*
X0180000Y0288000D02*
X0180002Y0288141D01*
X0180008Y0288282D01*
X0180018Y0288422D01*
X0180032Y0288562D01*
X0180050Y0288702D01*
X0180071Y0288841D01*
X0180097Y0288980D01*
X0180126Y0289118D01*
X0180160Y0289254D01*
X0180197Y0289390D01*
X0180238Y0289525D01*
X0180283Y0289659D01*
X0180332Y0289791D01*
X0180384Y0289922D01*
X0180440Y0290051D01*
X0180500Y0290178D01*
X0180563Y0290304D01*
X0180629Y0290428D01*
X0180700Y0290551D01*
X0180773Y0290671D01*
X0180850Y0290789D01*
X0180930Y0290905D01*
X0181014Y0291018D01*
X0181100Y0291129D01*
X0181190Y0291238D01*
X0181283Y0291344D01*
X0181378Y0291447D01*
X0181477Y0291548D01*
X0181578Y0291646D01*
X0181682Y0291741D01*
X0181789Y0291833D01*
X0181898Y0291922D01*
X0182010Y0292007D01*
X0182124Y0292090D01*
X0182240Y0292170D01*
X0182359Y0292246D01*
X0182480Y0292318D01*
X0182602Y0292388D01*
X0182727Y0292453D01*
X0182853Y0292516D01*
X0182981Y0292574D01*
X0183111Y0292629D01*
X0183242Y0292681D01*
X0183375Y0292728D01*
X0183509Y0292772D01*
X0183644Y0292813D01*
X0183780Y0292849D01*
X0183917Y0292881D01*
X0184055Y0292910D01*
X0184193Y0292935D01*
X0184333Y0292955D01*
X0184473Y0292972D01*
X0184613Y0292985D01*
X0184754Y0292994D01*
X0184894Y0292999D01*
X0185035Y0293000D01*
X0185176Y0292997D01*
X0185317Y0292990D01*
X0185457Y0292979D01*
X0185597Y0292964D01*
X0185737Y0292945D01*
X0185876Y0292923D01*
X0186014Y0292896D01*
X0186152Y0292866D01*
X0186288Y0292831D01*
X0186424Y0292793D01*
X0186558Y0292751D01*
X0186692Y0292705D01*
X0186824Y0292656D01*
X0186954Y0292602D01*
X0187083Y0292545D01*
X0187210Y0292485D01*
X0187336Y0292421D01*
X0187459Y0292353D01*
X0187581Y0292282D01*
X0187701Y0292208D01*
X0187818Y0292130D01*
X0187933Y0292049D01*
X0188046Y0291965D01*
X0188157Y0291878D01*
X0188265Y0291787D01*
X0188370Y0291694D01*
X0188473Y0291597D01*
X0188573Y0291498D01*
X0188670Y0291396D01*
X0188764Y0291291D01*
X0188855Y0291184D01*
X0188943Y0291074D01*
X0189028Y0290962D01*
X0189110Y0290847D01*
X0189189Y0290730D01*
X0189264Y0290611D01*
X0189336Y0290490D01*
X0189404Y0290367D01*
X0189469Y0290242D01*
X0189531Y0290115D01*
X0189588Y0289986D01*
X0189643Y0289856D01*
X0189693Y0289725D01*
X0189740Y0289592D01*
X0189783Y0289458D01*
X0189822Y0289322D01*
X0189857Y0289186D01*
X0189889Y0289049D01*
X0189916Y0288911D01*
X0189940Y0288772D01*
X0189960Y0288632D01*
X0189976Y0288492D01*
X0189988Y0288352D01*
X0189996Y0288211D01*
X0190000Y0288070D01*
X0190000Y0287930D01*
X0189996Y0287789D01*
X0189988Y0287648D01*
X0189976Y0287508D01*
X0189960Y0287368D01*
X0189940Y0287228D01*
X0189916Y0287089D01*
X0189889Y0286951D01*
X0189857Y0286814D01*
X0189822Y0286678D01*
X0189783Y0286542D01*
X0189740Y0286408D01*
X0189693Y0286275D01*
X0189643Y0286144D01*
X0189588Y0286014D01*
X0189531Y0285885D01*
X0189469Y0285758D01*
X0189404Y0285633D01*
X0189336Y0285510D01*
X0189264Y0285389D01*
X0189189Y0285270D01*
X0189110Y0285153D01*
X0189028Y0285038D01*
X0188943Y0284926D01*
X0188855Y0284816D01*
X0188764Y0284709D01*
X0188670Y0284604D01*
X0188573Y0284502D01*
X0188473Y0284403D01*
X0188370Y0284306D01*
X0188265Y0284213D01*
X0188157Y0284122D01*
X0188046Y0284035D01*
X0187933Y0283951D01*
X0187818Y0283870D01*
X0187701Y0283792D01*
X0187581Y0283718D01*
X0187459Y0283647D01*
X0187336Y0283579D01*
X0187210Y0283515D01*
X0187083Y0283455D01*
X0186954Y0283398D01*
X0186824Y0283344D01*
X0186692Y0283295D01*
X0186558Y0283249D01*
X0186424Y0283207D01*
X0186288Y0283169D01*
X0186152Y0283134D01*
X0186014Y0283104D01*
X0185876Y0283077D01*
X0185737Y0283055D01*
X0185597Y0283036D01*
X0185457Y0283021D01*
X0185317Y0283010D01*
X0185176Y0283003D01*
X0185035Y0283000D01*
X0184894Y0283001D01*
X0184754Y0283006D01*
X0184613Y0283015D01*
X0184473Y0283028D01*
X0184333Y0283045D01*
X0184193Y0283065D01*
X0184055Y0283090D01*
X0183917Y0283119D01*
X0183780Y0283151D01*
X0183644Y0283187D01*
X0183509Y0283228D01*
X0183375Y0283272D01*
X0183242Y0283319D01*
X0183111Y0283371D01*
X0182981Y0283426D01*
X0182853Y0283484D01*
X0182727Y0283547D01*
X0182602Y0283612D01*
X0182480Y0283682D01*
X0182359Y0283754D01*
X0182240Y0283830D01*
X0182124Y0283910D01*
X0182010Y0283993D01*
X0181898Y0284078D01*
X0181789Y0284167D01*
X0181682Y0284259D01*
X0181578Y0284354D01*
X0181477Y0284452D01*
X0181378Y0284553D01*
X0181283Y0284656D01*
X0181190Y0284762D01*
X0181100Y0284871D01*
X0181014Y0284982D01*
X0180930Y0285095D01*
X0180850Y0285211D01*
X0180773Y0285329D01*
X0180700Y0285449D01*
X0180629Y0285572D01*
X0180563Y0285696D01*
X0180500Y0285822D01*
X0180440Y0285949D01*
X0180384Y0286078D01*
X0180332Y0286209D01*
X0180283Y0286341D01*
X0180238Y0286475D01*
X0180197Y0286610D01*
X0180160Y0286746D01*
X0180126Y0286882D01*
X0180097Y0287020D01*
X0180071Y0287159D01*
X0180050Y0287298D01*
X0180032Y0287438D01*
X0180018Y0287578D01*
X0180008Y0287718D01*
X0180002Y0287859D01*
X0180000Y0288000D01*
X0192000Y0288000D02*
X0192002Y0288141D01*
X0192008Y0288282D01*
X0192018Y0288422D01*
X0192032Y0288562D01*
X0192050Y0288702D01*
X0192071Y0288841D01*
X0192097Y0288980D01*
X0192126Y0289118D01*
X0192160Y0289254D01*
X0192197Y0289390D01*
X0192238Y0289525D01*
X0192283Y0289659D01*
X0192332Y0289791D01*
X0192384Y0289922D01*
X0192440Y0290051D01*
X0192500Y0290178D01*
X0192563Y0290304D01*
X0192629Y0290428D01*
X0192700Y0290551D01*
X0192773Y0290671D01*
X0192850Y0290789D01*
X0192930Y0290905D01*
X0193014Y0291018D01*
X0193100Y0291129D01*
X0193190Y0291238D01*
X0193283Y0291344D01*
X0193378Y0291447D01*
X0193477Y0291548D01*
X0193578Y0291646D01*
X0193682Y0291741D01*
X0193789Y0291833D01*
X0193898Y0291922D01*
X0194010Y0292007D01*
X0194124Y0292090D01*
X0194240Y0292170D01*
X0194359Y0292246D01*
X0194480Y0292318D01*
X0194602Y0292388D01*
X0194727Y0292453D01*
X0194853Y0292516D01*
X0194981Y0292574D01*
X0195111Y0292629D01*
X0195242Y0292681D01*
X0195375Y0292728D01*
X0195509Y0292772D01*
X0195644Y0292813D01*
X0195780Y0292849D01*
X0195917Y0292881D01*
X0196055Y0292910D01*
X0196193Y0292935D01*
X0196333Y0292955D01*
X0196473Y0292972D01*
X0196613Y0292985D01*
X0196754Y0292994D01*
X0196894Y0292999D01*
X0197035Y0293000D01*
X0197176Y0292997D01*
X0197317Y0292990D01*
X0197457Y0292979D01*
X0197597Y0292964D01*
X0197737Y0292945D01*
X0197876Y0292923D01*
X0198014Y0292896D01*
X0198152Y0292866D01*
X0198288Y0292831D01*
X0198424Y0292793D01*
X0198558Y0292751D01*
X0198692Y0292705D01*
X0198824Y0292656D01*
X0198954Y0292602D01*
X0199083Y0292545D01*
X0199210Y0292485D01*
X0199336Y0292421D01*
X0199459Y0292353D01*
X0199581Y0292282D01*
X0199701Y0292208D01*
X0199818Y0292130D01*
X0199933Y0292049D01*
X0200046Y0291965D01*
X0200157Y0291878D01*
X0200265Y0291787D01*
X0200370Y0291694D01*
X0200473Y0291597D01*
X0200573Y0291498D01*
X0200670Y0291396D01*
X0200764Y0291291D01*
X0200855Y0291184D01*
X0200943Y0291074D01*
X0201028Y0290962D01*
X0201110Y0290847D01*
X0201189Y0290730D01*
X0201264Y0290611D01*
X0201336Y0290490D01*
X0201404Y0290367D01*
X0201469Y0290242D01*
X0201531Y0290115D01*
X0201588Y0289986D01*
X0201643Y0289856D01*
X0201693Y0289725D01*
X0201740Y0289592D01*
X0201783Y0289458D01*
X0201822Y0289322D01*
X0201857Y0289186D01*
X0201889Y0289049D01*
X0201916Y0288911D01*
X0201940Y0288772D01*
X0201960Y0288632D01*
X0201976Y0288492D01*
X0201988Y0288352D01*
X0201996Y0288211D01*
X0202000Y0288070D01*
X0202000Y0287930D01*
X0201996Y0287789D01*
X0201988Y0287648D01*
X0201976Y0287508D01*
X0201960Y0287368D01*
X0201940Y0287228D01*
X0201916Y0287089D01*
X0201889Y0286951D01*
X0201857Y0286814D01*
X0201822Y0286678D01*
X0201783Y0286542D01*
X0201740Y0286408D01*
X0201693Y0286275D01*
X0201643Y0286144D01*
X0201588Y0286014D01*
X0201531Y0285885D01*
X0201469Y0285758D01*
X0201404Y0285633D01*
X0201336Y0285510D01*
X0201264Y0285389D01*
X0201189Y0285270D01*
X0201110Y0285153D01*
X0201028Y0285038D01*
X0200943Y0284926D01*
X0200855Y0284816D01*
X0200764Y0284709D01*
X0200670Y0284604D01*
X0200573Y0284502D01*
X0200473Y0284403D01*
X0200370Y0284306D01*
X0200265Y0284213D01*
X0200157Y0284122D01*
X0200046Y0284035D01*
X0199933Y0283951D01*
X0199818Y0283870D01*
X0199701Y0283792D01*
X0199581Y0283718D01*
X0199459Y0283647D01*
X0199336Y0283579D01*
X0199210Y0283515D01*
X0199083Y0283455D01*
X0198954Y0283398D01*
X0198824Y0283344D01*
X0198692Y0283295D01*
X0198558Y0283249D01*
X0198424Y0283207D01*
X0198288Y0283169D01*
X0198152Y0283134D01*
X0198014Y0283104D01*
X0197876Y0283077D01*
X0197737Y0283055D01*
X0197597Y0283036D01*
X0197457Y0283021D01*
X0197317Y0283010D01*
X0197176Y0283003D01*
X0197035Y0283000D01*
X0196894Y0283001D01*
X0196754Y0283006D01*
X0196613Y0283015D01*
X0196473Y0283028D01*
X0196333Y0283045D01*
X0196193Y0283065D01*
X0196055Y0283090D01*
X0195917Y0283119D01*
X0195780Y0283151D01*
X0195644Y0283187D01*
X0195509Y0283228D01*
X0195375Y0283272D01*
X0195242Y0283319D01*
X0195111Y0283371D01*
X0194981Y0283426D01*
X0194853Y0283484D01*
X0194727Y0283547D01*
X0194602Y0283612D01*
X0194480Y0283682D01*
X0194359Y0283754D01*
X0194240Y0283830D01*
X0194124Y0283910D01*
X0194010Y0283993D01*
X0193898Y0284078D01*
X0193789Y0284167D01*
X0193682Y0284259D01*
X0193578Y0284354D01*
X0193477Y0284452D01*
X0193378Y0284553D01*
X0193283Y0284656D01*
X0193190Y0284762D01*
X0193100Y0284871D01*
X0193014Y0284982D01*
X0192930Y0285095D01*
X0192850Y0285211D01*
X0192773Y0285329D01*
X0192700Y0285449D01*
X0192629Y0285572D01*
X0192563Y0285696D01*
X0192500Y0285822D01*
X0192440Y0285949D01*
X0192384Y0286078D01*
X0192332Y0286209D01*
X0192283Y0286341D01*
X0192238Y0286475D01*
X0192197Y0286610D01*
X0192160Y0286746D01*
X0192126Y0286882D01*
X0192097Y0287020D01*
X0192071Y0287159D01*
X0192050Y0287298D01*
X0192032Y0287438D01*
X0192018Y0287578D01*
X0192008Y0287718D01*
X0192002Y0287859D01*
X0192000Y0288000D01*
X0204000Y0288000D02*
X0204002Y0288141D01*
X0204008Y0288282D01*
X0204018Y0288422D01*
X0204032Y0288562D01*
X0204050Y0288702D01*
X0204071Y0288841D01*
X0204097Y0288980D01*
X0204126Y0289118D01*
X0204160Y0289254D01*
X0204197Y0289390D01*
X0204238Y0289525D01*
X0204283Y0289659D01*
X0204332Y0289791D01*
X0204384Y0289922D01*
X0204440Y0290051D01*
X0204500Y0290178D01*
X0204563Y0290304D01*
X0204629Y0290428D01*
X0204700Y0290551D01*
X0204773Y0290671D01*
X0204850Y0290789D01*
X0204930Y0290905D01*
X0205014Y0291018D01*
X0205100Y0291129D01*
X0205190Y0291238D01*
X0205283Y0291344D01*
X0205378Y0291447D01*
X0205477Y0291548D01*
X0205578Y0291646D01*
X0205682Y0291741D01*
X0205789Y0291833D01*
X0205898Y0291922D01*
X0206010Y0292007D01*
X0206124Y0292090D01*
X0206240Y0292170D01*
X0206359Y0292246D01*
X0206480Y0292318D01*
X0206602Y0292388D01*
X0206727Y0292453D01*
X0206853Y0292516D01*
X0206981Y0292574D01*
X0207111Y0292629D01*
X0207242Y0292681D01*
X0207375Y0292728D01*
X0207509Y0292772D01*
X0207644Y0292813D01*
X0207780Y0292849D01*
X0207917Y0292881D01*
X0208055Y0292910D01*
X0208193Y0292935D01*
X0208333Y0292955D01*
X0208473Y0292972D01*
X0208613Y0292985D01*
X0208754Y0292994D01*
X0208894Y0292999D01*
X0209035Y0293000D01*
X0209176Y0292997D01*
X0209317Y0292990D01*
X0209457Y0292979D01*
X0209597Y0292964D01*
X0209737Y0292945D01*
X0209876Y0292923D01*
X0210014Y0292896D01*
X0210152Y0292866D01*
X0210288Y0292831D01*
X0210424Y0292793D01*
X0210558Y0292751D01*
X0210692Y0292705D01*
X0210824Y0292656D01*
X0210954Y0292602D01*
X0211083Y0292545D01*
X0211210Y0292485D01*
X0211336Y0292421D01*
X0211459Y0292353D01*
X0211581Y0292282D01*
X0211701Y0292208D01*
X0211818Y0292130D01*
X0211933Y0292049D01*
X0212046Y0291965D01*
X0212157Y0291878D01*
X0212265Y0291787D01*
X0212370Y0291694D01*
X0212473Y0291597D01*
X0212573Y0291498D01*
X0212670Y0291396D01*
X0212764Y0291291D01*
X0212855Y0291184D01*
X0212943Y0291074D01*
X0213028Y0290962D01*
X0213110Y0290847D01*
X0213189Y0290730D01*
X0213264Y0290611D01*
X0213336Y0290490D01*
X0213404Y0290367D01*
X0213469Y0290242D01*
X0213531Y0290115D01*
X0213588Y0289986D01*
X0213643Y0289856D01*
X0213693Y0289725D01*
X0213740Y0289592D01*
X0213783Y0289458D01*
X0213822Y0289322D01*
X0213857Y0289186D01*
X0213889Y0289049D01*
X0213916Y0288911D01*
X0213940Y0288772D01*
X0213960Y0288632D01*
X0213976Y0288492D01*
X0213988Y0288352D01*
X0213996Y0288211D01*
X0214000Y0288070D01*
X0214000Y0287930D01*
X0213996Y0287789D01*
X0213988Y0287648D01*
X0213976Y0287508D01*
X0213960Y0287368D01*
X0213940Y0287228D01*
X0213916Y0287089D01*
X0213889Y0286951D01*
X0213857Y0286814D01*
X0213822Y0286678D01*
X0213783Y0286542D01*
X0213740Y0286408D01*
X0213693Y0286275D01*
X0213643Y0286144D01*
X0213588Y0286014D01*
X0213531Y0285885D01*
X0213469Y0285758D01*
X0213404Y0285633D01*
X0213336Y0285510D01*
X0213264Y0285389D01*
X0213189Y0285270D01*
X0213110Y0285153D01*
X0213028Y0285038D01*
X0212943Y0284926D01*
X0212855Y0284816D01*
X0212764Y0284709D01*
X0212670Y0284604D01*
X0212573Y0284502D01*
X0212473Y0284403D01*
X0212370Y0284306D01*
X0212265Y0284213D01*
X0212157Y0284122D01*
X0212046Y0284035D01*
X0211933Y0283951D01*
X0211818Y0283870D01*
X0211701Y0283792D01*
X0211581Y0283718D01*
X0211459Y0283647D01*
X0211336Y0283579D01*
X0211210Y0283515D01*
X0211083Y0283455D01*
X0210954Y0283398D01*
X0210824Y0283344D01*
X0210692Y0283295D01*
X0210558Y0283249D01*
X0210424Y0283207D01*
X0210288Y0283169D01*
X0210152Y0283134D01*
X0210014Y0283104D01*
X0209876Y0283077D01*
X0209737Y0283055D01*
X0209597Y0283036D01*
X0209457Y0283021D01*
X0209317Y0283010D01*
X0209176Y0283003D01*
X0209035Y0283000D01*
X0208894Y0283001D01*
X0208754Y0283006D01*
X0208613Y0283015D01*
X0208473Y0283028D01*
X0208333Y0283045D01*
X0208193Y0283065D01*
X0208055Y0283090D01*
X0207917Y0283119D01*
X0207780Y0283151D01*
X0207644Y0283187D01*
X0207509Y0283228D01*
X0207375Y0283272D01*
X0207242Y0283319D01*
X0207111Y0283371D01*
X0206981Y0283426D01*
X0206853Y0283484D01*
X0206727Y0283547D01*
X0206602Y0283612D01*
X0206480Y0283682D01*
X0206359Y0283754D01*
X0206240Y0283830D01*
X0206124Y0283910D01*
X0206010Y0283993D01*
X0205898Y0284078D01*
X0205789Y0284167D01*
X0205682Y0284259D01*
X0205578Y0284354D01*
X0205477Y0284452D01*
X0205378Y0284553D01*
X0205283Y0284656D01*
X0205190Y0284762D01*
X0205100Y0284871D01*
X0205014Y0284982D01*
X0204930Y0285095D01*
X0204850Y0285211D01*
X0204773Y0285329D01*
X0204700Y0285449D01*
X0204629Y0285572D01*
X0204563Y0285696D01*
X0204500Y0285822D01*
X0204440Y0285949D01*
X0204384Y0286078D01*
X0204332Y0286209D01*
X0204283Y0286341D01*
X0204238Y0286475D01*
X0204197Y0286610D01*
X0204160Y0286746D01*
X0204126Y0286882D01*
X0204097Y0287020D01*
X0204071Y0287159D01*
X0204050Y0287298D01*
X0204032Y0287438D01*
X0204018Y0287578D01*
X0204008Y0287718D01*
X0204002Y0287859D01*
X0204000Y0288000D01*
X0198700Y0302600D02*
X0198702Y0302754D01*
X0198708Y0302909D01*
X0198718Y0303063D01*
X0198732Y0303217D01*
X0198750Y0303370D01*
X0198771Y0303523D01*
X0198797Y0303676D01*
X0198827Y0303827D01*
X0198860Y0303978D01*
X0198898Y0304128D01*
X0198939Y0304277D01*
X0198984Y0304425D01*
X0199033Y0304571D01*
X0199086Y0304717D01*
X0199142Y0304860D01*
X0199202Y0305003D01*
X0199266Y0305143D01*
X0199333Y0305283D01*
X0199404Y0305420D01*
X0199478Y0305555D01*
X0199556Y0305689D01*
X0199637Y0305820D01*
X0199722Y0305949D01*
X0199810Y0306077D01*
X0199901Y0306201D01*
X0199995Y0306324D01*
X0200093Y0306444D01*
X0200193Y0306561D01*
X0200297Y0306676D01*
X0200403Y0306788D01*
X0200512Y0306897D01*
X0200624Y0307003D01*
X0200739Y0307107D01*
X0200856Y0307207D01*
X0200976Y0307305D01*
X0201099Y0307399D01*
X0201223Y0307490D01*
X0201351Y0307578D01*
X0201480Y0307663D01*
X0201611Y0307744D01*
X0201745Y0307822D01*
X0201880Y0307896D01*
X0202017Y0307967D01*
X0202157Y0308034D01*
X0202297Y0308098D01*
X0202440Y0308158D01*
X0202583Y0308214D01*
X0202729Y0308267D01*
X0202875Y0308316D01*
X0203023Y0308361D01*
X0203172Y0308402D01*
X0203322Y0308440D01*
X0203473Y0308473D01*
X0203624Y0308503D01*
X0203777Y0308529D01*
X0203930Y0308550D01*
X0204083Y0308568D01*
X0204237Y0308582D01*
X0204391Y0308592D01*
X0204546Y0308598D01*
X0204700Y0308600D01*
X0204854Y0308598D01*
X0205009Y0308592D01*
X0205163Y0308582D01*
X0205317Y0308568D01*
X0205470Y0308550D01*
X0205623Y0308529D01*
X0205776Y0308503D01*
X0205927Y0308473D01*
X0206078Y0308440D01*
X0206228Y0308402D01*
X0206377Y0308361D01*
X0206525Y0308316D01*
X0206671Y0308267D01*
X0206817Y0308214D01*
X0206960Y0308158D01*
X0207103Y0308098D01*
X0207243Y0308034D01*
X0207383Y0307967D01*
X0207520Y0307896D01*
X0207655Y0307822D01*
X0207789Y0307744D01*
X0207920Y0307663D01*
X0208049Y0307578D01*
X0208177Y0307490D01*
X0208301Y0307399D01*
X0208424Y0307305D01*
X0208544Y0307207D01*
X0208661Y0307107D01*
X0208776Y0307003D01*
X0208888Y0306897D01*
X0208997Y0306788D01*
X0209103Y0306676D01*
X0209207Y0306561D01*
X0209307Y0306444D01*
X0209405Y0306324D01*
X0209499Y0306201D01*
X0209590Y0306077D01*
X0209678Y0305949D01*
X0209763Y0305820D01*
X0209844Y0305689D01*
X0209922Y0305555D01*
X0209996Y0305420D01*
X0210067Y0305283D01*
X0210134Y0305143D01*
X0210198Y0305003D01*
X0210258Y0304860D01*
X0210314Y0304717D01*
X0210367Y0304571D01*
X0210416Y0304425D01*
X0210461Y0304277D01*
X0210502Y0304128D01*
X0210540Y0303978D01*
X0210573Y0303827D01*
X0210603Y0303676D01*
X0210629Y0303523D01*
X0210650Y0303370D01*
X0210668Y0303217D01*
X0210682Y0303063D01*
X0210692Y0302909D01*
X0210698Y0302754D01*
X0210700Y0302600D01*
X0210698Y0302446D01*
X0210692Y0302291D01*
X0210682Y0302137D01*
X0210668Y0301983D01*
X0210650Y0301830D01*
X0210629Y0301677D01*
X0210603Y0301524D01*
X0210573Y0301373D01*
X0210540Y0301222D01*
X0210502Y0301072D01*
X0210461Y0300923D01*
X0210416Y0300775D01*
X0210367Y0300629D01*
X0210314Y0300483D01*
X0210258Y0300340D01*
X0210198Y0300197D01*
X0210134Y0300057D01*
X0210067Y0299917D01*
X0209996Y0299780D01*
X0209922Y0299645D01*
X0209844Y0299511D01*
X0209763Y0299380D01*
X0209678Y0299251D01*
X0209590Y0299123D01*
X0209499Y0298999D01*
X0209405Y0298876D01*
X0209307Y0298756D01*
X0209207Y0298639D01*
X0209103Y0298524D01*
X0208997Y0298412D01*
X0208888Y0298303D01*
X0208776Y0298197D01*
X0208661Y0298093D01*
X0208544Y0297993D01*
X0208424Y0297895D01*
X0208301Y0297801D01*
X0208177Y0297710D01*
X0208049Y0297622D01*
X0207920Y0297537D01*
X0207789Y0297456D01*
X0207655Y0297378D01*
X0207520Y0297304D01*
X0207383Y0297233D01*
X0207243Y0297166D01*
X0207103Y0297102D01*
X0206960Y0297042D01*
X0206817Y0296986D01*
X0206671Y0296933D01*
X0206525Y0296884D01*
X0206377Y0296839D01*
X0206228Y0296798D01*
X0206078Y0296760D01*
X0205927Y0296727D01*
X0205776Y0296697D01*
X0205623Y0296671D01*
X0205470Y0296650D01*
X0205317Y0296632D01*
X0205163Y0296618D01*
X0205009Y0296608D01*
X0204854Y0296602D01*
X0204700Y0296600D01*
X0204546Y0296602D01*
X0204391Y0296608D01*
X0204237Y0296618D01*
X0204083Y0296632D01*
X0203930Y0296650D01*
X0203777Y0296671D01*
X0203624Y0296697D01*
X0203473Y0296727D01*
X0203322Y0296760D01*
X0203172Y0296798D01*
X0203023Y0296839D01*
X0202875Y0296884D01*
X0202729Y0296933D01*
X0202583Y0296986D01*
X0202440Y0297042D01*
X0202297Y0297102D01*
X0202157Y0297166D01*
X0202017Y0297233D01*
X0201880Y0297304D01*
X0201745Y0297378D01*
X0201611Y0297456D01*
X0201480Y0297537D01*
X0201351Y0297622D01*
X0201223Y0297710D01*
X0201099Y0297801D01*
X0200976Y0297895D01*
X0200856Y0297993D01*
X0200739Y0298093D01*
X0200624Y0298197D01*
X0200512Y0298303D01*
X0200403Y0298412D01*
X0200297Y0298524D01*
X0200193Y0298639D01*
X0200093Y0298756D01*
X0199995Y0298876D01*
X0199901Y0298999D01*
X0199810Y0299123D01*
X0199722Y0299251D01*
X0199637Y0299380D01*
X0199556Y0299511D01*
X0199478Y0299645D01*
X0199404Y0299780D01*
X0199333Y0299917D01*
X0199266Y0300057D01*
X0199202Y0300197D01*
X0199142Y0300340D01*
X0199086Y0300483D01*
X0199033Y0300629D01*
X0198984Y0300775D01*
X0198939Y0300923D01*
X0198898Y0301072D01*
X0198860Y0301222D01*
X0198827Y0301373D01*
X0198797Y0301524D01*
X0198771Y0301677D01*
X0198750Y0301830D01*
X0198732Y0301983D01*
X0198718Y0302137D01*
X0198708Y0302291D01*
X0198702Y0302446D01*
X0198700Y0302600D01*
X0180000Y0311000D02*
X0180002Y0311141D01*
X0180008Y0311282D01*
X0180018Y0311422D01*
X0180032Y0311562D01*
X0180050Y0311702D01*
X0180071Y0311841D01*
X0180097Y0311980D01*
X0180126Y0312118D01*
X0180160Y0312254D01*
X0180197Y0312390D01*
X0180238Y0312525D01*
X0180283Y0312659D01*
X0180332Y0312791D01*
X0180384Y0312922D01*
X0180440Y0313051D01*
X0180500Y0313178D01*
X0180563Y0313304D01*
X0180629Y0313428D01*
X0180700Y0313551D01*
X0180773Y0313671D01*
X0180850Y0313789D01*
X0180930Y0313905D01*
X0181014Y0314018D01*
X0181100Y0314129D01*
X0181190Y0314238D01*
X0181283Y0314344D01*
X0181378Y0314447D01*
X0181477Y0314548D01*
X0181578Y0314646D01*
X0181682Y0314741D01*
X0181789Y0314833D01*
X0181898Y0314922D01*
X0182010Y0315007D01*
X0182124Y0315090D01*
X0182240Y0315170D01*
X0182359Y0315246D01*
X0182480Y0315318D01*
X0182602Y0315388D01*
X0182727Y0315453D01*
X0182853Y0315516D01*
X0182981Y0315574D01*
X0183111Y0315629D01*
X0183242Y0315681D01*
X0183375Y0315728D01*
X0183509Y0315772D01*
X0183644Y0315813D01*
X0183780Y0315849D01*
X0183917Y0315881D01*
X0184055Y0315910D01*
X0184193Y0315935D01*
X0184333Y0315955D01*
X0184473Y0315972D01*
X0184613Y0315985D01*
X0184754Y0315994D01*
X0184894Y0315999D01*
X0185035Y0316000D01*
X0185176Y0315997D01*
X0185317Y0315990D01*
X0185457Y0315979D01*
X0185597Y0315964D01*
X0185737Y0315945D01*
X0185876Y0315923D01*
X0186014Y0315896D01*
X0186152Y0315866D01*
X0186288Y0315831D01*
X0186424Y0315793D01*
X0186558Y0315751D01*
X0186692Y0315705D01*
X0186824Y0315656D01*
X0186954Y0315602D01*
X0187083Y0315545D01*
X0187210Y0315485D01*
X0187336Y0315421D01*
X0187459Y0315353D01*
X0187581Y0315282D01*
X0187701Y0315208D01*
X0187818Y0315130D01*
X0187933Y0315049D01*
X0188046Y0314965D01*
X0188157Y0314878D01*
X0188265Y0314787D01*
X0188370Y0314694D01*
X0188473Y0314597D01*
X0188573Y0314498D01*
X0188670Y0314396D01*
X0188764Y0314291D01*
X0188855Y0314184D01*
X0188943Y0314074D01*
X0189028Y0313962D01*
X0189110Y0313847D01*
X0189189Y0313730D01*
X0189264Y0313611D01*
X0189336Y0313490D01*
X0189404Y0313367D01*
X0189469Y0313242D01*
X0189531Y0313115D01*
X0189588Y0312986D01*
X0189643Y0312856D01*
X0189693Y0312725D01*
X0189740Y0312592D01*
X0189783Y0312458D01*
X0189822Y0312322D01*
X0189857Y0312186D01*
X0189889Y0312049D01*
X0189916Y0311911D01*
X0189940Y0311772D01*
X0189960Y0311632D01*
X0189976Y0311492D01*
X0189988Y0311352D01*
X0189996Y0311211D01*
X0190000Y0311070D01*
X0190000Y0310930D01*
X0189996Y0310789D01*
X0189988Y0310648D01*
X0189976Y0310508D01*
X0189960Y0310368D01*
X0189940Y0310228D01*
X0189916Y0310089D01*
X0189889Y0309951D01*
X0189857Y0309814D01*
X0189822Y0309678D01*
X0189783Y0309542D01*
X0189740Y0309408D01*
X0189693Y0309275D01*
X0189643Y0309144D01*
X0189588Y0309014D01*
X0189531Y0308885D01*
X0189469Y0308758D01*
X0189404Y0308633D01*
X0189336Y0308510D01*
X0189264Y0308389D01*
X0189189Y0308270D01*
X0189110Y0308153D01*
X0189028Y0308038D01*
X0188943Y0307926D01*
X0188855Y0307816D01*
X0188764Y0307709D01*
X0188670Y0307604D01*
X0188573Y0307502D01*
X0188473Y0307403D01*
X0188370Y0307306D01*
X0188265Y0307213D01*
X0188157Y0307122D01*
X0188046Y0307035D01*
X0187933Y0306951D01*
X0187818Y0306870D01*
X0187701Y0306792D01*
X0187581Y0306718D01*
X0187459Y0306647D01*
X0187336Y0306579D01*
X0187210Y0306515D01*
X0187083Y0306455D01*
X0186954Y0306398D01*
X0186824Y0306344D01*
X0186692Y0306295D01*
X0186558Y0306249D01*
X0186424Y0306207D01*
X0186288Y0306169D01*
X0186152Y0306134D01*
X0186014Y0306104D01*
X0185876Y0306077D01*
X0185737Y0306055D01*
X0185597Y0306036D01*
X0185457Y0306021D01*
X0185317Y0306010D01*
X0185176Y0306003D01*
X0185035Y0306000D01*
X0184894Y0306001D01*
X0184754Y0306006D01*
X0184613Y0306015D01*
X0184473Y0306028D01*
X0184333Y0306045D01*
X0184193Y0306065D01*
X0184055Y0306090D01*
X0183917Y0306119D01*
X0183780Y0306151D01*
X0183644Y0306187D01*
X0183509Y0306228D01*
X0183375Y0306272D01*
X0183242Y0306319D01*
X0183111Y0306371D01*
X0182981Y0306426D01*
X0182853Y0306484D01*
X0182727Y0306547D01*
X0182602Y0306612D01*
X0182480Y0306682D01*
X0182359Y0306754D01*
X0182240Y0306830D01*
X0182124Y0306910D01*
X0182010Y0306993D01*
X0181898Y0307078D01*
X0181789Y0307167D01*
X0181682Y0307259D01*
X0181578Y0307354D01*
X0181477Y0307452D01*
X0181378Y0307553D01*
X0181283Y0307656D01*
X0181190Y0307762D01*
X0181100Y0307871D01*
X0181014Y0307982D01*
X0180930Y0308095D01*
X0180850Y0308211D01*
X0180773Y0308329D01*
X0180700Y0308449D01*
X0180629Y0308572D01*
X0180563Y0308696D01*
X0180500Y0308822D01*
X0180440Y0308949D01*
X0180384Y0309078D01*
X0180332Y0309209D01*
X0180283Y0309341D01*
X0180238Y0309475D01*
X0180197Y0309610D01*
X0180160Y0309746D01*
X0180126Y0309882D01*
X0180097Y0310020D01*
X0180071Y0310159D01*
X0180050Y0310298D01*
X0180032Y0310438D01*
X0180018Y0310578D01*
X0180008Y0310718D01*
X0180002Y0310859D01*
X0180000Y0311000D01*
X0160100Y0309300D02*
X0160102Y0309484D01*
X0160109Y0309668D01*
X0160120Y0309852D01*
X0160136Y0310035D01*
X0160156Y0310218D01*
X0160181Y0310400D01*
X0160210Y0310582D01*
X0160244Y0310763D01*
X0160282Y0310943D01*
X0160325Y0311122D01*
X0160372Y0311300D01*
X0160423Y0311477D01*
X0160479Y0311653D01*
X0160538Y0311827D01*
X0160603Y0311999D01*
X0160671Y0312170D01*
X0160743Y0312339D01*
X0160820Y0312507D01*
X0160901Y0312672D01*
X0160986Y0312835D01*
X0161074Y0312997D01*
X0161167Y0313156D01*
X0161264Y0313312D01*
X0161364Y0313467D01*
X0161468Y0313619D01*
X0161576Y0313768D01*
X0161687Y0313914D01*
X0161802Y0314058D01*
X0161921Y0314199D01*
X0162043Y0314337D01*
X0162168Y0314472D01*
X0162297Y0314603D01*
X0162428Y0314732D01*
X0162563Y0314857D01*
X0162701Y0314979D01*
X0162842Y0315098D01*
X0162986Y0315213D01*
X0163132Y0315324D01*
X0163281Y0315432D01*
X0163433Y0315536D01*
X0163588Y0315636D01*
X0163744Y0315733D01*
X0163903Y0315826D01*
X0164065Y0315914D01*
X0164228Y0315999D01*
X0164393Y0316080D01*
X0164561Y0316157D01*
X0164730Y0316229D01*
X0164901Y0316297D01*
X0165073Y0316362D01*
X0165247Y0316421D01*
X0165423Y0316477D01*
X0165600Y0316528D01*
X0165778Y0316575D01*
X0165957Y0316618D01*
X0166137Y0316656D01*
X0166318Y0316690D01*
X0166500Y0316719D01*
X0166682Y0316744D01*
X0166865Y0316764D01*
X0167048Y0316780D01*
X0167232Y0316791D01*
X0167416Y0316798D01*
X0167600Y0316800D01*
X0167784Y0316798D01*
X0167968Y0316791D01*
X0168152Y0316780D01*
X0168335Y0316764D01*
X0168518Y0316744D01*
X0168700Y0316719D01*
X0168882Y0316690D01*
X0169063Y0316656D01*
X0169243Y0316618D01*
X0169422Y0316575D01*
X0169600Y0316528D01*
X0169777Y0316477D01*
X0169953Y0316421D01*
X0170127Y0316362D01*
X0170299Y0316297D01*
X0170470Y0316229D01*
X0170639Y0316157D01*
X0170807Y0316080D01*
X0170972Y0315999D01*
X0171135Y0315914D01*
X0171297Y0315826D01*
X0171456Y0315733D01*
X0171612Y0315636D01*
X0171767Y0315536D01*
X0171919Y0315432D01*
X0172068Y0315324D01*
X0172214Y0315213D01*
X0172358Y0315098D01*
X0172499Y0314979D01*
X0172637Y0314857D01*
X0172772Y0314732D01*
X0172903Y0314603D01*
X0173032Y0314472D01*
X0173157Y0314337D01*
X0173279Y0314199D01*
X0173398Y0314058D01*
X0173513Y0313914D01*
X0173624Y0313768D01*
X0173732Y0313619D01*
X0173836Y0313467D01*
X0173936Y0313312D01*
X0174033Y0313156D01*
X0174126Y0312997D01*
X0174214Y0312835D01*
X0174299Y0312672D01*
X0174380Y0312507D01*
X0174457Y0312339D01*
X0174529Y0312170D01*
X0174597Y0311999D01*
X0174662Y0311827D01*
X0174721Y0311653D01*
X0174777Y0311477D01*
X0174828Y0311300D01*
X0174875Y0311122D01*
X0174918Y0310943D01*
X0174956Y0310763D01*
X0174990Y0310582D01*
X0175019Y0310400D01*
X0175044Y0310218D01*
X0175064Y0310035D01*
X0175080Y0309852D01*
X0175091Y0309668D01*
X0175098Y0309484D01*
X0175100Y0309300D01*
X0175098Y0309116D01*
X0175091Y0308932D01*
X0175080Y0308748D01*
X0175064Y0308565D01*
X0175044Y0308382D01*
X0175019Y0308200D01*
X0174990Y0308018D01*
X0174956Y0307837D01*
X0174918Y0307657D01*
X0174875Y0307478D01*
X0174828Y0307300D01*
X0174777Y0307123D01*
X0174721Y0306947D01*
X0174662Y0306773D01*
X0174597Y0306601D01*
X0174529Y0306430D01*
X0174457Y0306261D01*
X0174380Y0306093D01*
X0174299Y0305928D01*
X0174214Y0305765D01*
X0174126Y0305603D01*
X0174033Y0305444D01*
X0173936Y0305288D01*
X0173836Y0305133D01*
X0173732Y0304981D01*
X0173624Y0304832D01*
X0173513Y0304686D01*
X0173398Y0304542D01*
X0173279Y0304401D01*
X0173157Y0304263D01*
X0173032Y0304128D01*
X0172903Y0303997D01*
X0172772Y0303868D01*
X0172637Y0303743D01*
X0172499Y0303621D01*
X0172358Y0303502D01*
X0172214Y0303387D01*
X0172068Y0303276D01*
X0171919Y0303168D01*
X0171767Y0303064D01*
X0171612Y0302964D01*
X0171456Y0302867D01*
X0171297Y0302774D01*
X0171135Y0302686D01*
X0170972Y0302601D01*
X0170807Y0302520D01*
X0170639Y0302443D01*
X0170470Y0302371D01*
X0170299Y0302303D01*
X0170127Y0302238D01*
X0169953Y0302179D01*
X0169777Y0302123D01*
X0169600Y0302072D01*
X0169422Y0302025D01*
X0169243Y0301982D01*
X0169063Y0301944D01*
X0168882Y0301910D01*
X0168700Y0301881D01*
X0168518Y0301856D01*
X0168335Y0301836D01*
X0168152Y0301820D01*
X0167968Y0301809D01*
X0167784Y0301802D01*
X0167600Y0301800D01*
X0167416Y0301802D01*
X0167232Y0301809D01*
X0167048Y0301820D01*
X0166865Y0301836D01*
X0166682Y0301856D01*
X0166500Y0301881D01*
X0166318Y0301910D01*
X0166137Y0301944D01*
X0165957Y0301982D01*
X0165778Y0302025D01*
X0165600Y0302072D01*
X0165423Y0302123D01*
X0165247Y0302179D01*
X0165073Y0302238D01*
X0164901Y0302303D01*
X0164730Y0302371D01*
X0164561Y0302443D01*
X0164393Y0302520D01*
X0164228Y0302601D01*
X0164065Y0302686D01*
X0163903Y0302774D01*
X0163744Y0302867D01*
X0163588Y0302964D01*
X0163433Y0303064D01*
X0163281Y0303168D01*
X0163132Y0303276D01*
X0162986Y0303387D01*
X0162842Y0303502D01*
X0162701Y0303621D01*
X0162563Y0303743D01*
X0162428Y0303868D01*
X0162297Y0303997D01*
X0162168Y0304128D01*
X0162043Y0304263D01*
X0161921Y0304401D01*
X0161802Y0304542D01*
X0161687Y0304686D01*
X0161576Y0304832D01*
X0161468Y0304981D01*
X0161364Y0305133D01*
X0161264Y0305288D01*
X0161167Y0305444D01*
X0161074Y0305603D01*
X0160986Y0305765D01*
X0160901Y0305928D01*
X0160820Y0306093D01*
X0160743Y0306261D01*
X0160671Y0306430D01*
X0160603Y0306601D01*
X0160538Y0306773D01*
X0160479Y0306947D01*
X0160423Y0307123D01*
X0160372Y0307300D01*
X0160325Y0307478D01*
X0160282Y0307657D01*
X0160244Y0307837D01*
X0160210Y0308018D01*
X0160181Y0308200D01*
X0160156Y0308382D01*
X0160136Y0308565D01*
X0160120Y0308748D01*
X0160109Y0308932D01*
X0160102Y0309116D01*
X0160100Y0309300D01*
X0219700Y0299700D02*
X0219702Y0299884D01*
X0219709Y0300068D01*
X0219720Y0300252D01*
X0219736Y0300435D01*
X0219756Y0300618D01*
X0219781Y0300800D01*
X0219810Y0300982D01*
X0219844Y0301163D01*
X0219882Y0301343D01*
X0219925Y0301522D01*
X0219972Y0301700D01*
X0220023Y0301877D01*
X0220079Y0302053D01*
X0220138Y0302227D01*
X0220203Y0302399D01*
X0220271Y0302570D01*
X0220343Y0302739D01*
X0220420Y0302907D01*
X0220501Y0303072D01*
X0220586Y0303235D01*
X0220674Y0303397D01*
X0220767Y0303556D01*
X0220864Y0303712D01*
X0220964Y0303867D01*
X0221068Y0304019D01*
X0221176Y0304168D01*
X0221287Y0304314D01*
X0221402Y0304458D01*
X0221521Y0304599D01*
X0221643Y0304737D01*
X0221768Y0304872D01*
X0221897Y0305003D01*
X0222028Y0305132D01*
X0222163Y0305257D01*
X0222301Y0305379D01*
X0222442Y0305498D01*
X0222586Y0305613D01*
X0222732Y0305724D01*
X0222881Y0305832D01*
X0223033Y0305936D01*
X0223188Y0306036D01*
X0223344Y0306133D01*
X0223503Y0306226D01*
X0223665Y0306314D01*
X0223828Y0306399D01*
X0223993Y0306480D01*
X0224161Y0306557D01*
X0224330Y0306629D01*
X0224501Y0306697D01*
X0224673Y0306762D01*
X0224847Y0306821D01*
X0225023Y0306877D01*
X0225200Y0306928D01*
X0225378Y0306975D01*
X0225557Y0307018D01*
X0225737Y0307056D01*
X0225918Y0307090D01*
X0226100Y0307119D01*
X0226282Y0307144D01*
X0226465Y0307164D01*
X0226648Y0307180D01*
X0226832Y0307191D01*
X0227016Y0307198D01*
X0227200Y0307200D01*
X0227384Y0307198D01*
X0227568Y0307191D01*
X0227752Y0307180D01*
X0227935Y0307164D01*
X0228118Y0307144D01*
X0228300Y0307119D01*
X0228482Y0307090D01*
X0228663Y0307056D01*
X0228843Y0307018D01*
X0229022Y0306975D01*
X0229200Y0306928D01*
X0229377Y0306877D01*
X0229553Y0306821D01*
X0229727Y0306762D01*
X0229899Y0306697D01*
X0230070Y0306629D01*
X0230239Y0306557D01*
X0230407Y0306480D01*
X0230572Y0306399D01*
X0230735Y0306314D01*
X0230897Y0306226D01*
X0231056Y0306133D01*
X0231212Y0306036D01*
X0231367Y0305936D01*
X0231519Y0305832D01*
X0231668Y0305724D01*
X0231814Y0305613D01*
X0231958Y0305498D01*
X0232099Y0305379D01*
X0232237Y0305257D01*
X0232372Y0305132D01*
X0232503Y0305003D01*
X0232632Y0304872D01*
X0232757Y0304737D01*
X0232879Y0304599D01*
X0232998Y0304458D01*
X0233113Y0304314D01*
X0233224Y0304168D01*
X0233332Y0304019D01*
X0233436Y0303867D01*
X0233536Y0303712D01*
X0233633Y0303556D01*
X0233726Y0303397D01*
X0233814Y0303235D01*
X0233899Y0303072D01*
X0233980Y0302907D01*
X0234057Y0302739D01*
X0234129Y0302570D01*
X0234197Y0302399D01*
X0234262Y0302227D01*
X0234321Y0302053D01*
X0234377Y0301877D01*
X0234428Y0301700D01*
X0234475Y0301522D01*
X0234518Y0301343D01*
X0234556Y0301163D01*
X0234590Y0300982D01*
X0234619Y0300800D01*
X0234644Y0300618D01*
X0234664Y0300435D01*
X0234680Y0300252D01*
X0234691Y0300068D01*
X0234698Y0299884D01*
X0234700Y0299700D01*
X0234698Y0299516D01*
X0234691Y0299332D01*
X0234680Y0299148D01*
X0234664Y0298965D01*
X0234644Y0298782D01*
X0234619Y0298600D01*
X0234590Y0298418D01*
X0234556Y0298237D01*
X0234518Y0298057D01*
X0234475Y0297878D01*
X0234428Y0297700D01*
X0234377Y0297523D01*
X0234321Y0297347D01*
X0234262Y0297173D01*
X0234197Y0297001D01*
X0234129Y0296830D01*
X0234057Y0296661D01*
X0233980Y0296493D01*
X0233899Y0296328D01*
X0233814Y0296165D01*
X0233726Y0296003D01*
X0233633Y0295844D01*
X0233536Y0295688D01*
X0233436Y0295533D01*
X0233332Y0295381D01*
X0233224Y0295232D01*
X0233113Y0295086D01*
X0232998Y0294942D01*
X0232879Y0294801D01*
X0232757Y0294663D01*
X0232632Y0294528D01*
X0232503Y0294397D01*
X0232372Y0294268D01*
X0232237Y0294143D01*
X0232099Y0294021D01*
X0231958Y0293902D01*
X0231814Y0293787D01*
X0231668Y0293676D01*
X0231519Y0293568D01*
X0231367Y0293464D01*
X0231212Y0293364D01*
X0231056Y0293267D01*
X0230897Y0293174D01*
X0230735Y0293086D01*
X0230572Y0293001D01*
X0230407Y0292920D01*
X0230239Y0292843D01*
X0230070Y0292771D01*
X0229899Y0292703D01*
X0229727Y0292638D01*
X0229553Y0292579D01*
X0229377Y0292523D01*
X0229200Y0292472D01*
X0229022Y0292425D01*
X0228843Y0292382D01*
X0228663Y0292344D01*
X0228482Y0292310D01*
X0228300Y0292281D01*
X0228118Y0292256D01*
X0227935Y0292236D01*
X0227752Y0292220D01*
X0227568Y0292209D01*
X0227384Y0292202D01*
X0227200Y0292200D01*
X0227016Y0292202D01*
X0226832Y0292209D01*
X0226648Y0292220D01*
X0226465Y0292236D01*
X0226282Y0292256D01*
X0226100Y0292281D01*
X0225918Y0292310D01*
X0225737Y0292344D01*
X0225557Y0292382D01*
X0225378Y0292425D01*
X0225200Y0292472D01*
X0225023Y0292523D01*
X0224847Y0292579D01*
X0224673Y0292638D01*
X0224501Y0292703D01*
X0224330Y0292771D01*
X0224161Y0292843D01*
X0223993Y0292920D01*
X0223828Y0293001D01*
X0223665Y0293086D01*
X0223503Y0293174D01*
X0223344Y0293267D01*
X0223188Y0293364D01*
X0223033Y0293464D01*
X0222881Y0293568D01*
X0222732Y0293676D01*
X0222586Y0293787D01*
X0222442Y0293902D01*
X0222301Y0294021D01*
X0222163Y0294143D01*
X0222028Y0294268D01*
X0221897Y0294397D01*
X0221768Y0294528D01*
X0221643Y0294663D01*
X0221521Y0294801D01*
X0221402Y0294942D01*
X0221287Y0295086D01*
X0221176Y0295232D01*
X0221068Y0295381D01*
X0220964Y0295533D01*
X0220864Y0295688D01*
X0220767Y0295844D01*
X0220674Y0296003D01*
X0220586Y0296165D01*
X0220501Y0296328D01*
X0220420Y0296493D01*
X0220343Y0296661D01*
X0220271Y0296830D01*
X0220203Y0297001D01*
X0220138Y0297173D01*
X0220079Y0297347D01*
X0220023Y0297523D01*
X0219972Y0297700D01*
X0219925Y0297878D01*
X0219882Y0298057D01*
X0219844Y0298237D01*
X0219810Y0298418D01*
X0219781Y0298600D01*
X0219756Y0298782D01*
X0219736Y0298965D01*
X0219720Y0299148D01*
X0219709Y0299332D01*
X0219702Y0299516D01*
X0219700Y0299700D01*
X0261700Y0299700D02*
X0261702Y0299884D01*
X0261709Y0300068D01*
X0261720Y0300252D01*
X0261736Y0300435D01*
X0261756Y0300618D01*
X0261781Y0300800D01*
X0261810Y0300982D01*
X0261844Y0301163D01*
X0261882Y0301343D01*
X0261925Y0301522D01*
X0261972Y0301700D01*
X0262023Y0301877D01*
X0262079Y0302053D01*
X0262138Y0302227D01*
X0262203Y0302399D01*
X0262271Y0302570D01*
X0262343Y0302739D01*
X0262420Y0302907D01*
X0262501Y0303072D01*
X0262586Y0303235D01*
X0262674Y0303397D01*
X0262767Y0303556D01*
X0262864Y0303712D01*
X0262964Y0303867D01*
X0263068Y0304019D01*
X0263176Y0304168D01*
X0263287Y0304314D01*
X0263402Y0304458D01*
X0263521Y0304599D01*
X0263643Y0304737D01*
X0263768Y0304872D01*
X0263897Y0305003D01*
X0264028Y0305132D01*
X0264163Y0305257D01*
X0264301Y0305379D01*
X0264442Y0305498D01*
X0264586Y0305613D01*
X0264732Y0305724D01*
X0264881Y0305832D01*
X0265033Y0305936D01*
X0265188Y0306036D01*
X0265344Y0306133D01*
X0265503Y0306226D01*
X0265665Y0306314D01*
X0265828Y0306399D01*
X0265993Y0306480D01*
X0266161Y0306557D01*
X0266330Y0306629D01*
X0266501Y0306697D01*
X0266673Y0306762D01*
X0266847Y0306821D01*
X0267023Y0306877D01*
X0267200Y0306928D01*
X0267378Y0306975D01*
X0267557Y0307018D01*
X0267737Y0307056D01*
X0267918Y0307090D01*
X0268100Y0307119D01*
X0268282Y0307144D01*
X0268465Y0307164D01*
X0268648Y0307180D01*
X0268832Y0307191D01*
X0269016Y0307198D01*
X0269200Y0307200D01*
X0269384Y0307198D01*
X0269568Y0307191D01*
X0269752Y0307180D01*
X0269935Y0307164D01*
X0270118Y0307144D01*
X0270300Y0307119D01*
X0270482Y0307090D01*
X0270663Y0307056D01*
X0270843Y0307018D01*
X0271022Y0306975D01*
X0271200Y0306928D01*
X0271377Y0306877D01*
X0271553Y0306821D01*
X0271727Y0306762D01*
X0271899Y0306697D01*
X0272070Y0306629D01*
X0272239Y0306557D01*
X0272407Y0306480D01*
X0272572Y0306399D01*
X0272735Y0306314D01*
X0272897Y0306226D01*
X0273056Y0306133D01*
X0273212Y0306036D01*
X0273367Y0305936D01*
X0273519Y0305832D01*
X0273668Y0305724D01*
X0273814Y0305613D01*
X0273958Y0305498D01*
X0274099Y0305379D01*
X0274237Y0305257D01*
X0274372Y0305132D01*
X0274503Y0305003D01*
X0274632Y0304872D01*
X0274757Y0304737D01*
X0274879Y0304599D01*
X0274998Y0304458D01*
X0275113Y0304314D01*
X0275224Y0304168D01*
X0275332Y0304019D01*
X0275436Y0303867D01*
X0275536Y0303712D01*
X0275633Y0303556D01*
X0275726Y0303397D01*
X0275814Y0303235D01*
X0275899Y0303072D01*
X0275980Y0302907D01*
X0276057Y0302739D01*
X0276129Y0302570D01*
X0276197Y0302399D01*
X0276262Y0302227D01*
X0276321Y0302053D01*
X0276377Y0301877D01*
X0276428Y0301700D01*
X0276475Y0301522D01*
X0276518Y0301343D01*
X0276556Y0301163D01*
X0276590Y0300982D01*
X0276619Y0300800D01*
X0276644Y0300618D01*
X0276664Y0300435D01*
X0276680Y0300252D01*
X0276691Y0300068D01*
X0276698Y0299884D01*
X0276700Y0299700D01*
X0276698Y0299516D01*
X0276691Y0299332D01*
X0276680Y0299148D01*
X0276664Y0298965D01*
X0276644Y0298782D01*
X0276619Y0298600D01*
X0276590Y0298418D01*
X0276556Y0298237D01*
X0276518Y0298057D01*
X0276475Y0297878D01*
X0276428Y0297700D01*
X0276377Y0297523D01*
X0276321Y0297347D01*
X0276262Y0297173D01*
X0276197Y0297001D01*
X0276129Y0296830D01*
X0276057Y0296661D01*
X0275980Y0296493D01*
X0275899Y0296328D01*
X0275814Y0296165D01*
X0275726Y0296003D01*
X0275633Y0295844D01*
X0275536Y0295688D01*
X0275436Y0295533D01*
X0275332Y0295381D01*
X0275224Y0295232D01*
X0275113Y0295086D01*
X0274998Y0294942D01*
X0274879Y0294801D01*
X0274757Y0294663D01*
X0274632Y0294528D01*
X0274503Y0294397D01*
X0274372Y0294268D01*
X0274237Y0294143D01*
X0274099Y0294021D01*
X0273958Y0293902D01*
X0273814Y0293787D01*
X0273668Y0293676D01*
X0273519Y0293568D01*
X0273367Y0293464D01*
X0273212Y0293364D01*
X0273056Y0293267D01*
X0272897Y0293174D01*
X0272735Y0293086D01*
X0272572Y0293001D01*
X0272407Y0292920D01*
X0272239Y0292843D01*
X0272070Y0292771D01*
X0271899Y0292703D01*
X0271727Y0292638D01*
X0271553Y0292579D01*
X0271377Y0292523D01*
X0271200Y0292472D01*
X0271022Y0292425D01*
X0270843Y0292382D01*
X0270663Y0292344D01*
X0270482Y0292310D01*
X0270300Y0292281D01*
X0270118Y0292256D01*
X0269935Y0292236D01*
X0269752Y0292220D01*
X0269568Y0292209D01*
X0269384Y0292202D01*
X0269200Y0292200D01*
X0269016Y0292202D01*
X0268832Y0292209D01*
X0268648Y0292220D01*
X0268465Y0292236D01*
X0268282Y0292256D01*
X0268100Y0292281D01*
X0267918Y0292310D01*
X0267737Y0292344D01*
X0267557Y0292382D01*
X0267378Y0292425D01*
X0267200Y0292472D01*
X0267023Y0292523D01*
X0266847Y0292579D01*
X0266673Y0292638D01*
X0266501Y0292703D01*
X0266330Y0292771D01*
X0266161Y0292843D01*
X0265993Y0292920D01*
X0265828Y0293001D01*
X0265665Y0293086D01*
X0265503Y0293174D01*
X0265344Y0293267D01*
X0265188Y0293364D01*
X0265033Y0293464D01*
X0264881Y0293568D01*
X0264732Y0293676D01*
X0264586Y0293787D01*
X0264442Y0293902D01*
X0264301Y0294021D01*
X0264163Y0294143D01*
X0264028Y0294268D01*
X0263897Y0294397D01*
X0263768Y0294528D01*
X0263643Y0294663D01*
X0263521Y0294801D01*
X0263402Y0294942D01*
X0263287Y0295086D01*
X0263176Y0295232D01*
X0263068Y0295381D01*
X0262964Y0295533D01*
X0262864Y0295688D01*
X0262767Y0295844D01*
X0262674Y0296003D01*
X0262586Y0296165D01*
X0262501Y0296328D01*
X0262420Y0296493D01*
X0262343Y0296661D01*
X0262271Y0296830D01*
X0262203Y0297001D01*
X0262138Y0297173D01*
X0262079Y0297347D01*
X0262023Y0297523D01*
X0261972Y0297700D01*
X0261925Y0297878D01*
X0261882Y0298057D01*
X0261844Y0298237D01*
X0261810Y0298418D01*
X0261781Y0298600D01*
X0261756Y0298782D01*
X0261736Y0298965D01*
X0261720Y0299148D01*
X0261709Y0299332D01*
X0261702Y0299516D01*
X0261700Y0299700D01*
X0281100Y0300500D02*
X0281102Y0300660D01*
X0281108Y0300819D01*
X0281118Y0300978D01*
X0281132Y0301137D01*
X0281150Y0301296D01*
X0281171Y0301454D01*
X0281197Y0301611D01*
X0281227Y0301768D01*
X0281260Y0301924D01*
X0281298Y0302079D01*
X0281339Y0302233D01*
X0281384Y0302386D01*
X0281433Y0302538D01*
X0281486Y0302689D01*
X0281542Y0302838D01*
X0281603Y0302986D01*
X0281666Y0303132D01*
X0281734Y0303277D01*
X0281805Y0303420D01*
X0281879Y0303561D01*
X0281957Y0303700D01*
X0282039Y0303837D01*
X0282124Y0303972D01*
X0282212Y0304105D01*
X0282304Y0304236D01*
X0282398Y0304364D01*
X0282496Y0304490D01*
X0282597Y0304614D01*
X0282701Y0304735D01*
X0282808Y0304853D01*
X0282918Y0304969D01*
X0283031Y0305082D01*
X0283147Y0305192D01*
X0283265Y0305299D01*
X0283386Y0305403D01*
X0283510Y0305504D01*
X0283636Y0305602D01*
X0283764Y0305696D01*
X0283895Y0305788D01*
X0284028Y0305876D01*
X0284163Y0305961D01*
X0284300Y0306043D01*
X0284439Y0306121D01*
X0284580Y0306195D01*
X0284723Y0306266D01*
X0284868Y0306334D01*
X0285014Y0306397D01*
X0285162Y0306458D01*
X0285311Y0306514D01*
X0285462Y0306567D01*
X0285614Y0306616D01*
X0285767Y0306661D01*
X0285921Y0306702D01*
X0286076Y0306740D01*
X0286232Y0306773D01*
X0286389Y0306803D01*
X0286546Y0306829D01*
X0286704Y0306850D01*
X0286863Y0306868D01*
X0287022Y0306882D01*
X0287181Y0306892D01*
X0287340Y0306898D01*
X0287500Y0306900D01*
X0287660Y0306898D01*
X0287819Y0306892D01*
X0287978Y0306882D01*
X0288137Y0306868D01*
X0288296Y0306850D01*
X0288454Y0306829D01*
X0288611Y0306803D01*
X0288768Y0306773D01*
X0288924Y0306740D01*
X0289079Y0306702D01*
X0289233Y0306661D01*
X0289386Y0306616D01*
X0289538Y0306567D01*
X0289689Y0306514D01*
X0289838Y0306458D01*
X0289986Y0306397D01*
X0290132Y0306334D01*
X0290277Y0306266D01*
X0290420Y0306195D01*
X0290561Y0306121D01*
X0290700Y0306043D01*
X0290837Y0305961D01*
X0290972Y0305876D01*
X0291105Y0305788D01*
X0291236Y0305696D01*
X0291364Y0305602D01*
X0291490Y0305504D01*
X0291614Y0305403D01*
X0291735Y0305299D01*
X0291853Y0305192D01*
X0291969Y0305082D01*
X0292082Y0304969D01*
X0292192Y0304853D01*
X0292299Y0304735D01*
X0292403Y0304614D01*
X0292504Y0304490D01*
X0292602Y0304364D01*
X0292696Y0304236D01*
X0292788Y0304105D01*
X0292876Y0303972D01*
X0292961Y0303837D01*
X0293043Y0303700D01*
X0293121Y0303561D01*
X0293195Y0303420D01*
X0293266Y0303277D01*
X0293334Y0303132D01*
X0293397Y0302986D01*
X0293458Y0302838D01*
X0293514Y0302689D01*
X0293567Y0302538D01*
X0293616Y0302386D01*
X0293661Y0302233D01*
X0293702Y0302079D01*
X0293740Y0301924D01*
X0293773Y0301768D01*
X0293803Y0301611D01*
X0293829Y0301454D01*
X0293850Y0301296D01*
X0293868Y0301137D01*
X0293882Y0300978D01*
X0293892Y0300819D01*
X0293898Y0300660D01*
X0293900Y0300500D01*
X0293898Y0300340D01*
X0293892Y0300181D01*
X0293882Y0300022D01*
X0293868Y0299863D01*
X0293850Y0299704D01*
X0293829Y0299546D01*
X0293803Y0299389D01*
X0293773Y0299232D01*
X0293740Y0299076D01*
X0293702Y0298921D01*
X0293661Y0298767D01*
X0293616Y0298614D01*
X0293567Y0298462D01*
X0293514Y0298311D01*
X0293458Y0298162D01*
X0293397Y0298014D01*
X0293334Y0297868D01*
X0293266Y0297723D01*
X0293195Y0297580D01*
X0293121Y0297439D01*
X0293043Y0297300D01*
X0292961Y0297163D01*
X0292876Y0297028D01*
X0292788Y0296895D01*
X0292696Y0296764D01*
X0292602Y0296636D01*
X0292504Y0296510D01*
X0292403Y0296386D01*
X0292299Y0296265D01*
X0292192Y0296147D01*
X0292082Y0296031D01*
X0291969Y0295918D01*
X0291853Y0295808D01*
X0291735Y0295701D01*
X0291614Y0295597D01*
X0291490Y0295496D01*
X0291364Y0295398D01*
X0291236Y0295304D01*
X0291105Y0295212D01*
X0290972Y0295124D01*
X0290837Y0295039D01*
X0290700Y0294957D01*
X0290561Y0294879D01*
X0290420Y0294805D01*
X0290277Y0294734D01*
X0290132Y0294666D01*
X0289986Y0294603D01*
X0289838Y0294542D01*
X0289689Y0294486D01*
X0289538Y0294433D01*
X0289386Y0294384D01*
X0289233Y0294339D01*
X0289079Y0294298D01*
X0288924Y0294260D01*
X0288768Y0294227D01*
X0288611Y0294197D01*
X0288454Y0294171D01*
X0288296Y0294150D01*
X0288137Y0294132D01*
X0287978Y0294118D01*
X0287819Y0294108D01*
X0287660Y0294102D01*
X0287500Y0294100D01*
X0287340Y0294102D01*
X0287181Y0294108D01*
X0287022Y0294118D01*
X0286863Y0294132D01*
X0286704Y0294150D01*
X0286546Y0294171D01*
X0286389Y0294197D01*
X0286232Y0294227D01*
X0286076Y0294260D01*
X0285921Y0294298D01*
X0285767Y0294339D01*
X0285614Y0294384D01*
X0285462Y0294433D01*
X0285311Y0294486D01*
X0285162Y0294542D01*
X0285014Y0294603D01*
X0284868Y0294666D01*
X0284723Y0294734D01*
X0284580Y0294805D01*
X0284439Y0294879D01*
X0284300Y0294957D01*
X0284163Y0295039D01*
X0284028Y0295124D01*
X0283895Y0295212D01*
X0283764Y0295304D01*
X0283636Y0295398D01*
X0283510Y0295496D01*
X0283386Y0295597D01*
X0283265Y0295701D01*
X0283147Y0295808D01*
X0283031Y0295918D01*
X0282918Y0296031D01*
X0282808Y0296147D01*
X0282701Y0296265D01*
X0282597Y0296386D01*
X0282496Y0296510D01*
X0282398Y0296636D01*
X0282304Y0296764D01*
X0282212Y0296895D01*
X0282124Y0297028D01*
X0282039Y0297163D01*
X0281957Y0297300D01*
X0281879Y0297439D01*
X0281805Y0297580D01*
X0281734Y0297723D01*
X0281666Y0297868D01*
X0281603Y0298014D01*
X0281542Y0298162D01*
X0281486Y0298311D01*
X0281433Y0298462D01*
X0281384Y0298614D01*
X0281339Y0298767D01*
X0281298Y0298921D01*
X0281260Y0299076D01*
X0281227Y0299232D01*
X0281197Y0299389D01*
X0281171Y0299546D01*
X0281150Y0299704D01*
X0281132Y0299863D01*
X0281118Y0300022D01*
X0281108Y0300181D01*
X0281102Y0300340D01*
X0281100Y0300500D01*
X0326100Y0300500D02*
X0326102Y0300660D01*
X0326108Y0300819D01*
X0326118Y0300978D01*
X0326132Y0301137D01*
X0326150Y0301296D01*
X0326171Y0301454D01*
X0326197Y0301611D01*
X0326227Y0301768D01*
X0326260Y0301924D01*
X0326298Y0302079D01*
X0326339Y0302233D01*
X0326384Y0302386D01*
X0326433Y0302538D01*
X0326486Y0302689D01*
X0326542Y0302838D01*
X0326603Y0302986D01*
X0326666Y0303132D01*
X0326734Y0303277D01*
X0326805Y0303420D01*
X0326879Y0303561D01*
X0326957Y0303700D01*
X0327039Y0303837D01*
X0327124Y0303972D01*
X0327212Y0304105D01*
X0327304Y0304236D01*
X0327398Y0304364D01*
X0327496Y0304490D01*
X0327597Y0304614D01*
X0327701Y0304735D01*
X0327808Y0304853D01*
X0327918Y0304969D01*
X0328031Y0305082D01*
X0328147Y0305192D01*
X0328265Y0305299D01*
X0328386Y0305403D01*
X0328510Y0305504D01*
X0328636Y0305602D01*
X0328764Y0305696D01*
X0328895Y0305788D01*
X0329028Y0305876D01*
X0329163Y0305961D01*
X0329300Y0306043D01*
X0329439Y0306121D01*
X0329580Y0306195D01*
X0329723Y0306266D01*
X0329868Y0306334D01*
X0330014Y0306397D01*
X0330162Y0306458D01*
X0330311Y0306514D01*
X0330462Y0306567D01*
X0330614Y0306616D01*
X0330767Y0306661D01*
X0330921Y0306702D01*
X0331076Y0306740D01*
X0331232Y0306773D01*
X0331389Y0306803D01*
X0331546Y0306829D01*
X0331704Y0306850D01*
X0331863Y0306868D01*
X0332022Y0306882D01*
X0332181Y0306892D01*
X0332340Y0306898D01*
X0332500Y0306900D01*
X0332660Y0306898D01*
X0332819Y0306892D01*
X0332978Y0306882D01*
X0333137Y0306868D01*
X0333296Y0306850D01*
X0333454Y0306829D01*
X0333611Y0306803D01*
X0333768Y0306773D01*
X0333924Y0306740D01*
X0334079Y0306702D01*
X0334233Y0306661D01*
X0334386Y0306616D01*
X0334538Y0306567D01*
X0334689Y0306514D01*
X0334838Y0306458D01*
X0334986Y0306397D01*
X0335132Y0306334D01*
X0335277Y0306266D01*
X0335420Y0306195D01*
X0335561Y0306121D01*
X0335700Y0306043D01*
X0335837Y0305961D01*
X0335972Y0305876D01*
X0336105Y0305788D01*
X0336236Y0305696D01*
X0336364Y0305602D01*
X0336490Y0305504D01*
X0336614Y0305403D01*
X0336735Y0305299D01*
X0336853Y0305192D01*
X0336969Y0305082D01*
X0337082Y0304969D01*
X0337192Y0304853D01*
X0337299Y0304735D01*
X0337403Y0304614D01*
X0337504Y0304490D01*
X0337602Y0304364D01*
X0337696Y0304236D01*
X0337788Y0304105D01*
X0337876Y0303972D01*
X0337961Y0303837D01*
X0338043Y0303700D01*
X0338121Y0303561D01*
X0338195Y0303420D01*
X0338266Y0303277D01*
X0338334Y0303132D01*
X0338397Y0302986D01*
X0338458Y0302838D01*
X0338514Y0302689D01*
X0338567Y0302538D01*
X0338616Y0302386D01*
X0338661Y0302233D01*
X0338702Y0302079D01*
X0338740Y0301924D01*
X0338773Y0301768D01*
X0338803Y0301611D01*
X0338829Y0301454D01*
X0338850Y0301296D01*
X0338868Y0301137D01*
X0338882Y0300978D01*
X0338892Y0300819D01*
X0338898Y0300660D01*
X0338900Y0300500D01*
X0338898Y0300340D01*
X0338892Y0300181D01*
X0338882Y0300022D01*
X0338868Y0299863D01*
X0338850Y0299704D01*
X0338829Y0299546D01*
X0338803Y0299389D01*
X0338773Y0299232D01*
X0338740Y0299076D01*
X0338702Y0298921D01*
X0338661Y0298767D01*
X0338616Y0298614D01*
X0338567Y0298462D01*
X0338514Y0298311D01*
X0338458Y0298162D01*
X0338397Y0298014D01*
X0338334Y0297868D01*
X0338266Y0297723D01*
X0338195Y0297580D01*
X0338121Y0297439D01*
X0338043Y0297300D01*
X0337961Y0297163D01*
X0337876Y0297028D01*
X0337788Y0296895D01*
X0337696Y0296764D01*
X0337602Y0296636D01*
X0337504Y0296510D01*
X0337403Y0296386D01*
X0337299Y0296265D01*
X0337192Y0296147D01*
X0337082Y0296031D01*
X0336969Y0295918D01*
X0336853Y0295808D01*
X0336735Y0295701D01*
X0336614Y0295597D01*
X0336490Y0295496D01*
X0336364Y0295398D01*
X0336236Y0295304D01*
X0336105Y0295212D01*
X0335972Y0295124D01*
X0335837Y0295039D01*
X0335700Y0294957D01*
X0335561Y0294879D01*
X0335420Y0294805D01*
X0335277Y0294734D01*
X0335132Y0294666D01*
X0334986Y0294603D01*
X0334838Y0294542D01*
X0334689Y0294486D01*
X0334538Y0294433D01*
X0334386Y0294384D01*
X0334233Y0294339D01*
X0334079Y0294298D01*
X0333924Y0294260D01*
X0333768Y0294227D01*
X0333611Y0294197D01*
X0333454Y0294171D01*
X0333296Y0294150D01*
X0333137Y0294132D01*
X0332978Y0294118D01*
X0332819Y0294108D01*
X0332660Y0294102D01*
X0332500Y0294100D01*
X0332340Y0294102D01*
X0332181Y0294108D01*
X0332022Y0294118D01*
X0331863Y0294132D01*
X0331704Y0294150D01*
X0331546Y0294171D01*
X0331389Y0294197D01*
X0331232Y0294227D01*
X0331076Y0294260D01*
X0330921Y0294298D01*
X0330767Y0294339D01*
X0330614Y0294384D01*
X0330462Y0294433D01*
X0330311Y0294486D01*
X0330162Y0294542D01*
X0330014Y0294603D01*
X0329868Y0294666D01*
X0329723Y0294734D01*
X0329580Y0294805D01*
X0329439Y0294879D01*
X0329300Y0294957D01*
X0329163Y0295039D01*
X0329028Y0295124D01*
X0328895Y0295212D01*
X0328764Y0295304D01*
X0328636Y0295398D01*
X0328510Y0295496D01*
X0328386Y0295597D01*
X0328265Y0295701D01*
X0328147Y0295808D01*
X0328031Y0295918D01*
X0327918Y0296031D01*
X0327808Y0296147D01*
X0327701Y0296265D01*
X0327597Y0296386D01*
X0327496Y0296510D01*
X0327398Y0296636D01*
X0327304Y0296764D01*
X0327212Y0296895D01*
X0327124Y0297028D01*
X0327039Y0297163D01*
X0326957Y0297300D01*
X0326879Y0297439D01*
X0326805Y0297580D01*
X0326734Y0297723D01*
X0326666Y0297868D01*
X0326603Y0298014D01*
X0326542Y0298162D01*
X0326486Y0298311D01*
X0326433Y0298462D01*
X0326384Y0298614D01*
X0326339Y0298767D01*
X0326298Y0298921D01*
X0326260Y0299076D01*
X0326227Y0299232D01*
X0326197Y0299389D01*
X0326171Y0299546D01*
X0326150Y0299704D01*
X0326132Y0299863D01*
X0326118Y0300022D01*
X0326108Y0300181D01*
X0326102Y0300340D01*
X0326100Y0300500D01*
X0348700Y0308700D02*
X0348702Y0308884D01*
X0348709Y0309068D01*
X0348720Y0309252D01*
X0348736Y0309435D01*
X0348756Y0309618D01*
X0348781Y0309800D01*
X0348810Y0309982D01*
X0348844Y0310163D01*
X0348882Y0310343D01*
X0348925Y0310522D01*
X0348972Y0310700D01*
X0349023Y0310877D01*
X0349079Y0311053D01*
X0349138Y0311227D01*
X0349203Y0311399D01*
X0349271Y0311570D01*
X0349343Y0311739D01*
X0349420Y0311907D01*
X0349501Y0312072D01*
X0349586Y0312235D01*
X0349674Y0312397D01*
X0349767Y0312556D01*
X0349864Y0312712D01*
X0349964Y0312867D01*
X0350068Y0313019D01*
X0350176Y0313168D01*
X0350287Y0313314D01*
X0350402Y0313458D01*
X0350521Y0313599D01*
X0350643Y0313737D01*
X0350768Y0313872D01*
X0350897Y0314003D01*
X0351028Y0314132D01*
X0351163Y0314257D01*
X0351301Y0314379D01*
X0351442Y0314498D01*
X0351586Y0314613D01*
X0351732Y0314724D01*
X0351881Y0314832D01*
X0352033Y0314936D01*
X0352188Y0315036D01*
X0352344Y0315133D01*
X0352503Y0315226D01*
X0352665Y0315314D01*
X0352828Y0315399D01*
X0352993Y0315480D01*
X0353161Y0315557D01*
X0353330Y0315629D01*
X0353501Y0315697D01*
X0353673Y0315762D01*
X0353847Y0315821D01*
X0354023Y0315877D01*
X0354200Y0315928D01*
X0354378Y0315975D01*
X0354557Y0316018D01*
X0354737Y0316056D01*
X0354918Y0316090D01*
X0355100Y0316119D01*
X0355282Y0316144D01*
X0355465Y0316164D01*
X0355648Y0316180D01*
X0355832Y0316191D01*
X0356016Y0316198D01*
X0356200Y0316200D01*
X0356384Y0316198D01*
X0356568Y0316191D01*
X0356752Y0316180D01*
X0356935Y0316164D01*
X0357118Y0316144D01*
X0357300Y0316119D01*
X0357482Y0316090D01*
X0357663Y0316056D01*
X0357843Y0316018D01*
X0358022Y0315975D01*
X0358200Y0315928D01*
X0358377Y0315877D01*
X0358553Y0315821D01*
X0358727Y0315762D01*
X0358899Y0315697D01*
X0359070Y0315629D01*
X0359239Y0315557D01*
X0359407Y0315480D01*
X0359572Y0315399D01*
X0359735Y0315314D01*
X0359897Y0315226D01*
X0360056Y0315133D01*
X0360212Y0315036D01*
X0360367Y0314936D01*
X0360519Y0314832D01*
X0360668Y0314724D01*
X0360814Y0314613D01*
X0360958Y0314498D01*
X0361099Y0314379D01*
X0361237Y0314257D01*
X0361372Y0314132D01*
X0361503Y0314003D01*
X0361632Y0313872D01*
X0361757Y0313737D01*
X0361879Y0313599D01*
X0361998Y0313458D01*
X0362113Y0313314D01*
X0362224Y0313168D01*
X0362332Y0313019D01*
X0362436Y0312867D01*
X0362536Y0312712D01*
X0362633Y0312556D01*
X0362726Y0312397D01*
X0362814Y0312235D01*
X0362899Y0312072D01*
X0362980Y0311907D01*
X0363057Y0311739D01*
X0363129Y0311570D01*
X0363197Y0311399D01*
X0363262Y0311227D01*
X0363321Y0311053D01*
X0363377Y0310877D01*
X0363428Y0310700D01*
X0363475Y0310522D01*
X0363518Y0310343D01*
X0363556Y0310163D01*
X0363590Y0309982D01*
X0363619Y0309800D01*
X0363644Y0309618D01*
X0363664Y0309435D01*
X0363680Y0309252D01*
X0363691Y0309068D01*
X0363698Y0308884D01*
X0363700Y0308700D01*
X0363698Y0308516D01*
X0363691Y0308332D01*
X0363680Y0308148D01*
X0363664Y0307965D01*
X0363644Y0307782D01*
X0363619Y0307600D01*
X0363590Y0307418D01*
X0363556Y0307237D01*
X0363518Y0307057D01*
X0363475Y0306878D01*
X0363428Y0306700D01*
X0363377Y0306523D01*
X0363321Y0306347D01*
X0363262Y0306173D01*
X0363197Y0306001D01*
X0363129Y0305830D01*
X0363057Y0305661D01*
X0362980Y0305493D01*
X0362899Y0305328D01*
X0362814Y0305165D01*
X0362726Y0305003D01*
X0362633Y0304844D01*
X0362536Y0304688D01*
X0362436Y0304533D01*
X0362332Y0304381D01*
X0362224Y0304232D01*
X0362113Y0304086D01*
X0361998Y0303942D01*
X0361879Y0303801D01*
X0361757Y0303663D01*
X0361632Y0303528D01*
X0361503Y0303397D01*
X0361372Y0303268D01*
X0361237Y0303143D01*
X0361099Y0303021D01*
X0360958Y0302902D01*
X0360814Y0302787D01*
X0360668Y0302676D01*
X0360519Y0302568D01*
X0360367Y0302464D01*
X0360212Y0302364D01*
X0360056Y0302267D01*
X0359897Y0302174D01*
X0359735Y0302086D01*
X0359572Y0302001D01*
X0359407Y0301920D01*
X0359239Y0301843D01*
X0359070Y0301771D01*
X0358899Y0301703D01*
X0358727Y0301638D01*
X0358553Y0301579D01*
X0358377Y0301523D01*
X0358200Y0301472D01*
X0358022Y0301425D01*
X0357843Y0301382D01*
X0357663Y0301344D01*
X0357482Y0301310D01*
X0357300Y0301281D01*
X0357118Y0301256D01*
X0356935Y0301236D01*
X0356752Y0301220D01*
X0356568Y0301209D01*
X0356384Y0301202D01*
X0356200Y0301200D01*
X0356016Y0301202D01*
X0355832Y0301209D01*
X0355648Y0301220D01*
X0355465Y0301236D01*
X0355282Y0301256D01*
X0355100Y0301281D01*
X0354918Y0301310D01*
X0354737Y0301344D01*
X0354557Y0301382D01*
X0354378Y0301425D01*
X0354200Y0301472D01*
X0354023Y0301523D01*
X0353847Y0301579D01*
X0353673Y0301638D01*
X0353501Y0301703D01*
X0353330Y0301771D01*
X0353161Y0301843D01*
X0352993Y0301920D01*
X0352828Y0302001D01*
X0352665Y0302086D01*
X0352503Y0302174D01*
X0352344Y0302267D01*
X0352188Y0302364D01*
X0352033Y0302464D01*
X0351881Y0302568D01*
X0351732Y0302676D01*
X0351586Y0302787D01*
X0351442Y0302902D01*
X0351301Y0303021D01*
X0351163Y0303143D01*
X0351028Y0303268D01*
X0350897Y0303397D01*
X0350768Y0303528D01*
X0350643Y0303663D01*
X0350521Y0303801D01*
X0350402Y0303942D01*
X0350287Y0304086D01*
X0350176Y0304232D01*
X0350068Y0304381D01*
X0349964Y0304533D01*
X0349864Y0304688D01*
X0349767Y0304844D01*
X0349674Y0305003D01*
X0349586Y0305165D01*
X0349501Y0305328D01*
X0349420Y0305493D01*
X0349343Y0305661D01*
X0349271Y0305830D01*
X0349203Y0306001D01*
X0349138Y0306173D01*
X0349079Y0306347D01*
X0349023Y0306523D01*
X0348972Y0306700D01*
X0348925Y0306878D01*
X0348882Y0307057D01*
X0348844Y0307237D01*
X0348810Y0307418D01*
X0348781Y0307600D01*
X0348756Y0307782D01*
X0348736Y0307965D01*
X0348720Y0308148D01*
X0348709Y0308332D01*
X0348702Y0308516D01*
X0348700Y0308700D01*
X0393700Y0307700D02*
X0393702Y0307884D01*
X0393709Y0308068D01*
X0393720Y0308252D01*
X0393736Y0308435D01*
X0393756Y0308618D01*
X0393781Y0308800D01*
X0393810Y0308982D01*
X0393844Y0309163D01*
X0393882Y0309343D01*
X0393925Y0309522D01*
X0393972Y0309700D01*
X0394023Y0309877D01*
X0394079Y0310053D01*
X0394138Y0310227D01*
X0394203Y0310399D01*
X0394271Y0310570D01*
X0394343Y0310739D01*
X0394420Y0310907D01*
X0394501Y0311072D01*
X0394586Y0311235D01*
X0394674Y0311397D01*
X0394767Y0311556D01*
X0394864Y0311712D01*
X0394964Y0311867D01*
X0395068Y0312019D01*
X0395176Y0312168D01*
X0395287Y0312314D01*
X0395402Y0312458D01*
X0395521Y0312599D01*
X0395643Y0312737D01*
X0395768Y0312872D01*
X0395897Y0313003D01*
X0396028Y0313132D01*
X0396163Y0313257D01*
X0396301Y0313379D01*
X0396442Y0313498D01*
X0396586Y0313613D01*
X0396732Y0313724D01*
X0396881Y0313832D01*
X0397033Y0313936D01*
X0397188Y0314036D01*
X0397344Y0314133D01*
X0397503Y0314226D01*
X0397665Y0314314D01*
X0397828Y0314399D01*
X0397993Y0314480D01*
X0398161Y0314557D01*
X0398330Y0314629D01*
X0398501Y0314697D01*
X0398673Y0314762D01*
X0398847Y0314821D01*
X0399023Y0314877D01*
X0399200Y0314928D01*
X0399378Y0314975D01*
X0399557Y0315018D01*
X0399737Y0315056D01*
X0399918Y0315090D01*
X0400100Y0315119D01*
X0400282Y0315144D01*
X0400465Y0315164D01*
X0400648Y0315180D01*
X0400832Y0315191D01*
X0401016Y0315198D01*
X0401200Y0315200D01*
X0401384Y0315198D01*
X0401568Y0315191D01*
X0401752Y0315180D01*
X0401935Y0315164D01*
X0402118Y0315144D01*
X0402300Y0315119D01*
X0402482Y0315090D01*
X0402663Y0315056D01*
X0402843Y0315018D01*
X0403022Y0314975D01*
X0403200Y0314928D01*
X0403377Y0314877D01*
X0403553Y0314821D01*
X0403727Y0314762D01*
X0403899Y0314697D01*
X0404070Y0314629D01*
X0404239Y0314557D01*
X0404407Y0314480D01*
X0404572Y0314399D01*
X0404735Y0314314D01*
X0404897Y0314226D01*
X0405056Y0314133D01*
X0405212Y0314036D01*
X0405367Y0313936D01*
X0405519Y0313832D01*
X0405668Y0313724D01*
X0405814Y0313613D01*
X0405958Y0313498D01*
X0406099Y0313379D01*
X0406237Y0313257D01*
X0406372Y0313132D01*
X0406503Y0313003D01*
X0406632Y0312872D01*
X0406757Y0312737D01*
X0406879Y0312599D01*
X0406998Y0312458D01*
X0407113Y0312314D01*
X0407224Y0312168D01*
X0407332Y0312019D01*
X0407436Y0311867D01*
X0407536Y0311712D01*
X0407633Y0311556D01*
X0407726Y0311397D01*
X0407814Y0311235D01*
X0407899Y0311072D01*
X0407980Y0310907D01*
X0408057Y0310739D01*
X0408129Y0310570D01*
X0408197Y0310399D01*
X0408262Y0310227D01*
X0408321Y0310053D01*
X0408377Y0309877D01*
X0408428Y0309700D01*
X0408475Y0309522D01*
X0408518Y0309343D01*
X0408556Y0309163D01*
X0408590Y0308982D01*
X0408619Y0308800D01*
X0408644Y0308618D01*
X0408664Y0308435D01*
X0408680Y0308252D01*
X0408691Y0308068D01*
X0408698Y0307884D01*
X0408700Y0307700D01*
X0408698Y0307516D01*
X0408691Y0307332D01*
X0408680Y0307148D01*
X0408664Y0306965D01*
X0408644Y0306782D01*
X0408619Y0306600D01*
X0408590Y0306418D01*
X0408556Y0306237D01*
X0408518Y0306057D01*
X0408475Y0305878D01*
X0408428Y0305700D01*
X0408377Y0305523D01*
X0408321Y0305347D01*
X0408262Y0305173D01*
X0408197Y0305001D01*
X0408129Y0304830D01*
X0408057Y0304661D01*
X0407980Y0304493D01*
X0407899Y0304328D01*
X0407814Y0304165D01*
X0407726Y0304003D01*
X0407633Y0303844D01*
X0407536Y0303688D01*
X0407436Y0303533D01*
X0407332Y0303381D01*
X0407224Y0303232D01*
X0407113Y0303086D01*
X0406998Y0302942D01*
X0406879Y0302801D01*
X0406757Y0302663D01*
X0406632Y0302528D01*
X0406503Y0302397D01*
X0406372Y0302268D01*
X0406237Y0302143D01*
X0406099Y0302021D01*
X0405958Y0301902D01*
X0405814Y0301787D01*
X0405668Y0301676D01*
X0405519Y0301568D01*
X0405367Y0301464D01*
X0405212Y0301364D01*
X0405056Y0301267D01*
X0404897Y0301174D01*
X0404735Y0301086D01*
X0404572Y0301001D01*
X0404407Y0300920D01*
X0404239Y0300843D01*
X0404070Y0300771D01*
X0403899Y0300703D01*
X0403727Y0300638D01*
X0403553Y0300579D01*
X0403377Y0300523D01*
X0403200Y0300472D01*
X0403022Y0300425D01*
X0402843Y0300382D01*
X0402663Y0300344D01*
X0402482Y0300310D01*
X0402300Y0300281D01*
X0402118Y0300256D01*
X0401935Y0300236D01*
X0401752Y0300220D01*
X0401568Y0300209D01*
X0401384Y0300202D01*
X0401200Y0300200D01*
X0401016Y0300202D01*
X0400832Y0300209D01*
X0400648Y0300220D01*
X0400465Y0300236D01*
X0400282Y0300256D01*
X0400100Y0300281D01*
X0399918Y0300310D01*
X0399737Y0300344D01*
X0399557Y0300382D01*
X0399378Y0300425D01*
X0399200Y0300472D01*
X0399023Y0300523D01*
X0398847Y0300579D01*
X0398673Y0300638D01*
X0398501Y0300703D01*
X0398330Y0300771D01*
X0398161Y0300843D01*
X0397993Y0300920D01*
X0397828Y0301001D01*
X0397665Y0301086D01*
X0397503Y0301174D01*
X0397344Y0301267D01*
X0397188Y0301364D01*
X0397033Y0301464D01*
X0396881Y0301568D01*
X0396732Y0301676D01*
X0396586Y0301787D01*
X0396442Y0301902D01*
X0396301Y0302021D01*
X0396163Y0302143D01*
X0396028Y0302268D01*
X0395897Y0302397D01*
X0395768Y0302528D01*
X0395643Y0302663D01*
X0395521Y0302801D01*
X0395402Y0302942D01*
X0395287Y0303086D01*
X0395176Y0303232D01*
X0395068Y0303381D01*
X0394964Y0303533D01*
X0394864Y0303688D01*
X0394767Y0303844D01*
X0394674Y0304003D01*
X0394586Y0304165D01*
X0394501Y0304328D01*
X0394420Y0304493D01*
X0394343Y0304661D01*
X0394271Y0304830D01*
X0394203Y0305001D01*
X0394138Y0305173D01*
X0394079Y0305347D01*
X0394023Y0305523D01*
X0393972Y0305700D01*
X0393925Y0305878D01*
X0393882Y0306057D01*
X0393844Y0306237D01*
X0393810Y0306418D01*
X0393781Y0306600D01*
X0393756Y0306782D01*
X0393736Y0306965D01*
X0393720Y0307148D01*
X0393709Y0307332D01*
X0393702Y0307516D01*
X0393700Y0307700D01*
X0409500Y0280800D02*
X0409502Y0280954D01*
X0409508Y0281109D01*
X0409518Y0281263D01*
X0409532Y0281417D01*
X0409550Y0281570D01*
X0409571Y0281723D01*
X0409597Y0281876D01*
X0409627Y0282027D01*
X0409660Y0282178D01*
X0409698Y0282328D01*
X0409739Y0282477D01*
X0409784Y0282625D01*
X0409833Y0282771D01*
X0409886Y0282917D01*
X0409942Y0283060D01*
X0410002Y0283203D01*
X0410066Y0283343D01*
X0410133Y0283483D01*
X0410204Y0283620D01*
X0410278Y0283755D01*
X0410356Y0283889D01*
X0410437Y0284020D01*
X0410522Y0284149D01*
X0410610Y0284277D01*
X0410701Y0284401D01*
X0410795Y0284524D01*
X0410893Y0284644D01*
X0410993Y0284761D01*
X0411097Y0284876D01*
X0411203Y0284988D01*
X0411312Y0285097D01*
X0411424Y0285203D01*
X0411539Y0285307D01*
X0411656Y0285407D01*
X0411776Y0285505D01*
X0411899Y0285599D01*
X0412023Y0285690D01*
X0412151Y0285778D01*
X0412280Y0285863D01*
X0412411Y0285944D01*
X0412545Y0286022D01*
X0412680Y0286096D01*
X0412817Y0286167D01*
X0412957Y0286234D01*
X0413097Y0286298D01*
X0413240Y0286358D01*
X0413383Y0286414D01*
X0413529Y0286467D01*
X0413675Y0286516D01*
X0413823Y0286561D01*
X0413972Y0286602D01*
X0414122Y0286640D01*
X0414273Y0286673D01*
X0414424Y0286703D01*
X0414577Y0286729D01*
X0414730Y0286750D01*
X0414883Y0286768D01*
X0415037Y0286782D01*
X0415191Y0286792D01*
X0415346Y0286798D01*
X0415500Y0286800D01*
X0415654Y0286798D01*
X0415809Y0286792D01*
X0415963Y0286782D01*
X0416117Y0286768D01*
X0416270Y0286750D01*
X0416423Y0286729D01*
X0416576Y0286703D01*
X0416727Y0286673D01*
X0416878Y0286640D01*
X0417028Y0286602D01*
X0417177Y0286561D01*
X0417325Y0286516D01*
X0417471Y0286467D01*
X0417617Y0286414D01*
X0417760Y0286358D01*
X0417903Y0286298D01*
X0418043Y0286234D01*
X0418183Y0286167D01*
X0418320Y0286096D01*
X0418455Y0286022D01*
X0418589Y0285944D01*
X0418720Y0285863D01*
X0418849Y0285778D01*
X0418977Y0285690D01*
X0419101Y0285599D01*
X0419224Y0285505D01*
X0419344Y0285407D01*
X0419461Y0285307D01*
X0419576Y0285203D01*
X0419688Y0285097D01*
X0419797Y0284988D01*
X0419903Y0284876D01*
X0420007Y0284761D01*
X0420107Y0284644D01*
X0420205Y0284524D01*
X0420299Y0284401D01*
X0420390Y0284277D01*
X0420478Y0284149D01*
X0420563Y0284020D01*
X0420644Y0283889D01*
X0420722Y0283755D01*
X0420796Y0283620D01*
X0420867Y0283483D01*
X0420934Y0283343D01*
X0420998Y0283203D01*
X0421058Y0283060D01*
X0421114Y0282917D01*
X0421167Y0282771D01*
X0421216Y0282625D01*
X0421261Y0282477D01*
X0421302Y0282328D01*
X0421340Y0282178D01*
X0421373Y0282027D01*
X0421403Y0281876D01*
X0421429Y0281723D01*
X0421450Y0281570D01*
X0421468Y0281417D01*
X0421482Y0281263D01*
X0421492Y0281109D01*
X0421498Y0280954D01*
X0421500Y0280800D01*
X0421498Y0280646D01*
X0421492Y0280491D01*
X0421482Y0280337D01*
X0421468Y0280183D01*
X0421450Y0280030D01*
X0421429Y0279877D01*
X0421403Y0279724D01*
X0421373Y0279573D01*
X0421340Y0279422D01*
X0421302Y0279272D01*
X0421261Y0279123D01*
X0421216Y0278975D01*
X0421167Y0278829D01*
X0421114Y0278683D01*
X0421058Y0278540D01*
X0420998Y0278397D01*
X0420934Y0278257D01*
X0420867Y0278117D01*
X0420796Y0277980D01*
X0420722Y0277845D01*
X0420644Y0277711D01*
X0420563Y0277580D01*
X0420478Y0277451D01*
X0420390Y0277323D01*
X0420299Y0277199D01*
X0420205Y0277076D01*
X0420107Y0276956D01*
X0420007Y0276839D01*
X0419903Y0276724D01*
X0419797Y0276612D01*
X0419688Y0276503D01*
X0419576Y0276397D01*
X0419461Y0276293D01*
X0419344Y0276193D01*
X0419224Y0276095D01*
X0419101Y0276001D01*
X0418977Y0275910D01*
X0418849Y0275822D01*
X0418720Y0275737D01*
X0418589Y0275656D01*
X0418455Y0275578D01*
X0418320Y0275504D01*
X0418183Y0275433D01*
X0418043Y0275366D01*
X0417903Y0275302D01*
X0417760Y0275242D01*
X0417617Y0275186D01*
X0417471Y0275133D01*
X0417325Y0275084D01*
X0417177Y0275039D01*
X0417028Y0274998D01*
X0416878Y0274960D01*
X0416727Y0274927D01*
X0416576Y0274897D01*
X0416423Y0274871D01*
X0416270Y0274850D01*
X0416117Y0274832D01*
X0415963Y0274818D01*
X0415809Y0274808D01*
X0415654Y0274802D01*
X0415500Y0274800D01*
X0415346Y0274802D01*
X0415191Y0274808D01*
X0415037Y0274818D01*
X0414883Y0274832D01*
X0414730Y0274850D01*
X0414577Y0274871D01*
X0414424Y0274897D01*
X0414273Y0274927D01*
X0414122Y0274960D01*
X0413972Y0274998D01*
X0413823Y0275039D01*
X0413675Y0275084D01*
X0413529Y0275133D01*
X0413383Y0275186D01*
X0413240Y0275242D01*
X0413097Y0275302D01*
X0412957Y0275366D01*
X0412817Y0275433D01*
X0412680Y0275504D01*
X0412545Y0275578D01*
X0412411Y0275656D01*
X0412280Y0275737D01*
X0412151Y0275822D01*
X0412023Y0275910D01*
X0411899Y0276001D01*
X0411776Y0276095D01*
X0411656Y0276193D01*
X0411539Y0276293D01*
X0411424Y0276397D01*
X0411312Y0276503D01*
X0411203Y0276612D01*
X0411097Y0276724D01*
X0410993Y0276839D01*
X0410893Y0276956D01*
X0410795Y0277076D01*
X0410701Y0277199D01*
X0410610Y0277323D01*
X0410522Y0277451D01*
X0410437Y0277580D01*
X0410356Y0277711D01*
X0410278Y0277845D01*
X0410204Y0277980D01*
X0410133Y0278117D01*
X0410066Y0278257D01*
X0410002Y0278397D01*
X0409942Y0278540D01*
X0409886Y0278683D01*
X0409833Y0278829D01*
X0409784Y0278975D01*
X0409739Y0279123D01*
X0409698Y0279272D01*
X0409660Y0279422D01*
X0409627Y0279573D01*
X0409597Y0279724D01*
X0409571Y0279877D01*
X0409550Y0280030D01*
X0409532Y0280183D01*
X0409518Y0280337D01*
X0409508Y0280491D01*
X0409502Y0280646D01*
X0409500Y0280800D01*
X0409400Y0039400D02*
X0409402Y0039554D01*
X0409408Y0039709D01*
X0409418Y0039863D01*
X0409432Y0040017D01*
X0409450Y0040170D01*
X0409471Y0040323D01*
X0409497Y0040476D01*
X0409527Y0040627D01*
X0409560Y0040778D01*
X0409598Y0040928D01*
X0409639Y0041077D01*
X0409684Y0041225D01*
X0409733Y0041371D01*
X0409786Y0041517D01*
X0409842Y0041660D01*
X0409902Y0041803D01*
X0409966Y0041943D01*
X0410033Y0042083D01*
X0410104Y0042220D01*
X0410178Y0042355D01*
X0410256Y0042489D01*
X0410337Y0042620D01*
X0410422Y0042749D01*
X0410510Y0042877D01*
X0410601Y0043001D01*
X0410695Y0043124D01*
X0410793Y0043244D01*
X0410893Y0043361D01*
X0410997Y0043476D01*
X0411103Y0043588D01*
X0411212Y0043697D01*
X0411324Y0043803D01*
X0411439Y0043907D01*
X0411556Y0044007D01*
X0411676Y0044105D01*
X0411799Y0044199D01*
X0411923Y0044290D01*
X0412051Y0044378D01*
X0412180Y0044463D01*
X0412311Y0044544D01*
X0412445Y0044622D01*
X0412580Y0044696D01*
X0412717Y0044767D01*
X0412857Y0044834D01*
X0412997Y0044898D01*
X0413140Y0044958D01*
X0413283Y0045014D01*
X0413429Y0045067D01*
X0413575Y0045116D01*
X0413723Y0045161D01*
X0413872Y0045202D01*
X0414022Y0045240D01*
X0414173Y0045273D01*
X0414324Y0045303D01*
X0414477Y0045329D01*
X0414630Y0045350D01*
X0414783Y0045368D01*
X0414937Y0045382D01*
X0415091Y0045392D01*
X0415246Y0045398D01*
X0415400Y0045400D01*
X0415554Y0045398D01*
X0415709Y0045392D01*
X0415863Y0045382D01*
X0416017Y0045368D01*
X0416170Y0045350D01*
X0416323Y0045329D01*
X0416476Y0045303D01*
X0416627Y0045273D01*
X0416778Y0045240D01*
X0416928Y0045202D01*
X0417077Y0045161D01*
X0417225Y0045116D01*
X0417371Y0045067D01*
X0417517Y0045014D01*
X0417660Y0044958D01*
X0417803Y0044898D01*
X0417943Y0044834D01*
X0418083Y0044767D01*
X0418220Y0044696D01*
X0418355Y0044622D01*
X0418489Y0044544D01*
X0418620Y0044463D01*
X0418749Y0044378D01*
X0418877Y0044290D01*
X0419001Y0044199D01*
X0419124Y0044105D01*
X0419244Y0044007D01*
X0419361Y0043907D01*
X0419476Y0043803D01*
X0419588Y0043697D01*
X0419697Y0043588D01*
X0419803Y0043476D01*
X0419907Y0043361D01*
X0420007Y0043244D01*
X0420105Y0043124D01*
X0420199Y0043001D01*
X0420290Y0042877D01*
X0420378Y0042749D01*
X0420463Y0042620D01*
X0420544Y0042489D01*
X0420622Y0042355D01*
X0420696Y0042220D01*
X0420767Y0042083D01*
X0420834Y0041943D01*
X0420898Y0041803D01*
X0420958Y0041660D01*
X0421014Y0041517D01*
X0421067Y0041371D01*
X0421116Y0041225D01*
X0421161Y0041077D01*
X0421202Y0040928D01*
X0421240Y0040778D01*
X0421273Y0040627D01*
X0421303Y0040476D01*
X0421329Y0040323D01*
X0421350Y0040170D01*
X0421368Y0040017D01*
X0421382Y0039863D01*
X0421392Y0039709D01*
X0421398Y0039554D01*
X0421400Y0039400D01*
X0421398Y0039246D01*
X0421392Y0039091D01*
X0421382Y0038937D01*
X0421368Y0038783D01*
X0421350Y0038630D01*
X0421329Y0038477D01*
X0421303Y0038324D01*
X0421273Y0038173D01*
X0421240Y0038022D01*
X0421202Y0037872D01*
X0421161Y0037723D01*
X0421116Y0037575D01*
X0421067Y0037429D01*
X0421014Y0037283D01*
X0420958Y0037140D01*
X0420898Y0036997D01*
X0420834Y0036857D01*
X0420767Y0036717D01*
X0420696Y0036580D01*
X0420622Y0036445D01*
X0420544Y0036311D01*
X0420463Y0036180D01*
X0420378Y0036051D01*
X0420290Y0035923D01*
X0420199Y0035799D01*
X0420105Y0035676D01*
X0420007Y0035556D01*
X0419907Y0035439D01*
X0419803Y0035324D01*
X0419697Y0035212D01*
X0419588Y0035103D01*
X0419476Y0034997D01*
X0419361Y0034893D01*
X0419244Y0034793D01*
X0419124Y0034695D01*
X0419001Y0034601D01*
X0418877Y0034510D01*
X0418749Y0034422D01*
X0418620Y0034337D01*
X0418489Y0034256D01*
X0418355Y0034178D01*
X0418220Y0034104D01*
X0418083Y0034033D01*
X0417943Y0033966D01*
X0417803Y0033902D01*
X0417660Y0033842D01*
X0417517Y0033786D01*
X0417371Y0033733D01*
X0417225Y0033684D01*
X0417077Y0033639D01*
X0416928Y0033598D01*
X0416778Y0033560D01*
X0416627Y0033527D01*
X0416476Y0033497D01*
X0416323Y0033471D01*
X0416170Y0033450D01*
X0416017Y0033432D01*
X0415863Y0033418D01*
X0415709Y0033408D01*
X0415554Y0033402D01*
X0415400Y0033400D01*
X0415246Y0033402D01*
X0415091Y0033408D01*
X0414937Y0033418D01*
X0414783Y0033432D01*
X0414630Y0033450D01*
X0414477Y0033471D01*
X0414324Y0033497D01*
X0414173Y0033527D01*
X0414022Y0033560D01*
X0413872Y0033598D01*
X0413723Y0033639D01*
X0413575Y0033684D01*
X0413429Y0033733D01*
X0413283Y0033786D01*
X0413140Y0033842D01*
X0412997Y0033902D01*
X0412857Y0033966D01*
X0412717Y0034033D01*
X0412580Y0034104D01*
X0412445Y0034178D01*
X0412311Y0034256D01*
X0412180Y0034337D01*
X0412051Y0034422D01*
X0411923Y0034510D01*
X0411799Y0034601D01*
X0411676Y0034695D01*
X0411556Y0034793D01*
X0411439Y0034893D01*
X0411324Y0034997D01*
X0411212Y0035103D01*
X0411103Y0035212D01*
X0410997Y0035324D01*
X0410893Y0035439D01*
X0410793Y0035556D01*
X0410695Y0035676D01*
X0410601Y0035799D01*
X0410510Y0035923D01*
X0410422Y0036051D01*
X0410337Y0036180D01*
X0410256Y0036311D01*
X0410178Y0036445D01*
X0410104Y0036580D01*
X0410033Y0036717D01*
X0409966Y0036857D01*
X0409902Y0036997D01*
X0409842Y0037140D01*
X0409786Y0037283D01*
X0409733Y0037429D01*
X0409684Y0037575D01*
X0409639Y0037723D01*
X0409598Y0037872D01*
X0409560Y0038022D01*
X0409527Y0038173D01*
X0409497Y0038324D01*
X0409471Y0038477D01*
X0409450Y0038630D01*
X0409432Y0038783D01*
X0409418Y0038937D01*
X0409408Y0039091D01*
X0409402Y0039246D01*
X0409400Y0039400D01*
X0046400Y0259700D02*
X0046402Y0259860D01*
X0046408Y0260019D01*
X0046418Y0260178D01*
X0046432Y0260337D01*
X0046450Y0260496D01*
X0046471Y0260654D01*
X0046497Y0260811D01*
X0046527Y0260968D01*
X0046560Y0261124D01*
X0046598Y0261279D01*
X0046639Y0261433D01*
X0046684Y0261586D01*
X0046733Y0261738D01*
X0046786Y0261889D01*
X0046842Y0262038D01*
X0046903Y0262186D01*
X0046966Y0262332D01*
X0047034Y0262477D01*
X0047105Y0262620D01*
X0047179Y0262761D01*
X0047257Y0262900D01*
X0047339Y0263037D01*
X0047424Y0263172D01*
X0047512Y0263305D01*
X0047604Y0263436D01*
X0047698Y0263564D01*
X0047796Y0263690D01*
X0047897Y0263814D01*
X0048001Y0263935D01*
X0048108Y0264053D01*
X0048218Y0264169D01*
X0048331Y0264282D01*
X0048447Y0264392D01*
X0048565Y0264499D01*
X0048686Y0264603D01*
X0048810Y0264704D01*
X0048936Y0264802D01*
X0049064Y0264896D01*
X0049195Y0264988D01*
X0049328Y0265076D01*
X0049463Y0265161D01*
X0049600Y0265243D01*
X0049739Y0265321D01*
X0049880Y0265395D01*
X0050023Y0265466D01*
X0050168Y0265534D01*
X0050314Y0265597D01*
X0050462Y0265658D01*
X0050611Y0265714D01*
X0050762Y0265767D01*
X0050914Y0265816D01*
X0051067Y0265861D01*
X0051221Y0265902D01*
X0051376Y0265940D01*
X0051532Y0265973D01*
X0051689Y0266003D01*
X0051846Y0266029D01*
X0052004Y0266050D01*
X0052163Y0266068D01*
X0052322Y0266082D01*
X0052481Y0266092D01*
X0052640Y0266098D01*
X0052800Y0266100D01*
X0052960Y0266098D01*
X0053119Y0266092D01*
X0053278Y0266082D01*
X0053437Y0266068D01*
X0053596Y0266050D01*
X0053754Y0266029D01*
X0053911Y0266003D01*
X0054068Y0265973D01*
X0054224Y0265940D01*
X0054379Y0265902D01*
X0054533Y0265861D01*
X0054686Y0265816D01*
X0054838Y0265767D01*
X0054989Y0265714D01*
X0055138Y0265658D01*
X0055286Y0265597D01*
X0055432Y0265534D01*
X0055577Y0265466D01*
X0055720Y0265395D01*
X0055861Y0265321D01*
X0056000Y0265243D01*
X0056137Y0265161D01*
X0056272Y0265076D01*
X0056405Y0264988D01*
X0056536Y0264896D01*
X0056664Y0264802D01*
X0056790Y0264704D01*
X0056914Y0264603D01*
X0057035Y0264499D01*
X0057153Y0264392D01*
X0057269Y0264282D01*
X0057382Y0264169D01*
X0057492Y0264053D01*
X0057599Y0263935D01*
X0057703Y0263814D01*
X0057804Y0263690D01*
X0057902Y0263564D01*
X0057996Y0263436D01*
X0058088Y0263305D01*
X0058176Y0263172D01*
X0058261Y0263037D01*
X0058343Y0262900D01*
X0058421Y0262761D01*
X0058495Y0262620D01*
X0058566Y0262477D01*
X0058634Y0262332D01*
X0058697Y0262186D01*
X0058758Y0262038D01*
X0058814Y0261889D01*
X0058867Y0261738D01*
X0058916Y0261586D01*
X0058961Y0261433D01*
X0059002Y0261279D01*
X0059040Y0261124D01*
X0059073Y0260968D01*
X0059103Y0260811D01*
X0059129Y0260654D01*
X0059150Y0260496D01*
X0059168Y0260337D01*
X0059182Y0260178D01*
X0059192Y0260019D01*
X0059198Y0259860D01*
X0059200Y0259700D01*
X0059198Y0259540D01*
X0059192Y0259381D01*
X0059182Y0259222D01*
X0059168Y0259063D01*
X0059150Y0258904D01*
X0059129Y0258746D01*
X0059103Y0258589D01*
X0059073Y0258432D01*
X0059040Y0258276D01*
X0059002Y0258121D01*
X0058961Y0257967D01*
X0058916Y0257814D01*
X0058867Y0257662D01*
X0058814Y0257511D01*
X0058758Y0257362D01*
X0058697Y0257214D01*
X0058634Y0257068D01*
X0058566Y0256923D01*
X0058495Y0256780D01*
X0058421Y0256639D01*
X0058343Y0256500D01*
X0058261Y0256363D01*
X0058176Y0256228D01*
X0058088Y0256095D01*
X0057996Y0255964D01*
X0057902Y0255836D01*
X0057804Y0255710D01*
X0057703Y0255586D01*
X0057599Y0255465D01*
X0057492Y0255347D01*
X0057382Y0255231D01*
X0057269Y0255118D01*
X0057153Y0255008D01*
X0057035Y0254901D01*
X0056914Y0254797D01*
X0056790Y0254696D01*
X0056664Y0254598D01*
X0056536Y0254504D01*
X0056405Y0254412D01*
X0056272Y0254324D01*
X0056137Y0254239D01*
X0056000Y0254157D01*
X0055861Y0254079D01*
X0055720Y0254005D01*
X0055577Y0253934D01*
X0055432Y0253866D01*
X0055286Y0253803D01*
X0055138Y0253742D01*
X0054989Y0253686D01*
X0054838Y0253633D01*
X0054686Y0253584D01*
X0054533Y0253539D01*
X0054379Y0253498D01*
X0054224Y0253460D01*
X0054068Y0253427D01*
X0053911Y0253397D01*
X0053754Y0253371D01*
X0053596Y0253350D01*
X0053437Y0253332D01*
X0053278Y0253318D01*
X0053119Y0253308D01*
X0052960Y0253302D01*
X0052800Y0253300D01*
X0052640Y0253302D01*
X0052481Y0253308D01*
X0052322Y0253318D01*
X0052163Y0253332D01*
X0052004Y0253350D01*
X0051846Y0253371D01*
X0051689Y0253397D01*
X0051532Y0253427D01*
X0051376Y0253460D01*
X0051221Y0253498D01*
X0051067Y0253539D01*
X0050914Y0253584D01*
X0050762Y0253633D01*
X0050611Y0253686D01*
X0050462Y0253742D01*
X0050314Y0253803D01*
X0050168Y0253866D01*
X0050023Y0253934D01*
X0049880Y0254005D01*
X0049739Y0254079D01*
X0049600Y0254157D01*
X0049463Y0254239D01*
X0049328Y0254324D01*
X0049195Y0254412D01*
X0049064Y0254504D01*
X0048936Y0254598D01*
X0048810Y0254696D01*
X0048686Y0254797D01*
X0048565Y0254901D01*
X0048447Y0255008D01*
X0048331Y0255118D01*
X0048218Y0255231D01*
X0048108Y0255347D01*
X0048001Y0255465D01*
X0047897Y0255586D01*
X0047796Y0255710D01*
X0047698Y0255836D01*
X0047604Y0255964D01*
X0047512Y0256095D01*
X0047424Y0256228D01*
X0047339Y0256363D01*
X0047257Y0256500D01*
X0047179Y0256639D01*
X0047105Y0256780D01*
X0047034Y0256923D01*
X0046966Y0257068D01*
X0046903Y0257214D01*
X0046842Y0257362D01*
X0046786Y0257511D01*
X0046733Y0257662D01*
X0046684Y0257814D01*
X0046639Y0257967D01*
X0046598Y0258121D01*
X0046560Y0258276D01*
X0046527Y0258432D01*
X0046497Y0258589D01*
X0046471Y0258746D01*
X0046450Y0258904D01*
X0046432Y0259063D01*
X0046418Y0259222D01*
X0046408Y0259381D01*
X0046402Y0259540D01*
X0046400Y0259700D01*
X0046400Y0304700D02*
X0046402Y0304860D01*
X0046408Y0305019D01*
X0046418Y0305178D01*
X0046432Y0305337D01*
X0046450Y0305496D01*
X0046471Y0305654D01*
X0046497Y0305811D01*
X0046527Y0305968D01*
X0046560Y0306124D01*
X0046598Y0306279D01*
X0046639Y0306433D01*
X0046684Y0306586D01*
X0046733Y0306738D01*
X0046786Y0306889D01*
X0046842Y0307038D01*
X0046903Y0307186D01*
X0046966Y0307332D01*
X0047034Y0307477D01*
X0047105Y0307620D01*
X0047179Y0307761D01*
X0047257Y0307900D01*
X0047339Y0308037D01*
X0047424Y0308172D01*
X0047512Y0308305D01*
X0047604Y0308436D01*
X0047698Y0308564D01*
X0047796Y0308690D01*
X0047897Y0308814D01*
X0048001Y0308935D01*
X0048108Y0309053D01*
X0048218Y0309169D01*
X0048331Y0309282D01*
X0048447Y0309392D01*
X0048565Y0309499D01*
X0048686Y0309603D01*
X0048810Y0309704D01*
X0048936Y0309802D01*
X0049064Y0309896D01*
X0049195Y0309988D01*
X0049328Y0310076D01*
X0049463Y0310161D01*
X0049600Y0310243D01*
X0049739Y0310321D01*
X0049880Y0310395D01*
X0050023Y0310466D01*
X0050168Y0310534D01*
X0050314Y0310597D01*
X0050462Y0310658D01*
X0050611Y0310714D01*
X0050762Y0310767D01*
X0050914Y0310816D01*
X0051067Y0310861D01*
X0051221Y0310902D01*
X0051376Y0310940D01*
X0051532Y0310973D01*
X0051689Y0311003D01*
X0051846Y0311029D01*
X0052004Y0311050D01*
X0052163Y0311068D01*
X0052322Y0311082D01*
X0052481Y0311092D01*
X0052640Y0311098D01*
X0052800Y0311100D01*
X0052960Y0311098D01*
X0053119Y0311092D01*
X0053278Y0311082D01*
X0053437Y0311068D01*
X0053596Y0311050D01*
X0053754Y0311029D01*
X0053911Y0311003D01*
X0054068Y0310973D01*
X0054224Y0310940D01*
X0054379Y0310902D01*
X0054533Y0310861D01*
X0054686Y0310816D01*
X0054838Y0310767D01*
X0054989Y0310714D01*
X0055138Y0310658D01*
X0055286Y0310597D01*
X0055432Y0310534D01*
X0055577Y0310466D01*
X0055720Y0310395D01*
X0055861Y0310321D01*
X0056000Y0310243D01*
X0056137Y0310161D01*
X0056272Y0310076D01*
X0056405Y0309988D01*
X0056536Y0309896D01*
X0056664Y0309802D01*
X0056790Y0309704D01*
X0056914Y0309603D01*
X0057035Y0309499D01*
X0057153Y0309392D01*
X0057269Y0309282D01*
X0057382Y0309169D01*
X0057492Y0309053D01*
X0057599Y0308935D01*
X0057703Y0308814D01*
X0057804Y0308690D01*
X0057902Y0308564D01*
X0057996Y0308436D01*
X0058088Y0308305D01*
X0058176Y0308172D01*
X0058261Y0308037D01*
X0058343Y0307900D01*
X0058421Y0307761D01*
X0058495Y0307620D01*
X0058566Y0307477D01*
X0058634Y0307332D01*
X0058697Y0307186D01*
X0058758Y0307038D01*
X0058814Y0306889D01*
X0058867Y0306738D01*
X0058916Y0306586D01*
X0058961Y0306433D01*
X0059002Y0306279D01*
X0059040Y0306124D01*
X0059073Y0305968D01*
X0059103Y0305811D01*
X0059129Y0305654D01*
X0059150Y0305496D01*
X0059168Y0305337D01*
X0059182Y0305178D01*
X0059192Y0305019D01*
X0059198Y0304860D01*
X0059200Y0304700D01*
X0059198Y0304540D01*
X0059192Y0304381D01*
X0059182Y0304222D01*
X0059168Y0304063D01*
X0059150Y0303904D01*
X0059129Y0303746D01*
X0059103Y0303589D01*
X0059073Y0303432D01*
X0059040Y0303276D01*
X0059002Y0303121D01*
X0058961Y0302967D01*
X0058916Y0302814D01*
X0058867Y0302662D01*
X0058814Y0302511D01*
X0058758Y0302362D01*
X0058697Y0302214D01*
X0058634Y0302068D01*
X0058566Y0301923D01*
X0058495Y0301780D01*
X0058421Y0301639D01*
X0058343Y0301500D01*
X0058261Y0301363D01*
X0058176Y0301228D01*
X0058088Y0301095D01*
X0057996Y0300964D01*
X0057902Y0300836D01*
X0057804Y0300710D01*
X0057703Y0300586D01*
X0057599Y0300465D01*
X0057492Y0300347D01*
X0057382Y0300231D01*
X0057269Y0300118D01*
X0057153Y0300008D01*
X0057035Y0299901D01*
X0056914Y0299797D01*
X0056790Y0299696D01*
X0056664Y0299598D01*
X0056536Y0299504D01*
X0056405Y0299412D01*
X0056272Y0299324D01*
X0056137Y0299239D01*
X0056000Y0299157D01*
X0055861Y0299079D01*
X0055720Y0299005D01*
X0055577Y0298934D01*
X0055432Y0298866D01*
X0055286Y0298803D01*
X0055138Y0298742D01*
X0054989Y0298686D01*
X0054838Y0298633D01*
X0054686Y0298584D01*
X0054533Y0298539D01*
X0054379Y0298498D01*
X0054224Y0298460D01*
X0054068Y0298427D01*
X0053911Y0298397D01*
X0053754Y0298371D01*
X0053596Y0298350D01*
X0053437Y0298332D01*
X0053278Y0298318D01*
X0053119Y0298308D01*
X0052960Y0298302D01*
X0052800Y0298300D01*
X0052640Y0298302D01*
X0052481Y0298308D01*
X0052322Y0298318D01*
X0052163Y0298332D01*
X0052004Y0298350D01*
X0051846Y0298371D01*
X0051689Y0298397D01*
X0051532Y0298427D01*
X0051376Y0298460D01*
X0051221Y0298498D01*
X0051067Y0298539D01*
X0050914Y0298584D01*
X0050762Y0298633D01*
X0050611Y0298686D01*
X0050462Y0298742D01*
X0050314Y0298803D01*
X0050168Y0298866D01*
X0050023Y0298934D01*
X0049880Y0299005D01*
X0049739Y0299079D01*
X0049600Y0299157D01*
X0049463Y0299239D01*
X0049328Y0299324D01*
X0049195Y0299412D01*
X0049064Y0299504D01*
X0048936Y0299598D01*
X0048810Y0299696D01*
X0048686Y0299797D01*
X0048565Y0299901D01*
X0048447Y0300008D01*
X0048331Y0300118D01*
X0048218Y0300231D01*
X0048108Y0300347D01*
X0048001Y0300465D01*
X0047897Y0300586D01*
X0047796Y0300710D01*
X0047698Y0300836D01*
X0047604Y0300964D01*
X0047512Y0301095D01*
X0047424Y0301228D01*
X0047339Y0301363D01*
X0047257Y0301500D01*
X0047179Y0301639D01*
X0047105Y0301780D01*
X0047034Y0301923D01*
X0046966Y0302068D01*
X0046903Y0302214D01*
X0046842Y0302362D01*
X0046786Y0302511D01*
X0046733Y0302662D01*
X0046684Y0302814D01*
X0046639Y0302967D01*
X0046598Y0303121D01*
X0046560Y0303276D01*
X0046527Y0303432D01*
X0046497Y0303589D01*
X0046471Y0303746D01*
X0046450Y0303904D01*
X0046432Y0304063D01*
X0046418Y0304222D01*
X0046408Y0304381D01*
X0046402Y0304540D01*
X0046400Y0304700D01*
D11*
X0360527Y0051071D02*
X0360527Y0044933D01*
X0361294Y0045700D02*
X0362061Y0046467D01*
X0362061Y0047235D01*
X0361294Y0048002D01*
X0359759Y0048002D01*
X0358992Y0048769D01*
X0358992Y0049537D01*
X0359759Y0050304D01*
X0361294Y0050304D01*
X0362061Y0049537D01*
X0363596Y0048002D02*
X0366665Y0048002D01*
X0367384Y0048002D02*
X0368918Y0048002D01*
X0367384Y0050304D02*
X0367384Y0045700D01*
X0370453Y0045700D01*
X0371987Y0046467D02*
X0372755Y0045700D01*
X0374289Y0045700D01*
X0375057Y0046467D01*
X0375057Y0047235D01*
X0374289Y0048002D01*
X0372755Y0048002D01*
X0371987Y0048769D01*
X0371987Y0049537D01*
X0372755Y0050304D01*
X0374289Y0050304D01*
X0375057Y0049537D01*
X0376591Y0050304D02*
X0376591Y0045700D01*
X0376591Y0047235D02*
X0378893Y0047235D01*
X0379661Y0048002D01*
X0379661Y0049537D01*
X0378893Y0050304D01*
X0376591Y0050304D01*
X0381195Y0049537D02*
X0381963Y0050304D01*
X0383497Y0050304D01*
X0384265Y0049537D01*
X0384265Y0048769D01*
X0383497Y0048002D01*
X0384265Y0047235D01*
X0384265Y0046467D01*
X0383497Y0045700D01*
X0381963Y0045700D01*
X0381195Y0046467D01*
X0382730Y0048002D02*
X0383497Y0048002D01*
X0385799Y0049537D02*
X0386567Y0050304D01*
X0388101Y0050304D01*
X0388868Y0049537D01*
X0388868Y0048769D01*
X0385799Y0045700D01*
X0388868Y0045700D01*
X0390403Y0044933D02*
X0393472Y0044933D01*
X0395007Y0045700D02*
X0395007Y0050304D01*
X0397309Y0050304D01*
X0398076Y0049537D01*
X0398076Y0048002D01*
X0397309Y0047235D01*
X0395007Y0047235D01*
X0399611Y0048769D02*
X0400378Y0048769D01*
X0400378Y0045700D01*
X0399611Y0045700D02*
X0401146Y0045700D01*
X0402680Y0046467D02*
X0402680Y0048002D01*
X0403448Y0048769D01*
X0405750Y0048769D01*
X0407284Y0048002D02*
X0407284Y0046467D01*
X0408051Y0045700D01*
X0409586Y0045700D01*
X0410353Y0046467D01*
X0410353Y0048002D01*
X0409586Y0048769D01*
X0408051Y0048769D01*
X0407284Y0048002D01*
X0405750Y0045700D02*
X0403448Y0045700D01*
X0402680Y0046467D01*
X0400378Y0050304D02*
X0400378Y0051071D01*
X0411888Y0044933D02*
X0414957Y0044933D01*
X0418027Y0045700D02*
X0419561Y0048769D01*
X0421096Y0048002D02*
X0424165Y0048002D01*
X0423398Y0050304D02*
X0421096Y0048002D01*
X0423398Y0045700D02*
X0423398Y0050304D01*
X0416492Y0048769D02*
X0418027Y0045700D01*
X0370453Y0050304D02*
X0367384Y0050304D01*
X0365898Y0050304D02*
X0365898Y0045700D01*
X0363596Y0048002D02*
X0365898Y0050304D01*
X0361294Y0045700D02*
X0359759Y0045700D01*
X0358992Y0046467D01*
X0357457Y0046467D02*
X0357457Y0050304D01*
X0354388Y0050304D02*
X0354388Y0046467D01*
X0355156Y0045700D01*
X0356690Y0045700D01*
X0357457Y0046467D01*
M02*
